<!-- Created by Apktool M – https://maximoff.su/apktool -->
<svg
	xmlns="http://www.w3.org/2000/svg"
	xmlns:xlink="http://www.w3.org/1999/xlink"
	version="1.1"
	width="24"
	height="24"
	viewBox="0 0 24 24">
	<path
		fill="rgb(0,0,0)"
		fill-opacity="1"
		d="M8,23C7.45,23 6.979,22.804 6.588,22.413C6.196,22.021 6,21.55 6,21V17H8V20C8,20.552 8.448,21 9,21H17C17.552,21 18,20.552 18,20V4C18,3.448 17.552,3 17,3H9C8.448,3 8,3.448 8,4V7H6V3C6,2.45 6.196,1.979 6.588,1.587C6.979,1.196 7.45,1 8,1H18C18.55,1 19.021,1.196 19.413,1.587C19.804,1.979 20,2.45 20,3V21C20,21.55 19.804,22.021 19.413,22.413C19.021,22.804 18.55,23 18,23H8Z" />
	<path
		fill="rgb(0,0,0)"
		fill-opacity="1"
		d="M10,11.4L5.1,16.3C4.917,16.483 4.683,16.575 4.4,16.575C4.117,16.575 3.883,16.483 3.7,16.3C3.517,16.117 3.425,15.883 3.425,15.6C3.425,15.317 3.517,15.083 3.7,14.9L8.6,10H6C5.717,10 5.479,9.904 5.288,9.712C5.096,9.521 5,9.283 5,9C5,8.717 5.096,8.479 5.288,8.288C5.479,8.096 5.717,8 6,8H11C11.283,8 11.521,8.096 11.712,8.288C11.904,8.479 12,8.717 12,9V14C12,14.283 11.904,14.521 11.712,14.712C11.521,14.904 11.283,15 11,15C10.717,15 10.479,14.904 10.288,14.712C10.096,14.521 10,14.283 10,14V11.4Z" />
</svg>