<!-- Created by Apktool M – https://maximoff.su/apktool -->
<svg
	xmlns="http://www.w3.org/2000/svg"
	xmlns:xlink="http://www.w3.org/1999/xlink"
	version="1.1"
	width="360"
	height="180"
	viewBox="0 0 360 180">
	<g>
		<clipPath
			d="M0,0H360V180H0Z" />
		<path
			fill="rgb(207,242,229)"
			fill-opacity="1.0"
			d="M0,0H360V180H0Z" />
		<path
			fill="rgb(168,237,210)"
			fill-opacity="1.0"
			d="M180,124m-109,0a109,109 0,1 1,218 0a109,109 0,1 1,-218 0" />
		<path
			fill="rgb(7,149,95)"
			d="M141.68,37.63H240.77C249.6,37.63 256.77,44.58 256.77,53.16V113.04C264.69,112.65 273.8,115.18 274.75,126.38C275.68,137.29 264.95,142.95 256.77,145.61V150.71C266.15,150.86 278.69,152.48 278.69,165.19C278.69,176.23 265.8,179.32 256.77,180.12V267.63C256.77,276.21 249.6,283.16 240.77,283.16H141.68C132.85,283.16 125.69,276.21 125.69,267.63V53.16C125.69,44.58 132.85,37.63 141.68,37.63Z"
			stroke-opacity="0.4"
			fill-rule="evenodd"
			fill-opacity="0.4" />
		<path
			fill="rgb(152,112,100)"
			fill-opacity="1.0"
			d="M271.38,123.13C270.04,107.38 252.57,108.76 244.94,111.31V175.85L247.41,177.13C254.84,177.13 275.31,175.85 275.31,161.94C275.31,146.19 256.08,147.46 247.41,147.46V143.94C254.63,142.45 272.56,137.1 271.38,123.13Z" />
		<path
			fill="rgb(72,67,89)"
			fill-opacity="1.0"
			d="M231.77,32H132.68C123.85,32 116.69,38.96 116.69,47.54V262C116.69,270.58 123.85,277.54 132.68,277.54H231.77C240.6,277.54 247.76,270.58 247.76,262V47.54C247.76,38.96 240.6,32 231.77,32Z" />
		<path
			fill="rgb(255,255,255)"
			fill-opacity="1.0"
			d="M133.4,37.54L231.05,37.54A11.06,11.06 0,0 1,242.11 48.59L242.11,260.49A11.06,11.06 0,0 1,231.05 271.55L133.4,271.55A11.06,11.06 0,0 1,122.34 260.49L122.34,48.59A11.06,11.06 0,0 1,133.4 37.54z" />
		<path
			fill="rgb(72,67,89)"
			fill-opacity="1.0"
			d="M161,37.54H203.46V39.38C203.46,43.46 200.15,46.77 196.07,46.77H168.38C164.3,46.77 161,43.46 161,39.38V37.54Z" />
		<g>
			<clipPath
				d="M163.94,74.75L202.19,74.75A18,18 0,0 1,220.19 92.75L220.19,131A18,18 0,0 1,202.19 149L163.94,149A18,18 0,0 1,145.94 131L145.94,92.75A18,18 0,0 1,163.94 74.75z" />
			<path
				fill="rgb(7,149,95)"
				fill-opacity="1.0"
				d="M163.94,74.75L202.19,74.75A18,18 0,0 1,220.19 92.75L220.19,131A18,18 0,0 1,202.19 149L163.94,149A18,18 0,0 1,145.94 131L145.94,92.75A18,18 0,0 1,163.94 74.75z" />
			<path
				fill="rgb(16,164,107)"
				fill-opacity="1.0"
				d="M220.19,88.83C217.81,91.2 214.53,92.67 210.91,92.67C203.66,92.67 197.78,86.8 197.78,79.55C197.78,77.86 198.1,76.24 198.69,74.75H220.19V88.83ZM220.19,115.36C216.74,114.34 213.09,113.79 209.31,113.79C189.17,113.79 172.66,129.29 171.03,149H182.61C184.19,135.66 195.54,125.32 209.31,125.32C213.18,125.32 216.86,126.14 220.19,127.61V115.36ZM145.94,126.95C156.15,122.14 163.22,111.75 163.22,99.71C163.22,89.32 157.95,80.15 149.93,74.75H145.94V126.95Z"
				fill-rule="evenodd" />
			<path
				fill="rgb(255,255,255)"
				fill-opacity="1.0"
				d="M171.82,92.01C172.23,91.88 172.48,91.8 172.67,91.76C172.68,91.76 172.69,91.76 172.7,91.76C172.7,91.77 172.7,91.78 172.69,91.79C172.65,91.97 172.58,92.23 172.45,92.64L168.99,103.87C168.84,104.39 168.73,104.72 168.64,104.95C168.63,104.97 168.62,104.99 168.62,105C168.61,104.99 168.6,104.97 168.59,104.96C168.46,104.74 168.3,104.43 168.06,103.94L165.94,99.71L169.67,95.98C170,95.65 170,95.12 169.67,94.79C169.34,94.46 168.8,94.46 168.47,94.79L164.74,98.52L160.51,96.4C160.02,96.15 159.71,96 159.5,95.87C159.48,95.86 159.47,95.85 159.45,95.84C159.46,95.83 159.47,95.83 159.48,95.83C159.49,95.82 159.49,95.82 159.5,95.82C159.73,95.72 160.07,95.62 160.59,95.46L171.82,92.01ZM173.31,90.14C172.95,90 172.59,90.05 172.32,90.11C172.05,90.17 171.72,90.27 171.35,90.38L160.09,93.85L160.05,93.86C159.58,94 159.18,94.13 158.87,94.25C158.58,94.37 158.18,94.56 157.95,94.94C157.66,95.4 157.61,95.97 157.82,96.48C157.99,96.89 158.35,97.14 158.62,97.31C158.9,97.48 159.28,97.67 159.72,97.89L164.13,100.1C164.21,100.14 164.25,100.16 164.28,100.17L164.28,100.17L164.28,100.18C164.3,100.2 164.32,100.24 164.36,100.32L166.56,104.73L166.56,104.73C166.78,105.18 166.97,105.56 167.15,105.84C167.31,106.1 167.56,106.46 167.98,106.64C168.48,106.85 169.05,106.8 169.52,106.51C169.9,106.27 170.09,105.87 170.2,105.59C170.33,105.28 170.45,104.87 170.6,104.4L170.6,104.4L174.08,93.1L174.08,93.1C174.19,92.73 174.29,92.41 174.35,92.14C174.4,91.87 174.45,91.51 174.32,91.14C174.15,90.68 173.78,90.31 173.31,90.14ZM176.74,98.44C176.57,98.44 176.42,98.58 176.42,98.76V112.39C176.42,112.57 176.57,112.71 176.74,112.71H179.07C179.24,112.71 179.39,112.57 179.39,112.39V104.44L182.53,109.92C182.59,110.02 182.7,110.08 182.81,110.08H184.33C184.44,110.08 184.55,110.02 184.61,109.92L187.77,104.4V112.39C187.77,112.57 187.91,112.71 188.09,112.71H190.42C190.59,112.71 190.74,112.57 190.74,112.39V98.76C190.74,98.58 190.59,98.44 190.42,98.44H188.09C187.98,98.44 187.87,98.5 187.81,98.6L183.58,106.29L179.35,98.6C179.29,98.5 179.18,98.44 179.07,98.44H176.74ZM193.47,98.46C192.49,98.46 191.71,99.25 191.71,100.2C191.71,101.16 192.48,101.96 193.47,101.96C194.45,101.96 195.25,101.16 195.25,100.2C195.25,99.25 194.45,98.46 193.47,98.46ZM206.4,100.2C206.4,99.25 207.18,98.46 208.16,98.46C209.14,98.46 209.94,99.25 209.94,100.2C209.94,101.16 209.15,101.96 208.16,101.96C207.18,101.96 206.4,101.16 206.4,100.2ZM201.85,102.57C200.79,102.57 199.79,102.91 199,103.57V103.02C199,102.84 198.86,102.7 198.68,102.7H196.53C196.35,102.7 196.21,102.84 196.21,103.02V112.39C196.21,112.57 196.35,112.71 196.53,112.71H198.68C198.86,112.71 199,112.57 199,112.39V107.68C199,106.82 199.23,106.18 199.59,105.77C199.94,105.37 200.45,105.14 201.1,105.14C201.7,105.14 202.1,105.29 202.36,105.6C202.63,105.92 202.82,106.48 202.82,107.44V112.39C202.82,112.57 202.96,112.71 203.14,112.71H205.29C205.46,112.71 205.61,112.57 205.61,112.39V106.88C205.61,105.42 205.25,104.33 204.57,103.61C203.89,102.88 202.94,102.57 201.85,102.57ZM192.07,103.02C192.07,102.84 192.22,102.7 192.39,102.7H194.54C194.72,102.7 194.87,102.84 194.87,103.02V112.39C194.87,112.57 194.72,112.71 194.54,112.71H192.39C192.22,112.71 192.07,112.57 192.07,112.39V103.02ZM207.09,102.7C206.91,102.7 206.77,102.84 206.77,103.02V112.39C206.77,112.57 206.91,112.71 207.09,112.71H209.24C209.42,112.71 209.56,112.57 209.56,112.39V103.02C209.56,102.84 209.42,102.7 209.24,102.7H207.09ZM160.67,109.9C160.67,109.73 160.81,109.58 160.99,109.58H167.57C169.8,109.58 171.45,110.23 172.54,111.36C173.63,112.49 174.11,114.05 174.11,115.79C174.11,117.84 173.41,119.39 172.17,120.42C170.94,121.45 169.21,121.92 167.21,121.92H164.4V128.08C164.4,128.26 164.26,128.4 164.09,128.4H160.99C160.81,128.4 160.67,128.26 160.67,128.08V109.9ZM164.4,112.99V118.49H166.9C168.12,118.49 168.95,118.19 169.48,117.71C170.01,117.24 170.27,116.57 170.27,115.74C170.27,114.85 169.99,114.18 169.48,113.72C168.97,113.26 168.19,112.99 167.13,112.99H164.4ZM180.22,115.09C176.59,115.09 173.88,117.97 173.88,121.89C173.88,123.89 174.55,125.57 175.7,126.76C176.84,127.94 178.43,128.61 180.24,128.61C181.77,128.61 183.01,128.12 183.94,127.21V128.08C183.94,128.26 184.09,128.4 184.26,128.4H187C187.18,128.4 187.32,128.26 187.32,128.08V115.59C187.32,115.41 187.18,115.27 187,115.27H184.13C183.96,115.27 183.82,115.41 183.82,115.59V116.37C182.87,115.52 181.61,115.09 180.22,115.09ZM177.44,121.91C177.44,120.78 177.81,119.88 178.4,119.27C178.98,118.66 179.79,118.31 180.7,118.31C182.55,118.31 183.94,119.83 183.94,121.91C183.94,123.99 182.47,125.36 180.7,125.36C179.72,125.36 178.91,125 178.35,124.4C177.78,123.8 177.44,122.94 177.44,121.91ZM188.2,115.41C188.26,115.32 188.36,115.27 188.47,115.27H191.54C191.67,115.27 191.79,115.35 191.84,115.47L194.99,123.15L197.93,115.47C197.97,115.35 198.09,115.27 198.23,115.27H201.17C201.27,115.27 201.37,115.32 201.43,115.41C201.49,115.49 201.51,115.61 201.47,115.7L194.61,133.27C194.56,133.39 194.44,133.47 194.31,133.47H191.34C191.23,133.47 191.13,133.42 191.07,133.33C191.01,133.24 191,133.13 191.04,133.04L193.24,127.4L188.18,115.71C188.13,115.62 188.14,115.5 188.2,115.41Z"
				fill-rule="evenodd" />
		</g>
		<path
			fill="rgb(152,112,100)"
			fill-opacity="1.0"
			d="M82.69,185.72C74.36,198.81 83.59,209.21 85.74,211.41C104.29,208.64 139.28,201.55 130.84,195.3C120.28,187.49 134.06,160.36 134.5,135.39C134.85,115.41 120.48,107.97 116.1,109.25C105.55,126.93 91.37,172.06 82.69,185.72Z" />
		<path
			fill="rgb(171,134,132)"
			fill-opacity="1.0"
			d="M117.42,136.59C115.53,139.3 106.27,141.07 101.88,141.62C105.75,131.32 114.04,111.62 115.98,109.65C118.4,107.19 123.14,110.03 124.26,111.83C125.01,113.04 119.79,133.21 117.42,136.59Z" />
		<path
			fill="rgb(168,237,210)"
			fill-opacity="1.0"
			d="M281,23C281,29.63 275.63,35 269,35C262.37,35 257,29.63 257,23C257,16.37 262.37,11 269,11C275.63,11 281,16.37 281,23ZM261.42,23C261.42,27.18 264.82,30.58 269,30.58C273.18,30.58 276.58,27.18 276.58,23C276.58,18.82 273.18,15.42 269,15.42C264.82,15.42 261.42,18.82 261.42,23Z" />
		<path
			fill="rgb(168,237,210)"
			fill-opacity="1.0"
			d="M360,21m-69,0a69,69 0,1 1,138 0a69,69 0,1 1,-138 0" />
		<path
			fill="rgb(168,237,210)"
			fill-opacity="1.0"
			d="M-15,92m-69,0a69,69 0,1 1,138 0a69,69 0,1 1,-138 0" />
		<path
			fill="rgb(168,237,210)"
			fill-opacity="1.0"
			d="M382,189m-69,0a69,69 0,1 1,138 0a69,69 0,1 1,-138 0" />
	</g>
	<path
		fill="rgb(168,237,210)"
		fill-opacity="1.0"
		d="M36.5,12C37.7,16.66 41.34,20.3 46,21.5 41.34,22.7 37.7,26.34 36.5,31 35.3,26.34 31.66,22.7 27,21.5 31.66,20.3 35.3,16.66 36.5,12Z" />
	<path
		fill="rgb(168,237,210)"
		fill-opacity="1.0"
		d="M56.5,145C57.7,149.66 61.34,153.3 66,154.5 61.34,155.7 57.7,159.34 56.5,164 55.3,159.34 51.66,155.7 47,154.5 51.66,153.3 55.3,149.66 56.5,145Z" />
	<path
		fill="rgb(168,237,210)"
		fill-opacity="1.0"
		d="M315.41,97C316.85,102.6 321.22,106.96 326.82,108.41 321.22,109.85 316.85,114.22 315.41,119.82 313.96,114.22 309.6,109.85 304,108.41 309.6,106.96 313.96,102.6 315.41,97Z" />
</svg>