<svg xmlns="http://www.w3.org/2000/svg" xmlns:xlink="http://www.w3.org/1999/xlink" version="1.1" width="32" height="20" viewBox="0 0 32 20">
  <path fill="rgb(255,255,255)" fill-opacity="1.0" d="M3,0L29,0A3,3 0,0 1,32 3L32,17A3,3 0,0 1,29 20L3,20A3,3 0,0 1,0 17L0,3A3,3 0,0 1,3 0z" />
  <g>
    <clipPath d="M2,5h28v10h-28z" />
    <path fill="rgb(228,0,0)" fill-opacity="1.0" d="M4.3,13.125C4.529,13.125 4.795,13.075 5.098,12.979C5.548,12.837 5.906,12.642 6.255,12.45L6.347,12.396C6.731,12.183 7.096,11.943 7.439,11.679C8.165,11.169 8.714,10.481 9.023,9.696C9.138,9.396 9.298,8.804 9.101,8.25C8.956,7.845 8.663,7.496 8.27,7.262C8.224,7.229 7.719,6.875 6.76,6.875C5.888,6.875 4.928,7.167 3.914,7.75L3.882,7.771L3.79,7.825C3.555,7.959 3.331,8.108 3.12,8.271C2.688,8.633 2.202,9.238 2.229,9.754C2.239,9.962 2.353,10.158 2.542,10.283C2.725,10.408 2.955,10.471 3.184,10.462C3.707,10.462 4.277,10.212 4.667,10.004L4.74,9.962L4.942,9.846L5.011,9.804C5.562,9.479 6.136,9.142 6.783,8.946C6.93,8.9 7.081,8.875 7.233,8.871C7.298,8.872 7.362,8.879 7.425,8.892C7.609,8.925 7.77,9.033 7.852,9.183C8.004,9.45 7.967,9.871 7.761,10.258C7.415,10.857 6.931,11.382 6.342,11.796C6.058,12.017 5.745,12.212 5.415,12.379L5.387,12.387C5.25,12.458 5.112,12.521 4.961,12.571L4.938,12.579L4.818,12.621C4.171,12.771 4.566,12.271 4.566,12.271C4.703,12.129 4.85,12 5.006,11.875C5.098,11.804 5.19,11.729 5.277,11.65L5.296,11.633C5.41,11.533 5.566,11.396 5.557,11.2C5.543,10.942 5.245,10.783 4.961,10.775H4.942C4.667,10.775 4.414,10.913 4.244,11.033C4.061,11.163 3.909,11.317 3.781,11.492C3.606,11.729 3.244,12.342 3.597,12.829C3.74,13.025 3.978,13.125 4.3,13.125Z" fill-rule="evenodd" />
    <path fill="rgb(228,0,0)" fill-opacity="1.0" d="M22.514,7.592L21.329,7.762V11.6C21.329,12.462 21.889,12.867 22.835,12.867C23.064,12.867 23.275,12.829 23.275,12.829V12.192L23.106,12.187C22.61,12.171 22.509,11.929 22.509,11.646V9.483H23.275V8.725H22.514V7.592ZM29.826,12.183C29.344,12.154 29.243,11.962 29.243,11.65V7.587L28.086,7.762V11.583C28.086,12.487 28.637,12.875 29.555,12.875C29.757,12.875 30,12.833 30,12.833V12.187H29.826V12.183ZM18.249,9.462V12.837H19.424V9.658C19.58,9.525 19.906,9.408 20.214,9.396C20.503,9.387 20.691,9.437 20.691,9.437L21.013,8.787C20.889,8.729 20.586,8.662 20.237,8.662C19.732,8.662 18.952,8.796 18.249,9.458V9.462ZM24.919,10.254H26.167C26.167,9.95 26.094,9.45 25.58,9.45C25.121,9.45 24.937,9.862 24.919,10.258V10.254ZM27.076,11.833L27.397,12.433C27.397,12.433 27.03,12.671 26.53,12.808C26.273,12.879 25.984,12.917 25.713,12.917C25.208,12.917 24.777,12.792 24.464,12.558C24.205,12.342 24.001,12.077 23.866,11.782C23.732,11.487 23.669,11.169 23.684,10.85C23.693,9.8 24.221,8.683 25.58,8.683C26.796,8.683 27.352,9.35 27.375,10.804V10.904H24.882C24.859,11.342 24.951,11.754 25.157,11.954C25.295,12.092 25.511,12.183 25.828,12.183C26.271,12.181 26.704,12.059 27.072,11.833H27.076ZM14.127,10.846H13.659C13.081,10.846 12.865,11.192 12.856,11.5C12.847,11.875 13.058,12.192 13.521,12.192C13.732,12.198 13.94,12.152 14.123,12.058V10.846H14.127ZM15.298,10.071V12.262C14.768,12.701 14.069,12.933 13.352,12.908C12.351,12.908 11.635,12.242 11.635,11.475C11.653,10.667 12.337,10.15 13.439,10.15H14.127V9.942C14.127,9.579 13.953,9.408 13.531,9.392C13.186,9.379 12.805,9.475 12.443,9.621L12.268,9.696L11.961,9.079L12.099,9.012C12.578,8.781 13.111,8.656 13.655,8.646C14.453,8.646 15.307,9 15.307,10.062L15.298,10.071ZM16.165,12.833H17.317V8.725L16.165,8.892V12.833ZM17.281,7.279C17.419,7.404 17.487,7.571 17.483,7.742C17.483,8.108 17.161,8.396 16.748,8.396C16.335,8.396 16.014,8.104 16.014,7.737C16.014,7.379 16.349,7.083 16.757,7.083C16.959,7.083 17.143,7.154 17.281,7.279Z" fill-rule="evenodd" />
  </g>
</svg>