<!-- Created by Apktool M – https://maximoff.su/apktool -->
<svg
	xmlns="http://www.w3.org/2000/svg"
	xmlns:xlink="http://www.w3.org/1999/xlink"
	version="1.1"
	width="32"
	height="20"
	viewBox="0 0 32 20">
	<path
		fill="rgb(255,255,255)"
		fill-opacity="1.0"
		d="M3,0L29,0A3,3 0,0 1,32 3L32,17A3,3 0,0 1,29 20L3,20A3,3 0,0 1,0 17L0,3A3,3 0,0 1,3 0z" />
	<path
		fill="rgb(28,63,119)"
		fill-opacity="1.0"
		d="M27.691,6.377C28.135,6.157 28.668,6.15 29.127,6.328C29.392,6.433 29.644,6.596 29.809,6.834C29.943,7.038 29.916,7.291 29.913,7.523C29.775,7.377 29.638,7.227 29.468,7.117C29.131,6.885 28.706,6.796 28.301,6.842C27.807,6.879 27.323,7.118 27.027,7.521C27.031,7.323 26.994,7.114 27.079,6.928C27.191,6.666 27.444,6.499 27.691,6.377Z" />
	<path
		fill="rgb(28,63,119)"
		fill-opacity="1.0"
		d="M22.159,6.793C22.387,6.736 22.643,6.881 22.703,7.11C22.791,7.382 22.559,7.691 22.274,7.688C22.027,7.703 21.808,7.477 21.812,7.233C21.808,7.029 21.96,6.839 22.159,6.793Z" />
	<path
		fill="rgb(28,63,119)"
		fill-opacity="1.0"
		d="M19.872,7.233C19.976,7.18 20.096,7.196 20.208,7.194C20.207,7.436 20.206,7.677 20.208,7.919C20.577,7.918 20.946,7.918 21.315,7.919C21.309,8.052 21.325,8.187 21.304,8.32C21.261,8.508 21.064,8.619 20.88,8.622C20.656,8.625 20.432,8.624 20.208,8.622C20.206,9.054 20.207,9.485 20.207,9.916C20.207,10.084 20.252,10.273 20.4,10.372C20.549,10.472 20.739,10.454 20.909,10.444C21.051,10.435 21.187,10.392 21.314,10.331C21.304,10.52 21.35,10.727 21.243,10.897C21.141,11.064 20.938,11.13 20.752,11.149C20.497,11.169 20.232,11.143 19.996,11.039C19.766,10.941 19.586,10.74 19.502,10.506C19.432,10.318 19.411,10.115 19.414,9.915C19.414,9.288 19.414,8.661 19.414,8.035C19.417,7.875 19.435,7.706 19.527,7.571C19.618,7.438 19.726,7.308 19.872,7.233Z" />
	<path
		fill="rgb(28,63,119)"
		fill-opacity="1.0"
		d="M28.402,7.857C28.725,7.837 29.058,7.911 29.329,8.096C29.707,8.353 29.936,8.799 29.987,9.254C30.029,9.671 29.973,10.107 29.772,10.476C29.592,10.814 29.278,11.076 28.912,11.174C28.468,11.295 27.96,11.253 27.578,10.973C27.223,10.721 27.013,10.297 26.956,9.866C26.908,9.452 26.965,9.017 27.155,8.646C27.284,8.393 27.482,8.176 27.729,8.043C27.934,7.927 28.168,7.871 28.402,7.857ZM28.256,8.594C28.099,8.634 27.966,8.749 27.888,8.892C27.762,9.114 27.747,9.379 27.759,9.629C27.771,9.866 27.822,10.115 27.975,10.3C28.142,10.498 28.422,10.55 28.663,10.503C28.851,10.464 29.006,10.319 29.084,10.143C29.187,9.917 29.197,9.661 29.179,9.417C29.158,9.177 29.098,8.921 28.921,8.75C28.748,8.578 28.484,8.545 28.256,8.594Z" />
	<path
		fill="rgb(28,63,119)"
		fill-opacity="1.0"
		d="M24.753,7.967C25.088,7.862 25.449,7.82 25.796,7.884C26.04,7.932 26.292,8.061 26.405,8.294C26.493,8.46 26.458,8.654 26.464,8.833C26.432,8.834 26.399,8.834 26.367,8.834C26.095,8.632 25.748,8.563 25.416,8.56C25.104,8.554 24.779,8.679 24.583,8.929C24.426,9.115 24.363,9.366 24.376,9.607C24.384,9.873 24.451,10.16 24.649,10.351C24.859,10.568 25.18,10.626 25.469,10.613C25.579,10.607 25.73,10.576 25.746,10.444C25.759,10.153 25.755,9.858 25.689,9.573C25.843,9.577 25.998,9.568 26.152,9.578C26.349,9.597 26.538,9.767 26.524,9.977C26.511,10.266 26.568,10.575 26.443,10.847C26.331,11.093 26.069,11.224 25.816,11.274C25.332,11.369 24.807,11.325 24.373,11.077C24.002,10.873 23.716,10.518 23.61,10.106C23.492,9.649 23.542,9.14 23.782,8.73C23.993,8.363 24.354,8.096 24.753,7.967Z" />
	<path
		fill="rgb(28,63,119)"
		fill-opacity="1.0"
		d="M21.895,8.019C22.088,8.025 22.298,7.996 22.471,8.099C22.641,8.191 22.719,8.388 22.719,8.571C22.722,9.005 22.719,9.439 22.72,9.873C22.722,10.014 22.711,10.157 22.736,10.296C22.751,10.384 22.8,10.472 22.885,10.512C23.037,10.591 23.216,10.573 23.383,10.574C23.381,10.744 23.402,10.93 23.304,11.081C23.227,11.199 23.073,11.232 22.939,11.237C22.667,11.247 22.371,11.189 22.17,10.995C21.96,10.796 21.895,10.497 21.895,10.219C21.895,9.486 21.895,8.752 21.895,8.019Z" />
	<path
		fill="rgb(28,63,119)"
		fill-opacity="1.0"
		d="M24.467,11.733C24.707,12.041 24.977,12.332 25.31,12.538C25.712,12.793 26.193,12.914 26.667,12.897C27.294,12.888 27.924,12.665 28.396,12.244C28.569,12.101 28.701,11.917 28.836,11.739C28.84,12 28.865,12.27 28.773,12.52C28.661,12.889 28.364,13.161 28.052,13.368C27.622,13.652 27.106,13.818 26.589,13.795C25.923,13.771 25.26,13.486 24.809,12.988C24.683,12.85 24.575,12.691 24.524,12.508C24.437,12.259 24.459,11.992 24.467,11.733Z" />
	<path
		fill="rgb(229,30,38)"
		fill-opacity="1.0"
		d="M18.64,10.724C18.48,10.724 18.361,10.592 18.361,10.417V6.909L17.641,7.04V10.373C17.641,10.855 18.001,11.25 18.4,11.25H18.8V10.724H18.64Z" />
	<path
		fill="rgb(229,30,38)"
		fill-opacity="1.0"
		d="M9.697,11.086H10.524V7.646L9.697,7.782V11.086Z" />
	<path
		fill="rgb(229,30,38)"
		fill-opacity="1.0"
		d="M11.103,8.334V8.552V11.086H11.881V8.902V8.64C11.881,8.247 12.787,8.334 12.787,8.334L13.09,7.722C11.837,7.373 11.103,8.334 11.103,8.334Z" />
	<path
		fill="rgb(229,30,38)"
		fill-opacity="1.0"
		d="M14.223,10.335V8.406H14.662V7.792H14.223V6.827L13.503,6.915V10.291C13.503,10.774 13.863,11.168 14.262,11.168H14.662V10.642H14.502C14.342,10.642 14.223,10.467 14.223,10.335Z" />
	<path
		fill="rgb(229,30,38)"
		fill-opacity="1.0"
		d="M10.11,6.663C9.885,6.663 9.697,6.868 9.697,7.113C9.697,7.359 9.885,7.564 10.11,7.564C10.336,7.564 10.524,7.359 10.524,7.113C10.524,6.868 10.336,6.663 10.11,6.663Z" />
	<path
		fill="rgb(229,30,38)"
		fill-opacity="1.0"
		d="M16.053,10.559C15.596,10.341 15.634,9.557 15.634,9.557H17.272C17.272,8.599 17.082,7.728 16.244,7.728C15.406,7.728 14.91,8.425 14.91,9.426C14.91,10.384 15.444,11.168 16.282,11.168C16.625,11.168 17.082,11.038 17.31,10.82L17.044,10.384C17.044,10.384 16.51,10.776 16.053,10.559ZM16.129,8.337C16.51,8.337 16.587,8.991 16.587,8.991H16.549H15.634C15.672,8.991 15.748,8.337 16.129,8.337Z" />
	<path
		fill="rgb(229,30,38)"
		fill-opacity="1.0"
		d="M8.084,7.482C8.084,7.482 7.716,7.482 7.393,7.584C7.07,7.635 6.748,7.889 6.748,7.889L7.024,8.499C7.024,8.499 7.347,8.143 7.9,8.143C8.591,8.143 8.499,8.906 8.499,8.906C7.116,8.601 6.425,9.364 6.471,10.177C6.471,10.533 6.517,10.94 6.886,11.194C8.084,12.059 9.283,10.788 9.283,10.788V8.652C9.237,8.041 8.73,7.482 8.084,7.482ZM8.407,10.686C8.407,10.686 7.854,10.991 7.531,10.737C7.163,10.483 7.209,9.872 7.531,9.669C7.854,9.465 8.407,9.618 8.407,9.618V10.686Z" />
	<path
		fill="rgb(229,30,38)"
		fill-opacity="1.0"
		d="M2.655,8.12C1.667,9.083 2.029,9.408 2.258,9.525C2.498,9.642 2.812,9.473 3.197,9.148C3.594,8.823 4.498,8.172 4.714,8.498C4.931,8.81 4.931,9.447 4.016,10.28C3.101,11.112 2.908,10.631 3.366,10.241C3.823,9.863 3.739,9.629 3.522,9.59C3.293,9.551 3.101,9.616 2.908,10.007C2.908,10.007 2.607,10.644 2.992,10.813C3.269,10.93 4.064,10.579 4.654,9.928C5.088,9.46 5.413,8.888 5.28,8.133C5.1,7.158 3.643,7.158 2.655,8.12Z" />
</svg>