<!-- Created by Apktool M – https://maximoff.su/apktool -->
<svg
	xmlns="http://www.w3.org/2000/svg"
	xmlns:xlink="http://www.w3.org/1999/xlink"
	version="1.1"
	width="40"
	height="24"
	viewBox="0 0 40 24">
	<path
		fill="rgb(255,255,255)"
		fill-opacity="1.0"
		d="M3.6,0L36.4,0A3.6,3.6 0,0 1,40 3.6L40,20.4A3.6,3.6 0,0 1,36.4 24L3.6,24A3.6,3.6 0,0 1,0 20.4L0,3.6A3.6,3.6 0,0 1,3.6 0z" />
	<path
		fill="rgb(232,60,56)"
		fill-opacity="1.0"
		d="M9.733,10.43V15.753H8.403V15.125C8.033,15.608 7.473,15.907 6.713,15.907C5.333,15.907 4.203,14.682 4.203,13.096C4.203,11.511 5.343,10.286 6.713,10.286C7.473,10.286 8.023,10.584 8.403,11.068V10.44H9.733V10.43ZM8.393,13.096C8.393,12.201 7.783,11.593 6.953,11.593C6.133,11.593 5.523,12.201 5.523,13.096C5.523,13.992 6.133,14.599 6.953,14.599C7.783,14.589 8.393,13.982 8.393,13.096ZM10.463,8.948C10.463,8.495 10.833,8.093 11.283,8.093C11.743,8.093 12.113,8.484 12.113,8.948C12.113,9.411 11.743,9.792 11.283,9.792C10.833,9.792 10.463,9.411 10.463,8.948ZM10.623,10.43H11.953V15.753H10.623V10.43ZM15.752,10.327V11.861C15.062,11.779 14.182,12.098 14.182,13.21V15.753H12.852V10.43H14.182V11.346C14.442,10.626 15.092,10.327 15.752,10.327ZM18.652,11.748V13.961C18.652,14.538 19.052,14.548 19.822,14.507V15.753C17.952,15.969 17.322,15.403 17.322,13.961V11.748H16.422V10.43H17.322V9.349L18.652,8.937V10.43H19.822V11.748H18.652ZM20.472,8.948C20.472,8.495 20.842,8.093 21.292,8.093C21.751,8.093 22.122,8.484 22.122,8.948C22.122,9.411 21.751,9.792 21.292,9.792C20.852,9.792 20.472,9.411 20.472,8.948ZM20.632,10.43H21.962V15.753H20.632V10.43ZM30.531,12.479V15.763H29.201V12.582C29.201,11.954 28.891,11.573 28.331,11.573C27.741,11.573 27.371,11.974 27.371,12.777V15.773H26.041V12.592C26.041,11.964 25.731,11.583 25.171,11.583C24.601,11.583 24.201,11.985 24.201,12.788V15.783H22.871V10.461H24.201V11.027C24.491,10.584 24.981,10.317 25.641,10.317C26.281,10.317 26.761,10.595 27.051,11.079C27.371,10.595 27.891,10.317 28.591,10.317C29.761,10.276 30.531,11.14 30.531,12.479ZM34.05,14.661C34.57,14.661 34.98,14.435 35.21,14.126L36.29,14.764C35.8,15.485 35.03,15.907 34.03,15.907C32.29,15.907 31.201,14.682 31.201,13.096C31.201,11.511 32.31,10.286 33.93,10.286C35.46,10.286 36.55,11.532 36.55,13.096C36.55,13.302 36.53,13.477 36.5,13.663H32.6C32.77,14.363 33.34,14.661 34.05,14.661ZM35.2,12.592C35.03,11.83 34.48,11.511 33.92,11.511C33.21,11.511 32.72,11.902 32.56,12.592H35.2Z" />
</svg>