<!-- Created by Apktool M – https://maximoff.su/apktool -->
<svg
	xmlns="http://www.w3.org/2000/svg"
	xmlns:xlink="http://www.w3.org/1999/xlink"
	version="1.1"
	width="32"
	height="32"
	viewBox="0 0 32 32">
	<path
		fill="none"
		stroke="rgb(0,0,0)"
		stroke-opacity="1.0"
		d="M11.141,7H24C26.209,7 28,8.791 28,11V21.5C28,23.709 26.209,25.5 24,25.5H11.205C9.832,25.5 8.556,24.796 7.823,23.636L3.693,17.097C3.272,16.43 3.282,15.577 3.72,14.92L7.813,8.781C8.554,7.668 9.803,7 11.141,7Z"
		stroke-width="2" />
	<path
		fill="rgb(0,0,0)"
		fill-opacity="1.0"
		d="M13.517,20.7C13.239,20.7 13,20.6 12.8,20.4C12.622,20.222 12.533,19.994 12.533,19.717C12.533,19.439 12.622,19.2 12.8,19L15.833,16L12.8,13C12.6,12.8 12.5,12.556 12.5,12.267C12.5,11.978 12.6,11.744 12.8,11.567C13,11.389 13.233,11.294 13.5,11.283C13.767,11.272 14,11.367 14.2,11.567L17.233,14.6L20.2,11.6C20.4,11.4 20.639,11.3 20.917,11.3C21.194,11.3 21.433,11.4 21.633,11.6C21.833,11.8 21.933,12.033 21.933,12.3C21.933,12.567 21.833,12.8 21.633,13L18.633,16L21.667,19C21.867,19.2 21.967,19.439 21.967,19.717C21.967,19.994 21.867,20.233 21.667,20.433C21.467,20.633 21.233,20.733 20.967,20.733C20.7,20.733 20.467,20.633 20.267,20.433L17.233,17.4L14.233,20.4C14.033,20.6 13.794,20.7 13.517,20.7Z" />
</svg>