<!-- Created by Apktool M – https://maximoff.su/apktool -->
<svg
	xmlns="http://www.w3.org/2000/svg"
	xmlns:xlink="http://www.w3.org/1999/xlink"
	version="1.1"
	width="32"
	height="20"
	viewBox="0 0 32 20">
	<path
		fill="rgb(255,255,255)"
		fill-opacity="1.0"
		d="M3,0L29,0A3,3 0,0 1,32 3L32,17A3,3 0,0 1,29 20L3,20A3,3 0,0 1,0 17L0,3A3,3 0,0 1,3 0z" />
	<path
		fill="rgb(0,0,0)"
		fill-opacity="1.0"
		d="M12.5,13.5C12.335,13.5 12.196,13.444 12.084,13.332C11.972,13.221 11.917,13.082 11.917,12.917V8.819C11.917,8.654 11.972,8.517 12.084,8.41C12.196,8.304 12.335,8.25 12.5,8.25C12.665,8.25 12.804,8.306 12.916,8.418C13.027,8.53 13.083,8.668 13.083,8.833V12.931C13.083,13.097 13.027,13.233 12.916,13.34C12.804,13.447 12.665,13.5 12.5,13.5ZM16,13.5C15.835,13.5 15.696,13.444 15.584,13.332C15.472,13.221 15.417,13.082 15.417,12.917V8.819C15.417,8.654 15.472,8.517 15.584,8.41C15.696,8.304 15.835,8.25 16,8.25C16.165,8.25 16.304,8.306 16.416,8.418C16.527,8.53 16.583,8.668 16.583,8.833V12.931C16.583,13.097 16.527,13.233 16.416,13.34C16.304,13.447 16.165,13.5 16,13.5ZM10.735,15.25C10.57,15.25 10.434,15.194 10.327,15.082C10.22,14.971 10.167,14.832 10.167,14.667C10.167,14.502 10.222,14.363 10.334,14.251C10.446,14.139 10.585,14.083 10.75,14.083H21.264C21.43,14.083 21.566,14.139 21.673,14.251C21.78,14.363 21.833,14.502 21.833,14.667C21.833,14.832 21.777,14.971 21.666,15.082C21.554,15.194 21.415,15.25 21.25,15.25H10.735ZM19.5,13.5C19.335,13.5 19.196,13.444 19.084,13.332C18.972,13.221 18.917,13.082 18.917,12.917V8.819C18.917,8.654 18.972,8.517 19.084,8.41C19.196,8.304 19.335,8.25 19.5,8.25C19.665,8.25 19.804,8.306 19.916,8.418C20.027,8.53 20.083,8.668 20.083,8.833V12.931C20.083,13.097 20.027,13.233 19.916,13.34C19.804,13.447 19.665,13.5 19.5,13.5ZM16.525,3.846L21.44,6.296C21.566,6.364 21.663,6.459 21.731,6.58C21.799,6.702 21.833,6.835 21.833,6.981C21.833,7.176 21.763,7.339 21.622,7.47C21.481,7.601 21.313,7.667 21.119,7.667H10.896C10.701,7.667 10.531,7.601 10.385,7.47C10.24,7.339 10.167,7.176 10.167,6.981C10.167,6.835 10.198,6.702 10.261,6.58C10.325,6.459 10.424,6.369 10.56,6.311L15.475,3.846C15.64,3.768 15.815,3.729 16,3.729C16.185,3.729 16.36,3.768 16.525,3.846ZM12.762,6.5H19.237L16,4.896L12.762,6.5Z" />
</svg>