<!-- Created by Apktool M – https://maximoff.su/apktool -->
<svg
	xmlns="http://www.w3.org/2000/svg"
	xmlns:xlink="http://www.w3.org/1999/xlink"
	version="1.1"
	width="48.0"
	height="48.0"
	viewBox="0 0 48.0 48.0">
	<g
		transform="translate(24.0 24.0) scale(0.2 0.2)"
		name="icon_null">
		<g
			transform="scale(7.5 7.5)"
			name="check">
			<path
				fill="rgb(0,0,0)"
				name="box_outer_merged"
				d="M 7.0,-9.0 c 0.0,0.0 -14.0,0.0 -14.0,0.0 c -1.1044921875,0.0 -2.0,0.8955078125 -2.0,2.0 c 0.0,0.0 0.0,14.0 0.0,14.0 c 0.0,1.1044921875 0.8955078125,2.0 2.0,2.0 c 0.0,0.0 14.0,0.0 14.0,0.0 c 1.1044921875,0.0 2.0,-0.8955078125 2.0,-2.0 c 0.0,0.0 0.0,-14.0 0.0,-14.0 c 0.0,-1.1044921875 -0.8955078125,-2.0 -2.0,-2.0 c 0.0,0.0 0.0,0.0 0.0,0.0 Z M -2.0,5.00001525879 c 0.0,0.0 -1.4234161377,-1.40159606934 -1.4234161377,-1.40159606934 c 0.0,0.0 1.41409301758,-1.41409301758 1.41409301758,-1.41409301758 c 0.0,0.0 0.00932312011719,-0.0124053955078 0.00932312011719,-0.0124053955078 c 0.0,0.0 0.0234069824219,-0.0235137939453 0.0234069824219,-0.0235137939453 c 0.0,0.0 1.41409301758,1.41409301758 1.41409301758,1.41409301758 c 0.0,0.0 -1.4375,1.43751525879 -1.4375,1.43751525879 Z"
				fill-opacity="0.0" />
		</g>
		<g
			transform="scale(7.5 7.5)"
			name="box_dilate">
			<path
				fill="rgb(0,0,0)"
				fill-opacity="1.0"
				name="box_inner_merged"
				d="M -7.0,-7.0 l 14.0,0.0 c 0.0,0.0 0.0,0.0 0.0,0.0 l 0.0,14.0 c 0.0,0.0 0.0,0.0 0.0,0.0 l -14.0,0.0 c 0.0,0.0 0.0,0.0 0.0,0.0 l 0.0,-14.0 c 0.0,0.0 0.0,0.0 0.0,0.0 Z M 7.0,-9.0 c 0.0,0.0 -14.0,0.0 -14.0,0.0 c -1.1044921875,0.0 -2.0,0.8955078125 -2.0,2.0 c 0.0,0.0 0.0,14.0 0.0,14.0 c 0.0,1.1044921875 0.8955078125,2.0 2.0,2.0 c 0.0,0.0 14.0,0.0 14.0,0.0 c 1.1044921875,0.0 2.0,-0.8955078125 2.0,-2.0 c 0.0,0.0 0.0,-14.0 0.0,-14.0 c 0.0,-1.1044921875 -0.8955078125,-2.0 -2.0,-2.0 c 0.0,0.0 0.0,0.0 0.0,0.0 Z" />
		</g>
	</g>
</svg>