<!-- Created by Apktool M – https://maximoff.su/apktool -->
<svg
	xmlns="http://www.w3.org/2000/svg"
	xmlns:xlink="http://www.w3.org/1999/xlink"
	version="1.1"
	width="48.0"
	height="48.0"
	viewBox="0 0 48.0 48.0">
	<g
		transform="translate(24.0 24.0) scale(0.2 0.2)"
		name="icon_null">
		<g
			transform="scale(7.5 7.5)"
			name="check">
			<path
				fill="rgb(0,0,0)"
				fill-opacity="1.0"
				name="check_path_merged"
				d="M 7.0,-9.0 c 0.0,0.0 -14.0,0.0 -14.0,0.0 c -1.1044921875,0.0 -2.0,0.8955078125 -2.0,2.0 c 0.0,0.0 0.0,14.0 0.0,14.0 c 0.0,1.1044921875 0.8955078125,2.0 2.0,2.0 c 0.0,0.0 14.0,0.0 14.0,0.0 c 1.1044921875,0.0 2.0,-0.8955078125 2.0,-2.0 c 0.0,0.0 0.0,-14.0 0.0,-14.0 c 0.0,-1.1044921875 -0.8955078125,-2.0 -2.0,-2.0 c 0.0,0.0 0.0,0.0 0.0,0.0 Z M -2.0,5.00001525879 c 0.0,0.0 -5.0,-5.00001525879 -5.0,-5.00001525879 c 0.0,0.0 1.41409301758,-1.41409301758 1.41409301758,-1.41409301758 c 0.0,0.0 3.58590698242,3.58601379395 3.58590698242,3.58601379395 c 0.0,0.0 7.58590698242,-7.58601379395 7.58590698242,-7.58601379395 c 0.0,0.0 1.41409301758,1.41409301758 1.41409301758,1.41409301758 c 0.0,0.0 -9.0,9.00001525879 -9.0,9.00001525879 Z" />
		</g>
		<g
			transform="scale(7.5 7.5)"
			name="box_dilate">
			<path
				fill="rgb(0,0,0)"
				name="box_inner_merged"
				d="M 0.0,-1.0 l 0.0,0.0 c 0.5522847498,0.0 1.0,0.4477152502 1.0,1.0 l 0.0,0.0 c 0.0,0.5522847498 -0.4477152502,1.0 -1.0,1.0 l 0.0,0.0 c -0.5522847498,0.0 -1.0,-0.4477152502 -1.0,-1.0 l 0.0,0.0 c 0.0,-0.5522847498 0.4477152502,-1.0 1.0,-1.0 Z M 7.0,-9.0 c 0.0,0.0 -14.0,0.0 -14.0,0.0 c -1.1044921875,0.0 -2.0,0.8955078125 -2.0,2.0 c 0.0,0.0 0.0,14.0 0.0,14.0 c 0.0,1.1044921875 0.8955078125,2.0 2.0,2.0 c 0.0,0.0 14.0,0.0 14.0,0.0 c 1.1044921875,0.0 2.0,-0.8955078125 2.0,-2.0 c 0.0,0.0 0.0,-14.0 0.0,-14.0 c 0.0,-1.1044921875 -0.8955078125,-2.0 -2.0,-2.0 c 0.0,0.0 0.0,0.0 0.0,0.0 Z"
				fill-opacity="0.0" />
		</g>
	</g>
</svg>