<!-- Created by Apktool M – https://maximoff.su/apktool -->
<svg
	xmlns="http://www.w3.org/2000/svg"
	xmlns:xlink="http://www.w3.org/1999/xlink"
	version="1.1"
	width="40"
	height="24"
	viewBox="0 0 40 24">
	<path
		fill="rgb(255,255,255)"
		fill-opacity="1.0"
		d="M3.6,0L36.4,0A3.6,3.6 0,0 1,40 3.6L40,20.4A3.6,3.6 0,0 1,36.4 24L3.6,24A3.6,3.6 0,0 1,0 20.4L0,3.6A3.6,3.6 0,0 1,3.6 0z" />
	<g>
		<clipPath
			d="M11.8,3.6h16.8v16.8h-16.8z" />
		<path
			fill="rgb(28,27,31)"
			fill-opacity="1.0"
			d="M27.2,7.8V16.2C27.2,16.585 27.063,16.914 26.789,17.189C26.514,17.463 26.185,17.6 25.8,17.6H14.6C14.215,17.6 13.885,17.463 13.611,17.189C13.337,16.914 13.2,16.585 13.2,16.2V7.8C13.2,7.415 13.337,7.085 13.611,6.811C13.885,6.537 14.215,6.4 14.6,6.4H25.8C26.185,6.4 26.514,6.537 26.789,6.811C27.063,7.085 27.2,7.415 27.2,7.8ZM14.6,9.2H25.8V7.8H14.6V9.2ZM14.6,12V16.2H25.8V12H14.6Z" />
	</g>
</svg>