<!-- Created by Apktool M – https://maximoff.su/apktool -->
<svg
	xmlns="http://www.w3.org/2000/svg"
	xmlns:xlink="http://www.w3.org/1999/xlink"
	version="1.1"
	width="36"
	height="8"
	viewBox="0 0 36 8">
	<path
		fill="rgb(0,0,0)"
		fill-opacity="1.0"
		d="M8.288,0H0.288V8H8.288V5.209H6.962C6.504,6.227 5.474,6.938 4.295,6.938C2.669,6.938 1.354,5.612 1.354,3.996C1.354,2.381 2.669,1.066 4.295,1.066C5.496,1.066 6.526,1.799 6.984,2.839H8.288V0Z" />
	<path
		fill="rgb(0,0,0)"
		fill-opacity="1.0"
		fill-rule="evenodd"
		d="M13.357,6.938C14.548,6.938 15.566,6.227 16.035,5.209H17.365V8H9.365V0H17.361V4.11H10.427C10.485,5.678 11.778,6.938 13.357,6.938ZM16.141,3.125H10.555C10.907,1.81 12.09,1.066 13.361,1.066C14.632,1.066 15.731,1.762 16.141,3.125Z" />
	<path
		fill="rgb(0,0,0)"
		fill-opacity="1.0"
		fill-rule="evenodd"
		d="M35.713,0H27.712V8H35.713V0ZM34.636,3.996C34.636,5.623 33.332,6.938 31.705,6.938C30.094,6.938 28.778,5.608 28.775,3.996C28.775,2.381 30.079,1.066 31.705,1.066C33.332,1.066 34.636,2.37 34.636,3.996Z" />
	<path
		fill="rgb(0,0,0)"
		fill-opacity="1.0"
		d="M25.386,5.209H26.712V8H18.427V0H19.778V3.996C19.778,5.784 21.108,6.927 22.687,6.927C23.91,6.927 24.987,6.26 25.386,5.209Z" />
</svg>