<!-- Created by Apktool M – https://maximoff.su/apktool -->
<svg
	xmlns="http://www.w3.org/2000/svg"
	xmlns:xlink="http://www.w3.org/1999/xlink"
	version="1.1"
	width="312"
	height="144"
	viewBox="0 0 312 144">
	<g>
		<clipPath
			d="M8,0L304,0A8,8 0,0 1,312 8L312,136A8,8 0,0 1,304 144L8,144A8,8 0,0 1,0 136L0,8A8,8 0,0 1,8 0z" />
		<path
			fill="rgb(136,231,225)"
			d="M8,0L304,0A8,8 0,0 1,312 8L312,136A8,8 0,0 1,304 144L8,144A8,8 0,0 1,0 136L0,8A8,8 0,0 1,8 0z"
			fill-opacity="0.6" />
		<path
			fill="rgb(106,208,201)"
			d="M141.75,186.38C147.38,162.65 151.41,135.76 137.86,115.44C117.93,85.54 77.73,80.98 45.61,81C-1.96,81.03 -40.63,121.41 -50.74,162.91C-55.87,184.03 -44.92,207.25 -25.5,217.13C20.74,240.64 126.6,250.21 141.75,186.38Z"
			fill-opacity="0.2" />
		<path
			fill="rgb(106,208,201)"
			d="M285.28,80.74C288.2,68.42 290.28,54.45 283.27,43.89C272.95,28.36 252.15,25.99 235.52,26C210.9,26.01 190.88,46.99 185.65,68.55C182.99,79.52 188.66,91.58 198.71,96.71C222.65,108.93 277.44,113.9 285.28,80.74Z"
			fill-opacity="0.1" />
		<path
			fill="rgb(255,255,255)"
			fill-opacity="1.0"
			d="M22,55C22,46.16 29.16,39 38,39H132C140.84,39 148,46.16 148,55V83H22V55Z" />
		<path
			fill="rgb(0,147,147)"
			d="M22,55C22,46.16 29.16,39 38,39H132C140.84,39 148,46.16 148,55V83H22V55Z"
			fill-opacity="0.5" />
		<path
			fill="rgb(0,147,147)"
			fill-opacity="1.0"
			d="M58,27L58,27A28,28 0,0 1,86 55L86,55A28,28 0,0 1,58 83L58,83A28,28 0,0 1,30 55L30,55A28,28 0,0 1,58 27z" />
		<path
			fill="rgb(255,255,255)"
			fill-opacity="1.0"
			d="M72.4,41V46.21H62.12V49.82C69.34,50.21 74.76,51.8 74.8,53.7L74.8,57.66C74.76,59.56 69.34,61.15 62.12,61.53V70.4H55.28V61.53C48.06,61.15 42.64,59.56 42.6,57.66L42.6,53.7C42.64,51.8 48.06,50.21 55.28,49.82V46.21H45V41H72.4ZM58.7,58.81C66.41,58.81 72.85,57.47 74.43,55.68C73.09,54.16 68.26,52.97 62.12,52.64V56.42C61.01,56.48 59.87,56.51 58.7,56.51C57.53,56.51 56.39,56.48 55.28,56.42V52.64C49.14,52.97 44.31,54.16 42.97,55.68C44.55,57.47 50.99,58.81 58.7,58.81Z"
			fill-rule="evenodd" />
		<path
			fill="rgb(255,255,255)"
			fill-opacity="1.0"
			d="M30,55L140,55A12,12 0,0 1,152 67L152,103A12,12 0,0 1,140 115L30,115A12,12 0,0 1,18 103L18,67A12,12 0,0 1,30 55z" />
		<path
			fill="none"
			stroke="rgb(255,185,49)"
			stroke-opacity="1.0"
			d="M30,56.5L140,56.5A10.5,10.5 0,0 1,150.5 67L150.5,103A10.5,10.5 0,0 1,140 113.5L30,113.5A10.5,10.5 0,0 1,19.5 103L19.5,67A10.5,10.5 0,0 1,30 56.5z"
			stroke-width="3" />
		<path
			fill="rgb(0,0,0)"
			fill-opacity="1.0"
			d="M42.05,93.22C40.85,93.22 39.76,92.99 38.77,92.54C37.79,92.07 37.01,91.36 36.44,90.43C35.87,89.49 35.58,88.31 35.58,86.88V76.72H38.58V86.88C38.58,87.88 38.85,88.72 39.41,89.39C39.98,90.07 40.86,90.4 42.05,90.4C43.25,90.4 44.14,90.07 44.71,89.39C45.29,88.72 45.57,87.88 45.57,86.88V76.72H48.54V86.88C48.54,88.31 48.26,89.49 47.68,90.43C47.11,91.36 46.33,92.07 45.35,92.54C44.38,92.99 43.28,93.22 42.05,93.22ZM56.59,93.22C55.58,93.22 54.72,93.1 54,92.85C53.28,92.6 52.68,92.27 52.19,91.88C51.72,91.48 51.35,91.06 51.07,90.62C50.79,90.17 50.58,89.74 50.43,89.35C50.3,88.95 50.21,88.63 50.17,88.38C50.12,88.13 50.1,88.01 50.1,88.01H53.14C53.14,88.01 53.15,88.09 53.18,88.27C53.23,88.45 53.31,88.67 53.45,88.95C53.58,89.22 53.77,89.48 54.02,89.74C54.28,90.01 54.63,90.24 55.05,90.43C55.49,90.6 56.04,90.69 56.68,90.69C57.68,90.69 58.43,90.47 58.95,90.03C59.47,89.58 59.74,89.02 59.74,88.36C59.74,87.8 59.54,87.36 59.14,87.04C58.75,86.7 58.16,86.45 57.38,86.29L55.23,85.83C54.39,85.65 53.61,85.39 52.87,85.04C52.16,84.68 51.58,84.21 51.14,83.61C50.7,83 50.48,82.23 50.48,81.3C50.48,80.31 50.72,79.46 51.2,78.74C51.7,78.03 52.38,77.48 53.25,77.09C54.11,76.7 55.13,76.5 56.28,76.5C57.38,76.5 58.29,76.66 59.01,76.98C59.73,77.31 60.3,77.7 60.73,78.17C61.17,78.64 61.49,79.11 61.7,79.58C61.9,80.05 62.03,80.45 62.09,80.77C62.17,81.09 62.2,81.25 62.2,81.25H59.28C59.28,81.25 59.25,81.14 59.19,80.92C59.13,80.69 59,80.42 58.79,80.13C58.59,79.84 58.28,79.58 57.87,79.36C57.46,79.13 56.91,79.01 56.22,79.01C55.24,79.01 54.52,79.23 54.06,79.67C53.62,80.11 53.4,80.58 53.4,81.1C53.4,81.63 53.61,82.04 54.02,82.33C54.43,82.62 54.98,82.85 55.67,83.01L57.98,83.5C58.84,83.69 59.64,83.97 60.35,84.35C61.07,84.74 61.65,85.24 62.07,85.87C62.5,86.49 62.71,87.26 62.71,88.18C62.71,89.12 62.47,89.97 62,90.73C61.54,91.5 60.85,92.11 59.94,92.56C59.03,93 57.91,93.22 56.59,93.22ZM64.24,93V76.72H70.09C71.41,76.72 72.57,76.95 73.55,77.42C74.55,77.88 75.37,78.49 76.03,79.27C76.69,80.05 77.19,80.92 77.51,81.89C77.85,82.86 78.01,83.85 78.01,84.86C78.01,85.87 77.85,86.86 77.51,87.83C77.19,88.8 76.69,89.67 76.03,90.45C75.37,91.23 74.55,91.85 73.55,92.32C72.57,92.77 71.41,93 70.09,93H64.24ZM69.96,79.34H67.23V90.36H69.96C71.11,90.36 72.05,90.1 72.8,89.57C73.55,89.03 74.11,88.34 74.47,87.5C74.84,86.65 75.02,85.76 75.02,84.84C75.02,83.93 74.84,83.06 74.47,82.22C74.11,81.37 73.55,80.68 72.8,80.15C72.05,79.61 71.11,79.34 69.96,79.34ZM82.74,93V79.32H77.73V76.72H90.75V79.32H85.74V93H82.74Z" />
		<path
			fill="rgb(0,147,147)"
			fill-opacity="1.0"
			d="M152,87L120,55H152V87Z" />
		<path
			fill="rgb(64,191,183)"
			d="M221.77,54.06C221.77,41 211.17,30.4 198.1,30.4C185.03,30.4 174.44,41 174.44,54.06C174.44,54.06 174.44,54.06 174.44,54.06H171.06C165.46,54.06 160.91,58.61 160.91,64.21V103.9C160.91,109.5 165.46,114.04 171.06,114.04H275.86C281.46,114.04 286,109.5 286,103.9V64.21C286,58.61 281.46,54.06 275.86,54.06L221.77,54.06Z"
			fill-opacity="0.3"
			fill-rule="evenodd" />
		<g>
			<clipPath
				d="M221.77,54.06C221.77,41 211.17,30.4 198.1,30.4C185.03,30.4 174.44,41 174.44,54.06C174.44,54.06 174.44,54.06 174.44,54.06H171.06C165.46,54.06 160.91,58.61 160.91,64.21V103.9C160.91,109.5 165.46,114.04 171.06,114.04H275.86C281.46,114.04 286,109.5 286,103.9V64.21C286,58.61 281.46,54.06 275.86,54.06L221.77,54.06Z"
				fill-rule="evenodd" />
			<path
				fill="rgb(64,191,183)"
				fill-opacity="1.0"
				d="M221.77,54.06H219.23V56.6L221.77,56.6V54.06ZM174.44,54.06V56.6H176.97V54.06H174.44ZM275.86,54.06V56.6V54.06ZM198.1,32.94C209.77,32.94 219.23,42.4 219.23,54.06H224.3C224.3,39.59 212.57,27.86 198.1,27.86V32.94ZM176.97,54.06C176.97,42.4 186.43,32.94 198.1,32.94V27.86C183.63,27.86 171.9,39.59 171.9,54.06H176.97ZM176.97,54.06C176.97,54.06 176.97,54.06 176.97,54.06V54.06V54.06V54.06C176.97,54.06 176.97,54.06 176.97,54.06C176.97,54.06 176.97,54.06 176.97,54.06C176.97,54.06 176.97,54.06 176.97,54.06C176.97,54.06 176.97,54.06 176.97,54.06C176.97,54.06 176.97,54.06 176.97,54.06H171.9C171.9,54.06 171.9,54.06 171.9,54.06C171.9,54.06 171.9,54.06 171.9,54.06C171.9,54.06 171.9,54.06 171.9,54.06C171.9,54.06 171.9,54.06 171.9,54.06C171.9,54.06 171.9,54.06 171.9,54.06V54.06V54.06V54.06C171.9,54.06 171.9,54.06 171.9,54.06H176.97ZM171.06,56.6H174.44V51.53H171.06V56.6ZM163.45,64.21C163.45,60.01 166.85,56.6 171.06,56.6V51.53C164.05,51.53 158.38,57.21 158.38,64.21H163.45ZM163.45,103.9V64.21H158.38V103.9H163.45ZM171.06,111.51C166.85,111.51 163.45,108.1 163.45,103.9H158.38C158.38,110.9 164.05,116.58 171.06,116.58V111.51ZM275.86,111.51H171.06V116.58H275.86V111.51ZM283.46,103.9C283.46,108.1 280.06,111.51 275.86,111.51V116.58C282.86,116.58 288.54,110.9 288.54,103.9H283.46ZM283.46,64.21V103.9H288.54V64.21H283.46ZM275.86,56.6C280.06,56.6 283.46,60.01 283.46,64.21H288.54C288.54,57.21 282.86,51.53 275.86,51.53V56.6ZM221.77,56.6L275.86,56.6V51.53L221.77,51.53V56.6Z" />
		</g>
		<path
			fill="rgb(255,255,255)"
			fill-opacity="1.0"
			d="M86,40C86,31.16 93.16,24 102,24H196C204.84,24 212,31.16 212,40V68H86V40Z" />
		<path
			fill="rgb(39,117,202)"
			d="M86,40C86,31.16 93.16,24 102,24H196C204.84,24 212,31.16 212,40V68H86V40Z"
			fill-opacity="0.5" />
		<path
			fill="rgb(39,117,202)"
			fill-opacity="1.0"
			d="M122,12L122,12A28,28 0,0 1,150 40L150,40A28,28 0,0 1,122 68L122,68A28,28 0,0 1,94 40L94,40A28,28 0,0 1,122 12z" />
		<path
			fill="rgb(255,255,255)"
			fill-opacity="1.0"
			d="M127.69,22.55C127.13,22.37 126.67,22.7 126.67,23.28V24.7C126.67,25.09 126.96,25.53 127.33,25.66C133.29,27.8 137.56,33.42 137.56,40C137.56,46.58 133.29,52.2 127.33,54.34C126.93,54.49 126.67,54.88 126.67,55.3V56.72C126.67,57.3 127.13,57.63 127.69,57.45C135.21,55.09 140.67,48.17 140.67,40C140.67,31.83 135.21,24.91 127.69,22.55ZM117.33,23.28C117.33,22.7 116.87,22.37 116.31,22.55C108.79,24.91 103.33,31.83 103.33,40C103.33,48.17 108.79,55.09 116.31,57.45C116.87,57.63 117.33,57.3 117.33,56.72V55.3C117.33,54.91 117.04,54.47 116.67,54.34C110.71,52.2 106.44,46.58 106.44,40C106.44,33.42 110.71,27.8 116.67,25.66C117.04,25.53 117.33,25.09 117.33,24.7V23.28ZM122.78,27.79H121.22C120.79,27.79 120.44,28.13 120.44,28.55V30.92C117.36,31.35 115.37,33.36 115.37,35.94C115.37,39.29 117.43,40.59 121.78,41.16C124.73,41.63 125.57,42.26 125.57,43.9C125.57,45.55 124.14,46.65 122.13,46.65C119.42,46.65 118.52,45.48 118.19,43.97C118.11,43.62 117.8,43.36 117.43,43.36H115.66C115.21,43.36 114.86,43.75 114.94,44.18C115.39,46.72 117.05,48.59 120.44,49.04V51.45C120.44,51.87 120.79,52.21 121.22,52.21H122.78C123.21,52.21 123.56,51.87 123.56,51.45V49.04C126.77,48.54 128.82,46.34 128.82,43.63C128.82,40.06 126.61,38.86 122.33,38.29C119.18,37.84 118.57,37.12 118.57,35.67C118.57,34.3 119.64,33.32 121.7,33.32C123.56,33.32 124.64,33.96 125.08,35.43C125.18,35.76 125.47,35.99 125.82,35.99H127.46C127.92,35.99 128.27,35.58 128.18,35.14C127.66,32.82 126.06,31.42 123.56,30.98V28.55C123.56,28.13 123.21,27.79 122.78,27.79Z"
			fill-rule="evenodd" />
		<path
			fill="rgb(255,255,255)"
			fill-opacity="1.0"
			d="M94,40L204,40A12,12 0,0 1,216 52L216,88A12,12 0,0 1,204 100L94,100A12,12 0,0 1,82 88L82,52A12,12 0,0 1,94 40z" />
		<path
			fill="rgb(0,0,0)"
			fill-opacity="1.0"
			d="M106.05,78.22C104.85,78.22 103.76,77.99 102.77,77.54C101.79,77.07 101.01,76.36 100.44,75.43C99.87,74.49 99.58,73.31 99.58,71.88V61.72H102.58V71.88C102.58,72.88 102.86,73.72 103.41,74.39C103.98,75.07 104.86,75.4 106.05,75.4C107.25,75.4 108.14,75.07 108.71,74.39C109.29,73.72 109.57,72.88 109.57,71.88V61.72H112.54V71.88C112.54,73.31 112.26,74.49 111.68,75.43C111.11,76.36 110.33,77.07 109.35,77.54C108.38,77.99 107.28,78.22 106.05,78.22ZM120.59,78.22C119.58,78.22 118.71,78.1 118,77.85C117.28,77.6 116.68,77.27 116.19,76.88C115.72,76.48 115.35,76.06 115.07,75.62C114.79,75.17 114.58,74.74 114.43,74.35C114.3,73.95 114.21,73.63 114.17,73.38C114.13,73.13 114.1,73.01 114.1,73.01H117.14C117.14,73.01 117.15,73.09 117.18,73.27C117.23,73.45 117.32,73.67 117.45,73.95C117.58,74.22 117.77,74.48 118.02,74.74C118.28,75.01 118.63,75.24 119.05,75.43C119.49,75.6 120.04,75.69 120.68,75.69C121.68,75.69 122.43,75.47 122.95,75.03C123.47,74.58 123.74,74.02 123.74,73.36C123.74,72.8 123.54,72.36 123.14,72.04C122.75,71.7 122.16,71.45 121.39,71.29L119.23,70.83C118.39,70.65 117.61,70.39 116.88,70.04C116.16,69.68 115.58,69.21 115.14,68.61C114.7,68 114.48,67.23 114.48,66.3C114.48,65.31 114.72,64.46 115.2,63.74C115.7,63.03 116.38,62.48 117.25,62.09C118.11,61.7 119.13,61.5 120.29,61.5C121.39,61.5 122.29,61.66 123.01,61.98C123.73,62.31 124.3,62.7 124.73,63.17C125.17,63.64 125.49,64.11 125.7,64.58C125.9,65.05 126.03,65.45 126.09,65.77C126.17,66.09 126.2,66.25 126.2,66.25H123.28C123.28,66.25 123.25,66.14 123.19,65.92C123.13,65.69 123,65.42 122.79,65.13C122.59,64.84 122.28,64.58 121.87,64.36C121.46,64.13 120.91,64.01 120.22,64.01C119.24,64.01 118.52,64.23 118.06,64.67C117.62,65.11 117.4,65.58 117.4,66.1C117.4,66.63 117.61,67.04 118.02,67.33C118.43,67.62 118.98,67.85 119.67,68.01L121.98,68.5C122.84,68.69 123.64,68.97 124.36,69.35C125.07,69.74 125.64,70.24 126.07,70.87C126.5,71.49 126.71,72.26 126.71,73.18C126.71,74.12 126.47,74.97 126,75.73C125.54,76.5 124.85,77.11 123.94,77.56C123.03,78 121.91,78.22 120.59,78.22ZM128.24,78V61.72H134.09C135.41,61.72 136.57,61.95 137.55,62.42C138.55,62.88 139.37,63.49 140.03,64.27C140.69,65.05 141.19,65.92 141.51,66.89C141.85,67.86 142.01,68.85 142.01,69.86C142.01,70.87 141.85,71.86 141.51,72.83C141.19,73.8 140.69,74.67 140.03,75.45C139.37,76.23 138.55,76.85 137.55,77.32C136.57,77.77 135.41,78 134.09,78H128.24ZM133.96,64.34H131.23V75.36H133.96C135.11,75.36 136.05,75.1 136.8,74.57C137.55,74.03 138.11,73.34 138.47,72.5C138.84,71.65 139.02,70.76 139.02,69.84C139.02,68.93 138.84,68.06 138.47,67.22C138.11,66.37 137.55,65.68 136.8,65.15C136.05,64.61 135.11,64.34 133.96,64.34ZM150.94,78.22C149.62,78.22 148.46,77.99 147.46,77.52C146.48,77.03 145.65,76.39 144.98,75.6C144.32,74.8 143.82,73.9 143.48,72.92C143.16,71.92 143,70.9 143,69.86C143,68.82 143.16,67.8 143.48,66.8C143.82,65.8 144.32,64.91 144.98,64.12C145.65,63.31 146.48,62.67 147.46,62.2C148.46,61.73 149.62,61.5 150.94,61.5C152.04,61.5 152.99,61.64 153.78,61.92C154.57,62.2 155.23,62.56 155.76,63C156.29,63.44 156.7,63.91 157.01,64.4C157.33,64.9 157.58,65.37 157.74,65.81C157.9,66.25 158,66.61 158.05,66.89C158.1,67.17 158.13,67.31 158.13,67.31H155.16C155.16,67.31 155.13,67.21 155.08,67C155.03,66.79 154.93,66.54 154.77,66.23C154.62,65.91 154.39,65.59 154.09,65.28C153.78,64.98 153.37,64.72 152.85,64.51C152.35,64.31 151.73,64.21 150.98,64.21C150.16,64.21 149.44,64.37 148.83,64.69C148.21,65 147.7,65.42 147.29,65.97C146.88,66.51 146.57,67.12 146.36,67.79C146.17,68.47 146.08,69.16 146.08,69.86C146.08,70.56 146.17,71.25 146.36,71.93C146.57,72.59 146.88,73.19 147.29,73.73C147.7,74.27 148.21,74.71 148.83,75.03C149.44,75.35 150.16,75.51 150.98,75.51C151.73,75.51 152.35,75.41 152.85,75.21C153.37,74.99 153.78,74.72 154.09,74.41C154.39,74.11 154.62,73.8 154.77,73.49C154.93,73.18 155.03,72.93 155.08,72.72C155.13,72.5 155.16,72.39 155.16,72.39H158.13C158.13,72.39 158.1,72.53 158.05,72.81C158,73.09 157.9,73.45 157.74,73.91C157.58,74.35 157.33,74.82 157.01,75.32C156.7,75.8 156.29,76.27 155.76,76.72C155.23,77.16 154.57,77.52 153.78,77.8C152.99,78.08 152.04,78.22 150.94,78.22Z" />
		<path
			fill="rgb(39,117,202)"
			fill-opacity="1.0"
			d="M216,72L184,40H216V72Z" />
		<g>
			<clipPath
				d="M168.26,72.68h83v64h-83z" />
			<clipPath
				d="M239.13,106.86C241.22,85.06 227.59,80.17 221.93,79.69C217.1,79.29 215.9,81.54 215.9,82.71C215.79,82.62 215.66,82.49 215.5,82.34C214.44,81.35 212.22,79.26 207.86,79.69C203.44,80.14 203.34,82.04 203.84,83.21C202.67,82.54 199.32,81.6 195.3,83.21C191.28,84.82 191.95,87.57 192.79,88.74C190.61,86.23 185.05,80.2 180.22,76.18C174.19,71.15 166.66,79.69 172.18,88.74C176.61,95.97 185.42,102.47 189.27,104.82C186.76,106.49 184.04,109.84 187.26,117.88C190.74,126.6 204.44,132.67 219.16,126.91C219.17,128.88 219.74,130.66 220.92,132.04C224.81,136.6 233.88,135.24 241.18,129C248.49,122.77 251.25,114.02 247.35,109.46C245.52,107.32 242.54,106.48 239.13,106.86Z"
				fill-rule="evenodd" />
			<path
				fill="rgb(0,0,0)"
				fill-opacity="1.0"
				d="M221.93,79.69L222.06,78.15L221.93,79.69ZM239.13,106.86L237.59,106.71L237.4,108.6L239.3,108.39L239.13,106.86ZM215.9,82.71L214.93,83.92L217.45,85.93V82.71H215.9ZM215.5,82.34L216.56,81.22V81.22L215.5,82.34ZM207.86,79.69L207.71,78.15L207.86,79.69ZM203.84,83.21L203.07,84.56L207.08,86.85L205.26,82.6L203.84,83.21ZM192.79,88.74L191.62,89.75L194.04,87.84L192.79,88.74ZM180.22,76.18L179.23,77.37L180.22,76.18ZM172.18,88.74L170.86,89.55H170.86L172.18,88.74ZM189.27,104.82L190.13,106.11L192.15,104.76L190.07,103.49L189.27,104.82ZM187.26,117.88L188.7,117.31L187.26,117.88ZM219.16,126.91L220.71,126.9L220.69,124.65L218.59,125.47L219.16,126.91ZM220.92,132.04L222.1,131.04V131.04L220.92,132.04ZM241.18,129L242.19,130.18L241.18,129ZM247.35,109.46L246.18,110.47L247.35,109.46ZM221.8,81.24C224.35,81.45 228.79,82.68 232.32,86.35C235.8,89.97 238.6,96.17 237.59,106.71L240.67,107C241.75,95.75 238.78,88.6 234.55,84.21C230.37,79.86 225.16,78.41 222.06,78.15L221.8,81.24ZM217.45,82.71C217.45,82.62 217.51,82.23 218.01,81.86C218.52,81.49 219.62,81.05 221.8,81.24L222.06,78.15C219.41,77.93 217.49,78.41 216.2,79.36C214.89,80.31 214.35,81.62 214.35,82.71H217.45ZM214.43,83.47C214.57,83.6 214.76,83.78 214.93,83.92L216.87,81.5C216.82,81.46 216.74,81.39 216.56,81.22L214.43,83.47ZM208.01,81.23C211.7,80.87 213.48,82.57 214.43,83.47L216.56,81.22C215.4,80.13 212.75,77.65 207.71,78.15L208.01,81.23ZM205.26,82.6C205.13,82.29 205.19,82.18 205.24,82.12C205.35,81.96 205.94,81.44 208.01,81.23L207.71,78.15C205.36,78.39 203.68,79.04 202.77,80.24C201.79,81.53 202.05,82.96 202.42,83.82L205.26,82.6ZM195.87,84.65C199.43,83.22 202.29,84.11 203.07,84.56L204.61,81.87C203.04,80.97 199.2,79.98 194.72,81.77L195.87,84.65ZM194.04,87.84C193.8,87.5 193.62,86.96 193.73,86.47C193.82,86.08 194.18,85.33 195.87,84.65L194.72,81.77C192.4,82.7 191.08,84.12 190.71,85.8C190.36,87.38 190.93,88.8 191.53,89.64L194.04,87.84ZM179.23,77.37C183.96,81.31 189.46,87.26 191.62,89.75L193.96,87.72C191.76,85.19 186.13,79.09 181.21,74.99L179.23,77.37ZM173.51,87.93C171.03,83.88 171.59,80.17 173.12,78.1C173.89,77.06 174.88,76.44 175.89,76.28C176.87,76.12 178.03,76.36 179.23,77.37L181.21,74.99C179.4,73.48 177.36,72.9 175.4,73.22C173.47,73.53 171.8,74.67 170.63,76.26C168.26,79.47 167.81,84.56 170.86,89.55L173.51,87.93ZM190.07,103.49C186.29,101.19 177.73,94.85 173.51,87.93L170.86,89.55C175.48,97.1 184.54,103.75 188.46,106.14L190.07,103.49ZM188.7,117.31C187.17,113.48 187.14,111 187.6,109.39C188.06,107.81 189.06,106.82 190.13,106.11L188.41,103.53C186.96,104.49 185.35,106.02 184.63,108.53C183.91,111.03 184.13,114.24 185.82,118.46L188.7,117.31ZM218.59,125.47C204.41,131.01 191.77,125 188.7,117.31L185.82,118.46C189.71,128.19 204.46,134.32 219.72,128.35L218.59,125.47ZM222.1,131.04C221.19,129.98 220.71,128.58 220.71,126.9L217.61,126.92C217.62,129.19 218.28,131.34 219.74,133.05L222.1,131.04ZM240.18,127.83C236.71,130.79 232.88,132.54 229.54,133.04C226.18,133.54 223.57,132.76 222.1,131.04L219.74,133.05C222.16,135.88 226.03,136.7 230,136.1C234,135.5 238.35,133.46 242.19,130.18L240.18,127.83ZM246.18,110.47C247.65,112.19 248.01,114.89 246.99,118.14C245.97,121.36 243.64,124.87 240.18,127.83L242.19,130.18C246.02,126.9 248.73,122.92 249.94,119.07C251.15,115.24 250.95,111.29 248.53,108.46L246.18,110.47ZM239.3,108.39C242.39,108.06 244.79,108.84 246.18,110.47L248.53,108.46C246.25,105.79 242.68,104.91 238.96,105.32L239.3,108.39Z" />
		</g>
		<g>
			<clipPath
				d="M221.93,79.69C227.96,80.2 243.03,85.72 238.51,111.35C237.3,115.77 229.63,121.23 225.95,123.41C208.86,134.46 191.28,127.93 187.26,117.88C184.04,109.84 186.76,106.49 189.27,104.82C185.42,102.47 176.61,95.97 172.18,88.74C166.66,79.69 174.19,71.15 180.22,76.18C185.05,80.2 190.61,86.23 192.79,88.74C191.95,87.57 191.28,84.82 195.3,83.21C199.32,81.6 202.67,82.54 203.84,83.21C203.34,82.04 203.44,80.14 207.86,79.69C212.88,79.19 215.06,82.04 215.9,82.71C215.9,81.54 217.1,79.29 221.93,79.69Z" />
			<path
				fill="rgb(255,255,255)"
				fill-opacity="1.0"
				d="M168.16,71.65h83.41v66.33h-83.41z" />
			<path
				fill="rgb(0,82,50)"
				d="M199.82,109.34C197.64,108.67 192.28,106.73 188.26,104.32C185.25,104.32 180.52,104.82 185.75,106.83C190.98,108.84 197.31,109.34 199.82,109.34Z"
				stroke-opacity="0.3"
				fill-opacity="0.3" />
			<path
				fill="rgb(0,82,50)"
				d="M198.52,93.21C196.84,92.21 193.19,89.69 191.99,87.68C191.82,86.01 191.58,83.16 191.99,85.17C192.39,87.18 196.51,91.37 198.52,93.21Z"
				stroke-opacity="0.3"
				fill-opacity="0.3" />
			<path
				fill="rgb(0,82,50)"
				d="M210.26,88.85C208.59,87.84 204.94,85.33 203.73,83.32C203.56,81.64 203.33,78.8 203.73,80.81C204.13,82.82 208.25,87 210.26,88.85Z"
				stroke-opacity="0.3"
				fill-opacity="0.3" />
			<path
				fill="rgb(0,82,50)"
				d="M220.9,86.96C219.23,85.96 217.09,84.73 215.88,82.72C215.71,81.05 215.48,78.2 215.88,80.21C216.28,82.22 218.89,85.12 220.9,86.96Z"
				stroke-opacity="0.3"
				fill-opacity="0.3" />
			<path
				fill="rgb(0,82,50)"
				d="M218.26,134.3a11.85,18.98 49.5,1 0,28.87 -24.66a11.85,18.98 49.5,1 0,-28.87 24.66z"
				stroke-opacity="0.3"
				fill-opacity="0.3" />
		</g>
		<path
			fill="rgb(255,255,255)"
			fill-opacity="1.0"
			d="M220.92,132.04a10.85,17.38 49.5,1 0,26.43 -22.58a10.85,17.38 49.5,1 0,-26.43 22.58z" />
		<path
			fill="rgb(0,82,50)"
			d="M228.12,129.96a6.36,10.57 49.5,1 0,16.07 -13.73a6.36,10.57 49.5,1 0,-16.07 13.73z"
			stroke-opacity="0.3"
			fill-opacity="0.3" />
	</g>
</svg>