<!-- Created by Apktool M – https://maximoff.su/apktool -->
<svg
	xmlns="http://www.w3.org/2000/svg"
	xmlns:xlink="http://www.w3.org/1999/xlink"
	version="1.1"
	width="57"
	height="56"
	viewBox="0 0 57 56">
	<path
		fill="rgb(0,0,0)"
		fill-opacity="1.0"
		d="M22.685,22.481C20.552,22.481 18.726,21.719 17.206,20.197C15.686,18.674 14.926,16.859 14.926,14.752C14.926,12.6 15.688,10.77 17.21,9.262C18.732,7.754 20.548,7 22.655,7C24.807,7 26.637,7.754 28.145,9.262C29.653,10.77 30.407,12.59 30.407,14.722C30.407,16.854 29.653,18.681 28.145,20.201C26.637,21.721 24.817,22.481 22.685,22.481ZM22.665,19.833C24.099,19.833 25.307,19.335 26.288,18.338C27.269,17.341 27.76,16.142 27.76,14.742C27.76,13.308 27.27,12.1 26.289,11.119C25.309,10.138 24.112,9.647 22.698,9.647C21.283,9.647 20.075,10.137 19.075,11.117C18.074,12.097 17.574,13.295 17.574,14.709C17.574,16.124 18.072,17.332 19.069,18.332C20.066,19.333 21.265,19.833 22.665,19.833ZM48.127,49.045L40.79,41.686C39.941,42.317 39.069,42.755 38.176,43C37.284,43.246 36.401,43.368 35.53,43.368C33.066,43.368 30.975,42.51 29.258,40.793C27.541,39.076 26.683,36.991 26.683,34.538C26.683,32.085 27.541,30.004 29.258,28.296C30.975,26.588 33.06,25.734 35.513,25.734C37.966,25.734 40.047,26.594 41.755,28.313C43.463,30.032 44.317,32.12 44.317,34.577C44.317,35.451 44.198,36.335 43.96,37.228C43.723,38.121 43.281,38.992 42.634,39.842L49.993,47.178L48.127,49.045V49.045ZM35.5,40.721C37.253,40.721 38.72,40.131 39.9,38.951C41.08,37.771 41.67,36.304 41.67,34.551C41.67,32.798 41.08,31.332 39.9,30.152C38.72,28.971 37.253,28.381 35.5,28.381C33.747,28.381 32.28,28.971 31.1,30.152C29.92,31.332 29.33,32.798 29.33,34.551C29.33,36.304 29.92,37.771 31.1,38.951C32.28,40.131 33.747,40.721 35.5,40.721V40.721ZM5.167,41.102V36.674C5.167,35.429 5.477,34.365 6.098,33.481C6.719,32.597 7.603,31.854 8.752,31.253C10.475,30.419 12.79,29.61 15.696,28.828C18.602,28.046 21.602,27.782 24.695,28.036C24.459,28.437 24.234,28.861 24.022,29.31C23.81,29.758 23.641,30.197 23.515,30.625C20.437,30.481 17.695,30.789 15.29,31.547C12.885,32.305 11.067,32.996 9.838,33.618C9.234,33.944 8.745,34.369 8.373,34.894C8,35.419 7.814,36.013 7.814,36.674V38.455H23.246C23.554,38.922 23.83,39.377 24.076,39.821C24.321,40.265 24.59,40.693 24.883,41.102L5.167,41.102Z" />
</svg>