<!-- Created by Apktool M – https://maximoff.su/apktool -->
<svg
	xmlns="http://www.w3.org/2000/svg"
	xmlns:xlink="http://www.w3.org/1999/xlink"
	version="1.1"
	width="182.0"
	height="160.0"
	viewBox="0 0 182.0 160.0">
	<path
		fill="rgb(89,202,159)"
		d="M10.9,136.49C1.3,126.04 -0.69,106.92 10.9,78.5C39.56,9.13 121.91,-9.42 119.26,18.22C114.4,68.99 163.31,72.23 163.31,93.6C163.31,121.35 139.67,158.26 86.32,159.14C37.78,159.94 20.5,146.95 10.9,136.49Z"
		stroke-opacity="0.2"
		fill-opacity="0.2" />
	<path
		fill="rgb(249,249,249)"
		fill-opacity="1.0"
		d="M59.31,76.9C62.27,77.65 67.55,74.78 70.4,68.58C73.95,60.82 73.69,51.32 64.55,42.44C56.98,35.08 52.01,36.68 45.38,30.96C38.76,25.25 33.98,15.43 32.36,17.62C27.74,23.84 38.9,40.02 41.44,43.55C38.37,39.55 31.95,34.33 30.99,36.43C27.69,43.62 39.3,54.31 39.3,54.31C37.83,53.19 34.86,51.6 34.72,54.22C34.39,60.1 45.52,65.21 45.52,65.21C42.44,67.14 40.87,72.19 59.31,76.9Z" />
	<path
		fill="rgb(255,255,255)"
		fill-opacity="1.0"
		d="M67.2,73.36C71.97,61.55 66.74,48.14 58.1,45.9C46.03,42.78 33.47,26.4 32.56,17.41C33.51,16.77 35.26,19.06 37.65,22.18C39.77,24.95 42.39,28.38 45.38,30.96C48.41,33.58 51.09,34.66 53.83,35.77C57.09,37.09 60.44,38.44 64.55,42.44C73.69,51.32 73.95,60.82 70.4,68.58C69.52,70.49 68.41,72.09 67.2,73.36Z"
		fill-rule="evenodd" />
	<path
		fill="rgb(7,149,95)"
		fill-opacity="1.0"
		d="M143.12,50.44L96.88,21.64C88.68,29.19 72.81,43.59 67.1,59.64C62.46,72.7 38.23,102.05 26.45,102.96L75.14,133.75C85.14,131.49 112.22,104.21 116.12,90.9C119.24,80.26 132.73,59.62 143.12,50.44Z" />
	<path
		fill="rgb(7,149,95)"
		fill-opacity="1.0"
		d="M143.81,52.53C142.01,54.62 138.19,60.77 138.19,60.77C139.79,58.54 143.23,53.98 144.14,53.52L143.81,52.53Z" />
	<path
		fill="rgb(7,149,95)"
		fill-opacity="1.0"
		d="M144.66,55.1C144.12,55.81 143.01,57.43 142.82,58.19C143.29,57.43 144.4,56.3 144.9,55.83L144.66,55.1Z" />
	<path
		fill="rgb(7,149,95)"
		fill-opacity="1.0"
		d="M91.99,135.15C91.99,135.15 82.67,142.3 77.81,142.8L78.38,144.73C80.97,144.27 89.06,139.06 91.99,135.15Z" />
	<path
		fill="rgb(18,125,84)"
		fill-opacity="1.0"
		d="M143.12,50.44C132.73,59.62 119.24,80.26 116.12,90.9C112.22,104.21 85.14,131.49 75.14,133.75L76.87,139.62C79.67,139.62 82.92,137.02 82.92,137.02C81.53,139.62 78.77,140.62 77.26,140.93L77.81,142.8C82.67,142.3 91.99,135.15 91.99,135.15C89.06,139.06 80.97,144.27 78.38,144.73L79.4,148.2C89.4,145.93 117.07,119.2 120.97,105.9C124.09,95.26 136.57,73.06 146.94,62.05L144.9,55.83C144.4,56.3 143.29,57.43 142.82,58.19C143.01,57.43 144.12,55.81 144.66,55.1L144.14,53.52C143.23,53.98 139.79,58.54 138.19,60.77C138.19,60.77 142.01,54.62 143.81,52.53L143.12,50.44Z"
		fill-rule="evenodd" />
	<path
		fill="rgb(7,149,95)"
		fill-opacity="1.0"
		d="M82.92,137.02C82.92,137.02 79.67,139.62 76.87,139.62L77.26,140.93C78.77,140.62 81.53,139.62 82.92,137.02Z" />
	<path
		fill="rgb(18,125,84)"
		fill-opacity="1.0"
		d="M37,112.82L28.24,107.41L28.88,108.99L37,112.82Z" />
	<path
		fill="rgb(49,113,89)"
		fill-opacity="1.0"
		d="M75.14,133.75L26.45,102.96L28.24,107.41L37,112.82L28.88,108.99L31.65,115.87L79.4,148.2L78.38,144.73L77.81,142.8L77.26,140.93L70.27,135.76L76.87,139.62L75.14,133.75Z"
		fill-rule="evenodd" />
	<path
		fill="rgb(18,125,84)"
		fill-opacity="1.0"
		d="M77.26,140.93L76.87,139.62L70.27,135.76L77.26,140.93Z" />
	<path
		fill="rgb(111,204,169)"
		fill-opacity="1.0"
		d="M127.37,61.18C121.93,68.51 114.29,82.5 112.5,88.77C110.33,96.38 98.78,110.53 87.84,119.87C79.53,113.64 69.79,118.1 65.89,122.32L46.82,108.84C47.85,107.81 49.24,104.85 49.91,102.17C51.05,97.61 49.47,96.06 47.79,94.37C55.01,85.92 64.69,78.13 68.32,67.67C72.58,55.38 79.23,43.96 84.75,39.32C88.94,41.47 97.35,42.47 103.35,33.28L124.96,47.14C123.37,51.1 121.1,57.19 127.37,61.18Z" />
	<path
		fill="rgb(8,127,82)"
		d="M68.84,61.9L56.4,78.1L106.39,107.24L118.03,88.96L68.84,61.9Z"
		stroke-opacity="0.34"
		fill-opacity="0.34" />
	<path
		fill="rgb(8,127,82)"
		d="M118.03,88.96L106.39,107.24L115.62,115.78L125.38,95.94L118.03,88.96Z"
		stroke-opacity="0.34"
		fill-opacity="0.34" />
	<path
		fill="rgb(255,220,195)"
		fill-opacity="1.0"
		d="M67.69,56.33L56.81,76.22L107.75,106.27L119.53,86.02L67.69,56.33Z" />
	<path
		fill="rgb(228,174,111)"
		fill-opacity="1.0"
		d="M119.53,86.02L107.75,106.27L117.17,114.48L127.71,95.28L119.53,86.02Z" />
	<path
		fill="rgb(7,149,95)"
		fill-opacity="1.0"
		d="M101.72,58.1m-9.57,-6.16a11.38,11.38 77.75,1 1,19.14 12.31a11.38,11.38 77.75,1 1,-19.14 -12.31" />
	<path
		fill="rgb(7,149,95)"
		fill-opacity="1.0"
		d="M60.66,97.01a10.48,10.56 90.01,1 0,17.77 11.34a10.48,10.56 90.01,1 0,-17.77 -11.34z" />
	<path
		fill="rgb(249,249,249)"
		fill-opacity="1.0"
		d="M117.24,108.4C114.92,106.41 114.24,100.44 117.67,94.55C121.97,87.18 129.9,81.93 142.42,84.3C152.8,86.27 154.34,91.26 162.83,93.4C171.31,95.53 182.1,93.8 181.24,96.38C178.8,103.74 159.15,103.91 154.8,103.85C159.83,104.07 167.79,106.32 166.63,108.31C162.64,115.15 147.22,111.79 147.22,111.79C148.98,112.35 151.99,113.87 149.93,115.49C145.3,119.14 134.73,112.96 134.73,112.96C134.92,116.6 131.69,120.78 117.24,108.4Z" />
	<path
		fill="rgb(255,255,255)"
		fill-opacity="1.0"
		d="M115.6,99.91C122.52,89.22 136.49,85.79 143.29,91.58C152.79,99.66 173.41,100.52 181.29,96.1C181.27,94.95 178.39,94.83 174.47,94.68C170.98,94.54 166.67,94.36 162.83,93.4C158.95,92.42 156.52,90.85 154.04,89.24C151.09,87.33 148.06,85.37 142.42,84.3C129.9,81.93 121.97,87.18 117.67,94.55C116.61,96.37 115.94,98.19 115.6,99.91Z"
		fill-rule="evenodd" />
	<path
		fill="none"
		stroke="rgb(7,149,95)"
		stroke-opacity="1.0"
		d="M117.99,121.13C120.89,123.09 128.84,125.51 134.96,121.76M114.54,126.71C117.45,128.68 120.04,130.01 124.35,129.2"
		stroke-width="1.5"
		stroke-linecap="round"
		stroke-linejoin="round" />
	<path
		fill="none"
		stroke="rgb(7,149,95)"
		stroke-opacity="1.0"
		d="M42.97,80.22C39.59,79.27 32.67,75.16 32.01,66.35M39.88,84.95C36.51,84 32.2,82.06 30.15,77.07"
		stroke-width="1.5"
		stroke-linecap="round"
		stroke-linejoin="round" />
	<path
		fill="rgb(111,204,169)"
		fill-opacity="1.0"
		d="M100.77,56.87C99.15,58.9 98.57,58.42 98.21,58.14C97.76,57.78 97.84,56.68 98.9,55.37C99.86,54.17 100.62,54.45 100.99,54.72L101.78,53.69L102.59,52.68C101.63,51.91 99.73,51.5 97.94,52.94L96.9,52.11L95.28,54.13L96.29,54.94C95,57.18 95.38,59.2 96.59,60.17C97.65,61.01 99.83,61.9 102.65,58.38C104.27,56.35 104.91,56.86 105.21,57.11C105.6,57.42 105.65,58.49 104.53,59.88C103.04,61.74 102.11,61.25 101.97,61.15L100.35,63.18C101.21,63.87 103.28,64.43 105.52,62.34L106.54,63.15L108.16,61.13L107.14,60.31C108.42,58.07 108.04,56.05 106.83,55.08C105.78,54.24 103.59,53.35 100.77,56.87Z" />
	<path
		fill="rgb(111,204,169)"
		fill-opacity="1.0"
		d="M68.67,101.55C67.16,103.41 66.62,102.98 66.29,102.72C65.87,102.38 65.95,101.37 66.92,100.16C67.81,99.06 68.52,99.31 68.86,99.56L69.6,98.62L70.35,97.69C69.46,96.98 67.7,96.6 66.04,97.93L65.07,97.16L63.57,99.03L64.5,99.77C63.31,101.83 63.66,103.69 64.79,104.58C65.76,105.36 67.79,106.18 70.41,102.93C71.92,101.07 72.51,101.54 72.79,101.76C73.15,102.05 73.19,103.03 72.15,104.32C70.77,106.03 69.91,105.58 69.78,105.49L68.27,107.35C69.07,107.99 71,108.5 73.08,106.58L74.02,107.33L75.52,105.47L74.58,104.71C75.77,102.65 75.42,100.79 74.29,99.9C73.32,99.13 71.29,98.31 68.67,101.55Z" />
	<path
		fill="rgb(7,149,95)"
		fill-opacity="1.0"
		d="M157.74,17.73C158.76,21.71 161.87,24.82 165.85,25.85C161.87,26.87 158.76,29.98 157.74,33.96C156.71,29.98 153.6,26.87 149.62,25.85C153.6,24.82 156.71,21.71 157.74,17.73Z" />
	<path
		fill="rgb(249,249,249)"
		fill-opacity="1.0"
		d="M37.19,97.84C37.81,100.21 39.66,102.06 42.03,102.68C39.66,103.29 37.81,105.14 37.19,107.51C36.58,105.14 34.73,103.29 32.36,102.68C34.73,102.06 36.58,100.21 37.19,97.84Z" />
	<path
		fill="rgb(7,149,95)"
		fill-opacity="1.0"
		d="M123.81,144.01C124.69,147.44 127.37,150.12 130.8,151C127.37,151.89 124.69,154.57 123.81,158C122.92,154.57 120.24,151.89 116.81,151C120.24,150.12 122.92,147.44 123.81,144.01Z" />
	<path
		fill="rgb(7,149,95)"
		fill-opacity="1.0"
		d="M7.78,57.63C8.71,61.26 11.55,64.1 15.18,65.04C11.55,65.98 8.71,68.81 7.78,72.45C6.84,68.81 4,65.98 0.37,65.04C4,64.1 6.84,61.26 7.78,57.63Z" />
	<path
		fill="rgb(7,149,95)"
		fill-opacity="1.0"
		d="M42.03,12.73m-2.5,0a2.5,2.5 0,1 1,5.01 0a2.5,2.5 0,1 1,-5.01 0" />
	<path
		fill="rgb(7,149,95)"
		fill-opacity="1.0"
		d="M137.54,141.99m-2.02,0a2.02,2.02 0,1 1,4.03 0a2.02,2.02 0,1 1,-4.03 0" />
	<path
		fill="rgb(249,249,249)"
		fill-opacity="1.0"
		d="M135.9,50.07m-2.02,0a2.02,2.02 0,1 1,4.04 0a2.02,2.02 0,1 1,-4.04 0" />
</svg>