<!-- Created by Apktool M – https://maximoff.su/apktool -->
<svg
	xmlns="http://www.w3.org/2000/svg"
	xmlns:xlink="http://www.w3.org/1999/xlink"
	version="1.1"
	width="20"
	height="18"
	viewBox="0 0 20 18">
	<path
		fill="rgb(0,0,0)"
		d="M15.659,4C15.772,4.322 15.859,4.656 15.917,5H17C17,4.448 16.552,4 16,4H15.659ZM14.472,2H16C17.657,2 19,3.343 19,5V5.764C19.614,6.313 20,7.111 20,8V15C20,16.657 18.657,18 17,18H3C1.343,18 0,16.657 0,15V8C0,7.111 0.386,6.313 1,5.764V5C1,3.343 2.343,2 4,2H5.528C6.626,0.773 8.223,0 10,0C11.777,0 13.374,0.773 14.472,2ZM4.341,4H4C3.448,4 3,4.448 3,5H4.083C4.141,4.656 4.228,4.322 4.341,4ZM4.083,7H3C2.448,7 2,7.448 2,8V15C2,15.552 2.448,16 3,16H17C17.552,16 18,15.552 18,15V8C18,7.448 17.552,7 17,7H15.917H4.083ZM13.874,5H6.126C6.57,3.275 8.136,2 10,2C11.864,2 13.43,3.275 13.874,5Z"
		fill-opacity="1"
		fill-rule="evenodd" />
</svg>