<!-- Created by Apktool M – https://maximoff.su/apktool -->
<svg
	xmlns="http://www.w3.org/2000/svg"
	xmlns:xlink="http://www.w3.org/1999/xlink"
	version="1.1"
	width="210"
	height="200"
	viewBox="0 0 210 200">
	<g>
		<clipPath
			d="M0,0h210v200h-210z" />
		<path
			fill="rgb(255,255,255)"
			d="M200.36,91.81C216.45,36.71 100.77,-17.61 39.47,16.95C-55.05,75.49 46.76,75.56 70.97,165.8C81.61,205.43 126.55,209.52 147.4,183.78C166.21,151.49 189.07,130.48 200.36,91.82V91.81Z"
			stroke-opacity="0.1"
			fill-opacity="0.1" />
		<path
			fill="rgb(255,255,255)"
			d="M168.42,0C169.93,5.85 174.51,10.43 180.37,11.94C174.51,13.44 169.93,18.02 168.42,23.87C166.91,18.02 162.33,13.44 156.48,11.94C162.33,10.43 166.91,5.85 168.42,0Z"
			stroke-opacity="0.1"
			fill-opacity="0.1" />
		<path
			fill="rgb(255,255,255)"
			d="M59.38,169.01C60.5,173.36 63.91,176.75 68.25,177.88C63.91,178.99 60.51,182.39 59.38,186.74C58.27,182.39 54.86,179 50.51,177.88C54.86,176.76 58.26,173.36 59.38,169.01Z"
			stroke-opacity="0.1"
			fill-opacity="0.1" />
		<path
			fill="none"
			stroke="rgb(255,255,255)"
			d="M193.75,43.92H29.35C21.96,43.92 15.97,49.91 15.97,57.29V135.59C15.97,142.98 21.96,148.96 29.35,148.96H193.75C201.14,148.96 207.13,142.98 207.13,135.59V57.29C207.13,49.91 201.14,43.92 193.75,43.92Z"
			stroke-opacity="0.1"
			stroke-width="6"
			fill-opacity="0.1" />
		<path
			fill="none"
			stroke="rgb(255,255,255)"
			stroke-opacity="1.0"
			d="M192.32,37.24H20.27C14.99,37.24 10.71,41.52 10.71,46.79V132.73C10.71,138 14.99,142.28 20.27,142.28H192.32C197.6,142.28 201.88,138 201.88,132.73V46.79C201.88,41.52 197.6,37.24 192.32,37.24Z"
			stroke-width="4" />
		<path
			fill="none"
			stroke="rgb(255,255,255)"
			d="M187.3,51.56H160.54"
			stroke-opacity="0.4"
			stroke-linejoin="round"
			stroke-width="12"
			fill-opacity="0.4"
			stroke-linecap="round" />
		<path
			fill="none"
			stroke="rgb(255,255,255)"
			d="M53.39,127.48H26.63"
			stroke-opacity="0.4"
			stroke-linejoin="round"
			stroke-width="12"
			fill-opacity="0.4"
			stroke-linecap="round" />
		<path
			fill="none"
			stroke="rgb(255,255,255)"
			stroke-opacity="1.0"
			d="M106.29,57.4C124.19,57.4 138.69,71.88 138.69,89.76C138.69,107.63 124.19,122.12 106.29,122.12C88.4,122.12 73.9,107.63 73.9,89.76C73.9,71.88 88.4,57.4 106.29,57.4Z"
			stroke-width="4" />
		<path
			fill="rgb(255,255,255)"
			fill-opacity="1.0"
			d="M105.47,72.11C106.46,72.11 107.26,72.91 107.26,73.89L107.26,75.68C107.26,75.73 107.26,75.78 107.26,75.82C110.6,76.38 113.43,78.58 114.35,81.66C114.63,82.61 114.09,83.6 113.14,83.89C112.2,84.17 111.2,83.63 110.92,82.68C110.37,80.86 108.32,79.26 105.59,79.26C102.3,79.26 100.11,81.51 100.11,83.74C100.11,84.96 100.76,86.18 101.89,87.04L101.89,91.09C98.82,89.86 96.53,87.15 96.53,83.74C96.53,79.68 99.75,76.62 103.69,75.86C103.69,75.81 103.68,75.75 103.68,75.68L103.68,73.89C103.68,72.91 104.49,72.11 105.47,72.11Z" />
		<path
			fill="rgb(255,255,255)"
			fill-opacity="1.0"
			d="M105.47,82.84C106.46,82.84 107.26,83.64 107.26,84.63L107.26,95.37C107.26,96.36 106.46,97.16 105.47,97.16C104.49,97.16 103.68,96.36 103.68,95.37L103.68,84.63C103.68,83.64 104.49,82.84 105.47,82.84Z" />
		<path
			fill="rgb(255,255,255)"
			fill-opacity="1.0"
			d="M103.69,104.18C100.35,103.62 97.52,101.42 96.6,98.34C96.32,97.39 96.86,96.4 97.8,96.11C98.75,95.83 99.75,96.37 100.03,97.32C100.57,99.14 102.62,100.74 105.36,100.74C108.65,100.74 110.84,98.49 110.84,96.26C110.84,95.04 110.19,93.82 109.05,92.96V88.91C112.13,90.14 114.42,92.85 114.42,96.26C114.42,100.32 111.19,103.38 107.26,104.14C107.26,104.19 107.26,104.25 107.26,104.32L107.26,106.11C107.26,107.09 106.46,107.89 105.47,107.89C104.49,107.89 103.68,107.09 103.68,106.11L103.69,104.32C103.69,104.27 103.69,104.22 103.69,104.18Z" />
	</g>
</svg>