<!-- Created by Apktool M – https://maximoff.su/apktool -->
<svg
	xmlns="http://www.w3.org/2000/svg"
	xmlns:xlink="http://www.w3.org/1999/xlink"
	version="1.1"
	width="210"
	height="200"
	viewBox="0 0 210 200">
	<g>
		<clipPath
			d="M0,0h210v200h-210z" />
		<path
			fill="rgb(255,255,255)"
			d="M168.42,0C169.93,5.85 174.51,10.43 180.37,11.94C174.51,13.44 169.93,18.02 168.42,23.87C166.91,18.02 162.33,13.44 156.48,11.94C162.33,10.43 166.91,5.85 168.42,0Z"
			stroke-opacity="0.1"
			fill-opacity="0.1" />
		<path
			fill="rgb(255,255,255)"
			d="M59.38,169.01C60.5,173.36 63.91,176.75 68.25,177.88C63.91,178.99 60.51,182.39 59.38,186.74C58.27,182.39 54.86,179 50.51,177.88C54.86,176.76 58.26,173.36 59.38,169.01Z"
			stroke-opacity="0.1"
			fill-opacity="0.1" />
		<path
			fill="none"
			stroke="rgb(255,255,255)"
			d="M193.75,43.92H29.35C21.96,43.92 15.97,49.91 15.97,57.29V135.59C15.97,142.98 21.96,148.96 29.35,148.96H193.75C201.14,148.96 207.13,142.98 207.13,135.59V57.29C207.13,49.91 201.14,43.92 193.75,43.92Z"
			stroke-opacity="0.1"
			stroke-width="6"
			fill-opacity="0.1" />
		<path
			fill="none"
			stroke="rgb(255,255,255)"
			stroke-opacity="1.0"
			d="M192.32,37.24H20.27C14.99,37.24 10.71,41.52 10.71,46.79V132.73C10.71,138 14.99,142.28 20.27,142.28H192.32C197.6,142.28 201.88,138 201.88,132.73V46.79C201.88,41.52 197.6,37.24 192.32,37.24Z"
			stroke-width="4" />
		<path
			fill="none"
			stroke="rgb(255,255,255)"
			d="M187.3,51.56H160.54"
			stroke-opacity="0.4"
			stroke-linejoin="round"
			stroke-width="12"
			fill-opacity="0.4"
			stroke-linecap="round" />
		<path
			fill="none"
			stroke="rgb(255,255,255)"
			d="M53.39,127.48H26.63"
			stroke-opacity="0.4"
			stroke-linejoin="round"
			stroke-width="12"
			fill-opacity="0.4"
			stroke-linecap="round" />
		<path
			fill="rgb(255,255,255)"
			fill-opacity="1.0"
			d="M106.5,55L106.5,55A34.5,34.5 0,0 1,141 89.5L141,89.5A34.5,34.5 0,0 1,106.5 124L106.5,124A34.5,34.5 0,0 1,72 89.5L72,89.5A34.5,34.5 0,0 1,106.5 55z" />
		<path
			fill="rgb(7,149,95)"
			fill-opacity="1.0"
			d="M95.16,94.06C94.38,94.83 94.38,96.09 95.16,96.87L105.1,106.81C105.87,107.58 107.13,107.58 107.91,106.81L117.85,96.87C118.62,96.09 118.62,94.83 117.85,94.06C117.07,93.28 115.81,93.28 115.03,94.06L108.49,100.6L108.49,73.6C108.49,72.5 107.6,71.61 106.5,71.61C105.4,71.61 104.51,72.5 104.51,73.6L104.51,100.6L97.97,94.06C97.19,93.28 95.93,93.28 95.16,94.06Z"
			fill-rule="evenodd" />
	</g>
</svg>