<!-- Created by Apktool M – https://maximoff.su/apktool -->
<svg
	xmlns="http://www.w3.org/2000/svg"
	xmlns:xlink="http://www.w3.org/1999/xlink"
	version="1.1"
	width="37"
	height="33"
	viewBox="0 0 37 33">
	<g>
		<clipPath
			d="M0.702,0.956h35.815v32h-35.815z" />
		<path
			fill="rgb(0,102,218)"
			fill-opacity="1.0"
			d="M3.41,28.382L4.989,31.11C5.317,31.684 5.789,32.136 6.343,32.464L11.984,22.7H0.702C0.702,23.336 0.866,23.972 1.194,24.546L3.41,28.382Z" />
		<path
			fill="rgb(0,172,71)"
			fill-opacity="1.0"
			d="M18.61,11.213L12.969,1.449C12.415,1.777 11.943,2.228 11.615,2.802L1.194,20.854C0.872,21.416 0.702,22.052 0.702,22.7H11.984L18.61,11.213Z" />
		<path
			fill="rgb(234,67,53)"
			fill-opacity="1.0"
			d="M30.876,32.464C31.43,32.136 31.902,31.684 32.23,31.11L32.887,29.982L36.025,24.546C36.353,23.972 36.517,23.336 36.517,22.7H25.234L27.635,27.418L30.876,32.464Z" />
		<path
			fill="rgb(0,131,45)"
			fill-opacity="1.0"
			d="M18.61,11.213L24.251,1.449C23.697,1.12 23.061,0.956 22.404,0.956H14.815C14.158,0.956 13.522,1.141 12.969,1.449L18.61,11.213Z" />
		<path
			fill="rgb(38,132,252)"
			fill-opacity="1.0"
			d="M25.235,22.7H11.984L6.343,32.464C6.897,32.792 7.533,32.956 8.189,32.956H29.03C29.686,32.956 30.322,32.772 30.876,32.464L25.235,22.7Z" />
		<path
			fill="rgb(255,186,0)"
			fill-opacity="1.0"
			d="M30.815,11.828L25.604,2.802C25.276,2.228 24.805,1.777 24.251,1.449L18.61,11.213L25.235,22.7H36.497C36.497,22.064 36.333,21.428 36.005,20.854L30.815,11.828Z" />
	</g>
</svg>