<!-- Created by Apktool M – https://maximoff.su/apktool -->
<svg
	xmlns="http://www.w3.org/2000/svg"
	xmlns:xlink="http://www.w3.org/1999/xlink"
	version="1.1"
	width="40"
	height="24"
	viewBox="0 0 40 24">
	<path
		fill="rgb(255,255,255)"
		fill-opacity="1.0"
		d="M3.6,0L36.4,0A3.6,3.6 0,0 1,40 3.6L40,20.4A3.6,3.6 0,0 1,36.4 24L3.6,24A3.6,3.6 0,0 1,0 20.4L0,3.6A3.6,3.6 0,0 1,3.6 0z" />
	<path
		fill="rgb(60,64,67)"
		fill-opacity="1.0"
		d="M19.002,12.717V16.061H17.9V7.802H20.82C21.56,7.802 22.191,8.04 22.707,8.515C23.235,8.991 23.499,9.571 23.499,10.257C23.499,10.959 23.235,11.539 22.707,12.009C22.197,12.479 21.566,12.711 20.82,12.711H19.002V12.717ZM19.002,8.819V11.699H20.843C21.279,11.699 21.646,11.556 21.933,11.274C22.226,10.992 22.375,10.649 22.375,10.262C22.375,9.881 22.226,9.544 21.933,9.262C21.646,8.969 21.285,8.825 20.843,8.825H19.002V8.819Z" />
	<path
		fill="rgb(60,64,67)"
		fill-opacity="1.0"
		d="M26.379,10.224C27.193,10.224 27.836,10.434 28.306,10.854C28.776,11.274 29.011,11.849 29.011,12.578V16.061H27.962V15.276H27.916C27.463,15.923 26.855,16.243 26.098,16.243C25.449,16.243 24.91,16.061 24.474,15.691C24.038,15.32 23.82,14.861 23.82,14.309C23.82,13.723 24.05,13.258 24.509,12.916C24.968,12.567 25.581,12.396 26.344,12.396C26.998,12.396 27.537,12.512 27.956,12.744V12.501C27.956,12.131 27.807,11.821 27.503,11.561C27.199,11.302 26.843,11.174 26.436,11.174C25.822,11.174 25.335,11.423 24.979,11.926L24.01,11.34C24.543,10.594 25.335,10.224 26.379,10.224ZM24.956,14.325C24.956,14.602 25.076,14.834 25.323,15.016C25.564,15.199 25.851,15.293 26.178,15.293C26.642,15.293 27.056,15.127 27.417,14.795C27.778,14.464 27.962,14.076 27.962,13.629C27.618,13.369 27.142,13.236 26.528,13.236C26.08,13.236 25.708,13.341 25.409,13.546C25.105,13.762 24.956,14.021 24.956,14.325Z" />
	<path
		fill="rgb(60,64,67)"
		fill-opacity="1.0"
		d="M35,10.406L31.329,18.543H30.193L31.558,15.696L29.138,10.406H30.336L32.08,14.464H32.103L33.801,10.406H35Z" />
	<path
		fill="rgb(66,133,244)"
		fill-opacity="1.0"
		d="M14.621,12.042C14.621,11.696 14.589,11.365 14.529,11.047H9.913V12.871L12.572,12.871C12.464,13.478 12.117,13.996 11.585,14.341V15.524H13.168C14.092,14.7 14.621,13.482 14.621,12.042Z" />
	<path
		fill="rgb(52,168,83)"
		fill-opacity="1.0"
		d="M11.586,14.341C11.145,14.627 10.578,14.795 9.914,14.795C8.632,14.795 7.544,13.962 7.155,12.84H5.522V14.06C6.331,15.607 7.994,16.668 9.914,16.668C11.241,16.668 12.356,16.248 13.168,15.524L11.586,14.341Z" />
	<path
		fill="rgb(250,187,5)"
		fill-opacity="1.0"
		d="M7.001,11.935C7.001,11.62 7.056,11.315 7.155,11.029V9.808H5.523C5.188,10.448 5,11.17 5,11.935C5,12.7 5.189,13.422 5.523,14.061L7.155,12.841C7.056,12.554 7.001,12.25 7.001,11.935Z" />
	<path
		fill="rgb(233,66,53)"
		fill-opacity="1.0"
		d="M9.914,9.074C10.639,9.074 11.287,9.314 11.8,9.784L13.202,8.434C12.35,7.669 11.24,7.2 9.914,7.2C7.994,7.2 6.331,8.261 5.522,9.808L7.155,11.028C7.544,9.906 8.632,9.074 9.914,9.074Z" />
</svg>