<!-- Created by Apktool M – https://maximoff.su/apktool -->
<svg
	xmlns="http://www.w3.org/2000/svg"
	xmlns:xlink="http://www.w3.org/1999/xlink"
	version="1.1"
	width="24"
	height="24"
	viewBox="0 0 24 24">
	<path
		fill="rgb(255,255,255)"
		fill-opacity="1.0"
		d="M12,0L12,0A12,12 0,0 1,24 12L24,12A12,12 0,0 1,12 24L12,24A12,12 0,0 1,0 12L0,12A12,12 0,0 1,12 0z" />
	<path
		fill="rgb(255,255,255)"
		fill-opacity="1.0"
		d="M12,2L12,2A10,10 0,0 1,22 12L22,12A10,10 0,0 1,12 22L12,22A10,10 0,0 1,2 12L2,12A10,10 0,0 1,12 2z" />
	<path
		fill="rgb(234,67,53)"
		fill-opacity="1.0"
		d="M7.791,10.603C8.374,8.837 10.034,7.568 12,7.568C13.057,7.568 14.011,7.943 14.761,8.557L16.943,6.375C15.613,5.216 13.909,4.5 12,4.5C9.044,4.5 6.498,6.186 5.275,8.656L7.791,10.603Z" />
	<path
		fill="rgb(52,168,83)"
		fill-opacity="1.0"
		d="M14.526,15.758C13.844,16.198 12.979,16.432 12,16.432C10.042,16.432 8.387,15.173 7.798,13.417L5.273,15.334C6.496,17.809 9.041,19.5 12,19.5C13.833,19.5 15.585,18.848 16.896,17.625L14.526,15.758Z" />
	<path
		fill="rgb(74,144,226)"
		fill-opacity="1.0"
		d="M16.896,17.625C18.268,16.345 19.159,14.44 19.159,12C19.159,11.557 19.091,11.08 18.989,10.637H12V13.534H16.023C15.824,14.509 15.291,15.263 14.526,15.758L16.896,17.625Z" />
	<path
		fill="rgb(251,188,5)"
		fill-opacity="1.0"
		d="M7.798,13.417C7.649,12.973 7.568,12.496 7.568,12C7.568,11.511 7.647,11.042 7.791,10.603L5.275,8.656C4.773,9.663 4.5,10.797 4.5,12C4.5,13.2 4.778,14.331 5.273,15.334L7.798,13.417Z" />
</svg>