<!-- Created by Apktool M – https://maximoff.su/apktool -->
<svg
	xmlns="http://www.w3.org/2000/svg"
	xmlns:xlink="http://www.w3.org/1999/xlink"
	version="1.1"
	width="29"
	height="28"
	viewBox="0 0 29 28">
	<path
		fill="rgb(244,245,244)"
		fill-opacity="1.0"
		d="M14.667,22.838C14.511,22.838 14.365,22.813 14.229,22.765C14.093,22.716 13.967,22.633 13.85,22.517L6.15,14.817C5.917,14.583 5.8,14.306 5.8,13.986C5.8,13.665 5.917,13.388 6.15,13.154C6.383,12.921 6.656,12.804 6.967,12.804C7.278,12.804 7.55,12.921 7.783,13.154L13.5,18.871L13.5,5.804C13.5,5.474 13.612,5.201 13.835,4.988C14.059,4.774 14.336,4.667 14.667,4.667C14.997,4.667 15.274,4.779 15.498,5.002C15.722,5.226 15.833,5.503 15.833,5.833L15.833,18.871L21.55,13.154C21.783,12.921 22.056,12.804 22.367,12.804C22.678,12.804 22.95,12.921 23.183,13.154C23.417,13.388 23.533,13.665 23.533,13.986C23.533,14.306 23.417,14.583 23.183,14.817L15.483,22.517C15.367,22.633 15.24,22.716 15.104,22.765C14.968,22.813 14.822,22.838 14.667,22.838Z" />
</svg>