<!-- Created by Apktool M – https://maximoff.su/apktool -->
<svg
	xmlns="http://www.w3.org/2000/svg"
	xmlns:xlink="http://www.w3.org/1999/xlink"
	version="1.1"
	width="18"
	height="18"
	viewBox="0 0 18 18">
	<path
		fill="rgb(0,0,0)"
		fill-opacity="1.0"
		d="M8.475,14.475C8.337,14.337 8.266,14.163 8.259,13.95C8.253,13.738 8.319,13.563 8.456,13.425L12.131,9.75H3.75C3.537,9.75 3.359,9.678 3.216,9.534C3.072,9.391 3,9.213 3,9C3,8.788 3.072,8.609 3.216,8.466C3.359,8.322 3.537,8.25 3.75,8.25H12.131L8.456,4.575C8.319,4.438 8.253,4.263 8.259,4.05C8.266,3.838 8.337,3.663 8.475,3.525C8.613,3.388 8.788,3.319 9,3.319C9.212,3.319 9.387,3.388 9.525,3.525L14.475,8.475C14.55,8.538 14.603,8.616 14.634,8.709C14.666,8.803 14.681,8.9 14.681,9C14.681,9.1 14.666,9.194 14.634,9.281C14.603,9.369 14.55,9.45 14.475,9.525L9.525,14.475C9.387,14.613 9.212,14.681 9,14.681C8.788,14.681 8.613,14.613 8.475,14.475Z" />
</svg>