<!-- Created by Apktool M – https://maximoff.su/apktool -->
<svg
	xmlns="http://www.w3.org/2000/svg"
	xmlns:xlink="http://www.w3.org/1999/xlink"
	version="1.1"
	width="24"
	height="24"
	viewBox="0 0 24 24">
	<path
		fill="rgb(0,0,0)"
		fill-opacity="1.0"
		d="M12,5C10.343,5 9,6.343 9,8C9,9.657 10.343,11 12,11C13.657,11 15,9.657 15,8C15,6.343 13.657,5 12,5ZM7,8C7,5.239 9.239,3 12,3C14.761,3 17,5.239 17,8C17,10.761 14.761,13 12,13C9.239,13 7,10.761 7,8ZM8.312,17.004C7.405,17.608 7,18.334 7,19C7,19.552 6.552,20 6,20C5.448,20 5,19.552 5,19C5,17.457 5.938,16.183 7.203,15.34C8.474,14.492 10.173,14 12,14C13.827,14 15.526,14.492 16.797,15.34C18.062,16.183 19,17.457 19,19C19,19.552 18.552,20 18,20C17.448,20 17,19.552 17,19C17,18.334 16.595,17.608 15.688,17.004C14.788,16.404 13.487,16 12,16C10.513,16 9.212,16.404 8.312,17.004Z" />
</svg>