<!-- Created by Apktool M – https://maximoff.su/apktool -->
<svg
	xmlns="http://www.w3.org/2000/svg"
	xmlns:xlink="http://www.w3.org/1999/xlink"
	version="1.1"
	width="24.0"
	height="24.0"
	viewBox="0 0 24.0 24.0">
	<path
		fill="rgb(0,0,0)"
		fill-opacity="1.0"
		d="M10.875,19.3L4.275,12.7C4.175,12.6 4.104,12.492 4.063,12.375C4.021,12.258 4,12.133 4,12C4,11.867 4.021,11.742 4.063,11.625C4.104,11.508 4.175,11.4 4.275,11.3L10.875,4.7C11.058,4.517 11.288,4.421 11.563,4.412C11.837,4.404 12.075,4.5 12.275,4.7C12.475,4.883 12.579,5.112 12.587,5.387C12.596,5.662 12.5,5.9 12.3,6.1L7.4,11H18.575C18.858,11 19.096,11.096 19.288,11.288C19.479,11.479 19.575,11.717 19.575,12C19.575,12.283 19.479,12.521 19.288,12.712C19.096,12.904 18.858,13 18.575,13H7.4L12.3,17.9C12.483,18.083 12.579,18.317 12.587,18.6C12.596,18.883 12.5,19.117 12.3,19.3C12.117,19.5 11.883,19.6 11.6,19.6C11.317,19.6 11.075,19.5 10.875,19.3Z" />
</svg>