<!-- Created by Apktool M – https://maximoff.su/apktool -->
<svg
	xmlns="http://www.w3.org/2000/svg"
	xmlns:xlink="http://www.w3.org/1999/xlink"
	version="1.1"
	width="18"
	height="18"
	viewBox="0 0 18 18">
	<path
		fill="rgb(0,0,0)"
		fill-opacity="1.0"
		d="M9,3C8.586,3 8.25,3.336 8.25,3.75V8.25L3.75,8.25C3.336,8.25 3,8.586 3,9C3,9.414 3.336,9.75 3.75,9.75H8.25V14.25C8.25,14.664 8.586,15 9,15C9.414,15 9.75,14.664 9.75,14.25V9.75H14.25C14.664,9.75 15,9.414 15,9C15,8.586 14.664,8.25 14.25,8.25H9.75V3.75C9.75,3.336 9.414,3 9,3Z" />
</svg>