<!-- Created by Apktool M – https://maximoff.su/apktool -->
<svg
	xmlns="http://www.w3.org/2000/svg"
	xmlns:xlink="http://www.w3.org/1999/xlink"
	version="1.1"
	width="24"
	height="24"
	viewBox="0 0 24 24">
	<path
		fill="rgb(0,0,0)"
		fill-opacity="1.0"
		d="M12,14.95C11.867,14.95 11.742,14.929 11.625,14.887C11.509,14.846 11.4,14.775 11.3,14.675L6.675,10.05C6.492,9.867 6.404,9.638 6.413,9.363C6.421,9.088 6.517,8.858 6.7,8.675C6.883,8.492 7.117,8.4 7.4,8.4C7.683,8.4 7.917,8.492 8.1,8.675L12,12.575L15.925,8.65C16.108,8.467 16.338,8.379 16.613,8.388C16.888,8.396 17.117,8.492 17.3,8.675C17.483,8.858 17.575,9.092 17.575,9.375C17.575,9.658 17.483,9.892 17.3,10.075L12.7,14.675C12.6,14.775 12.492,14.846 12.375,14.887C12.259,14.929 12.134,14.95 12,14.95Z" />
</svg>