<!-- Created by Apktool M – https://maximoff.su/apktool -->
<svg
	xmlns="http://www.w3.org/2000/svg"
	xmlns:xlink="http://www.w3.org/1999/xlink"
	version="1.1"
	width="29"
	height="29"
	viewBox="0 0 29 29">
	<path
		fill="rgb(244,245,244)"
		fill-opacity="1.0"
		d="m20.924,8.071c0.11,0.11 0.196,0.23 0.258,0.361 0.062,0.131 0.093,0.278 0.093,0.443v10.889c0,0.33 -0.113,0.608 -0.34,0.835 -0.227,0.227 -0.505,0.34 -0.835,0.34 -0.33,0 -0.605,-0.11 -0.825,-0.33 -0.22,-0.22 -0.33,-0.495 -0.33,-0.825V11.7L9.705,20.94C9.471,21.174 9.2,21.287 8.89,21.28 8.581,21.273 8.309,21.153 8.076,20.919 7.842,20.686 7.725,20.411 7.725,20.094c0,-0.316 0.117,-0.591 0.351,-0.825l9.219,-9.219H9.21c-0.33,0 -0.605,-0.11 -0.825,-0.33 -0.22,-0.22 -0.33,-0.495 -0.33,-0.825 0,-0.33 0.113,-0.608 0.34,-0.835C8.622,7.833 8.901,7.72 9.231,7.72h10.889c0.165,0 0.313,0.031 0.444,0.093 0.131,0.062 0.251,0.148 0.361,0.258z" />
</svg>