<!-- Created by Apktool M – https://maximoff.su/apktool -->
<svg
	xmlns="http://www.w3.org/2000/svg"
	xmlns:xlink="http://www.w3.org/1999/xlink"
	version="1.1"
	width="24"
	height="24"
	viewBox="0 0 24 24">
	<path
		fill="rgb(0,0,0)"
		fill-opacity="1.0"
		d="M11.3,19.3C11.117,19.117 11.021,18.883 11.012,18.6C11.004,18.317 11.092,18.083 11.275,17.9L16.175,13H5C4.717,13 4.479,12.904 4.287,12.712C4.096,12.521 4,12.283 4,12C4,11.717 4.096,11.479 4.287,11.288C4.479,11.096 4.717,11 5,11H16.175L11.275,6.1C11.092,5.917 11.004,5.683 11.012,5.4C11.021,5.117 11.117,4.883 11.3,4.7C11.483,4.517 11.717,4.425 12,4.425C12.283,4.425 12.517,4.517 12.7,4.7L19.3,11.3C19.4,11.383 19.471,11.488 19.513,11.613C19.554,11.738 19.575,11.867 19.575,12C19.575,12.133 19.554,12.258 19.513,12.375C19.471,12.492 19.4,12.6 19.3,12.7L12.7,19.3C12.517,19.483 12.283,19.575 12,19.575C11.717,19.575 11.483,19.483 11.3,19.3Z" />
</svg>