<!-- Created by Apktool M – https://maximoff.su/apktool -->
<svg
	xmlns="http://www.w3.org/2000/svg"
	xmlns:xlink="http://www.w3.org/1999/xlink"
	version="1.1"
	width="24"
	height="24"
	viewBox="0 0 24 24">
	<path
		fill="rgb(0,0,0)"
		fill-opacity="1.0"
		d="M12,3C11.542,3 11.101,3.176 10.768,3.49C10.434,3.804 10.233,4.234 10.205,4.691L5.791,6.899C5.497,6.704 5.153,6.6 4.8,6.6C4.323,6.6 3.865,6.79 3.527,7.127C3.19,7.465 3,7.923 3,8.4C3,8.877 3.19,9.335 3.527,9.673C3.865,10.01 4.323,10.2 4.8,10.2C5.152,10.199 5.496,10.095 5.79,9.901L10.205,12.109C10.224,12.405 10.315,12.692 10.471,12.945C10.627,13.197 10.843,13.407 11.1,13.556V17.643C11.069,17.66 11.038,17.679 11.009,17.699L6.595,15.491C6.567,15.034 6.366,14.604 6.032,14.29C5.699,13.976 5.258,13.8 4.8,13.8C4.323,13.8 3.865,13.99 3.527,14.327C3.19,14.665 3,15.123 3,15.6C3,16.077 3.19,16.535 3.527,16.873C3.865,17.21 4.323,17.4 4.8,17.4C5.152,17.399 5.496,17.295 5.79,17.101L10.205,19.309C10.233,19.766 10.434,20.196 10.768,20.51C11.101,20.824 11.542,21 12,21C12.458,21 12.899,20.824 13.233,20.509C13.566,20.195 13.767,19.765 13.795,19.307L18.209,17.101C18.503,17.296 18.847,17.4 19.2,17.4C19.677,17.4 20.135,17.21 20.473,16.873C20.81,16.535 21,16.077 21,15.6C21,15.123 20.81,14.665 20.473,14.327C20.135,13.99 19.677,13.8 19.2,13.8C18.742,13.8 18.301,13.976 17.968,14.29C17.634,14.604 17.433,15.034 17.405,15.491L12.991,17.699C12.962,17.68 12.931,17.662 12.9,17.644V13.556C13.157,13.407 13.373,13.197 13.529,12.945C13.685,12.692 13.776,12.405 13.795,12.109L18.209,9.901C18.503,10.096 18.847,10.2 19.2,10.2C19.677,10.2 20.135,10.01 20.473,9.673C20.81,9.335 21,8.877 21,8.4C21,7.923 20.81,7.465 20.473,7.127C20.135,6.79 19.677,6.6 19.2,6.6C18.742,6.601 18.301,6.776 17.968,7.09C17.634,7.404 17.433,7.834 17.405,8.291L12.99,10.499C12.696,10.305 12.352,10.201 12,10.2C11.647,10.2 11.303,10.304 11.009,10.499L6.813,8.4L11.009,6.301C11.303,6.496 11.647,6.6 12,6.6C12.477,6.6 12.935,6.41 13.273,6.073C13.61,5.735 13.8,5.277 13.8,4.8C13.8,4.323 13.61,3.865 13.273,3.527C12.935,3.19 12.477,3 12,3Z" />
</svg>