<!-- Created by Apktool M – https://maximoff.su/apktool -->
<svg
	xmlns="http://www.w3.org/2000/svg"
	xmlns:xlink="http://www.w3.org/1999/xlink"
	version="1.1"
	width="24"
	height="24"
	viewBox="0 0 24 24">
	<path
		fill="rgb(0,0,0)"
		fill-opacity="1.0"
		fill-rule="evenodd"
		d="M17.203,1.516C18.105,1.526 18.939,1.917 19.544,2.74C20.066,3.453 20.131,4.235 19.785,4.96C19.467,5.626 18.835,6.182 18.096,6.634C17.686,6.884 17.22,7.117 16.713,7.327H20.667C21.403,7.327 22,7.924 22,8.661V13.328C22,14.064 21.403,14.661 20.667,14.661V21.327C20.667,22.064 20.07,22.661 19.333,22.661H4.667C3.93,22.661 3.333,22.064 3.333,21.327L3.333,14.661C2.597,14.661 2,14.064 2,13.328V8.661C2,7.924 2.597,7.327 3.333,7.327H7.287C6.78,7.117 6.314,6.884 5.904,6.634C5.165,6.182 4.533,5.626 4.215,4.96C3.869,4.235 3.934,3.453 4.456,2.74C5.061,1.917 5.895,1.526 6.797,1.516C7.671,1.506 8.559,1.849 9.35,2.389C10.405,3.107 11.371,4.23 12,5.573C12.629,4.23 13.595,3.107 14.65,2.389C15.441,1.849 16.329,1.506 17.203,1.516ZM12.865,7.026C14.67,6.72 16.31,6.163 17.4,5.496C18.047,5.101 18.425,4.713 18.581,4.386C18.709,4.118 18.71,3.858 18.468,3.529C18.117,3.05 17.678,2.855 17.187,2.849C16.667,2.843 16.043,3.053 15.401,3.49C14.322,4.226 13.328,5.513 12.865,7.026ZM9.333,21.327V14.661H4.667V21.327H9.333ZM10.667,21.327H13.333V8.661H10.667V21.327ZM9.333,8.661V13.328L3.333,13.328L3.333,8.661L9.333,8.661ZM14.667,8.661V13.328L20.667,13.328V8.661L14.667,8.661ZM14.667,14.661V21.327L19.333,21.327V14.661H14.667ZM6.6,5.496C7.69,6.163 9.33,6.72 11.135,7.026C10.672,5.513 9.678,4.226 8.599,3.49C7.957,3.053 7.333,2.843 6.813,2.849C6.322,2.855 5.883,3.05 5.532,3.529C5.29,3.858 5.291,4.118 5.419,4.386C5.575,4.713 5.953,5.101 6.6,5.496Z" />
</svg>