<!-- Created by Apktool M – https://maximoff.su/apktool -->
<svg
	xmlns="http://www.w3.org/2000/svg"
	xmlns:xlink="http://www.w3.org/1999/xlink"
	version="1.1"
	width="24"
	height="24"
	viewBox="0 0 24 24">
	<path
		fill="rgb(0,0,0)"
		fill-opacity="1.0"
		d="M6.686,22.361C7.295,22.361 7.844,21.992 8.075,21.428L8.759,19.75H7.139L6.686,20.861H4.487L4.033,19.75H2.413L3.098,21.428C3.328,21.992 3.877,22.361 4.487,22.361H6.686Z" />
	<path
		fill="rgb(0,0,0)"
		fill-opacity="1.0"
		d="M19.513,22.361C20.123,22.361 20.672,21.992 20.902,21.428L21.587,19.75H19.967L19.513,20.861H17.314L16.861,19.75H15.237L15.925,21.428C16.156,21.992 16.705,22.361 17.314,22.361H19.513Z" />
	<path
		fill="rgb(0,0,0)"
		fill-opacity="1.0"
		d="M16.861,19.75L16.858,19.742H19.97L19.967,19.75H16.861Z"
		fill-rule="evenodd" />
	<path
		fill="rgb(0,0,0)"
		fill-opacity="1.0"
		d="M4.033,19.75L4.03,19.742H7.143L7.139,19.75H4.033Z"
		fill-rule="evenodd" />
	<path
		fill="rgb(0,0,0)"
		fill-opacity="1.0"
		d="M8.371,8.863C8.673,9.045 8.771,9.436 8.59,9.738C7.971,10.77 7.971,12.059 8.59,13.091C8.771,13.393 8.673,13.784 8.371,13.965C8.069,14.147 7.677,14.049 7.496,13.747C6.635,12.311 6.635,10.518 7.496,9.082C7.677,8.78 8.069,8.682 8.371,8.863Z"
		fill-rule="evenodd" />
	<path
		fill="rgb(0,0,0)"
		fill-opacity="1.0"
		d="M2.501,18.025V4.371L7.132,4.348L9.566,2.646H2.276C1.447,2.646 0.776,3.318 0.776,4.146V18.25C0.776,19.078 1.447,19.75 2.276,19.75H2.413H4.033L4.03,19.742H7.143L7.139,19.75H8.759H8.948L6.48,18.025H2.501Z" />
	<path
		fill="rgb(0,0,0)"
		fill-opacity="1.0"
		d="M21.499,4.371V18.025H14.405V18.384C14.405,18.898 14.233,19.371 13.943,19.75H15.237H16.861L16.858,19.742H19.97L19.967,19.75H21.587H21.724C22.553,19.75 23.224,19.078 23.224,18.25V4.146C23.224,3.318 22.553,2.646 21.724,2.646H13.508C14.035,3.043 14.382,3.666 14.404,4.371H21.499Z" />
	<path
		fill="rgb(0,0,0)"
		fill-opacity="1.0"
		d="M10.448,2.194C10.295,2.194 10.145,2.242 10.019,2.33L9.566,2.646L7.132,4.348L7.098,4.371L4.245,6.366C3.643,6.787 3.284,7.475 3.284,8.21V14.618C3.284,15.353 3.643,16.042 4.245,16.462L6.48,18.025L8.948,19.75L10.019,20.499C10.145,20.587 10.295,20.634 10.448,20.634H12.155C12.884,20.634 13.532,20.287 13.943,19.75C14.233,19.371 14.405,18.898 14.405,18.384V18.025V16.543H18.517C19.346,16.543 20.017,15.872 20.017,15.043V7.354C20.017,6.525 19.346,5.854 18.517,5.854H14.405L14.404,4.371C14.382,3.666 14.035,3.043 13.508,2.646C13.132,2.363 12.663,2.194 12.155,2.194H10.448ZM11.198,16.543V4.371V3.694H12.155C12.545,3.694 12.865,3.991 12.902,4.371L12.905,16.543V18.384C12.905,18.798 12.569,19.134 12.155,19.134H11.198V16.543ZM5.105,15.233C4.904,15.093 4.784,14.863 4.784,14.618V8.21C4.784,7.965 4.904,7.736 5.105,7.595L9.698,4.384V16.543V18.445L5.105,15.233ZM8.59,9.738C8.771,9.436 8.673,9.045 8.371,8.863C8.069,8.682 7.677,8.78 7.496,9.082C6.635,10.518 6.635,12.311 7.496,13.747C7.677,14.049 8.069,14.147 8.371,13.965C8.673,13.784 8.771,13.393 8.59,13.091C7.971,12.059 7.971,10.77 8.59,9.738ZM18.517,7.354V15.043H14.405V7.354H18.517Z"
		fill-rule="evenodd" />
</svg>