<!-- Created by Apktool M – https://maximoff.su/apktool -->
<svg
	xmlns="http://www.w3.org/2000/svg"
	xmlns:xlink="http://www.w3.org/1999/xlink"
	version="1.1"
	width="24"
	height="24"
	viewBox="0 0 24 24">
	<path
		fill="rgb(0,0,0)"
		fill-opacity="1.0"
		d="M6.7,14.675C6.516,14.492 6.425,14.258 6.425,13.975C6.425,13.692 6.516,13.458 6.7,13.275L11.3,8.675C11.4,8.575 11.508,8.504 11.625,8.462C11.741,8.421 11.866,8.4 12,8.4C12.133,8.4 12.258,8.421 12.375,8.462C12.491,8.504 12.6,8.575 12.7,8.675L17.325,13.3C17.508,13.483 17.6,13.708 17.6,13.975C17.6,14.242 17.5,14.475 17.3,14.675C17.117,14.858 16.883,14.95 16.6,14.95C16.316,14.95 16.083,14.858 15.9,14.675L12,10.775L8.075,14.7C7.891,14.883 7.666,14.975 7.4,14.975C7.133,14.975 6.9,14.875 6.7,14.675Z" />
</svg>