<!-- Created by Apktool M – https://maximoff.su/apktool -->
<svg
	xmlns="http://www.w3.org/2000/svg"
	xmlns:xlink="http://www.w3.org/1999/xlink"
	version="1.1"
	width="24"
	height="24"
	viewBox="0 0 24 24">
	<path
		fill="rgb(0,0,0)"
		fill-opacity="1.0"
		d="M6.311,10.911C5.725,10.325 5.725,9.376 6.311,8.79L13.29,1.81C13.876,1.225 14.826,1.225 15.411,1.81L18.811,5.21C19.397,5.796 19.397,6.746 18.811,7.331L17.085,9.058L21.868,13.841C22.453,14.427 22.453,15.377 21.868,15.962L20.453,17.376C19.868,17.962 18.918,17.962 18.332,17.376L13.549,12.594L11.832,14.311C11.246,14.897 10.296,14.897 9.71,14.311L6.311,10.911ZM7.69,9.851L10.771,12.932L12.086,11.634L8.996,8.544L7.69,9.851ZM17.432,6.271L14.351,3.189L13.044,4.496L16.126,7.577L17.432,6.271ZM14.771,11.372L19.393,15.998L20.489,14.902L15.865,10.278L14.771,11.372ZM11.825,5.716L10.216,7.324L13.297,10.406L14.906,8.797L11.825,5.716Z"
		fill-rule="evenodd" />
	<path
		fill="rgb(0,0,0)"
		fill-opacity="1.0"
		d="M1.5,20.021C1.5,19.193 2.172,18.521 3,18.521H3.375V17.25C3.375,16.421 4.047,15.75 4.875,15.75H11.625C12.453,15.75 13.125,16.421 13.125,17.25V18.521H13.5C14.328,18.521 15,19.193 15,20.021V21C15,21.828 14.328,22.5 13.5,22.5H3C2.172,22.5 1.5,21.828 1.5,21V20.021ZM3.225,20.246V20.775H13.275V20.246H3.225ZM11.4,17.475H5.1V18.521H11.4V17.475Z"
		fill-rule="evenodd" />
</svg>