<!-- Created by Apktool M – https://maximoff.su/apktool -->
<svg
	xmlns="http://www.w3.org/2000/svg"
	xmlns:xlink="http://www.w3.org/1999/xlink"
	version="1.1"
	width="24"
	height="24"
	viewBox="0 0 24 24">
	<path
		fill="rgb(0,0,0)"
		fill-opacity="1.0"
		d="M13.437,12C13.61,12 13.756,11.945 13.875,11.834C13.993,11.724 14.053,11.587 14.053,11.426V11.337C14.564,11.218 14.974,11.026 15.285,10.763C15.595,10.499 15.75,10.104 15.75,9.576C15.75,9.202 15.645,8.854 15.435,8.531C15.225,8.207 14.783,7.935 14.108,7.714C13.569,7.544 13.184,7.4 12.951,7.28C12.718,7.161 12.602,7 12.602,6.796C12.602,6.6 12.675,6.449 12.821,6.343C12.967,6.237 13.186,6.184 13.478,6.184C13.642,6.184 13.784,6.207 13.902,6.254C14.021,6.3 14.121,6.366 14.203,6.451C14.34,6.587 14.477,6.679 14.614,6.726C14.751,6.772 14.883,6.77 15.011,6.719C15.193,6.651 15.319,6.536 15.387,6.375C15.456,6.213 15.444,6.065 15.353,5.928C15.207,5.716 15.025,5.539 14.806,5.399C14.587,5.259 14.345,5.18 14.08,5.163V5.074C14.08,4.912 14.021,4.776 13.902,4.666C13.784,4.555 13.638,4.5 13.464,4.5C13.291,4.5 13.145,4.555 13.026,4.666C12.908,4.776 12.848,4.912 12.848,5.074V5.163C12.392,5.265 12.032,5.467 11.767,5.769C11.502,6.071 11.37,6.413 11.37,6.796C11.37,7.221 11.5,7.57 11.76,7.842C12.02,8.114 12.41,8.335 12.93,8.505C13.505,8.701 13.914,8.871 14.155,9.015C14.397,9.16 14.518,9.347 14.518,9.576C14.518,9.823 14.427,10.004 14.244,10.118C14.062,10.233 13.825,10.291 13.533,10.291C13.323,10.291 13.127,10.246 12.944,10.157C12.762,10.068 12.611,9.929 12.492,9.742C12.392,9.589 12.271,9.481 12.13,9.417C11.988,9.353 11.84,9.347 11.685,9.398C11.502,9.466 11.375,9.576 11.302,9.729C11.229,9.883 11.233,10.04 11.315,10.201C11.47,10.491 11.671,10.729 11.917,10.916C12.164,11.103 12.465,11.235 12.821,11.311V11.426C12.821,11.587 12.88,11.724 12.999,11.834C13.117,11.945 13.263,12 13.437,12Z" />
	<path
		fill="rgb(0,0,0)"
		fill-opacity="1.0"
		d="M1.521,12.475C1.003,12.475 0.583,12.894 0.583,13.412V20.988C0.583,21.506 1.003,21.926 1.521,21.926H4.978C5.496,21.926 5.915,21.506 5.915,20.988V20.251L8.944,21.89C10.175,22.556 11.648,22.606 12.906,22.024L21.555,18.021C22.634,17.521 23.118,16.269 22.655,15.172C22.229,14.163 21.143,13.614 20.101,13.824C19.593,13.926 19.107,14.17 18.626,14.353L15.535,15.533C15.502,15.435 15.462,15.339 15.416,15.246C15.158,14.725 14.723,14.354 14.195,14.125L10.403,12.48C8.821,11.794 7.052,11.917 5.613,12.722C5.446,12.569 5.223,12.475 4.978,12.475H1.521ZM2.458,14.35V20.051H4.04V14.35H2.458ZM12.425,18.376L9.471,17.073C8.998,16.864 8.783,16.311 8.992,15.837C9.201,15.363 9.754,15.149 10.228,15.358L13.182,16.66C13.377,16.747 13.607,16.675 13.718,16.493C13.854,16.271 13.762,15.981 13.524,15.878L9.656,14.2C8.385,13.649 6.928,13.897 5.915,14.794V18.138L9.834,20.259C10.534,20.638 11.371,20.666 12.087,20.335L20.735,16.332C20.911,16.251 20.989,16.048 20.914,15.869C20.837,15.686 20.626,15.596 20.44,15.667L15.178,17.675C14.539,18.506 13.404,18.808 12.425,18.376Z"
		fill-rule="evenodd" />
	<path
		fill="rgb(0,0,0)"
		fill-opacity="1.0"
		d="M17.339,12.861L14.28,14.086C14.25,14.097 14.222,14.111 14.195,14.125C14.723,14.354 15.158,14.725 15.416,15.246L17.922,14.243C18.169,14.144 18.436,14.198 18.626,14.353C19.107,14.17 19.593,13.926 20.101,13.824C19.567,12.891 18.392,12.439 17.339,12.861Z" />
	<path
		fill="rgb(0,0,0)"
		fill-opacity="1.0"
		d="M13.5,3.092C11.045,3.092 9.055,5.082 9.055,7.537C9.055,8.24 9.218,8.902 9.507,9.491C9.698,9.882 9.537,10.353 9.147,10.545C8.756,10.736 8.284,10.575 8.093,10.185C7.7,9.385 7.48,8.485 7.48,7.537C7.48,4.212 10.175,1.517 13.5,1.517C16.824,1.517 19.52,4.212 19.52,7.537C19.52,8.485 19.3,9.385 18.907,10.185C18.716,10.575 18.244,10.736 17.853,10.545C17.463,10.353 17.302,9.882 17.493,9.491C17.782,8.902 17.945,8.24 17.945,7.537C17.945,5.082 15.955,3.092 13.5,3.092Z"
		fill-rule="evenodd" />
</svg>