<!-- Created by Apktool M – https://maximoff.su/apktool -->
<svg
	xmlns="http://www.w3.org/2000/svg"
	xmlns:xlink="http://www.w3.org/1999/xlink"
	version="1.1"
	width="24"
	height="24"
	viewBox="0 0 24 24">
	<path
		fill="rgb(0,0,0)"
		fill-opacity="1.0"
		d="M1.5,7.225C0.982,7.225 0.563,7.645 0.563,8.162V15.738C0.563,16.256 0.982,16.676 1.5,16.676H4.957C5.475,16.676 5.895,16.256 5.895,15.738V15.001L8.923,16.64C10.155,17.306 11.628,17.356 12.886,16.774L21.534,12.771C22.614,12.271 23.097,11.019 22.634,9.922C22.208,8.913 21.123,8.364 20.08,8.574C19.573,8.676 19.086,8.92 18.605,9.103L15.514,10.283C15.481,10.185 15.442,10.089 15.396,9.996C15.138,9.475 14.702,9.104 14.175,8.875L10.382,7.23C8.801,6.544 7.032,6.667 5.592,7.472C5.425,7.319 5.202,7.225 4.957,7.225H1.5ZM2.438,9.1V14.801H4.02V9.1H2.438ZM12.405,13.126L9.451,11.823C8.977,11.614 8.762,11.061 8.971,10.587C9.18,10.114 9.734,9.899 10.207,10.108L13.161,11.41C13.357,11.497 13.586,11.425 13.698,11.243C13.833,11.021 13.742,10.731 13.504,10.628L9.636,8.95C8.365,8.399 6.907,8.647 5.895,9.544V12.888L9.814,15.009C10.514,15.388 11.351,15.416 12.066,15.085L20.715,11.082C20.89,11.001 20.969,10.797 20.893,10.619C20.816,10.436 20.605,10.346 20.419,10.417L15.158,12.425C14.518,13.256 13.383,13.558 12.405,13.126Z"
		fill-rule="evenodd" />
	<path
		fill="rgb(0,0,0)"
		fill-opacity="1.0"
		d="M17.319,7.611L14.259,8.836C14.23,8.847 14.202,8.861 14.175,8.875C14.702,9.104 15.138,9.475 15.396,9.996L17.902,8.993C18.148,8.894 18.416,8.948 18.605,9.103C19.086,8.92 19.573,8.676 20.08,8.574C19.546,7.641 18.372,7.19 17.319,7.611Z" />
</svg>