<!-- Created by Apktool M – https://maximoff.su/apktool -->
<svg
	xmlns="http://www.w3.org/2000/svg"
	xmlns:xlink="http://www.w3.org/1999/xlink"
	version="1.1"
	width="24"
	height="24"
	viewBox="0 0 24 24">
	<path
		fill="rgb(0,0,0)"
		fill-opacity="1.0"
		d="M1.8,9.75C1.8,7.128 6.385,5 12.05,5C17.715,5 22.3,7.128 22.3,9.75C22.3,9.801 22.298,9.852 22.295,9.903C22.298,9.935 22.3,9.967 22.3,10V14.37C22.3,14.387 22.299,14.404 22.299,14.421C22.198,16.199 20.756,17.572 18.97,18.457C17.137,19.365 14.694,19.9 12.05,19.9C9.406,19.9 6.963,19.365 5.13,18.457C3.344,17.572 1.902,16.199 1.801,14.421C1.8,14.404 1.8,14.387 1.8,14.37V10C1.8,9.967 1.802,9.934 1.805,9.902C1.802,9.852 1.8,9.801 1.8,9.75ZM5.558,8.025C3.84,8.821 3.6,9.56 3.6,9.75C3.6,9.94 3.84,10.679 5.558,11.475C7.125,12.202 9.418,12.7 12.05,12.7C14.682,12.7 16.975,12.202 18.542,11.475C20.26,10.679 20.5,9.94 20.5,9.75C20.5,9.56 20.26,8.821 18.542,8.025C16.975,7.298 14.682,6.8 12.05,6.8C9.418,6.8 7.125,7.298 5.558,8.025ZM18.227,13.541C19.106,13.233 19.875,12.861 20.5,12.44V14.341C20.444,15.123 19.759,16.043 18.227,16.816V13.541ZM16.727,13.978C15.574,14.252 14.293,14.429 12.936,14.483V18.078C14.334,18.007 15.622,17.773 16.727,17.421V13.978ZM11.436,18.089V14.492C10.068,14.454 8.772,14.292 7.6,14.03V17.491C8.726,17.826 10.03,18.041 11.436,18.089ZM6.1,16.927V13.618C5.126,13.296 4.279,12.897 3.6,12.44V14.342C3.657,15.133 4.358,16.065 5.929,16.844C5.985,16.872 6.042,16.899 6.1,16.927Z"
		fill-rule="evenodd" />
</svg>