<!-- Created by Apktool M – https://maximoff.su/apktool -->
<svg
	xmlns="http://www.w3.org/2000/svg"
	xmlns:xlink="http://www.w3.org/1999/xlink"
	version="1.1"
	width="196"
	height="152"
	viewBox="0 0 196 152">
	<path
		fill="rgb(194,219,209)"
		fill-opacity="1.0"
		d="M0.76,101.76C3.16,122.56 15.76,129.5 25.76,134.26C46.76,144.26 87.96,154.06 124.76,151.26C170.76,147.76 180.76,125.76 187.76,114.76C194.76,103.76 197.76,72.26 193.76,51.26C188.9,25.76 153.89,-3.5 95.76,0.65C25.76,5.65 -2.93,69.76 0.76,101.76Z" />
	<path
		fill="none"
		stroke="rgb(7,149,95)"
		stroke-opacity="1.0"
		d="M147.2,67.33C148.95,78.74 146.61,90.4 140.59,100.29C134.58,110.19 125.26,117.68 114.25,121.49C103.24,125.3 91.23,125.17 80.3,121.14C69.37,117.11 60.21,109.42 54.4,99.41C48.59,89.39 46.5,77.68 48.5,66.31C50.49,54.93 56.43,44.6 65.3,37.1C74.18,29.61 85.42,25.42 97.08,25.26C108.74,25.1 120.09,28.99 129.17,36.24"
		stroke-width="6"
		stroke-linecap="round" />
	<path
		fill="none"
		stroke="rgb(7,149,95)"
		stroke-opacity="1.0"
		d="M75.26,75.26L94.26,94.26L140.76,48.26"
		stroke-linejoin="round"
		stroke-width="8"
		stroke-linecap="round" />
	<path
		fill="rgb(255,146,109)"
		fill-opacity="1.0"
		d="M14.76,10.65C16.28,16.54 20.88,21.14 26.76,22.65C20.88,24.17 16.28,28.77 14.76,34.65C13.24,28.77 8.65,24.17 2.76,22.65C8.65,21.14 13.24,16.54 14.76,10.65Z" />
	<path
		fill="rgb(255,146,109)"
		fill-opacity="1.0"
		d="M177.76,42.65C178.77,46.58 181.84,49.64 185.76,50.65C181.84,51.67 178.77,54.73 177.76,58.65C176.75,54.73 173.68,51.67 169.76,50.65C173.68,49.64 176.75,46.58 177.76,42.65Z" />
	<path
		fill="rgb(255,146,109)"
		fill-opacity="1.0"
		d="M132.26,127.65C133.34,131.82 136.59,135.08 140.76,136.15C136.59,137.23 133.34,140.48 132.26,144.65C131.19,140.48 127.93,137.23 123.76,136.15C127.93,135.08 131.19,131.82 132.26,127.65Z" />
</svg>