<!-- Created by Apktool M – https://maximoff.su/apktool -->
<svg
	xmlns="http://www.w3.org/2000/svg"
	xmlns:xlink="http://www.w3.org/1999/xlink"
	version="1.1"
	width="24"
	height="24"
	viewBox="0 0 24 24">
	<path
		fill="rgb(0,0,0)"
		fill-opacity="1.0"
		fill-rule="evenodd"
		d="M11.482,21.382C11.856,21.758 12.366,21.969 12.897,21.968C13.427,21.969 13.936,21.758 14.311,21.382L21.382,14.311C21.757,13.936 21.968,13.427 21.968,12.896C21.968,12.366 21.757,11.857 21.382,11.482L13.547,3.648C13.171,3.274 12.663,3.063 12.134,3.062C12.083,3.062 12.031,3.062 11.98,3.073L5.414,3.573C4.426,3.642 3.639,4.426 3.568,5.414L3.068,11.98C3.022,12.562 3.234,13.135 3.648,13.547L11.482,21.382ZM6.692,9.044C6.878,9.98 7.7,10.654 8.654,10.654C9.185,10.655 9.694,10.444 10.068,10.068C10.743,9.393 10.847,8.336 10.316,7.542C9.786,6.749 8.769,6.441 7.888,6.806C7.006,7.172 6.506,8.109 6.692,9.044Z" />
</svg>