<!-- Created by Apktool M – https://maximoff.su/apktool -->
<svg
	xmlns="http://www.w3.org/2000/svg"
	xmlns:xlink="http://www.w3.org/1999/xlink"
	version="1.1"
	width="32"
	height="32"
	viewBox="0 0 32 32">
	<path
		fill="rgb(0,0,0)"
		fill-opacity="1.0"
		d="M18.667,17.333C16.469,17.333 14.667,15.532 14.667,13.333C14.667,11.135 16.469,9.333 18.667,9.333C20.866,9.333 22.667,11.135 22.667,13.333C22.667,15.532 20.866,17.333 18.667,17.333ZM9.334,21.333C7.879,21.333 6.667,20.122 6.667,18.667V8C6.667,6.545 7.879,5.333 9.334,5.333H28.001C29.456,5.333 30.667,6.545 30.667,8V18.667C30.667,20.122 29.456,21.333 28.001,21.333H9.334ZM12.001,18.667H25.334C25.334,17.211 26.545,16 28.001,16V10.667C26.545,10.667 25.334,9.455 25.334,8H12.001C12.001,9.455 10.789,10.667 9.334,10.667V16C10.789,16 12.001,17.211 12.001,18.667ZM4.001,26.667C2.545,26.667 1.334,25.455 1.334,24V10.667C1.334,8.938 4.001,8.938 4.001,10.667V24H25.334C26.077,24 26.667,24.59 26.667,25.333C26.667,26.077 26.077,26.667 25.334,26.667H4.001Z" />
</svg>