<!-- Created by Apktool M – https://maximoff.su/apktool -->
<svg
	xmlns="http://www.w3.org/2000/svg"
	xmlns:xlink="http://www.w3.org/1999/xlink"
	version="1.1"
	width="29"
	height="28"
	viewBox="0 0 29 28">
	<path
		fill="none"
		stroke="rgb(255,255,255)"
		stroke-opacity="1.0"
		d="M23.501,21.499H8.701c-1.12,0 -1.681,0 -2.108,-0.218 -0.376,-0.192 -0.682,-0.498 -0.874,-0.874 -0.218,-0.428 -0.218,-0.988 -0.218,-2.108v-11.8m18,2 l-5.846,5.115c-0.7,0.613 -1.05,0.919 -1.434,1.046 -0.452,0.15 -0.943,0.134 -1.384,-0.046 -0.374,-0.152 -0.703,-0.481 -1.361,-1.139 -0.643,-0.643 -0.965,-0.965 -1.332,-1.117 -0.433,-0.18 -0.915,-0.201 -1.362,-0.062 -0.379,0.118 -0.729,0.41 -1.428,0.992l-3.853,3.211"
		stroke-linecap="round"
		stroke-linejoin="round"
		stroke-width="2" />
</svg>