<!-- Created by Apktool M – https://maximoff.su/apktool -->
<svg
	xmlns="http://www.w3.org/2000/svg"
	xmlns:xlink="http://www.w3.org/1999/xlink"
	version="1.1"
	width="24"
	height="24"
	viewBox="0 0 24 24">
	<path
		fill="rgb(0,0,0)"
		fill-opacity="1.0"
		d="M4.939,4.939C5.525,4.354 6.475,4.354 7.061,4.939L12,9.879L16.939,4.939C17.525,4.354 18.475,4.354 19.061,4.939C19.646,5.525 19.646,6.475 19.061,7.061L14.121,12L19.061,16.939C19.646,17.525 19.646,18.475 19.061,19.061C18.475,19.646 17.525,19.646 16.939,19.061L12,14.121L7.061,19.061C6.475,19.646 5.525,19.646 4.939,19.061C4.354,18.475 4.354,17.525 4.939,16.939L9.879,12L4.939,7.061C4.354,6.475 4.354,5.525 4.939,4.939Z" />
</svg>