<!-- Created by Apktool M – https://maximoff.su/apktool -->
<svg
	xmlns="http://www.w3.org/2000/svg"
	xmlns:xlink="http://www.w3.org/1999/xlink"
	version="1.1"
	width="32"
	height="32"
	viewBox="0 0 32 32">
	<path
		fill="rgb(255,255,255)"
		fill-opacity="1.0"
		d="M15.579,1.684C16.37,1.684 17.011,2.325 17.011,3.116L17.011,4.547C17.011,4.584 17.01,4.621 17.007,4.657C19.681,5.102 21.941,6.861 22.677,9.327C22.904,10.084 22.473,10.882 21.716,11.108C20.958,11.335 20.16,10.904 19.934,10.147C19.499,8.692 17.86,7.41 15.671,7.41C13.04,7.41 11.285,9.206 11.285,10.989C11.285,11.965 11.81,12.944 12.716,13.631V16.869C10.254,15.891 8.421,13.722 8.421,10.989C8.421,7.746 11.003,5.296 14.155,4.691C14.15,4.644 14.148,4.596 14.148,4.547L14.148,3.116C14.148,2.325 14.789,1.684 15.579,1.684Z" />
	<path
		fill="rgb(255,255,255)"
		fill-opacity="1.0"
		d="M15.579,10.274C16.37,10.274 17.011,10.915 17.011,11.705L17.011,20.295C17.011,21.085 16.37,21.726 15.579,21.726C14.789,21.726 14.148,21.085 14.148,20.295L14.148,11.705C14.148,10.915 14.789,10.274 15.579,10.274Z" />
	<path
		fill="rgb(255,255,255)"
		fill-opacity="1.0"
		d="M14.153,27.343C11.478,26.898 9.218,25.139 8.481,22.673C8.255,21.915 8.686,21.118 9.443,20.891C10.201,20.665 10.998,21.095 11.225,21.853C11.659,23.308 13.299,24.589 15.488,24.589C18.118,24.589 19.874,22.794 19.874,21.01C19.874,20.035 19.349,19.056 18.443,18.369V15.131C20.905,16.108 22.737,18.278 22.737,21.01C22.737,24.253 20.156,26.704 17.005,27.308C17.009,27.356 17.012,27.404 17.012,27.453L17.011,28.885C17.011,29.675 16.37,30.316 15.579,30.316C14.789,30.315 14.148,29.674 14.148,28.884L14.149,27.452C14.149,27.415 14.15,27.379 14.153,27.343Z" />
</svg>