<!-- Created by Apktool M – https://maximoff.su/apktool -->
<svg
	xmlns="http://www.w3.org/2000/svg"
	xmlns:xlink="http://www.w3.org/1999/xlink"
	version="1.1"
	width="24"
	height="24"
	viewBox="0 0 24 24">
	<path
		fill="rgb(0,0,0)"
		fill-opacity="1.0"
		d="M12.052,3.707C14.328,1.431 18.018,1.431 20.294,3.707C22.569,5.983 22.569,9.673 20.294,11.949L18.22,14.022C17.927,14.315 17.452,14.315 17.16,14.022L9.978,6.841C9.685,6.548 9.685,6.073 9.978,5.78L12.052,3.707ZM18.879,5.121C17.385,3.626 14.961,3.626 13.466,5.121L12.276,6.31L17.69,11.724L18.879,10.534C20.374,9.039 20.374,6.616 18.879,5.121Z"
		fill-rule="evenodd" />
	<path
		fill="rgb(0,0,0)"
		fill-opacity="1.0"
		d="M3.706,20.293C5.982,22.569 9.672,22.569 11.948,20.293L14.022,18.22C14.315,17.927 14.315,17.452 14.022,17.159L12.656,15.793L14.224,14.224C14.615,13.834 14.615,13.201 14.224,12.81C13.834,12.42 13.201,12.42 12.81,12.81L11.241,14.379L9.659,12.796L11.228,11.228C11.618,10.837 11.618,10.204 11.228,9.813C10.837,9.423 10.204,9.423 9.813,9.813L8.245,11.382L6.84,9.978C6.548,9.685 6.073,9.685 5.78,9.978L3.706,12.051C1.431,14.327 1.431,18.017 3.706,20.293ZM5.121,18.879C6.616,20.374 9.039,20.374 10.534,18.879L11.724,17.69L6.31,12.276L5.121,13.466C3.626,14.96 3.626,17.384 5.121,18.879Z"
		fill-rule="evenodd" />
</svg>