<!-- Created by Apktool M – https://maximoff.su/apktool -->
<svg
	xmlns="http://www.w3.org/2000/svg"
	xmlns:xlink="http://www.w3.org/1999/xlink"
	version="1.1"
	width="24.0"
	height="24.0"
	viewBox="0 0 24.0 24.0">
	<path
		fill="rgb(0,0,0)"
		fill-opacity="1.0"
		d="M11.523,13.474C11.188,13.4 10.88,13.332 10.625,13.262C7.902,12.542 5.126,11.422 5.126,8.318C5.126,4.959 7.986,2.938 11.278,2.62V0H13.102V2.611C15.191,2.774 17.222,3.499 18.955,4.609L17.295,7.494C16.226,6.483 14.427,5.873 12.83,5.726V10.216C13.047,10.264 13.249,10.308 13.429,10.352C16.528,11.064 19.636,12.371 19.636,15.76C19.636,19.27 16.502,20.99 13.102,21.176V24H11.278V21.146C8.815,20.954 6.377,20.171 4.363,18.824L6.024,15.76C7.37,17.033 9.566,17.76 11.523,17.95V13.474ZM11.523,5.713C9.883,5.844 9.019,6.563 9.019,7.751C9.019,8.961 10.255,9.545 11.523,9.903V5.713ZM12.83,17.995C14.668,17.93 15.634,17.261 15.634,16.12C15.634,14.797 14.243,14.174 12.83,13.787V17.995Z"
		fill-rule="evenodd" />
</svg>