<!-- Created by Apktool M – https://maximoff.su/apktool -->
<svg
	xmlns="http://www.w3.org/2000/svg"
	xmlns:xlink="http://www.w3.org/1999/xlink"
	version="1.1"
	width="24"
	height="24"
	viewBox="0 0 24 24">
	<path
		fill="rgb(0,0,0)"
		fill-opacity="1.0"
		d="M6.059,12.876C6.642,11.465 8.42,8.473 12.155,8.473C15.943,8.473 17.552,11.542 18.014,12.964C18.264,13.732 17.645,14.387 16.962,14.387H7.085C6.354,14.387 5.738,13.652 6.059,12.876ZM7.71,12.887H16.379C15.826,11.644 14.566,9.973 12.155,9.973C9.752,9.973 8.375,11.627 7.71,12.887Z"
		fill-rule="evenodd" />
	<path
		fill="rgb(0,0,0)"
		fill-opacity="1.0"
		d="M12,6.484C12.824,6.484 13.492,5.816 13.492,4.992C13.492,4.168 12.824,3.5 12,3.5C11.176,3.5 10.508,4.168 10.508,4.992C10.508,5.816 11.176,6.484 12,6.484ZM12,7.984C13.652,7.984 14.992,6.644 14.992,4.992C14.992,3.339 13.652,2 12,2C10.348,2 9.008,3.339 9.008,4.992C9.008,6.644 10.348,7.984 12,7.984Z"
		fill-rule="evenodd" />
	<path
		fill="rgb(0,0,0)"
		fill-opacity="1.0"
		d="M12,15.193C12.311,15.193 12.563,15.445 12.563,15.755V18.484L13.602,17.444C13.822,17.224 14.178,17.224 14.398,17.444C14.617,17.663 14.617,18.02 14.398,18.239L12.398,20.239C12.292,20.345 12.149,20.404 12,20.404C11.851,20.404 11.708,20.345 11.602,20.239L9.602,18.239C9.383,18.02 9.383,17.663 9.602,17.444C9.822,17.224 10.178,17.224 10.398,17.444L11.438,18.484V15.755C11.438,15.445 11.689,15.193 12,15.193Z"
		fill-rule="evenodd" />
	<path
		fill="rgb(0,0,0)"
		fill-opacity="1.0"
		d="M7.013,15.781C7.282,15.936 7.375,16.28 7.219,16.549L5.898,18.837L7.319,18.457C7.619,18.376 7.927,18.555 8.007,18.854C8.088,19.155 7.91,19.463 7.61,19.544L4.878,20.275C4.578,20.356 4.269,20.178 4.189,19.878L3.457,17.146C3.376,16.846 3.554,16.537 3.854,16.457C4.155,16.376 4.463,16.555 4.543,16.854L4.924,18.275L6.245,15.987C6.4,15.718 6.744,15.626 7.013,15.781Z"
		fill-rule="evenodd" />
	<path
		fill="rgb(0,0,0)"
		fill-opacity="1.0"
		d="M17.451,15.781C17.72,15.626 18.064,15.718 18.219,15.987L19.54,18.275L19.921,16.854C20.001,16.555 20.31,16.376 20.61,16.457C20.91,16.537 21.088,16.846 21.007,17.146L20.275,19.878C20.195,20.178 19.887,20.356 19.587,20.275L16.854,19.543C16.554,19.463 16.376,19.155 16.457,18.854C16.537,18.555 16.846,18.376 17.146,18.457L18.566,18.837L17.245,16.549C17.09,16.28 17.182,15.936 17.451,15.781Z"
		fill-rule="evenodd" />
</svg>