<!-- Created by Apktool M – https://maximoff.su/apktool -->
<svg
	xmlns="http://www.w3.org/2000/svg"
	xmlns:xlink="http://www.w3.org/1999/xlink"
	version="1.1"
	width="24"
	height="24"
	viewBox="0 0 24 24">
	<path
		fill="rgb(0,0,0)"
		fill-opacity="1.0"
		d="M15.711,15.82C16.096,15.449 16.096,14.849 15.711,14.478C15.326,14.108 14.703,14.108 14.318,14.478L12.986,15.76V11.949C12.986,11.425 12.544,11 12,11C11.456,11 11.014,11.425 11.014,11.949V15.76L9.682,14.478C9.298,14.108 8.674,14.108 8.289,14.478C7.904,14.849 7.904,15.449 8.289,15.82L11.303,18.722C11.488,18.9 11.739,19 12,19C12.261,19 12.512,18.9 12.697,18.722L15.711,15.82Z" />
	<path
		fill="rgb(0,0,0)"
		fill-opacity="1.0"
		d="M15.284,3.499L4.344,7H4C2.895,7 2,7.895 2,9V21C2,22.104 2.895,23 4,23H20C21.105,23 22,22.104 22,21V9C22,7.895 21.105,7 20,7H19.054L18.417,5.09C17.984,3.791 16.587,3.082 15.284,3.499ZM16.52,5.722C16.433,5.462 16.154,5.321 15.893,5.404L10.906,7H16.946L16.52,5.722ZM20,9H4V21H20V9Z"
		fill-rule="evenodd" />
</svg>