<!-- Created by Apktool M – https://maximoff.su/apktool -->
<svg
	xmlns="http://www.w3.org/2000/svg"
	xmlns:xlink="http://www.w3.org/1999/xlink"
	version="1.1"
	width="40"
	height="40"
	viewBox="0 0 40 40">
	<path
		fill="rgb(0,0,0)"
		fill-opacity="1.0"
		fill-rule="evenodd"
		d="M20,3.333C10.8,3.333 3.333,10.8 3.333,20C3.333,29.2 10.8,36.667 20,36.667C29.2,36.667 36.667,29.2 36.667,20C36.667,10.8 29.2,3.333 20,3.333ZM20,21.667C20.472,21.667 20.868,21.507 21.187,21.188C21.507,20.868 21.667,20.472 21.667,20V13.333C21.667,12.861 21.507,12.465 21.187,12.146C20.868,11.826 20.472,11.667 20,11.667C19.528,11.667 19.132,11.826 18.812,12.146C18.493,12.465 18.333,12.861 18.333,13.333V20C18.333,20.472 18.493,20.868 18.812,21.188C19.132,21.507 19.528,21.667 20,21.667ZM21.187,27.854C20.868,28.174 20.472,28.333 20,28.333C19.528,28.333 19.132,28.174 18.812,27.854C18.493,27.535 18.333,27.139 18.333,26.667C18.333,26.194 18.493,25.799 18.812,25.479C19.132,25.16 19.528,25 20,25C20.472,25 20.868,25.16 21.187,25.479C21.507,25.799 21.667,26.194 21.667,26.667C21.667,27.139 21.507,27.535 21.187,27.854Z" />
</svg>