<!-- Created by Apktool M – https://maximoff.su/apktool -->
<svg
	xmlns="http://www.w3.org/2000/svg"
	xmlns:xlink="http://www.w3.org/1999/xlink"
	version="1.1"
	width="25"
	height="25"
	viewBox="0 0 25 25">
	<path
		fill="rgb(0,0,0)"
		fill-opacity="1.0"
		d="M12.58,14.635C12.212,14.631 11.901,14.499 11.646,14.239C11.391,13.979 11.266,13.664 11.27,13.296L11.344,6.297C11.348,5.929 11.48,5.617 11.74,5.362C12.001,5.107 12.315,4.982 12.683,4.986C13.051,4.99 13.363,5.122 13.618,5.382C13.872,5.642 13.998,5.957 13.994,6.325L13.92,13.324C13.916,13.693 13.783,14.004 13.523,14.259C13.263,14.514 12.949,14.639 12.58,14.635ZM12.525,19.861C12.157,19.857 11.845,19.725 11.59,19.465C11.336,19.204 11.21,18.89 11.214,18.522C11.218,18.154 11.35,17.843 11.61,17.588C11.871,17.333 12.185,17.207 12.553,17.211C12.921,17.215 13.233,17.347 13.488,17.608C13.742,17.868 13.868,18.182 13.864,18.55C13.86,18.918 13.728,19.23 13.467,19.485C13.207,19.74 12.893,19.865 12.525,19.861Z" />
</svg>