<!-- Created by Apktool M – https://maximoff.su/apktool -->
<svg
	xmlns="http://www.w3.org/2000/svg"
	xmlns:xlink="http://www.w3.org/1999/xlink"
	version="1.1"
	width="24"
	height="24"
	viewBox="0 0 24 24">
	<path
		fill="rgb(70,83,74)"
		d="M12,2C6.48,2 2,6.48 2,12C2,17.52 6.48,22 12,22C17.52,22 22,17.52 22,12C22,6.48 17.52,2 12,2ZM12,13C12.283,13 12.521,12.904 12.712,12.712C12.904,12.521 13,12.283 13,12V8C13,7.717 12.904,7.479 12.712,7.287C12.521,7.096 12.283,7 12,7C11.717,7 11.479,7.096 11.288,7.287C11.096,7.479 11,7.717 11,8V12C11,12.283 11.096,12.521 11.288,12.712C11.479,12.904 11.717,13 12,13ZM12.712,16.712C12.521,16.904 12.283,17 12,17C11.717,17 11.479,16.904 11.288,16.712C11.096,16.521 11,16.283 11,16C11,15.717 11.096,15.479 11.288,15.288C11.479,15.096 11.717,15 12,15C12.283,15 12.521,15.096 12.712,15.288C12.904,15.479 13,15.717 13,16C13,16.283 12.904,16.521 12.712,16.712Z"
		fill-opacity="0.7"
		fill-rule="evenodd" />
</svg>