<!-- Created by Apktool M – https://maximoff.su/apktool -->
<svg
	xmlns="http://www.w3.org/2000/svg"
	xmlns:xlink="http://www.w3.org/1999/xlink"
	version="1.1"
	width="32"
	height="32"
	viewBox="0 0 32 32">
	<path
		fill="rgb(219,225,221)"
		fill-opacity="1.0"
		d="M15.231,30.46L13.056,26.201L16.56,0.733L16.736,30.094C16.741,30.933 15.612,31.208 15.231,30.46Z" />
	<path
		fill="rgb(198,209,202)"
		fill-opacity="1.0"
		d="M16.769,30.46L18.944,26.201L15.44,0.733L15.264,30.094C15.259,30.933 16.388,31.208 16.769,30.46Z" />
	<path
		fill="rgb(255,255,255)"
		fill-opacity="1.0"
		d="M0.569,23.576L14.838,1.101C15.119,0.659 15.575,0.502 16,0.557C16.425,0.502 16.881,0.659 17.162,1.101L31.431,23.576C32.673,25.532 30.966,27.993 28.617,27.633L18.944,26.149L16,8.198L13.056,26.149L3.383,27.633C1.034,27.993 -0.673,25.532 0.569,23.576Z" />
</svg>