<!-- Created by Apktool M – https://maximoff.su/apktool -->
<svg
	xmlns="http://www.w3.org/2000/svg"
	xmlns:xlink="http://www.w3.org/1999/xlink"
	version="1.1"
	width="20"
	height="20"
	viewBox="0 0 20 20">
	<path
		fill="rgb(0,0,0)"
		fill-opacity="1.0"
		d="M9.958,15C10.25,15 10.496,14.899 10.698,14.698C10.899,14.497 11,14.25 11,13.958C11,13.667 10.899,13.42 10.698,13.219C10.496,13.017 10.25,12.917 9.958,12.917C9.667,12.917 9.42,13.017 9.219,13.219C9.017,13.42 8.917,13.667 8.917,13.958C8.917,14.25 9.017,14.497 9.219,14.698C9.42,14.899 9.667,15 9.958,15ZM10,18.333C8.847,18.333 7.764,18.115 6.75,17.677C5.736,17.24 4.854,16.646 4.104,15.896C3.354,15.146 2.76,14.264 2.323,13.25C1.885,12.236 1.666,11.153 1.666,10C1.666,8.847 1.885,7.764 2.323,6.75C2.76,5.736 3.354,4.854 4.104,4.104C4.854,3.354 5.736,2.76 6.75,2.323C7.764,1.885 8.847,1.667 10,1.667C11.153,1.667 12.236,1.885 13.25,2.323C14.264,2.76 15.146,3.354 15.896,4.104C16.646,4.854 17.239,5.736 17.677,6.75C18.114,7.764 18.333,8.847 18.333,10C18.333,11.153 18.114,12.236 17.677,13.25C17.239,14.264 16.646,15.146 15.896,15.896C15.146,16.646 14.264,17.24 13.25,17.677C12.236,18.115 11.153,18.333 10,18.333ZM10,16.667C11.861,16.667 13.437,16.021 14.729,14.729C16.021,13.438 16.667,11.861 16.667,10C16.667,8.139 16.021,6.562 14.729,5.271C13.437,3.979 11.861,3.333 10,3.333C8.139,3.333 6.562,3.979 5.271,5.271C3.979,6.562 3.333,8.139 3.333,10C3.333,11.861 3.979,13.438 5.271,14.729C6.562,16.021 8.139,16.667 10,16.667ZM10.083,6.417C10.43,6.417 10.733,6.528 10.989,6.75C11.246,6.972 11.375,7.25 11.375,7.583C11.375,7.889 11.281,8.16 11.094,8.396C10.906,8.632 10.694,8.854 10.458,9.062C10.139,9.34 9.857,9.646 9.614,9.979C9.371,10.313 9.25,10.688 9.25,11.104C9.25,11.299 9.323,11.462 9.469,11.594C9.614,11.726 9.785,11.792 9.979,11.792C10.187,11.792 10.364,11.722 10.51,11.583C10.656,11.444 10.75,11.271 10.792,11.063C10.847,10.771 10.972,10.51 11.167,10.281C11.361,10.052 11.569,9.833 11.792,9.625C12.111,9.319 12.385,8.986 12.614,8.625C12.844,8.264 12.958,7.861 12.958,7.417C12.958,6.708 12.67,6.128 12.094,5.677C11.517,5.226 10.847,5 10.083,5C9.555,5 9.052,5.111 8.573,5.333C8.094,5.556 7.729,5.896 7.479,6.354C7.382,6.521 7.351,6.698 7.385,6.885C7.42,7.073 7.514,7.215 7.667,7.312C7.861,7.424 8.062,7.458 8.271,7.417C8.479,7.375 8.653,7.257 8.792,7.062C8.944,6.854 9.135,6.694 9.364,6.583C9.594,6.472 9.833,6.417 10.083,6.417Z" />
</svg>