<!-- Created by Apktool M – https://maximoff.su/apktool -->
<svg
	xmlns="http://www.w3.org/2000/svg"
	xmlns:xlink="http://www.w3.org/1999/xlink"
	version="1.1"
	width="40"
	height="40"
	viewBox="0 0 40 40">
	<path
		fill="rgb(0,0,0)"
		fill-opacity="1.0"
		d="M25,16.667C26.841,16.667 28.333,15.174 28.333,13.333C28.333,11.492 26.841,10 25,10C23.159,10 21.667,11.492 21.667,13.333C21.667,15.174 23.159,16.667 25,16.667Z" />
	<path
		fill="rgb(0,0,0)"
		fill-opacity="1.0"
		fill-rule="evenodd"
		d="M3.333,8.333C3.333,5.572 5.572,3.333 8.333,3.333H31.667C34.428,3.333 36.667,5.572 36.667,8.333V31.667C36.667,34.428 34.428,36.667 31.667,36.667H8.333C5.572,36.667 3.333,34.428 3.333,31.667V8.333ZM8.333,6.667C7.413,6.667 6.667,7.413 6.667,8.333V22.643L12.643,16.667C13.945,15.365 16.055,15.365 17.357,16.667L23.333,22.643L25.976,20C27.278,18.698 29.389,18.698 30.691,20L33.333,22.643V8.333C33.333,7.413 32.587,6.667 31.667,6.667H8.333ZM6.667,31.667V27.357L15,19.024L20.976,25C22.278,26.302 24.389,26.302 25.691,25L28.333,22.357L33.333,27.357V31.667C33.333,32.587 32.587,33.333 31.667,33.333H8.333C7.413,33.333 6.667,32.587 6.667,31.667Z" />
</svg>