<!-- Created by Apktool M – https://maximoff.su/apktool -->
<svg
	xmlns="http://www.w3.org/2000/svg"
	xmlns:xlink="http://www.w3.org/1999/xlink"
	version="1.1"
	width="20"
	height="20"
	viewBox="0 0 20 20">
	<path
		fill="rgb(0,0,0)"
		fill-opacity="1.0"
		d="M10,17.083C6.088,17.083 2.917,13.912 2.917,10C2.917,6.088 6.088,2.917 10,2.917C13.912,2.917 17.084,6.088 17.084,10C17.084,13.912 13.912,17.083 10,17.083ZM1.667,10C1.667,14.602 5.398,18.333 10,18.333C14.603,18.333 18.334,14.602 18.334,10C18.334,5.398 14.603,1.667 10,1.667C5.398,1.667 1.667,5.398 1.667,10ZM9.959,5.833C9.499,5.833 9.125,6.207 9.125,6.667V6.75C9.125,7.21 9.498,7.583 9.959,7.583L10.042,7.583C10.263,7.583 10.475,7.496 10.631,7.339C10.787,7.183 10.875,6.971 10.875,6.75V6.667C10.875,6.207 10.502,5.833 10.042,5.833H9.959ZM10.834,9.167C10.834,8.707 10.461,8.333 10,8.333C9.54,8.333 9.167,8.707 9.167,9.167V13.333C9.167,13.794 9.54,14.167 10,14.167C10.461,14.167 10.834,13.794 10.834,13.333V9.167Z" />
</svg>