<!-- Created by Apktool M – https://maximoff.su/apktool -->
<svg
	xmlns="http://www.w3.org/2000/svg"
	xmlns:xlink="http://www.w3.org/1999/xlink"
	version="1.1"
	width="24"
	height="24"
	viewBox="0 0 24 24">
	<path
		fill="rgb(0,0,0)"
		fill-opacity="1.0"
		fill-rule="evenodd"
		d="M8.1,21.212C9.317,21.737 10.617,22 12,22C13.383,22 14.683,21.737 15.9,21.212C15.989,21.174 16.077,21.135 16.165,21.094C16.463,20.957 16.753,20.806 17.035,20.642C17.787,20.205 18.467,19.683 19.075,19.075C19.682,18.468 20.204,17.789 20.64,17.038C20.806,16.755 20.958,16.463 21.095,16.163C21.135,16.076 21.174,15.988 21.212,15.9C22.269,13.452 22.269,10.548 21.212,8.1C21.174,8.012 21.135,7.924 21.095,7.837C20.958,7.537 20.806,7.245 20.64,6.962C20.204,6.211 19.682,5.532 19.075,4.925C18.467,4.317 17.788,3.795 17.036,3.359C16.754,3.194 16.464,3.043 16.165,2.906C16.078,2.866 15.989,2.826 15.9,2.787C14.683,2.263 13.383,2 12,2C10.617,2 9.317,2.263 8.1,2.787C8.011,2.826 7.923,2.865 7.835,2.906C7.537,3.043 7.246,3.194 6.964,3.359C6.212,3.795 5.533,4.317 4.925,4.925C4.317,5.533 3.795,6.212 3.359,6.964C3.194,7.246 3.043,7.537 2.906,7.835C2.865,7.923 2.826,8.011 2.787,8.1C2.263,9.317 2,10.617 2,12C2,13.383 2.263,14.683 2.787,15.9C2.826,15.989 2.865,16.077 2.906,16.165C3.043,16.463 3.194,16.753 3.358,17.035C3.795,17.787 4.317,18.467 4.925,19.075C5.532,19.682 6.211,20.204 6.962,20.64C7.244,20.805 7.536,20.957 7.835,21.094C7.923,21.135 8.011,21.174 8.1,21.212ZM17.675,17.675C16.125,19.225 14.233,20 12,20C9.767,20 7.875,19.225 6.325,17.675C4.775,16.125 4,14.233 4,12C4,9.767 4.775,7.875 6.325,6.325C7.875,4.775 9.767,4 12,4C14.233,4 16.125,4.775 17.675,6.325C19.225,7.875 20,9.767 20,12C20,14.233 19.225,16.125 17.675,17.675ZM11.95,7C11.398,7 10.95,7.448 10.95,8V8.1C10.95,8.652 11.398,9.1 11.95,9.1L12.05,9.1C12.315,9.1 12.569,8.995 12.757,8.807C12.944,8.62 13.05,8.365 13.05,8.1V8C13.05,7.448 12.602,7 12.05,7H11.95ZM13,11C13,10.448 12.552,10 12,10C11.448,10 11,10.448 11,11V16C11,16.552 11.448,17 12,17C12.552,17 13,16.552 13,16V11Z" />
</svg>