<!-- Created by Apktool M – https://maximoff.su/apktool -->
<svg
	xmlns="http://www.w3.org/2000/svg"
	xmlns:xlink="http://www.w3.org/1999/xlink"
	version="1.1"
	width="18"
	height="18"
	viewBox="0 0 18 18">
	<path
		fill="rgb(0,0,0)"
		fill-opacity="1.0"
		fill-rule="evenodd"
		d="M13.242,4.757C12.363,3.878 10.939,3.878 10.06,4.757L9,5.818C8.707,6.111 8.232,6.111 7.939,5.818C7.646,5.525 7.646,5.05 7.939,4.757L9,3.696C10.464,2.232 12.838,2.232 14.303,3.697C15.767,5.161 15.768,7.535 14.303,9C14.303,9 14.303,9 14.303,9L13.243,10.06C12.95,10.353 12.475,10.353 12.182,10.061C11.889,9.768 11.889,9.293 12.182,9L13.243,7.939C14.121,7.061 14.121,5.636 13.242,4.757ZM11.651,6.348C11.944,6.641 11.944,7.116 11.651,7.409L7.409,11.652C7.116,11.944 6.641,11.944 6.348,11.652C6.055,11.359 6.055,10.884 6.348,10.591L10.591,6.348C10.884,6.055 11.359,6.055 11.651,6.348ZM5.818,7.939C6.111,8.232 6.111,8.707 5.818,9L4.758,10.061C3.879,10.939 3.879,12.364 4.757,13.243C5.636,14.121 7.061,14.121 7.939,13.243C7.939,13.243 7.939,13.243 7.939,13.243L9,12.182C9.292,11.889 9.767,11.889 10.06,12.182C10.353,12.475 10.353,12.95 10.061,13.242L9,14.303C7.536,15.767 5.161,15.768 3.697,14.303C2.232,12.839 2.232,10.464 3.697,9L4.758,7.939C5.05,7.646 5.525,7.646 5.818,7.939Z" />
</svg>