<!-- Created by Apktool M – https://maximoff.su/apktool -->
<svg
	xmlns="http://www.w3.org/2000/svg"
	xmlns:xlink="http://www.w3.org/1999/xlink"
	version="1.1"
	width="24"
	height="24"
	viewBox="0 0 24 24">
	<path
		fill="rgb(70,83,74)"
		d="M6.95,10.323C7.649,8.204 9.641,6.682 12,6.682C13.268,6.682 14.414,7.132 15.314,7.868L17.932,5.25C16.336,3.859 14.291,3 12,3C8.453,3 5.398,5.024 3.93,7.988L6.95,10.323Z"
		fill-opacity="0.7" />
	<path
		fill="rgb(70,83,74)"
		d="M15.031,16.509C14.213,17.037 13.175,17.318 12,17.318C9.65,17.318 7.664,15.808 6.958,13.701L3.928,16.001C5.395,18.97 8.449,21 12,21C14.2,21 16.302,20.218 17.876,18.75L15.031,16.509Z"
		fill-opacity="0.7" />
	<path
		fill="rgb(70,83,74)"
		d="M17.876,18.75C19.522,17.214 20.591,14.928 20.591,12C20.591,11.468 20.509,10.896 20.386,10.364H12V13.841H16.827C16.589,15.01 15.95,15.916 15.031,16.51L17.876,18.75Z"
		fill-opacity="0.7" />
	<path
		fill="rgb(70,83,74)"
		d="M6.958,13.701C6.779,13.167 6.682,12.595 6.682,12C6.682,11.414 6.776,10.85 6.95,10.323L3.93,7.988C3.327,9.195 3,10.557 3,12C3,13.44 3.334,14.798 3.928,16.001L6.958,13.701Z"
		fill-opacity="0.7" />
</svg>