<!-- Created by Apktool M – https://maximoff.su/apktool -->
<svg
	xmlns="http://www.w3.org/2000/svg"
	xmlns:xlink="http://www.w3.org/1999/xlink"
	version="1.1"
	width="19"
	height="22"
	viewBox="0 0 19 22">
	<path
		fill="rgb(116,125,119)"
		fill-opacity="1.0"
		d="M12.5835 3.52679C11.78 4.45092 10.4887 5.17703 9.1973 5.0733C9.03468 3.82855 9.66602 2.49893 10.4121 1.67853C11.2157 0.726104 12.6314 0.0565795 13.7793 0C13.9132 1.30133 13.3871 2.57437 12.5931 3.52679H12.5835Z" />
	<path
		fill="rgb(116,125,119)"
		fill-opacity="1.0"
		d="M13.7601 5.31847C11.8948 5.21475 10.2878 6.34634 9.39818 6.34634C8.50857 6.34634 7.14068 5.37505 5.658 5.39391C3.7353 5.4222 1.94652 6.47835 0.961259 8.14745C-1.0571 11.5045 0.435148 16.4741 2.38654 19.2087C3.34311 20.5572 4.48143 22.0471 5.9928 21.9906C7.41809 21.934 7.98246 21.0947 9.70428 21.0947C11.4261 21.0947 11.9331 21.9906 13.4445 21.9623C15.0037 21.934 15.9889 20.6138 16.9455 19.2559C18.036 17.7188 18.476 16.2289 18.5047 16.144C18.476 16.1157 15.4915 15.0124 15.4628 11.6837C15.4341 8.90184 17.816 7.57222 17.9212 7.49679C16.5724 5.57308 14.4775 5.36562 13.7506 5.30904L13.7601 5.31847Z" />
</svg>