<!-- Created by Apktool M – https://maximoff.su/apktool -->
<svg
	xmlns="http://www.w3.org/2000/svg"
	xmlns:xlink="http://www.w3.org/1999/xlink"
	version="1.1"
	width="17"
	height="16"
	viewBox="0 0 17 16">
	<path
		d="M6.183,12.063C5.393,11.13 4.881,9.751 4.846,8.204V7.867C4.881,6.319 5.393,4.941 6.183,4.008C7.208,2.676 8.732,1.832 10.434,1.832C11.481,1.832 12.46,2.152 13.298,2.708C12.04,1.583 10.382,0.896 8.562,0.889L8.536,0.889C4.588,0.889 1.389,4.088 1.389,8.035C1.389,11.868 4.406,14.995 8.195,15.173C8.308,15.178 8.421,15.182 8.536,15.182C10.365,15.182 12.034,14.494 13.298,13.363C12.461,13.918 11.481,14.238 10.434,14.238C8.732,14.238 7.208,13.394 6.183,12.063V12.063Z"
		fill-rule="evenodd">
		<aapt:attr
			name="android:fillColor">
			<gradient
				startX="1.573"
				startY="1.122"
				endX="1.573"
				endY="14.974"
				type="linear">
				<item
					offset="0.3"
					color="#FFFF1B2D" />
				<item
					offset="0.438"
					color="#FFFA1A2C" />
				<item
					offset="0.594"
					color="#FFED1528" />
				<item
					offset="0.758"
					color="#FFD60E21" />
				<item
					offset="0.927"
					color="#FFB70519" />
				<item
					offset="1"
					color="#FFA70014" />
			</gradient>
		</aapt:attr>
	</path>
	<path
		d="M6.183,4.008C6.839,3.234 7.686,2.767 8.611,2.767C10.691,2.767 12.378,5.126 12.378,8.036C12.378,10.945 10.692,13.304 8.611,13.304C7.686,13.304 6.839,12.837 6.183,12.063C7.208,13.394 8.732,14.238 10.434,14.238C11.481,14.238 12.461,13.919 13.298,13.363C14.762,12.055 15.682,10.153 15.682,8.035C15.682,5.919 14.762,4.017 13.299,2.708C12.461,2.152 11.481,1.833 10.434,1.833C8.732,1.833 7.208,2.677 6.183,4.008Z"
		fill-rule="evenodd">
		<aapt:attr
			name="android:fillColor">
			<gradient
				startX="6.242"
				startY="1.938"
				endX="6.242"
				endY="14.19"
				type="linear">
				<item
					offset="0"
					color="#FF9C0000" />
				<item
					offset="0.7"
					color="#FFFF4B4B" />
			</gradient>
		</aapt:attr>
	</path>
	<path
		fill="rgb(67,159,70)"
		fill-opacity="1.0"
		d="M7.611,10.844C7.611,9.47 8.725,8.355 10.1,8.355H16.322V9.6C16.322,10.974 15.208,12.089 13.833,12.089H7.611V10.844Z" />
	<path
		fill="rgb(255,255,255)"
		fill-opacity="1.0"
		d="M9.389,9.245V11.2H9.751V9.99L10.203,11.2H10.565L11.017,9.99V11.2H11.379V9.245H11.017L10.384,10.735L9.751,9.245H9.389Z" />
	<path
		fill="rgb(255,255,255)"
		fill-opacity="1.0"
		d="M12.012,11.2H11.65V9.245H12.012V11.2Z" />
	<path
		fill="rgb(255,255,255)"
		fill-opacity="1.0"
		d="M12.645,11.2H12.283V9.245H12.645L13.55,10.548V9.245H13.911V11.2H13.55L12.645,9.803V11.2Z" />
	<path
		fill="rgb(255,255,255)"
		fill-opacity="1.0"
		d="M14.545,11.2H14.183V9.245H14.545V11.2Z" />
</svg>