<!-- Created by Apktool M – https://maximoff.su/apktool -->
<svg
	xmlns="http://www.w3.org/2000/svg"
	xmlns:xlink="http://www.w3.org/1999/xlink"
	version="1.1"
	width="40"
	height="40"
	viewBox="0 0 40 40">
	<path
		fill="rgb(0,0,0)"
		fill-opacity="1.0"
		d="M32.351,7.596C31.988,7.672 31.489,7.824 30.676,8.074L8.518,14.892C7.494,15.207 6.834,15.412 6.38,15.596C6.344,15.611 6.311,15.625 6.28,15.638C6.308,15.656 6.338,15.675 6.372,15.696C6.789,15.952 7.406,16.263 8.365,16.742L16.722,20.921L24.078,13.565C24.729,12.914 25.784,12.914 26.435,13.565C27.086,14.216 27.086,15.271 26.435,15.922L19.079,23.278L23.258,31.635C23.737,32.593 24.048,33.211 24.304,33.628C24.325,33.661 24.344,33.692 24.362,33.719C24.375,33.689 24.389,33.656 24.404,33.62C24.588,33.167 24.793,32.506 25.108,31.482L31.926,9.324C32.176,8.512 32.328,8.012 32.404,7.648C32.409,7.625 32.414,7.603 32.417,7.583C32.397,7.587 32.375,7.591 32.351,7.596ZM31.666,4.334C32.197,4.222 32.91,4.125 33.63,4.39C34.548,4.727 35.273,5.451 35.611,6.37C35.875,7.09 35.778,7.804 35.666,8.335C35.554,8.866 35.355,9.512 35.134,10.233L28.271,32.536C27.985,33.467 27.738,34.27 27.492,34.875C27.262,35.441 26.89,36.226 26.14,36.694C25.226,37.265 24.093,37.359 23.097,36.946C22.281,36.607 21.785,35.895 21.465,35.375C21.121,34.816 20.744,34.062 20.308,33.188L15.958,24.489C15.879,24.331 15.84,24.253 15.809,24.197L15.807,24.193L15.804,24.191C15.748,24.16 15.67,24.121 15.511,24.042L6.804,19.688C5.934,19.253 5.183,18.878 4.626,18.535C4.106,18.216 3.393,17.721 3.054,16.904C2.641,15.908 2.735,14.774 3.306,13.86C3.774,13.11 4.559,12.738 5.125,12.509C5.731,12.262 6.534,12.015 7.464,11.729C7.488,11.721 7.513,11.714 7.538,11.706L29.766,4.867C30.487,4.645 31.134,4.446 31.666,4.334Z" />
</svg>