<!-- Created by Apktool M – https://maximoff.su/apktool -->
<svg
	xmlns="http://www.w3.org/2000/svg"
	xmlns:xlink="http://www.w3.org/1999/xlink"
	version="1.1"
	width="24"
	height="24"
	viewBox="0 0 24 24">
	<path
		fill="rgb(0,0,0)"
		fill-opacity="1.0"
		d="M19.411,4.558C19.192,4.603 18.893,4.695 18.406,4.845L5.111,8.935C4.496,9.124 4.1,9.247 3.828,9.358C3.806,9.367 3.786,9.375 3.768,9.383C3.785,9.394 3.803,9.405 3.823,9.417C4.073,9.571 4.444,9.758 5.019,10.045L10.033,12.552L14.447,8.139C14.837,7.748 15.47,7.748 15.861,8.139C16.251,8.529 16.251,9.163 15.861,9.553L11.448,13.967L13.955,18.981C14.242,19.556 14.429,19.927 14.583,20.177C14.595,20.197 14.606,20.215 14.617,20.232C14.625,20.213 14.633,20.194 14.642,20.172C14.753,19.9 14.876,19.504 15.065,18.889L19.155,5.594C19.305,5.107 19.396,4.807 19.442,4.589C19.445,4.575 19.448,4.562 19.45,4.55C19.438,4.552 19.425,4.555 19.411,4.558ZM18.999,2.6C19.318,2.533 19.746,2.475 20.178,2.634C20.729,2.836 21.164,3.27 21.366,3.822C21.525,4.254 21.467,4.682 21.4,5.001C21.333,5.319 21.213,5.707 21.08,6.139L16.963,19.522C16.791,20.08 16.643,20.562 16.495,20.925C16.357,21.264 16.134,21.735 15.684,22.016C15.136,22.359 14.456,22.416 13.858,22.168C13.368,21.964 13.071,21.537 12.879,21.225C12.673,20.889 12.447,20.437 12.184,19.913L9.575,14.693C9.527,14.599 9.504,14.552 9.485,14.518L9.484,14.516L9.482,14.515C9.448,14.496 9.402,14.473 9.306,14.425L4.082,11.813C3.56,11.552 3.11,11.327 2.775,11.121C2.464,10.929 2.036,10.632 1.832,10.142C1.584,9.545 1.641,8.864 1.983,8.316C2.265,7.866 2.736,7.643 3.075,7.505C3.438,7.357 3.92,7.209 4.478,7.037C4.493,7.033 4.508,7.028 4.523,7.024L17.86,2.92C18.292,2.787 18.68,2.667 18.999,2.6Z"
		fill-rule="evenodd" />
</svg>