<!-- Created by Apktool M – https://maximoff.su/apktool -->
<svg
	xmlns="http://www.w3.org/2000/svg"
	xmlns:xlink="http://www.w3.org/1999/xlink"
	version="1.1"
	width="24"
	height="24"
	viewBox="0 0 24 24">
	<path
		fill="rgb(70,83,74)"
		d="M6,22C5.45,22 4.979,21.804 4.588,21.413C4.196,21.021 4,20.55 4,20V10C4,9.45 4.196,8.979 4.588,8.587C4.979,8.196 5.45,8 6,8H7V6C7,4.617 7.488,3.438 8.462,2.463C9.438,1.487 10.617,1 12,1C13.383,1 14.563,1.487 15.538,2.463C16.513,3.438 17,4.617 17,6V8H18C18.55,8 19.021,8.196 19.413,8.587C19.804,8.979 20,9.45 20,10V20C20,20.55 19.804,21.021 19.413,21.413C19.021,21.804 18.55,22 18,22H6ZM6,20H18V10H6V20ZM9,8H15V6C15,5.167 14.708,4.458 14.125,3.875C13.542,3.292 12.833,3 12,3C11.167,3 10.458,3.292 9.875,3.875C9.292,4.458 9,5.167 9,6V8Z"
		fill-opacity="0.7" />
	<path
		fill="rgb(70,83,74)"
		d="M12.938,15.874C13.498,15.55 13.875,14.944 13.875,14.25C13.875,13.215 13.036,12.375 12,12.375C10.965,12.375 10.125,13.215 10.125,14.25C10.125,14.944 10.502,15.55 11.063,15.874V17.25C11.063,17.768 11.482,18.188 12,18.188C12.518,18.188 12.938,17.768 12.938,17.25V15.874Z"
		fill-opacity="0.7"
		fill-rule="evenodd" />
</svg>