<!-- Created by Apktool M – https://maximoff.su/apktool -->
<svg
	xmlns="http://www.w3.org/2000/svg"
	xmlns:xlink="http://www.w3.org/1999/xlink"
	version="1.1"
	width="156"
	height="156"
	viewBox="0 0 156 156">
	<path
		fill="rgb(7,149,95)"
		fill-opacity="1.0"
		d="M78 0C121.078 0 156 34.9218 156 78C156 121.078 121.078 156 78 156C34.9218 156 0 121.078 0 78C0 34.9218 34.9218 0 78 0Z" />
	<path
		fill="rgb(204,230,225)"
		fill-opacity="1.0"
		d="M46.9452 106.422L42.2445 79.7633L106.163 50.9974L104.878 82.0879L55.9601 110.603C52.319 112.726 47.6771 110.573 46.9452 106.422Z" />
	<path
		fill="rgb(144,202,191)"
		fill-opacity="1.0"
		d="M50.5194 108.11L55.3213 92.1456L74.273 99.9268L54.6495 111.366C52.4331 112.658 49.7804 110.567 50.5194 108.11Z" />
	<path
		fill="rgb(255,255,255)"
		fill-opacity="1.0"
		d="M42.7242 82.4826L29.4318 76.5567C24.1956 74.2224 24.8321 66.5949 30.3828 65.1607L115.815 43.0864C120.629 41.8425 124.808 46.6085 122.946 51.2188L98.0113 112.954C95.984 117.973 89.6895 119.616 85.4681 116.227L55.1051 91.8537L104.053 56.8152L42.7242 82.4826Z" />
</svg>