<!-- Created by Apktool M – https://maximoff.su/apktool -->
<svg
	xmlns="http://www.w3.org/2000/svg"
	xmlns:xlink="http://www.w3.org/1999/xlink"
	version="1.1"
	width="24"
	height="24"
	viewBox="0 0 24 24">
	<g>
		<clipPath
			d="M0,0h24v24h-24z" />
		<path
			fill="none"
			stroke="rgb(0,0,0)"
			stroke-opacity="1.0"
			d="M5,5h4v4h-4z"
			stroke-width="2" />
		<path
			fill="none"
			stroke="rgb(0,0,0)"
			stroke-opacity="1.0"
			d="M5,15h4v4h-4z"
			stroke-width="2" />
		<path
			fill="none"
			stroke="rgb(0,0,0)"
			stroke-opacity="1.0"
			d="M15,5h4v4h-4z"
			stroke-width="2" />
		<path
			fill="rgb(0,0,0)"
			fill-opacity="1.0"
			d="M11,14h2v2h-2z" />
		<path
			fill="rgb(0,0,0)"
			fill-opacity="1.0"
			d="M11,18h2v2h-2z" />
		<path
			fill="rgb(0,0,0)"
			fill-opacity="1.0"
			d="M15,11h2v5h-2z" />
		<path
			fill="rgb(0,0,0)"
			fill-opacity="1.0"
			d="M17,14h3v2h-3z" />
		<path
			fill="rgb(0,0,0)"
			fill-opacity="1.0"
			d="M17,18h3v2h-3z" />
		<path
			fill="rgb(0,0,0)"
			fill-opacity="1.0"
			d="M13,16h4v2h-4z" />
		<path
			fill="rgb(0,0,0)"
			fill-opacity="1.0"
			d="M6,0V2H2V6H0V0L6,0Z" />
		<path
			fill="rgb(0,0,0)"
			fill-opacity="1.0"
			d="M24,0H18V2H22V6H24V0Z" />
		<path
			fill="rgb(0,0,0)"
			fill-opacity="1.0"
			d="M6,24V22H2V18H0V24L6,24Z" />
		<path
			fill="rgb(0,0,0)"
			fill-opacity="1.0"
			d="M24,24H18V22H22V18H24V24Z" />
		<path
			fill="rgb(0,0,0)"
			fill-opacity="1.0"
			d="M4,11h7v2h-7z" />
		<path
			fill="rgb(0,0,0)"
			fill-opacity="1.0"
			d="M11,8h2v3h-2z" />
		<path
			fill="rgb(0,0,0)"
			fill-opacity="1.0"
			d="M11,4h2v2h-2z" />
	</g>
</svg>