<!-- Created by Apktool M – https://maximoff.su/apktool -->
<svg
	xmlns="http://www.w3.org/2000/svg"
	xmlns:xlink="http://www.w3.org/1999/xlink"
	version="1.1"
	width="24"
	height="24"
	viewBox="0 0 24 24">
	<path
		fill="rgb(215,55,84)"
		fill-opacity="1.0"
		d="M18,12C21.312,12 24,9.312 24,6C24,2.688 21.312,0 18,0C14.688,-0 12,2.688 12,6C12,9.312 14.688,12 18,12ZM18,5.4C17.83,5.4 17.688,5.457 17.573,5.573C17.458,5.688 17.4,5.83 17.4,6V8.4C17.4,8.57 17.458,8.712 17.573,8.828C17.688,8.943 17.83,9 18,9C18.17,9 18.313,8.943 18.427,8.828C18.542,8.712 18.6,8.57 18.6,8.4V6C18.6,5.83 18.542,5.688 18.427,5.573C18.313,5.457 18.17,5.4 18,5.4ZM17.573,3.172C17.688,3.057 17.83,3 18,3C18.17,3 18.313,3.057 18.427,3.172C18.542,3.287 18.6,3.43 18.6,3.6C18.6,3.77 18.542,3.912 18.427,4.028C18.313,4.142 18.17,4.2 18,4.2C17.83,4.2 17.688,4.142 17.573,4.028C17.458,3.912 17.4,3.77 17.4,3.6C17.4,3.43 17.458,3.287 17.573,3.172Z"
		fill-rule="evenodd" />
</svg>