<!-- Created by Apktool M – https://maximoff.su/apktool -->
<svg
	xmlns="http://www.w3.org/2000/svg"
	xmlns:xlink="http://www.w3.org/1999/xlink"
	version="1.1"
	width="24"
	height="24"
	viewBox="0 0 24 24">
	<path
		fill="rgb(0,0,0)"
		fill-opacity="1.0"
		d="M5,21C4.45,21 3.979,20.804 3.588,20.413C3.196,20.021 3,19.55 3,19V5C3,4.45 3.196,3.979 3.588,3.588C3.979,3.196 4.45,3 5,3H9.175C9.358,2.417 9.717,1.938 10.25,1.563C10.783,1.188 11.367,1 12,1C12.667,1 13.262,1.188 13.788,1.563C14.313,1.938 14.667,2.417 14.85,3H19C19.55,3 20.021,3.196 20.413,3.588C20.804,3.979 21,4.45 21,5V9C21,9.283 20.904,9.521 20.712,9.712C20.521,9.904 20.283,10 20,10C19.717,10 19.479,9.904 19.288,9.712C19.096,9.521 19,9.283 19,9V5H17V7C17,7.283 16.904,7.521 16.712,7.713C16.521,7.904 16.283,8 16,8H8C7.717,8 7.479,7.904 7.287,7.713C7.096,7.521 7,7.283 7,7V5H5V19H9.5C9.783,19 10.021,19.096 10.212,19.288C10.404,19.479 10.5,19.717 10.5,20C10.5,20.283 10.404,20.521 10.212,20.712C10.021,20.904 9.783,21 9.5,21H5ZM12,5C12.283,5 12.521,4.904 12.712,4.713C12.904,4.521 13,4.283 13,4C13,3.717 12.904,3.479 12.712,3.287C12.521,3.096 12.283,3 12,3C11.717,3 11.479,3.096 11.288,3.287C11.096,3.479 11,3.717 11,4C11,4.283 11.096,4.521 11.288,4.713C11.479,4.904 11.717,5 12,5Z" />
	<path
		fill="rgb(0,0,0)"
		fill-opacity="1.0"
		d="M6.938,11.625C6.938,11.107 7.357,10.688 7.875,10.688H13.875C14.393,10.688 14.813,11.107 14.813,11.625C14.813,12.143 14.393,12.563 13.875,12.563H7.875C7.357,12.563 6.938,12.143 6.938,11.625Z"
		fill-rule="evenodd" />
	<path
		fill="rgb(0,0,0)"
		fill-opacity="1.0"
		d="M6.938,15C6.938,14.482 7.357,14.063 7.875,14.063H10.875C11.393,14.063 11.813,14.482 11.813,15C11.813,15.518 11.393,15.938 10.875,15.938H7.875C7.357,15.938 6.938,15.518 6.938,15Z"
		fill-rule="evenodd" />
	<path
		fill="rgb(0,0,0)"
		fill-opacity="1.0"
		d="M14,20V18.35C14,18.217 14.025,18.087 14.075,17.962C14.125,17.837 14.2,17.725 14.3,17.625L19.525,12.425C20.106,11.844 21.077,11.877 21.65,12.45L22.575,13.375C23.105,13.971 23.159,14.916 22.575,15.5L17.375,20.7C17.275,20.8 17.163,20.875 17.038,20.925C16.913,20.975 16.783,21 16.65,21H15C14.717,21 14.479,20.904 14.288,20.712C14.096,20.521 14,20.283 14,20ZM15.5,19.5H16.45L19.475,16.45L19.025,15.975L18.55,15.525L15.5,18.55V19.5ZM19.025,15.975L18.55,15.525L19.475,16.45L19.025,15.975Z" />
</svg>