<!-- Created by Apktool M – https://maximoff.su/apktool -->
<svg
	xmlns="http://www.w3.org/2000/svg"
	xmlns:xlink="http://www.w3.org/1999/xlink"
	version="1.1"
	width="24"
	height="24"
	viewBox="0 0 24 24">
	<path
		fill="rgb(0,0,0)"
		fill-opacity="1.0"
		d="M12,22.5C17.799,22.5 22.5,17.799 22.5,12C22.5,6.201 17.799,1.5 12,1.5C6.201,1.5 1.5,6.201 1.5,12C1.5,17.799 6.201,22.5 12,22.5ZM3.5,12C3.5,7.306 7.305,3.5 12,3.5C13.991,3.5 15.823,4.185 17.271,5.332L5.332,17.272C4.185,15.823 3.5,13.991 3.5,12ZM12,20.5C16.694,20.5 20.5,16.694 20.5,12C20.5,10.018 19.821,8.194 18.684,6.748L6.748,18.684C8.194,19.821 10.017,20.5 12,20.5Z"
		fill-rule="evenodd" />
</svg>