<!-- Created by Apktool M – https://maximoff.su/apktool -->
<svg
	xmlns="http://www.w3.org/2000/svg"
	xmlns:xlink="http://www.w3.org/1999/xlink"
	version="1.1"
	width="24"
	height="24"
	viewBox="0 0 24 24">
	<path
		fill="rgb(0,0,0)"
		fill-opacity="1.0"
		d="M11.925,20.625C9.542,20.625 7.508,19.783 5.825,18.1C4.142,16.417 3.3,14.385 3.3,12.006C3.3,9.627 4.142,7.589 5.825,5.894C7.508,4.198 9.542,3.35 11.925,3.35C13.442,3.35 14.778,3.656 15.935,4.268C17.091,4.88 18.088,5.732 18.925,6.825V4.25C18.925,3.753 19.328,3.35 19.825,3.35C20.322,3.35 20.725,3.753 20.725,4.25V9.625C20.725,10.177 20.277,10.625 19.725,10.625H14.313C13.822,10.625 13.425,10.228 13.425,9.738C13.425,9.247 13.822,8.85 14.313,8.85H17.525C16.875,7.917 16.092,7.163 15.175,6.588C14.258,6.013 13.175,5.725 11.925,5.725C10.171,5.725 8.686,6.332 7.472,7.546C6.257,8.759 5.65,10.243 5.65,11.996C5.65,13.748 6.257,15.233 7.472,16.45C8.687,17.667 10.171,18.275 11.926,18.275C13.225,18.275 14.429,17.9 15.538,17.15C16.45,16.533 17.145,15.752 17.622,14.807C17.81,14.436 18.175,14.175 18.591,14.175H19.031C19.685,14.175 20.166,14.797 19.913,15.401C19.342,16.765 18.452,17.911 17.244,18.837C15.689,20.029 13.917,20.625 11.925,20.625Z" />
</svg>