<!-- Created by Apktool M – https://maximoff.su/apktool -->
<svg
	xmlns="http://www.w3.org/2000/svg"
	xmlns:xlink="http://www.w3.org/1999/xlink"
	version="1.1"
	width="24"
	height="24"
	viewBox="0 0 24 24">
	<path
		fill="rgb(0,0,0)"
		fill-opacity="1.0"
		d="M4.769,12.068C4.955,11.945 5.231,11.796 5.68,11.555L17.933,4.971C18.499,4.666 18.865,4.471 19.135,4.355C19.156,4.345 19.176,4.337 19.195,4.33C19.191,4.349 19.186,4.37 19.181,4.393C19.115,4.679 18.987,5.074 18.787,5.685L17.047,11.014L10.806,11.053C10.253,11.057 9.809,11.507 9.812,12.059C9.815,12.612 10.266,13.057 10.818,13.053L17.06,13.014L18.865,18.322C19.073,18.931 19.205,19.323 19.275,19.609C19.281,19.632 19.285,19.653 19.29,19.672C19.271,19.665 19.251,19.657 19.23,19.648C18.958,19.535 18.59,19.344 18.02,19.047L5.687,12.615C5.234,12.379 4.957,12.234 4.77,12.113C4.757,12.105 4.746,12.098 4.736,12.091C4.746,12.084 4.757,12.076 4.769,12.068ZM3.666,10.4C3.394,10.58 3.052,10.844 2.862,11.262C2.618,11.796 2.622,12.411 2.872,12.943C3.068,13.359 3.413,13.619 3.687,13.795C3.961,13.971 4.321,14.159 4.722,14.368L17.136,20.842C17.654,21.112 18.101,21.345 18.464,21.495C18.802,21.636 19.293,21.808 19.81,21.685C20.439,21.536 20.957,21.092 21.2,20.493C21.4,20.001 21.305,19.489 21.218,19.133C21.124,18.751 20.961,18.272 20.772,17.717L18.893,12.193C18.858,12.092 18.842,12.043 18.831,12.006L18.83,12.003L18.83,12.001C18.841,11.964 18.857,11.914 18.89,11.813L20.703,6.261C20.884,5.706 21.04,5.227 21.129,4.845C21.212,4.488 21.301,3.975 21.095,3.486C20.844,2.89 20.32,2.452 19.69,2.31C19.172,2.194 18.682,2.372 18.346,2.517C17.985,2.672 17.541,2.91 17.027,3.187C17.013,3.194 17,3.201 16.986,3.209L4.694,9.814C4.296,10.028 3.938,10.22 3.666,10.4Z"
		fill-rule="evenodd" />
</svg>