<!-- Created by Apktool M – https://maximoff.su/apktool -->
<svg
	xmlns="http://www.w3.org/2000/svg"
	xmlns:xlink="http://www.w3.org/1999/xlink"
	version="1.1"
	width="24"
	height="24"
	viewBox="0 0 24 24">
	<path
		fill="rgb(0,0,0)"
		fill-opacity="1.0"
		d="M19.231,12.047C19.045,11.924 18.769,11.774 18.32,11.533L6.067,4.949C5.501,4.644 5.135,4.449 4.865,4.333C4.844,4.324 4.824,4.315 4.805,4.308C4.809,4.327 4.814,4.348 4.819,4.371C4.886,4.657 5.013,5.052 5.213,5.663L6.953,10.993L13.194,11.031C13.747,11.035 14.191,11.485 14.188,12.038C14.185,12.59 13.734,13.035 13.182,13.031L6.94,12.993L5.135,18.3C4.928,18.909 4.795,19.302 4.725,19.587C4.72,19.61 4.715,19.631 4.71,19.65C4.729,19.643 4.749,19.635 4.77,19.626C5.042,19.514 5.41,19.323 5.98,19.025L18.313,12.594C18.766,12.358 19.043,12.212 19.23,12.091C19.243,12.083 19.254,12.076 19.264,12.069C19.254,12.062 19.243,12.055 19.231,12.047ZM20.334,10.378C20.605,10.558 20.948,10.822 21.138,11.241C21.382,11.775 21.378,12.389 21.128,12.921C20.932,13.337 20.587,13.597 20.313,13.773C20.039,13.949 19.679,14.137 19.278,14.346L6.864,20.82C6.346,21.09 5.899,21.323 5.536,21.474C5.198,21.614 4.707,21.786 4.19,21.664C3.561,21.514 3.043,21.07 2.8,20.471C2.6,19.979 2.695,19.467 2.782,19.112C2.876,18.729 3.039,18.25 3.228,17.695L5.107,12.171C5.142,12.071 5.158,12.021 5.169,11.984L5.17,11.982L5.169,11.98C5.159,11.943 5.143,11.893 5.11,11.792L3.297,6.239C3.116,5.684 2.96,5.205 2.871,4.823C2.788,4.467 2.699,3.953 2.905,3.464C3.156,2.868 3.68,2.43 4.31,2.288C4.828,2.172 5.318,2.351 5.654,2.495C6.015,2.65 6.459,2.889 6.973,3.165C6.987,3.172 7,3.18 7.014,3.187L19.306,9.792C19.704,10.006 20.062,10.199 20.334,10.378Z"
		fill-rule="evenodd" />
</svg>