<!-- Created by Apktool M – https://maximoff.su/apktool -->
<svg
	xmlns="http://www.w3.org/2000/svg"
	xmlns:xlink="http://www.w3.org/1999/xlink"
	version="1.1"
	width="24"
	height="24"
	viewBox="0 0 24 24">
	<path
		fill="rgb(0,0,0)"
		fill-opacity="1.0"
		d="M8.009,22C7.459,22 6.988,21.804 6.597,21.413C6.205,21.021 6.009,20.55 6.009,20C6.009,19.45 6.205,18.979 6.597,18.587C6.988,18.196 7.459,18 8.009,18C8.559,18 9.03,18.196 9.422,18.587C9.813,18.979 10.009,19.45 10.009,20C10.009,20.55 9.813,21.021 9.422,21.413C9.03,21.804 8.559,22 8.009,22ZM18.009,22C17.459,22 16.988,21.804 16.597,21.413C16.205,21.021 16.009,20.55 16.009,20C16.009,19.45 16.205,18.979 16.597,18.587C16.988,18.196 17.459,18 18.009,18C18.559,18 19.03,18.196 19.422,18.587C19.813,18.979 20.009,19.45 20.009,20C20.009,20.55 19.813,21.021 19.422,21.413C19.03,21.804 18.559,22 18.009,22ZM7.159,6L9.559,11H16.559L19.309,6H7.159ZM6.209,4H20.959C21.343,4 21.634,4.171 21.834,4.512C22.034,4.854 22.043,5.2 21.859,5.55L18.309,11.95C18.126,12.283 17.88,12.542 17.572,12.725C17.263,12.908 16.926,13 16.559,13H9.109L8.009,15H19.009C19.293,15 19.53,15.096 19.722,15.288C19.913,15.479 20.009,15.717 20.009,16C20.009,16.283 19.913,16.521 19.722,16.712C19.53,16.904 19.293,17 19.009,17H8.009C7.259,17 6.693,16.671 6.309,16.013C5.926,15.354 5.909,14.7 6.259,14.05L7.609,11.6L4.009,4H3.009C2.726,4 2.488,3.904 2.297,3.713C2.105,3.521 2.009,3.283 2.009,3C2.009,2.717 2.105,2.479 2.297,2.287C2.488,2.096 2.726,2 3.009,2H4.634C4.818,2 4.993,2.05 5.159,2.15C5.326,2.25 5.451,2.392 5.534,2.575L6.209,4Z" />
</svg>