<!-- Created by Apktool M – https://maximoff.su/apktool -->
<svg
	xmlns="http://www.w3.org/2000/svg"
	xmlns:xlink="http://www.w3.org/1999/xlink"
	version="1.1"
	width="24"
	height="24"
	viewBox="0 0 24 24">
	<path
		fill="rgb(0,0,0)"
		fill-opacity="1.0"
		d="M23.665,11.168C23.493,8.543 21.225,6.389 18.458,5.081C15.644,3.751 12.026,3.086 8.574,3.504C6.559,3.747 4.495,4.384 2.915,5.516C1.087,6.825 0.207,8.718 0.207,11.042L0.227,13.521C0.232,15.878 1.001,17.72 2.405,18.963C3.795,20.193 5.711,20.751 7.856,20.751C9.7,20.751 10.928,19.771 11.887,18.931C11.986,18.844 12.081,18.759 12.174,18.678C12.546,18.347 12.869,18.061 13.21,17.827C13.618,17.546 13.988,17.387 14.381,17.36C15.4,17.289 16.018,17.592 16.662,17.969C16.727,18.007 16.794,18.047 16.862,18.088C17.472,18.454 18.236,18.911 19.295,18.911C19.672,18.911 20.759,18.878 21.764,18.193C22.821,17.472 23.634,16.141 23.635,13.861L23.665,11.168ZM7.825,16.307C5.923,16.307 4.404,15.812 3.368,14.895C2.474,14.104 1.867,12.934 1.727,11.302C1.72,11.217 1.714,11.13 1.709,11.042C1.614,9.282 2.345,7.769 3.788,6.736C5.005,5.864 6.639,5.304 8.348,5.048L13.546,13.045C13.092,13.178 12.69,13.398 12.329,13.647C11.904,13.939 11.495,14.303 11.117,14.638C10.17,15.479 9.161,16.307 7.825,16.307ZM19.264,15.967L19.321,15.967C19.701,15.97 20.961,15.892 21.971,15.306C22.172,14.549 22.203,13.671 22.195,12.851L17.97,6.51C20.493,7.741 22.032,9.465 22.165,11.151C22.159,11.641 22.188,12.231 22.195,12.851C22.203,13.673 22.173,14.547 21.971,15.306C21.79,15.988 21.471,16.577 20.919,16.953C20.297,17.378 19.59,17.411 19.295,17.411C18.669,17.411 18.254,17.167 17.613,16.788C17.551,16.751 17.487,16.713 17.42,16.674C16.667,16.233 15.734,15.762 14.276,15.864C13.523,15.916 12.897,16.222 12.36,16.591C11.935,16.883 11.526,17.247 11.148,17.582C11.063,17.657 10.98,17.731 10.899,17.802C9.969,18.617 9.107,19.251 7.856,19.251C5.954,19.251 4.435,18.756 3.399,17.84C2.796,17.306 2.324,16.6 2.037,15.697C2.145,15.808 2.257,15.915 2.374,16.019C3.764,17.249 5.68,17.807 7.825,17.807C9.566,17.807 10.899,16.836 12.142,15.734C12.515,15.403 12.838,15.117 13.179,14.882C13.587,14.602 13.957,14.443 14.35,14.416C15.369,14.345 15.987,14.648 16.631,15.025C17.273,15.4 18.086,15.967 19.264,15.967ZM12.018,4.934C11.361,4.881 10.697,4.866 10.035,4.892L15.27,12.944C16.186,13.06 16.97,13.486 17.751,13.944L12.018,4.934ZM15.547,5.581C15.034,5.431 14.504,5.302 13.964,5.198L19.851,14.449C20.254,14.414 20.75,14.316 21.181,14.032L15.547,5.581ZM21.971,15.306C22.172,14.549 22.203,13.671 22.195,12.851C22.203,13.673 22.173,14.547 21.971,15.306Z"
		fill-rule="evenodd" />
	<path
		fill="rgb(0,0,0)"
		fill-opacity="1.0"
		d="M6.023,12.393C6.596,12.393 7.061,11.928 7.061,11.354C7.061,10.781 6.596,10.316 6.023,10.316C5.449,10.316 4.984,10.781 4.984,11.354C4.984,11.928 5.449,12.393 6.023,12.393ZM6.023,13.893C7.425,13.893 8.561,12.757 8.561,11.354C8.561,9.953 7.425,8.816 6.023,8.816C4.621,8.816 3.484,9.953 3.484,11.354C3.484,12.757 4.621,13.893 6.023,13.893Z"
		fill-rule="evenodd" />
</svg>