<!-- Created by Apktool M – https://maximoff.su/apktool -->
<svg
	xmlns="http://www.w3.org/2000/svg"
	xmlns:xlink="http://www.w3.org/1999/xlink"
	version="1.1"
	width="48"
	height="48"
	viewBox="0 0 48 48">
	<path
		fill="rgb(0,0,0)"
		fill-opacity="1.0"
		d="M37.619,40.403L26.483,29.267C25.489,30.063 24.345,30.692 23.053,31.156C21.76,31.62 20.385,31.852 18.926,31.852C15.313,31.852 12.256,30.601 9.754,28.099C7.251,25.596 6,22.539 6,18.926C6,15.313 7.251,12.256 9.754,9.754C12.256,7.251 15.313,6 18.926,6C22.539,6 25.596,7.251 28.099,9.754C30.601,12.256 31.852,15.313 31.852,18.926C31.852,20.385 31.62,21.76 31.156,23.053C30.692,24.345 30.063,25.489 29.267,26.483L40.453,37.669C40.818,38.034 41,38.481 41,39.011C41,39.542 40.801,40.006 40.403,40.403C40.039,40.768 39.575,40.95 39.011,40.95C38.448,40.95 37.984,40.768 37.619,40.403ZM18.926,27.875C21.412,27.875 23.525,27.005 25.265,25.265C27.005,23.525 27.875,21.412 27.875,18.926C27.875,16.44 27.005,14.327 25.265,12.587C23.525,10.847 21.412,9.977 18.926,9.977C16.44,9.977 14.327,10.847 12.587,12.587C10.847,14.327 9.977,16.44 9.977,18.926C9.977,21.412 10.847,23.525 12.587,25.265C14.327,27.005 16.44,27.875 18.926,27.875Z" />
</svg>