<!-- Created by Apktool M – https://maximoff.su/apktool -->
<svg
	xmlns="http://www.w3.org/2000/svg"
	xmlns:xlink="http://www.w3.org/1999/xlink"
	version="1.1"
	width="40"
	height="40"
	viewBox="0 0 40 40">
	<g>
		<path
			fill="rgb(0,0,0)"
			fill-opacity="1.0"
			d="M16.667,5C16.194,5 15.799,4.84 15.479,4.521C15.16,4.201 15,3.806 15,3.333C15,2.861 15.16,2.465 15.479,2.146C15.799,1.826 16.194,1.667 16.667,1.667H23.333C23.806,1.667 24.201,1.826 24.521,2.146C24.84,2.465 25,2.861 25,3.333C25,3.806 24.84,4.201 24.521,4.521C24.201,4.84 23.806,5 23.333,5H16.667ZM20,23.333C20.472,23.333 20.868,23.174 21.188,22.854C21.507,22.535 21.667,22.139 21.667,21.667V15C21.667,14.528 21.507,14.132 21.188,13.813C20.868,13.493 20.472,13.333 20,13.333C19.528,13.333 19.132,13.493 18.813,13.813C18.493,14.132 18.333,14.528 18.333,15V21.667C18.333,22.139 18.493,22.535 18.813,22.854C19.132,23.174 19.528,23.333 20,23.333ZM20,36.667C17.944,36.667 16.007,36.271 14.188,35.479C12.368,34.688 10.778,33.611 9.417,32.25C8.056,30.889 6.979,29.299 6.188,27.479C5.396,25.66 5,23.722 5,21.667C5,19.611 5.396,17.674 6.188,15.854C6.979,14.035 8.056,12.444 9.417,11.083C10.778,9.722 12.368,8.646 14.188,7.854C16.007,7.062 17.944,6.667 20,6.667C21.722,6.667 23.375,6.944 24.958,7.5C26.542,8.056 28.028,8.861 29.417,9.917L30.583,8.75C30.889,8.444 31.278,8.292 31.75,8.292C32.222,8.292 32.611,8.444 32.917,8.75C33.222,9.056 33.375,9.444 33.375,9.917C33.375,10.389 33.222,10.778 32.917,11.083L31.75,12.25C32.806,13.639 33.611,15.125 34.167,16.708C34.722,18.292 35,19.944 35,21.667C35,23.722 34.604,25.66 33.813,27.479C33.021,29.299 31.944,30.889 30.583,32.25C29.222,33.611 27.632,34.688 25.813,35.479C23.993,36.271 22.056,36.667 20,36.667ZM20,33.333C23.222,33.333 25.972,32.194 28.25,29.917C30.528,27.639 31.667,24.889 31.667,21.667C31.667,18.444 30.528,15.694 28.25,13.417C25.972,11.139 23.222,10 20,10C16.778,10 14.028,11.139 11.75,13.417C9.472,15.694 8.333,18.444 8.333,21.667C8.333,24.889 9.472,27.639 11.75,29.917C14.028,32.194 16.778,33.333 20,33.333Z" />
	</g>
</svg>