<!-- Created by Apktool M – https://maximoff.su/apktool -->
<svg
	xmlns="http://www.w3.org/2000/svg"
	xmlns:xlink="http://www.w3.org/1999/xlink"
	version="1.1"
	width="24"
	height="24"
	viewBox="0 0 24 24">
	<path
		fill="rgb(0,0,0)"
		fill-opacity="1.0"
		d="M5,22C4.45,22 3.979,21.804 3.588,21.413C3.196,21.021 3,20.55 3,20V16.2C3,15.967 3.042,15.733 3.125,15.5C3.208,15.267 3.333,15.058 3.5,14.875L5.05,13.125C5.233,12.908 5.471,12.796 5.762,12.788C6.054,12.779 6.3,12.875 6.5,13.075C6.683,13.258 6.783,13.483 6.8,13.75C6.817,14.017 6.733,14.25 6.55,14.45L5.175,16H18.825L17.5,14.5C17.317,14.3 17.233,14.067 17.25,13.8C17.267,13.533 17.367,13.308 17.55,13.125C17.75,12.925 17.996,12.829 18.288,12.837C18.579,12.846 18.817,12.958 19,13.175L20.5,14.875C20.667,15.058 20.792,15.267 20.875,15.5C20.958,15.733 21,15.967 21,16.2V20C21,20.55 20.804,21.021 20.413,21.413C20.021,21.804 19.55,22 19,22H5ZM5,20H19V18H5V20ZM10.625,14.375L7.1,10.85C6.717,10.467 6.529,9.996 6.537,9.437C6.546,8.879 6.742,8.408 7.125,8.025L12.025,3.125C12.408,2.742 12.883,2.542 13.45,2.525C14.017,2.508 14.492,2.692 14.875,3.075L18.4,6.6C18.783,6.983 18.983,7.45 19,8C19.017,8.55 18.833,9.017 18.45,9.4L13.45,14.4C13.067,14.783 12.596,14.971 12.038,14.962C11.479,14.954 11.008,14.758 10.625,14.375ZM17,8.025L13.475,4.5L8.525,9.45L12.05,12.975L17,8.025Z" />
</svg>