<!-- Created by Apktool M – https://maximoff.su/apktool -->
<svg
	xmlns="http://www.w3.org/2000/svg"
	xmlns:xlink="http://www.w3.org/1999/xlink"
	version="1.1"
	width="24"
	height="24"
	viewBox="0 0 24 24">
	<path
		fill="rgb(0,0,0)"
		fill-opacity="1.0"
		d="M10.674,11C10.122,11 9.674,11.448 9.674,12C9.674,12.552 10.122,13 10.674,13H12.586L8.293,17.293C7.902,17.683 7.902,18.316 8.293,18.707C8.683,19.098 9.317,19.098 9.707,18.707L14,14.414L14,16.326C14,16.878 14.448,17.326 15,17.326C15.552,17.326 16,16.878 16,16.326L16,12C16,11.735 15.895,11.48 15.707,11.293C15.52,11.105 15.265,11 15,11H10.674Z" />
	<path
		fill="rgb(0,0,0)"
		fill-opacity="1.0"
		d="M15.284,3.499L4.344,7H4C2.895,7 2,7.895 2,9V21C2,22.104 2.895,23 4,23H20C21.105,23 22,22.104 22,21V9C22,7.895 21.105,7 20,7H19.054L18.417,5.09C17.984,3.791 16.587,3.082 15.284,3.499ZM16.52,5.722C16.433,5.462 16.154,5.321 15.893,5.404L10.906,7H16.946L16.52,5.722ZM20,9H4V21H20V9Z"
		fill-rule="evenodd" />
</svg>