<svg xmlns="http://www.w3.org/2000/svg" xmlns:xlink="http://www.w3.org/1999/xlink" version="1.1" width="24" height="24" viewBox="0 0 24 24">
  <path fill="rgb(68,70,78)" fill-opacity="1.0" d="M5,5.858C3.895,5.858 3,6.753 3,7.858V19.858C3,20.962 3.895,21.858 5,21.858H19C20.105,21.858 21,20.962 21,19.858V7.858C21,6.753 20.105,5.858 19,5.858H18.781H5ZM19,7.858L5,7.858V19.858H19V16.858H14C12.895,16.858 12,15.962 12,14.858V12.858C12,11.753 12.895,10.858 14,10.858H19V7.858ZM19,12.858H14V14.858H19V12.858Z" fill-rule="evenodd" />
  <path fill="rgb(68,70,78)" fill-opacity="1.0" d="M4.419,5.943C4.606,5.886 4.794,5.858 5,5.858H18.781L18.231,3.658C17.949,2.531 16.77,1.881 15.666,2.243L4.419,5.943ZM11.073,5.858H16.719L16.291,4.143L11.073,5.858Z" fill-rule="evenodd" />
</svg>