<!-- Created by Apktool M – https://maximoff.su/apktool -->
<svg
	xmlns="http://www.w3.org/2000/svg"
	xmlns:xlink="http://www.w3.org/1999/xlink"
	version="1.1"
	width="24"
	height="24"
	viewBox="0 0 24 24">
	<path
		fill="rgb(0,0,0)"
		fill-opacity="1.0"
		d="M18.992,4.904C17.122,3.032 14.636,2.001 11.986,2C6.528,2 2.085,6.442 2.083,11.903C2.082,13.648 2.538,15.352 3.405,16.853L2,21.985L7.25,20.608C8.696,21.398 10.325,21.813 11.982,21.813H11.986C17.444,21.813 21.888,17.371 21.889,11.911C21.89,9.264 20.861,6.777 18.992,4.905V4.904ZM11.986,20.141H11.983C10.506,20.141 9.058,19.744 7.794,18.994L7.493,18.815L4.378,19.632L5.209,16.595L5.013,16.283C4.19,14.973 3.754,13.458 3.755,11.903C3.757,7.365 7.449,3.672 11.99,3.672C14.188,3.673 16.255,4.53 17.809,6.087C19.363,7.642 20.219,9.711 20.218,11.91C20.216,16.448 16.523,20.141 11.986,20.141V20.141ZM16.501,13.977C16.254,13.853 15.038,13.254 14.81,13.172C14.583,13.089 14.419,13.048 14.254,13.296C14.089,13.544 13.615,14.101 13.47,14.266C13.326,14.431 13.182,14.451 12.934,14.328C12.687,14.204 11.89,13.942 10.944,13.1C10.209,12.443 9.712,11.633 9.568,11.385C9.423,11.137 9.552,11.004 9.676,10.881C9.787,10.769 9.923,10.591 10.047,10.447C10.171,10.303 10.212,10.199 10.295,10.034C10.377,9.869 10.336,9.725 10.274,9.601C10.212,9.477 9.718,8.259 9.511,7.764C9.31,7.281 9.106,7.347 8.955,7.339C8.81,7.332 8.646,7.33 8.48,7.33C8.315,7.33 8.047,7.392 7.82,7.64C7.593,7.888 6.954,8.486 6.954,9.704C6.954,10.921 7.841,12.099 7.965,12.264C8.089,12.429 9.71,14.928 12.192,16C12.782,16.255 13.243,16.408 13.602,16.522C14.195,16.71 14.734,16.684 15.161,16.62C15.636,16.549 16.625,16.021 16.831,15.443C17.037,14.866 17.037,14.37 16.975,14.267C16.914,14.164 16.748,14.101 16.501,13.978L16.501,13.977Z"
		fill-rule="evenodd" />
</svg>