<!-- Created by Apktool M – https://maximoff.su/apktool -->
<svg
	xmlns="http://www.w3.org/2000/svg"
	xmlns:xlink="http://www.w3.org/1999/xlink"
	version="1.1"
	width="24"
	height="24"
	viewBox="0 0 24 24">
	<path
		fill="rgb(0,0,0)"
		fill-opacity="1"
		fill-rule="evenodd"
		d="M9,5C7.343,5 6,6.343 6,8C6,9.657 7.343,11 9,11C10.657,11 12,9.657 12,8C12,6.343 10.657,5 9,5ZM4,8C4,5.239 6.239,3 9,3C11.761,3 14,5.239 14,8C14,10.761 11.761,13 9,13C6.239,13 4,10.761 4,8ZM19,9C19.552,9 20,9.448 20,10V12H22C22.552,12 23,12.448 23,13C23,13.552 22.552,14 22,14H20V16C20,16.552 19.552,17 19,17C18.448,17 18,16.552 18,16V14H16C15.448,14 15,13.552 15,13C15,12.448 15.448,12 16,12H18V10C18,9.448 18.448,9 19,9ZM4.203,15.34C5.474,14.492 7.173,14 9,14C10.827,14 12.526,14.492 13.797,15.34C15.062,16.183 16,17.457 16,19C16,19.552 15.552,20 15,20C14.448,20 14,19.552 14,19C14,18.334 13.595,17.608 12.688,17.004C11.788,16.404 10.487,16 9,16C7.513,16 6.212,16.404 5.312,17.004C4.405,17.608 4,18.334 4,19C4,19.552 3.552,20 3,20C2.448,20 2,19.552 2,19C2,17.457 2.938,16.183 4.203,15.34Z" />
</svg>