<!-- Created by Apktool M – https://maximoff.su/apktool -->
<svg
	xmlns="http://www.w3.org/2000/svg"
	xmlns:xlink="http://www.w3.org/1999/xlink"
	version="1.1"
	width="40"
	height="40"
	viewBox="0 0 40 40">
	<path
		fill="rgb(0,0,0)"
		fill-opacity="1.0"
		d="M29.427,10.572C27.475,8.619 24.309,8.619 22.357,10.572L20,12.929C19.349,13.58 18.293,13.58 17.642,12.929C16.992,12.278 16.992,11.223 17.642,10.572L20,8.215C23.254,4.96 28.53,4.961 31.784,8.215C35.039,11.469 35.04,16.745 31.785,20C31.785,20 31.785,20 31.785,20L29.428,22.357C28.778,23.008 27.722,23.008 27.071,22.357C26.42,21.706 26.42,20.651 27.071,20L29.428,17.643C31.38,15.691 31.38,12.525 29.427,10.572ZM25.892,14.108C26.543,14.759 26.543,15.814 25.892,16.465L16.464,25.893C15.814,26.544 14.758,26.544 14.107,25.893C13.457,25.242 13.457,24.187 14.107,23.536L23.535,14.108C24.186,13.457 25.242,13.457 25.892,14.108ZM12.929,17.643C13.58,18.294 13.58,19.349 12.929,20L10.573,22.357C8.62,24.31 8.62,27.476 10.572,29.428C12.524,31.381 15.691,31.381 17.643,29.428C17.643,29.428 17.643,29.428 17.643,29.428L19.999,27.072C20.65,26.42 21.705,26.42 22.356,27.071C23.007,27.722 23.008,28.777 22.357,29.428L20.001,31.785C16.746,35.039 11.469,35.04 8.215,31.785C4.96,28.531 4.961,23.254 8.215,20L10.573,17.643C11.223,16.992 12.279,16.992 12.929,17.643Z"
		fill-rule="evenodd" />
</svg>