<!-- Created by Apktool M – https://maximoff.su/apktool -->
<svg
	xmlns="http://www.w3.org/2000/svg"
	xmlns:xlink="http://www.w3.org/1999/xlink"
	version="1.1"
	width="24"
	height="24"
	viewBox="0 0 24 24">
	<path
		fill="rgb(0,0,0)"
		fill-opacity="1"
		fill-rule="evenodd"
		d="M18.3,10.113V6.974C18.3,4.779 14.875,3 10.65,3C6.425,3 3,4.779 3,6.974V10.113C3,11.536 4.019,12.696 5.382,13.463C5.485,13.521 5.591,13.577 5.7,13.632V16.413C5.7,17.836 6.719,18.996 8.082,19.763C9.464,20.54 11.328,21 13.35,21C15.372,21 17.236,20.54 18.618,19.763C19.981,18.996 21,17.836 21,16.413V13.274C21,12.059 19.951,10.972 18.297,10.243C18.299,10.2 18.3,10.157 18.3,10.113ZM17.937,11.539C17.523,12.319 16.791,12.971 15.918,13.463C14.536,14.24 12.672,14.7 10.65,14.7C9.618,14.7 8.627,14.58 7.72,14.359C7.936,14.54 8.215,14.727 8.572,14.913C9.726,15.512 11.413,15.923 13.35,15.923C15.287,15.923 16.974,15.512 18.128,14.913C19.342,14.282 19.65,13.639 19.65,13.274C19.65,12.909 19.342,12.265 18.128,11.634C18.066,11.602 18.002,11.57 17.937,11.539ZM15.428,8.613C16.642,7.982 16.95,7.338 16.95,6.974C16.95,6.609 16.642,5.965 15.428,5.334C14.274,4.735 12.587,4.325 10.65,4.325C8.713,4.325 7.026,4.735 5.872,5.334C4.658,5.965 4.35,6.609 4.35,6.974C4.35,7.338 4.658,7.982 5.872,8.613C7.026,9.212 8.713,9.623 10.65,9.623C12.587,9.623 14.274,9.212 15.428,8.613ZM10.65,10.947C13.263,10.947 15.57,10.267 16.95,9.228V10.113C16.95,10.858 16.408,11.66 15.246,12.314C14.104,12.957 12.48,13.375 10.65,13.375C8.82,13.375 7.196,12.957 6.054,12.314C4.892,11.66 4.35,10.858 4.35,10.113V9.228C5.73,10.267 8.037,10.947 10.65,10.947ZM19.65,15.528C18.27,16.567 15.963,17.247 13.35,17.247C10.737,17.247 8.43,16.567 7.05,15.528V16.413C7.05,17.158 7.592,17.96 8.754,18.614C9.896,19.257 11.52,19.676 13.35,19.676C15.18,19.676 16.804,19.257 17.946,18.614C19.108,17.96 19.65,17.158 19.65,16.413V15.528Z" />
</svg>