<!-- Created by Apktool M – https://maximoff.su/apktool -->
<svg
	xmlns="http://www.w3.org/2000/svg"
	xmlns:xlink="http://www.w3.org/1999/xlink"
	version="1.1"
	width="24"
	height="24"
	viewBox="0 0 24 24">
	<path
		fill="rgb(0,0,0)"
		fill-opacity="1"
		fill-rule="evenodd"
		d="M4.568,4C4.579,4 4.589,4 4.6,4L7.241,4C8.046,4 8.711,4 9.252,4.044C9.814,4.09 10.331,4.189 10.816,4.436C11.268,4.666 11.669,4.979 12,5.354C12.332,4.979 12.733,4.666 13.184,4.436C13.67,4.189 14.186,4.09 14.748,4.044C15.289,4 15.953,4 16.758,4L19.432,4C19.684,4 19.93,4 20.138,4.017C20.367,4.036 20.636,4.08 20.908,4.218C21.284,4.41 21.59,4.715 21.782,5.092C21.92,5.364 21.965,5.633 21.983,5.862C22,6.07 22,6.315 22,6.567V15.433C22,15.685 22,15.93 21.983,16.138C21.965,16.367 21.92,16.636 21.782,16.908C21.59,17.285 21.284,17.59 20.908,17.782C20.636,17.92 20.367,17.964 20.138,17.983C19.93,18 19.684,18 19.432,18L16.569,18C15.567,18 15.275,18.01 15.024,18.086C14.773,18.163 14.539,18.288 14.336,18.455C14.133,18.621 13.962,18.859 13.407,19.692L12.832,20.555C12.647,20.833 12.334,21 12,21C11.666,21 11.354,20.833 11.168,20.555L10.593,19.692C10.037,18.859 9.867,18.621 9.664,18.455C9.461,18.288 9.227,18.163 8.976,18.086C8.725,18.01 8.433,18 7.431,18L4.568,18C4.316,18 4.07,18 3.862,17.983C3.633,17.964 3.363,17.92 3.092,17.782C2.715,17.59 2.41,17.284 2.218,16.908C2.08,16.637 2.036,16.367 2.017,16.138C2,15.93 2,15.684 2,15.432L2,6.6C2,6.589 2,6.579 2,6.568C2,6.316 2,6.07 2.017,5.862C2.036,5.633 2.08,5.363 2.218,5.092C2.41,4.716 2.715,4.41 3.092,4.218C3.363,4.08 3.633,4.036 3.862,4.017C4.07,4 4.316,4 4.568,4ZM13,16.966C13.022,16.947 13.044,16.928 13.066,16.91C13.472,16.576 13.94,16.325 14.443,16.173C15.015,15.999 15.626,16 16.437,16C16.48,16 16.524,16 16.569,16H19.4C19.697,16 19.859,15.999 19.975,15.99C19.98,15.989 19.984,15.989 19.989,15.988C19.989,15.984 19.989,15.98 19.99,15.976C19.999,15.859 20,15.697 20,15.4V6.6C20,6.303 19.999,6.141 19.99,6.024C19.989,6.02 19.989,6.016 19.989,6.011C19.984,6.011 19.98,6.011 19.975,6.01C19.859,6.001 19.696,6 19.4,6H16.8C15.943,6 15.361,6.001 14.911,6.038C14.473,6.073 14.249,6.138 14.092,6.218C13.716,6.41 13.41,6.716 13.218,7.092C13.138,7.248 13.073,7.473 13.038,7.911C13.001,8.361 13,8.943 13,9.8V16.966ZM11,9.8C11,8.944 10.999,8.361 10.962,7.911C10.927,7.473 10.862,7.249 10.782,7.092C10.59,6.715 10.284,6.41 9.908,6.218C9.752,6.138 9.528,6.073 9.089,6.038C8.639,6.001 8.057,6 7.2,6H4.6C4.304,6 4.141,6.001 4.025,6.01C4.02,6.011 4.016,6.011 4.011,6.011C4.011,6.016 4.011,6.02 4.01,6.025C4.001,6.141 4,6.303 4,6.6V15.4C4,15.696 4.001,15.859 4.01,15.975C4.011,15.98 4.011,15.984 4.011,15.988C4.016,15.989 4.02,15.989 4.025,15.99C4.141,15.999 4.304,16 4.6,16H7.431C7.476,16 7.52,16 7.563,16C8.374,16 8.986,15.999 9.557,16.173C10.06,16.325 10.528,16.576 10.934,16.91C10.957,16.928 10.978,16.947 11,16.965V9.8Z" />
</svg>