<!-- Created by Apktool M – https://maximoff.su/apktool -->
<svg
	xmlns="http://www.w3.org/2000/svg"
	xmlns:xlink="http://www.w3.org/1999/xlink"
	version="1.1"
	width="40"
	height="24"
	viewBox="0 0 40 24">
	<path
		fill="rgb(255,255,255)"
		fill-opacity="1.0"
		d="M3.6,0L36.4,0A3.6,3.6 0,0 1,40 3.6L40,20.4A3.6,3.6 0,0 1,36.4 24L3.6,24A3.6,3.6 0,0 1,0 20.4L0,3.6A3.6,3.6 0,0 1,3.6 0z" />
	<path
		fill="rgb(57,181,74)"
		fill-opacity="1.0"
		d="M8.799,10.217C8.752,10.262 8.741,10.3 8.725,10.334C8.316,11.185 7.908,12.037 7.503,12.891C7.467,12.967 7.425,12.989 7.346,12.987C7.1,12.987 6.902,12.987 6.672,12.987C6.594,12.989 6.557,12.964 6.524,12.894C6.115,12.038 5.704,11.184 5.292,10.33C5.277,10.298 5.261,10.266 5.241,10.225C5.212,10.264 5.223,10.3 5.223,10.332C5.223,11.341 5.223,12.348 5.223,13.356C5.223,13.53 5.247,13.505 5.069,13.506C4.752,13.507 4.434,13.506 4.116,13.506C4.094,13.506 4.07,13.505 4.047,13.506C4.012,13.507 4,13.489 4.001,13.457C4.001,13.437 4.001,13.417 4.001,13.398C4.001,11.719 4.001,10.04 4.001,8.361C4.001,8.348 4.003,8.335 4.001,8.321C3.994,8.267 4.021,8.256 4.07,8.256C4.523,8.257 4.975,8.258 5.429,8.255C5.495,8.255 5.512,8.293 5.534,8.337C5.819,8.912 6.104,9.486 6.387,10.059C6.593,10.473 6.798,10.887 7.004,11.305C7.037,11.296 7.041,11.268 7.051,11.247C7.519,10.3 7.984,9.351 8.453,8.404C8.542,8.222 8.489,8.259 8.686,8.258C9.09,8.257 9.492,8.258 9.896,8.258C9.919,8.258 9.943,8.259 9.966,8.258C10.003,8.257 10.022,8.27 10.019,8.309C10.017,8.332 10.019,8.356 10.019,8.378C10.019,10.047 10.019,11.717 10.019,13.386C10.019,13.522 10.035,13.509 9.899,13.509C9.571,13.509 9.245,13.509 8.917,13.509C8.894,13.509 8.871,13.509 8.848,13.509C8.819,13.509 8.805,13.495 8.805,13.467C8.805,13.444 8.805,13.42 8.805,13.397C8.804,12.452 8.802,11.507 8.801,10.562C8.801,10.454 8.801,10.347 8.801,10.219L8.799,10.217Z" />
	<path
		fill="rgb(57,181,74)"
		fill-opacity="1.0"
		d="M21.54,10.883C21.54,10.043 21.54,9.204 21.54,8.364C21.54,8.251 21.526,8.256 21.646,8.256C22.958,8.256 24.27,8.256 25.583,8.256C25.596,8.256 25.61,8.257 25.623,8.256C25.667,8.252 25.688,8.266 25.688,8.317C25.686,8.64 25.686,8.964 25.688,9.288C25.688,9.335 25.672,9.355 25.625,9.351C25.602,9.349 25.578,9.351 25.555,9.351C24.722,9.351 23.889,9.351 23.057,9.351C23.034,9.351 23.01,9.351 22.987,9.351C22.915,9.353 22.914,9.353 22.913,9.42C22.913,9.701 22.913,9.982 22.912,10.263C22.912,10.309 22.923,10.332 22.973,10.328C22.996,10.326 23.02,10.328 23.042,10.328C23.796,10.328 24.55,10.328 25.303,10.328C25.421,10.328 25.414,10.313 25.414,10.44C25.414,10.73 25.414,11.022 25.414,11.312C25.414,11.425 25.422,11.416 25.314,11.416C24.739,11.417 24.164,11.419 23.589,11.42C23.391,11.42 23.192,11.422 22.994,11.423C22.913,11.423 22.912,11.425 22.912,11.505C22.912,11.777 22.912,12.047 22.912,12.319C22.912,12.408 22.912,12.408 23.005,12.409C23.884,12.409 24.764,12.409 25.643,12.409C25.774,12.409 25.762,12.396 25.762,12.523C25.762,12.814 25.762,13.105 25.762,13.395C25.762,13.504 25.762,13.504 25.655,13.504C24.839,13.504 24.022,13.504 23.206,13.504C22.694,13.504 22.182,13.504 21.669,13.504C21.523,13.504 21.541,13.516 21.54,13.379C21.54,12.546 21.54,11.714 21.54,10.881V10.883Z" />
	<path
		fill="rgb(57,181,74)"
		fill-opacity="1.0"
		d="M30.217,9.827C30.175,9.821 30.145,9.794 30.11,9.775C29.704,9.555 29.279,9.388 28.823,9.304C28.663,9.274 28.502,9.258 28.34,9.292C28.301,9.299 28.263,9.308 28.225,9.32C27.901,9.428 27.937,9.779 28.102,9.925C28.198,10.009 28.305,10.072 28.424,10.116C28.613,10.187 28.805,10.248 28.998,10.305C29.273,10.387 29.547,10.474 29.812,10.585C30.029,10.674 30.219,10.802 30.382,10.971C30.592,11.189 30.704,11.45 30.733,11.75C30.764,12.066 30.73,12.371 30.583,12.656C30.411,12.986 30.141,13.211 29.805,13.361C29.5,13.497 29.178,13.565 28.845,13.582C28.021,13.627 27.261,13.42 26.56,12.994C26.452,12.928 26.351,12.854 26.253,12.775C26.225,12.752 26.207,12.731 26.227,12.692C26.397,12.356 26.565,12.019 26.734,11.682C26.735,11.68 26.74,11.679 26.743,11.677C26.774,11.682 26.792,11.707 26.815,11.725C27.265,12.09 27.775,12.328 28.344,12.438C28.543,12.476 28.745,12.483 28.944,12.429C28.989,12.417 29.031,12.4 29.073,12.381C29.376,12.243 29.354,11.861 29.153,11.707C29.044,11.623 28.926,11.561 28.797,11.518C28.55,11.434 28.296,11.372 28.047,11.297C27.822,11.228 27.6,11.153 27.385,11.059C27.147,10.955 26.95,10.797 26.788,10.596C26.64,10.412 26.571,10.197 26.548,9.966C26.505,9.53 26.597,9.132 26.891,8.794C27.082,8.574 27.322,8.427 27.592,8.323C27.965,8.18 28.354,8.139 28.751,8.15C29.268,8.165 29.765,8.278 30.241,8.48C30.393,8.545 30.539,8.621 30.682,8.706C30.724,8.732 30.733,8.755 30.71,8.801C30.55,9.134 30.392,9.47 30.234,9.803C30.23,9.811 30.223,9.819 30.217,9.827Z" />
	<path
		fill="rgb(57,181,74)"
		fill-opacity="1.0"
		d="M30.887,13.495C30.887,13.495 30.887,13.495 30.887,13.495V13.495Z" />
	<path
		fill="rgb(57,181,74)"
		fill-opacity="1.0"
		d="M30.887,13.495C30.904,13.507 30.922,13.506 30.941,13.505C30.945,13.505 30.949,13.505 30.954,13.505C31.11,13.505 31.266,13.505 31.422,13.505C31.683,13.505 31.943,13.505 32.203,13.507C32.263,13.507 32.29,13.486 32.311,13.432C32.399,13.203 32.489,12.975 32.579,12.747L32.611,12.667C32.628,12.623 32.637,12.601 32.653,12.59C32.668,12.58 32.691,12.58 32.737,12.58H34.82C34.883,12.58 34.927,12.612 34.951,12.674C34.988,12.768 35.024,12.863 35.061,12.957C35.121,13.112 35.181,13.267 35.241,13.421C35.273,13.507 35.276,13.507 35.335,13.506C35.342,13.506 35.35,13.506 35.36,13.506H36.649C36.654,13.506 36.659,13.506 36.664,13.507C36.685,13.508 36.706,13.51 36.727,13.491C36.726,13.487 36.724,13.483 36.723,13.479C36.717,13.46 36.71,13.439 36.701,13.419C36.587,13.146 36.472,12.873 36.358,12.6C35.763,11.181 35.167,9.761 34.574,8.342C34.546,8.275 34.512,8.255 34.443,8.255C34.033,8.259 33.623,8.259 33.213,8.255C33.141,8.255 33.111,8.282 33.084,8.344C32.36,10.035 31.635,11.724 30.909,13.413C30.906,13.419 30.903,13.425 30.9,13.431C30.89,13.451 30.88,13.471 30.887,13.495ZM33.828,9.749C33.82,9.725 33.813,9.701 33.791,9.683V9.684C33.723,9.815 33.088,11.451 33.078,11.524C33.1,11.532 33.121,11.531 33.144,11.53C33.151,11.53 33.158,11.529 33.166,11.529H34.395C34.472,11.529 34.497,11.494 34.47,11.425C34.259,10.873 34.047,10.322 33.835,9.771C33.833,9.764 33.83,9.756 33.828,9.749Z"
		fill-rule="evenodd" />
	<path
		fill="rgb(57,181,74)"
		fill-opacity="1.0"
		d="M16.597,8.375V10.884L16.598,10.884V13.423C16.598,13.505 16.599,13.507 16.678,13.507H17.879C17.97,13.507 17.97,13.506 17.97,13.413V12.155C17.97,12.055 17.97,12.055 18.074,12.055H18.917C19.189,12.056 19.458,12.028 19.719,11.951C20.295,11.78 20.708,11.43 20.905,10.852C21.013,10.535 21.038,10.207 21.008,9.874C20.943,9.168 20.587,8.679 19.924,8.42C19.609,8.296 19.279,8.256 18.942,8.256H16.711C16.647,8.256 16.618,8.253 16.606,8.266C16.593,8.279 16.597,8.308 16.597,8.375ZM17.969,9.433V10.155H17.971V10.878C17.971,10.958 17.972,10.959 18.053,10.959H18.845C18.924,10.959 19.003,10.95 19.081,10.937C19.399,10.885 19.616,10.688 19.687,10.388C19.712,10.285 19.719,10.179 19.713,10.073C19.69,9.708 19.485,9.462 19.13,9.38C19.049,9.362 18.967,9.352 18.884,9.352H18.052C17.97,9.353 17.969,9.354 17.969,9.433Z"
		fill-rule="evenodd" />
	<path
		fill="rgb(216,227,210)"
		fill-opacity="1.0"
		d="M15.81,7.671V6.408C15.81,6.184 15.626,6 15.402,6C15.179,6 14.995,6.184 14.995,6.408V7.03C14.935,7.019 14.873,7.012 14.81,7.012H11.828C11.278,7.012 10.828,7.462 10.828,8.012V17C10.828,17.551 11.278,18 11.828,18H14.81C15.361,18 15.81,17.551 15.81,17V7.671ZM15.206,12.399C15.206,12.922 14.778,13.351 14.254,13.351H12.383C11.859,13.351 11.431,12.922 11.431,12.399V9.207C11.431,8.683 11.859,8.255 12.383,8.255H14.254C14.778,8.255 15.206,8.683 15.206,9.207V12.399Z" />
	<path
		fill="rgb(237,28,36)"
		fill-opacity="1.0"
		d="M16.374,10.224C16.462,10.268 16.484,10.274 16.422,10.36C15.571,11.56 14.028,11.824 12.653,11.78C12.212,11.765 10.917,11.559 10.479,11.383C10.654,11.398 10.836,11.451 10.867,11.454C11.579,11.53 12.203,11.308 12.771,10.893C13.172,10.596 13.506,10.233 13.797,9.829C13.93,9.645 14.052,9.452 14.161,9.252C14.199,9.182 14.243,9.169 14.314,9.203C15.004,9.541 15.684,9.879 16.374,10.224Z" />
	<path
		fill="rgb(157,77,68)"
		fill-opacity="1.0"
		d="M12.787,10.882C12.724,10.956 12.645,11.021 12.564,11.07C12.285,11.243 11.988,11.375 11.666,11.443C11.4,11.499 11.131,11.508 10.861,11.47C10.728,11.451 10.613,11.423 10.483,11.382C10.602,11.38 10.711,11.388 10.828,11.352C11.355,11.248 11.78,10.783 12.098,10.377C12.179,10.273 12.196,10.272 12.269,10.377C12.398,10.562 12.543,10.731 12.743,10.845C12.766,10.858 12.789,10.873 12.795,10.902L12.787,10.882Z" />
</svg>