<!-- Created by Apktool M – https://maximoff.su/apktool -->
<svg
	xmlns="http://www.w3.org/2000/svg"
	xmlns:xlink="http://www.w3.org/1999/xlink"
	version="1.1"
	width="32"
	height="20"
	viewBox="0 0 32 20">
	<path
		fill="rgb(255,255,255)"
		fill-opacity="1.0"
		d="M3,0L29,0A3,3 0,0 1,32 3L32,17A3,3 0,0 1,29 20L3,20A3,3 0,0 1,0 17L0,3A3,3 0,0 1,3 0z" />
	<path
		fill="rgb(0,103,143)"
		fill-opacity="1.0"
		d="M30,9.994C30,13.311 23.732,16 16,16C8.268,16 2,13.311 2,9.994C2,6.683 8.268,4 16,4C23.732,4 30,6.683 30,9.994Z" />
	<path
		fill="rgb(255,255,255)"
		fill-opacity="1.0"
		d="M7.139,12.963L8.585,6.957H10.897V10.453L12.421,6.957H14.805L13.365,12.963H11.841L12.708,9.081L10.897,12.963H9.672V9.081L8.728,12.963H7.139Z" />
	<path
		fill="rgb(237,29,36)"
		fill-opacity="1.0"
		d="M15.384,12.199L15.169,13.037H16.831L17.052,12.199H15.384Z" />
	<path
		fill="rgb(255,203,5)"
		fill-opacity="1.0"
		d="M15.462,11.975L16.329,8.478H14.805L15.169,6.957H19.872L19.513,8.478H17.99L17.123,11.975H15.462Z" />
	<path
		fill="rgb(255,255,255)"
		fill-opacity="1.0"
		d="M18.784,12.963L20.236,6.957H21.897L22.626,10.149L23.415,6.957H24.939L23.487,12.963H21.897L21.103,9.689L20.308,12.963H18.784Z" />
</svg>