<!-- Created by Apktool M – https://maximoff.su/apktool -->
<svg
	xmlns="http://www.w3.org/2000/svg"
	xmlns:xlink="http://www.w3.org/1999/xlink"
	version="1.1"
	width="312"
	height="320"
	viewBox="0 0 312 320">
	<path
		fill="rgb(7,149,95)"
		d="M17.33,210.5C5.17,277.77 242,307 270.5,223C316.31,87.98 246,42 195.5,42C131,42 144.45,96.38 113.5,141C79.36,190.23 27,157 17.33,210.5Z"
		stroke-opacity="0.1"
		fill-opacity="0.1" />
	<path
		fill="rgb(255,146,109)"
		fill-opacity="1.0"
		d="M275.18,137.48m-25.48,0a25.48,25.48 0,1 1,50.95 0a25.48,25.48 0,1 1,-50.95 0" />
	<path
		fill="rgb(248,124,82)"
		fill-opacity="1.0"
		d="M275.18,137.48m-20.11,0a20.11,20.11 0,1 1,40.23 0a20.11,20.11 0,1 1,-40.23 0" />
	<path
		fill="rgb(255,170,141)"
		fill-opacity="1.0"
		d="M275.18,137.48m-17.29,0a17.29,17.29 0,1 1,34.59 0a17.29,17.29 0,1 1,-34.59 0" />
	<path
		fill="rgb(235,102,57)"
		fill-opacity="1.0"
		d="M274.99,135.91C271.46,135.91 271.46,134.83 271.46,134.18C271.46,133.34 272.7,132.44 274.99,132.44C277.09,132.44 277.44,133.55 277.47,134.21L279.23,134.18H281C281,132.4 279.82,129.89 276.76,129.18V127.25H273.23V129.11C269.74,129.69 267.93,131.94 267.93,134.18C267.93,136.12 268.85,139.39 274.99,139.39C278.53,139.39 278.53,140.56 278.53,141.13C278.53,141.85 277.43,142.86 274.99,142.86C271.74,142.86 271.48,141.38 271.46,141.13H267.93C267.93,142.72 269.1,145.56 273.23,146.2V148.08H276.76V146.19C280.24,145.62 282.06,143.37 282.06,141.13C282.06,139.18 281.14,135.91 274.99,135.91Z" />
	<path
		fill="rgb(72,67,89)"
		fill-opacity="1.0"
		d="M248.24,54.98H168.82C161.74,54.98 156,60.72 156,67.8V244.7C156,251.78 161.74,257.52 168.82,257.52H248.24C255.32,257.52 261.06,251.78 261.06,244.7V67.8C261.06,60.72 255.32,54.98 248.24,54.98Z" />
	<path
		fill="rgb(255,255,255)"
		fill-opacity="1.0"
		d="M251.49,65.81H165.57C162.67,65.81 160.33,68.16 160.33,71.05V241.45C160.33,244.34 162.67,246.69 165.57,246.69H251.49C254.38,246.69 256.72,244.34 256.72,241.45V71.05C256.72,68.16 254.38,65.81 251.49,65.81Z" />
	<g>
		<clipPath
			d="M251.49,65.81H165.57C162.68,65.81 160.33,68.16 160.33,71.05V241.45C160.33,244.34 162.68,246.69 165.57,246.69H251.49C254.38,246.69 256.72,244.34 256.72,241.45V71.05C256.72,68.16 254.38,65.81 251.49,65.81Z" />
		<path
			fill="rgb(235,235,235)"
			fill-opacity="1.0"
			d="M173,70L244,70A8,8 0,0 1,252 78L252,102A8,8 0,0 1,244 110L173,110A8,8 0,0 1,165 102L165,78A8,8 0,0 1,173 70z" />
		<path
			fill="rgb(235,235,235)"
			fill-opacity="1.0"
			d="M171,114L199.5,114A6,6 0,0 1,205.5 120L205.5,124A6,6 0,0 1,199.5 130L171,130A6,6 0,0 1,165 124L165,120A6,6 0,0 1,171 114z" />
		<path
			fill="rgb(235,235,235)"
			fill-opacity="1.0"
			d="M217.5,114L246,114A6,6 0,0 1,252 120L252,124A6,6 0,0 1,246 130L217.5,130A6,6 0,0 1,211.5 124L211.5,120A6,6 0,0 1,217.5 114z" />
		<path
			fill="rgb(235,235,235)"
			fill-opacity="1.0"
			d="M173,138L244,138A8,8 0,0 1,252 146L252,157A8,8 0,0 1,244 165L173,165A8,8 0,0 1,165 157L165,146A8,8 0,0 1,173 138z" />
		<path
			fill="rgb(235,235,235)"
			fill-opacity="1.0"
			d="M173,169L244,169A8,8 0,0 1,252 177L252,188A8,8 0,0 1,244 196L173,196A8,8 0,0 1,165 188L165,177A8,8 0,0 1,173 169z" />
		<path
			fill="rgb(235,235,235)"
			fill-opacity="1.0"
			d="M173,200L244,200A8,8 0,0 1,252 208L252,219A8,8 0,0 1,244 227L173,227A8,8 0,0 1,165 219L165,208A8,8 0,0 1,173 200z" />
		<path
			fill="rgb(235,235,235)"
			fill-opacity="1.0"
			d="M173,231L244,231A8,8 0,0 1,252 239L252,250A8,8 0,0 1,244 258L173,258A8,8 0,0 1,165 250L165,239A8,8 0,0 1,173 231z" />
	</g>
	<path
		fill="rgb(255,146,109)"
		fill-opacity="1.0"
		d="M123.98,74m-18.99,0a18.99,18.99 0,1 1,37.97 0a18.99,18.99 0,1 1,-37.97 0" />
	<path
		fill="rgb(248,124,82)"
		fill-opacity="1.0"
		d="M123.98,74m-14.99,0a14.99,14.99 0,1 1,29.98 0a14.99,14.99 0,1 1,-29.98 0" />
	<path
		fill="rgb(255,170,141)"
		fill-opacity="1.0"
		d="M123.98,74m-12.89,0a12.89,12.89 0,1 1,25.78 0a12.89,12.89 0,1 1,-25.78 0" />
	<path
		fill="rgb(235,102,57)"
		fill-opacity="1.0"
		d="M123.84,72.84C121.21,72.84 121.21,72.03 121.21,71.54C121.21,70.91 122.13,70.25 123.84,70.25C125.4,70.25 125.67,71.07 125.68,71.56L127,71.54H128.32C128.32,70.21 127.44,68.34 125.16,67.81V66.38H122.52V67.77C119.93,68.2 118.57,69.87 118.57,71.54C118.57,72.99 119.26,75.43 123.84,75.43C126.47,75.43 126.47,76.3 126.47,76.72C126.47,77.26 125.66,78.02 123.84,78.02C121.42,78.02 121.22,76.91 121.21,76.72H118.57C118.57,77.91 119.44,80.03 122.52,80.5V81.9H125.16V80.49C127.75,80.07 129.11,78.39 129.11,76.72C129.11,75.27 128.42,72.84 123.84,72.84Z" />
	<path
		fill="rgb(234,60,88)"
		fill-opacity="1.0"
		d="M179.2,160.72C179.25,157.71 175.92,156.39 174.24,156.11L167.65,176.7C167.71,177.73 170.37,177.93 173.53,177.2C176.69,176.46 179.13,164.48 179.2,160.72Z" />
	<path
		fill="rgb(254,177,87)"
		fill-opacity="1.0"
		d="M119,240.1L134.48,176.11L149.26,179.6L133.83,242.75C132.77,244.16 130.95,249.26 124.97,247.85C120.71,246.84 119.31,241.84 119,240.1Z" />
	<path
		fill="rgb(234,166,85)"
		fill-opacity="1.0"
		d="M131.4,188.76L132.76,183.24L148.17,184.26L146.92,189.21L131.4,188.76Z" />
	<path
		fill="rgb(254,177,87)"
		fill-opacity="1.0"
		d="M97.95,105.6C108.68,113.89 127.14,127.29 145.4,134.07C160.1,139.54 171.62,143.29 173.4,149.31C174.82,154.1 175.23,159.03 173.48,166.47C171.72,173.9 169.15,178.13 165.74,181.78C161.46,186.37 149.47,184.57 133.88,182.89C114.51,180.8 92.19,183.77 78.89,186.39L97.95,105.6Z" />
	<path
		fill="rgb(255,233,217)"
		fill-opacity="1.0"
		stroke="rgb(234,60,88)"
		stroke-opacity="1.0"
		d="M98.34,148.34C95.76,159.28 92.04,168.74 88.2,175.18C86.27,178.42 84.39,180.75 82.73,182.14C81.02,183.58 80.01,183.65 79.56,183.54C79.1,183.44 78.23,182.92 77.34,180.87C76.48,178.88 75.84,175.96 75.57,172.2C75.01,164.72 75.92,154.6 78.5,143.65C81.08,132.71 84.8,123.25 88.64,116.8C90.57,113.57 92.44,111.24 94.1,109.85C95.81,108.41 96.83,108.34 97.28,108.44C97.73,108.55 98.61,109.07 99.49,111.12C100.36,113.11 100.99,116.03 101.27,119.79C101.83,127.27 100.92,137.39 98.34,148.34Z"
		stroke-width="5.81623" />
	<path
		fill="rgb(234,60,88)"
		fill-opacity="1.0"
		d="M136.63,156.57C138.21,149.89 139.42,139.67 139.57,133.42C139.62,131.68 141.41,130.36 143.03,130.98L162.18,138.25C163.05,138.57 163.64,139.38 163.65,140.3C163.7,144.99 163.21,154.41 161.38,162.19C159.51,170.11 155.48,179.55 153.18,184.39C152.79,185.22 151.92,185.73 151,185.68L130.35,184.7C128.61,184.61 127.51,182.68 128.23,181.09C131.11,174.65 135.01,163.41 136.63,156.57Z" />
	<g>
		<clipPath
			d="M100.71,148.65C95.49,170.96 85.54,187.71 78.5,186.06C71.45,184.41 69.98,164.99 75.2,142.68C80.42,120.37 90.37,103.62 97.41,105.27C104.46,106.92 105.93,126.34 100.71,148.65Z" />
		<path
			fill="rgb(254,177,87)"
			fill-opacity="1.0"
			d="M96.21,145.66m-19.01,-2.36a19.16,19.16 52.07,1 1,38.03 4.72a19.16,19.16 52.07,1 1,-38.03 -4.72" />
	</g>
	<path
		fill="rgb(234,60,88)"
		fill-opacity="1.0"
		d="M94.83,146.78C100.32,121.93 100.05,113.8 94.83,113C100.38,104.15 106.95,116.49 101.96,143.86C96.97,171.23 85.45,187.83 79.14,180.02C84.5,182.17 90.4,166.79 94.83,146.78Z" />
	<g>
		<clipPath
			d="M251.49,65.81H165.57C162.68,65.81 160.33,68.16 160.33,71.05V241.45C160.33,244.34 162.68,246.69 165.57,246.69H251.49C254.38,246.69 256.72,244.34 256.72,241.45V71.05C256.72,68.16 254.38,65.81 251.49,65.81Z" />
		<path
			fill="rgb(72,67,89)"
			d="M145.97,80L228.97,80A6,6 0,0 1,234.97 86L234.97,121A6,6 0,0 1,228.97 127L145.97,127A6,6 0,0 1,139.97 121L139.97,86A6,6 0,0 1,145.97 80z"
			stroke-opacity="0.3"
			fill-opacity="0.3" />
		<path
			fill="rgb(72,67,89)"
			d="M200,157L283,157A6,6 0,0 1,289 163L289,198A6,6 0,0 1,283 204L200,204A6,6 0,0 1,194 198L194,163A6,6 0,0 1,200 157z"
			stroke-opacity="0.3"
			fill-opacity="0.3" />
	</g>
	<path
		fill="rgb(64,191,183)"
		fill-opacity="1.0"
		d="M137,74L220,74A6,6 0,0 1,226 80L226,115A6,6 0,0 1,220 121L137,121A6,6 0,0 1,131 115L131,80A6,6 0,0 1,137 74z" />
	<g>
		<clipPath
			d="M142.97,84h28v28h-28z" />
		<path
			fill="rgb(176,233,229)"
			fill-opacity="1.0"
			d="M156.97,98L154.57,95.61C154.25,95.28 153.85,95.11 153.37,95.11C152.89,95.11 152.48,95.28 152.15,95.61C151.8,95.94 151.63,96.35 151.64,96.85C151.65,97.34 151.82,97.76 152.15,98.09L155.68,101.59C156.05,101.94 156.48,102.11 156.96,102.11C157.45,102.11 157.88,101.94 158.25,101.59L161.78,98.06C162.11,97.73 162.28,97.32 162.29,96.83C162.3,96.35 162.13,95.94 161.78,95.61C161.45,95.28 161.04,95.12 160.55,95.13C160.07,95.14 159.66,95.31 159.33,95.64L156.97,98ZM156.97,110.66C155.2,110.66 153.54,110.33 152.01,109.66C150.47,109 149.14,108.1 148,106.97C146.86,105.83 145.96,104.49 145.3,102.96C144.64,101.42 144.31,99.77 144.31,98C144.31,96.23 144.64,94.58 145.3,93.04C145.96,91.51 146.86,90.17 148,89.03C149.14,87.9 150.47,87 152.01,86.34C153.54,85.67 155.2,85.34 156.97,85.34C158.74,85.34 160.39,85.67 161.92,86.34C163.46,87 164.8,87.9 165.93,89.03C167.07,90.17 167.97,91.51 168.63,93.04C169.29,94.58 169.63,96.23 169.63,98C169.63,99.77 169.29,101.42 168.63,102.96C167.97,104.49 167.07,105.83 165.93,106.97C164.8,108.1 163.46,109 161.92,109.66C160.39,110.33 158.74,110.66 156.97,110.66ZM156.97,106.98C159.49,106.98 161.62,106.12 163.35,104.39C165.08,102.66 165.95,100.53 165.95,98C165.95,95.47 165.08,93.34 163.35,91.61C161.62,89.88 159.49,89.02 156.97,89.02C154.44,89.02 152.31,89.88 150.58,91.61C148.85,93.34 147.98,95.47 147.98,98C147.98,100.53 148.85,102.66 150.58,104.39C152.31,106.12 154.44,106.98 156.97,106.98Z" />
	</g>
	<path
		fill="rgb(176,233,229)"
		fill-opacity="1.0"
		d="M181.97,87L211.97,87A2,2 0,0 1,213.97 89L213.97,93A2,2 0,0 1,211.97 95L181.97,95A2,2 0,0 1,179.97 93L179.97,89A2,2 0,0 1,181.97 87z" />
	<path
		fill="rgb(176,233,229)"
		fill-opacity="1.0"
		d="M181.97,101L203.97,101A2,2 0,0 1,205.97 103L205.97,107A2,2 0,0 1,203.97 109L181.97,109A2,2 0,0 1,179.97 107L179.97,103A2,2 0,0 1,181.97 101z" />
	<path
		fill="rgb(64,191,183)"
		fill-opacity="1.0"
		d="M193.03,148L276.03,148A6,6 0,0 1,282.03 154L282.03,189A6,6 0,0 1,276.03 195L193.03,195A6,6 0,0 1,187.03 189L187.03,154A6,6 0,0 1,193.03 148z" />
	<g>
		<clipPath
			d="M199,158h28v28h-28z" />
		<path
			fill="rgb(176,233,229)"
			fill-opacity="1.0"
			d="M213,172L210.61,169.61C210.29,169.28 209.89,169.11 209.41,169.11C208.92,169.11 208.52,169.28 208.19,169.61C207.84,169.94 207.67,170.35 207.68,170.85C207.69,171.34 207.86,171.76 208.19,172.09L211.72,175.59C212.08,175.94 212.51,176.11 213,176.11C213.49,176.11 213.91,175.94 214.28,175.59L217.81,172.06C218.14,171.73 218.31,171.32 218.32,170.83C218.33,170.35 218.16,169.94 217.81,169.61C217.48,169.28 217.07,169.12 216.59,169.13C216.1,169.14 215.69,169.31 215.36,169.64L213,172ZM213,184.66C211.23,184.66 209.58,184.33 208.04,183.66C206.51,183 205.17,182.1 204.04,180.97C202.9,179.83 202,178.49 201.34,176.96C200.67,175.42 200.34,173.77 200.34,172C200.34,170.23 200.67,168.58 201.34,167.04C202,165.51 202.9,164.17 204.04,163.03C205.17,161.9 206.51,161 208.04,160.34C209.58,159.67 211.23,159.34 213,159.34C214.77,159.34 216.42,159.67 217.96,160.34C219.49,161 220.83,161.9 221.97,163.03C223.1,164.17 224,165.51 224.66,167.04C225.33,168.58 225.66,170.23 225.66,172C225.66,173.77 225.33,175.42 224.66,176.96C224,178.49 223.1,179.83 221.97,180.97C220.83,182.1 219.49,183 217.96,183.66C216.42,184.33 214.77,184.66 213,184.66ZM213,180.98C215.53,180.98 217.66,180.12 219.39,178.39C221.12,176.66 221.98,174.53 221.98,172C221.98,169.47 221.12,167.34 219.39,165.61C217.66,163.88 215.53,163.02 213,163.02C210.47,163.02 208.34,163.88 206.61,165.61C204.88,167.34 204.02,169.47 204.02,172C204.02,174.53 204.88,176.66 206.61,178.39C208.34,180.12 210.47,180.98 213,180.98Z" />
	</g>
	<path
		fill="rgb(176,233,229)"
		fill-opacity="1.0"
		d="M238,161L258,161A2,2 0,0 1,260 163L260,167A2,2 0,0 1,258 169L238,169A2,2 0,0 1,236 167L236,163A2,2 0,0 1,238 161z" />
	<path
		fill="rgb(176,233,229)"
		fill-opacity="1.0"
		d="M238,175L267,175A2,2 0,0 1,269 177L269,181A2,2 0,0 1,267 183L238,183A2,2 0,0 1,236 181L236,177A2,2 0,0 1,238 175z" />
	<path
		fill="rgb(234,60,88)"
		fill-opacity="1.0"
		d="M60.2,91.84L73.15,110.29L65.81,118.03L47.87,105.71L60.2,91.84Z" />
	<path
		fill="rgb(234,60,88)"
		fill-opacity="1.0"
		d="M32.11,121.04L56.59,131.83L54.51,142.26L28.13,141.02L32.11,121.04Z" />
	<path
		fill="rgb(234,60,88)"
		fill-opacity="1.0"
		d="M36.16,162.64L58.02,159.98L60.55,168.55L41.43,178.57L36.16,162.64Z" />
	<path
		fill="rgb(255,146,109)"
		fill-opacity="1.0"
		d="M144.76,49.86m-4.5,0a4.5,4.5 0,1 1,9 0a4.5,4.5 0,1 1,-9 0" />
	<path
		fill="rgb(7,149,95)"
		fill-opacity="1.0"
		d="M144.22,258C145.51,263.01 149.43,266.93 154.44,268.22C149.43,269.51 145.51,273.43 144.22,278.44C142.93,273.43 139.01,269.51 134,268.22C139.01,266.93 142.93,263.01 144.22,258Z" />
	<path
		fill="rgb(7,149,95)"
		fill-opacity="1.0"
		d="M268.22,36C269.51,41.01 273.43,44.93 278.44,46.22C273.43,47.51 269.51,51.43 268.22,56.44C266.93,51.43 263.01,47.51 258,46.22C263.01,44.93 266.93,41.01 268.22,36Z" />
</svg>