<!-- Created by Apktool M – https://maximoff.su/apktool -->
<svg
	xmlns="http://www.w3.org/2000/svg"
	xmlns:xlink="http://www.w3.org/1999/xlink"
	version="1.1"
	width="48"
	height="128"
	viewBox="0 0 48 128">
	<g>
		<path
			fill="rgb(69,205,133)"
			fill-opacity="1.0"
			d="M0,0H48V128H0Z" />
		<path
			fill="rgb(255,255,255)"
			fill-opacity="0.45"
			d="M16.59,86.42C25,88.67 33.57,85.17 38.23,78.42L33,77.02C29.39,81.2 23.54,83.13 17.88,81.61C9.89,79.47 5.12,71.2 7.26,63.22C8.78,57.55 13.37,53.45 18.8,52.42L20.2,47.19C12.02,47.85 4.7,53.52 2.45,61.93C-0.4,72.57 5.95,83.57 16.59,86.42ZM33.98,65.78L35.87,58.74C38.11,59.99 39.79,61.27 39.24,63.33C38.74,65.21 36.74,66.15 33.98,65.78ZM28.97,71.43L32.41,72.35L33.12,69.69C38.35,70.45 42.39,68.4 43.45,64.45C44.92,58.96 40.86,56.59 36.95,54.71L38.91,47.41C40.83,48.11 42.82,49.29 44.54,50.76L45.69,46.47C43.99,45.28 42.04,44.3 40.09,43.68L40.78,41.11L37.35,40.19L36.66,42.76C31.26,41.96 27.47,44.07 26.48,47.77C24.99,53.34 28.94,55.78 32.85,57.66L30.89,64.95C28.5,63.94 26.11,62.2 23.46,59.74L22.24,64.29C24.56,66.29 27.07,67.89 29.69,68.77L28.97,71.43ZM33.95,53.54C31.69,52.38 30.12,51.04 30.69,48.89C31.22,46.92 33.09,46.13 35.82,46.59L33.95,53.54Z"
			stroke-opacity="0.45" />
	</g>
</svg>