<!-- Created by Apktool M – https://maximoff.su/apktool -->
<svg
	xmlns="http://www.w3.org/2000/svg"
	xmlns:xlink="http://www.w3.org/1999/xlink"
	version="1.1"
	width="48"
	height="128"
	viewBox="0 0 48 128">
	<g>
		<path
			fill="rgb(80,175,149)"
			fill-opacity="1.0"
			d="M0,0H48V128H0Z" />
		<path
			fill="rgb(255,255,255)"
			fill-opacity="0.45"
			fill-rule="evenodd"
			d="M52.24,48.87L50.1,56.86L34.33,52.63L32.85,58.17C43.76,61.73 51.42,66.39 50.7,69.32L49.07,75.39C48.23,78.29 39.27,78.49 28.04,76.12L24.4,89.71L13.93,86.9L17.57,73.31C6.66,69.75 -1,65.1 -0.28,62.17L1.35,56.09C2.19,53.2 11.15,52.99 22.38,55.37L23.86,49.83L8.1,45.6L10.24,37.62L52.24,48.87ZM23.92,70.54C35.74,73.71 46.17,74.3 49.32,72.2C47.89,69.32 40.97,65.51 31.69,62.48L30.14,68.28C28.43,67.92 26.66,67.5 24.87,67.01C23.07,66.53 21.33,66.02 19.67,65.47L21.22,59.68C11.68,57.66 3.77,57.5 1.1,59.28C2.78,62.67 12.11,67.38 23.92,70.54Z"
			stroke-opacity="0.45" />
	</g>
</svg>