<!-- Created by Apktool M – https://maximoff.su/apktool -->
<svg
	xmlns="http://www.w3.org/2000/svg"
	xmlns:xlink="http://www.w3.org/1999/xlink"
	version="1.1"
	width="48"
	height="128"
	viewBox="0 0 48 128">
	<g>
		<path
			fill="rgb(39,117,202)"
			fill-opacity="1.0"
			d="M0,0H48V128H0Z" />
		<path
			fill="rgb(39,117,202)"
			fill-opacity="0.45"
			d="M35.91,21.5L35.91,21.5A44.43,44.43 60,0 1,67.33 75.91L67.33,75.91A44.43,44.43 60,0 1,12.92 107.33L12.92,107.33A44.43,44.43 60,0 1,-18.5 52.91L-18.5,52.91A44.43,44.43 60,0 1,35.91 21.5z"
			stroke-opacity="0.45" />
		<path
			fill="none"
			stroke="rgb(39,117,202)"
			fill-opacity="0.45"
			d="M36.69,18.6L36.69,18.6A47.43,47.43 60,0 1,70.23 76.69L70.23,76.69A47.43,47.43 60,0 1,12.14 110.23L12.14,110.23A47.43,47.43 60,0 1,-21.4 52.14L-21.4,52.14A47.43,47.43 60,0 1,36.69 18.6z"
			stroke-width="6"
			stroke-opacity="0.09" />
		<path
			fill="rgb(255,255,255)"
			fill-opacity="0.45"
			fill-rule="evenodd"
			d="M40.3,40C39.51,39.5 38.67,39.81 38.44,40.7L37.85,42.88C37.69,43.47 37.97,44.27 38.48,44.63C46.73,50.36 50.96,60.72 48.26,70.8C45.56,80.88 36.71,87.75 26.7,88.58C26.02,88.64 25.46,89.13 25.28,89.78L24.7,91.96C24.46,92.85 25.03,93.54 25.96,93.5C38.47,92.97 49.67,84.6 53.03,72.08C56.38,59.56 50.87,46.71 40.3,40ZM24.13,36.87C24.37,35.98 23.8,35.29 22.87,35.33C10.36,35.86 -0.84,44.22 -4.19,56.75C-7.55,69.27 -2.04,82.12 8.53,88.83C9.32,89.33 10.16,89.01 10.4,88.13L10.98,85.95C11.14,85.35 10.86,84.56 10.35,84.2C2.1,78.47 -2.13,68.11 0.57,58.03C3.28,47.94 12.12,41.08 22.13,40.25C22.75,40.19 23.39,39.64 23.55,39.05L24.13,36.87ZM30.62,46.02L28.24,45.38C27.58,45.2 26.91,45.58 26.73,46.23L25.76,49.85C20.86,49.24 16.98,51.51 15.92,55.47C14.54,60.6 17.17,63.43 23.6,66.1C27.92,68.04 28.95,69.34 28.28,71.86C27.6,74.39 24.97,75.48 21.89,74.66C17.72,73.54 16.83,71.39 16.95,68.94C16.98,68.36 16.6,67.83 16.03,67.68L13.31,66.95C12.63,66.77 11.93,67.23 11.87,67.92C11.52,72 13.3,75.54 18.32,77.63L17.33,81.32C17.16,81.97 17.55,82.63 18.21,82.81L20.59,83.45C21.25,83.63 21.92,83.25 22.1,82.6L23.09,78.9C28.22,79.46 32.26,76.94 33.38,72.78C34.84,67.31 31.94,64.56 25.63,61.93C20.98,59.95 20.35,58.59 20.94,56.37C21.5,54.26 23.54,53.21 26.7,54.06C29.55,54.82 30.93,56.24 31.01,58.68C31.02,59.22 31.39,59.7 31.92,59.84L34.43,60.51C35.13,60.7 35.84,60.22 35.87,59.51C36.03,55.73 34.16,52.94 30.5,51.23L31.5,47.51C31.67,46.86 31.28,46.19 30.62,46.02Z"
			stroke-opacity="0.45" />
	</g>
</svg>