<!-- Created by Apktool M – https://maximoff.su/apktool -->
<svg
	xmlns="http://www.w3.org/2000/svg"
	xmlns:xlink="http://www.w3.org/1999/xlink"
	version="1.1"
	width="312"
	height="312"
	viewBox="0 0 312 312">
	<path
		fill="rgb(89,202,159)"
		d="M274.08,207.01C294.56,161.4 164.71,59.75 110.76,99.56C24.03,163.54 47.82,222.51 79.17,244.37C119.21,272.29 142.44,252.75 180.91,238.44C223.36,222.67 254.5,250.61 274.08,207.01Z"
		stroke-opacity="0.2"
		fill-opacity="0.2" />
	<path
		fill="rgb(7,149,95)"
		fill-opacity="1.0"
		d="M17.88,181.16L10.67,177.85L17.73,162.99L1.48,161.11L2.36,153.12L18.6,155.43L15.24,139.27L23,137.76L26.05,153.98L40.24,145.76L44.05,152.84L29.78,160.64L41.8,171.8L36.35,177.57L24.52,166.27L17.88,181.16Z" />
	<path
		fill="rgb(7,149,95)"
		fill-opacity="1.0"
		d="M258.83,114.97L255.26,111.9L261.73,104.57L252.75,100.84L254.57,96.43L263.45,100.4L264.19,90.62L268.86,91.03L267.95,100.79L277.39,98.42L278.41,103.09L268.98,105.21L274.02,113.54L269.97,115.95L265.06,107.56L258.83,114.97Z" />
	<path
		fill="rgb(7,149,95)"
		fill-opacity="1.0"
		d="M136.82,129L117.18,140.38L119.13,143.75L183.91,255.36L203.62,243.95C228.33,229.59 215,188.16 205.09,169.96C194.82,151.09 163.58,113.45 136.82,129Z" />
	<path
		fill="rgb(57,197,143)"
		fill-opacity="1.0"
		d="M160.56,150.61C157.37,147.98 154.06,145.66 150.66,143.7C131.74,132.77 115.4,136.16 107.83,150.29C104.98,155.62 103.38,162.47 103.35,170.67C103.33,179.86 105.3,189.67 108.79,199.29C116.67,220.96 132.31,241.66 150.35,252.07C151.34,252.64 152.32,253.17 153.29,253.66C177.97,266.17 197.58,253.91 197.67,225.12C197.74,199.09 181.84,168.13 160.56,150.61H160.56Z" />
	<path
		fill="rgb(7,149,95)"
		fill-opacity="1.0"
		d="M111.67,175.47C111.74,150.86 129.23,140.9 150.63,153.26C172.05,165.63 189.41,195.7 189.34,220.31C189.27,244.91 171.8,254.88 150.38,242.51C128.97,230.15 111.6,200.07 111.67,175.47ZM150.62,158.84C131.89,148.03 116.59,156.74 116.53,178.27C116.47,199.8 131.67,226.12 150.4,236.93C169.14,247.75 184.43,239.03 184.49,217.51C184.55,195.98 169.36,169.66 150.62,158.84Z" />
	<path
		fill="rgb(255,255,255)"
		fill-opacity="1.0"
		stroke="rgb(7,149,95)"
		stroke-opacity="1.0"
		d="M206.16,175.58V129.18C206.16,99.53 184.71,73.08 163.24,63.89C152.49,59.29 141.61,58.97 133.4,64.91C125.2,70.84 119.86,82.88 119.86,102.55V106.57C119.86,108.75 120.54,110.59 121.76,112.01C122.97,113.42 124.67,114.38 126.64,114.88C130.28,115.96 134.23,115.8 137.29,114.49C140.38,113.18 142.63,110.67 142.63,107.07V92C142.63,89 143.27,86.9 144.31,85.53C145.34,84.19 146.81,83.49 148.63,83.39C152.33,83.18 157.42,85.45 162.63,89.69C173,98.15 183.36,114.07 183.36,131.69C183.36,138.44 183.37,145.46 183.37,152.4L183.37,152.67C183.38,159.51 183.38,166.27 183.38,172.6C183.38,176.52 186.22,180.79 189.86,183.42C193.5,186.04 198.22,187.18 201.98,184.35C204.46,182.48 206.16,179.18 206.16,175.58Z"
		stroke-width="1.17506" />
	<path
		fill="rgb(152,212,183)"
		fill-opacity="1.0"
		d="M142.05,92C142.05,67.38 183.95,96.02 183.95,131.69C183.95,74.7 123.87,60.13 123.87,100.67C123.87,141.21 123.87,108.58 123.87,113.1C131.32,117.12 142.05,114.61 142.05,107.07V92Z" />
	<path
		fill="rgb(0,80,49)"
		fill-opacity="1.0"
		d="M150.54,182.41C154.64,184.78 157.96,190.53 157.95,195.25C157.94,198.81 156.04,200.76 153.35,200.5L153.29,212.35C153.29,214.16 152.01,214.9 150.43,213.99C148.85,213.07 147.57,210.87 147.58,209.05L147.63,197.2C144.95,194.36 143.06,190.22 143.07,186.66C143.09,181.95 146.43,180.04 150.54,182.41L150.54,182.41Z" />
	<path
		fill="rgb(255,255,255)"
		fill-opacity="1.0"
		d="M151.28,182.89C154.72,185.27 157.46,189.94 157.89,194.11L136.65,206.3L136.65,206.29L136.63,206.31C136.56,208.11 135.88,209.38 134.82,209.99L131.6,211.84C130.58,212.42 129.21,212.4 127.69,211.64L117.58,217.29C117.6,217.28 117.62,217.27 117.64,217.26L117.64,217.26C117.65,217.25 117.67,217.24 117.68,217.23C118.47,216.73 118.95,215.71 118.95,214.29C118.95,214.27 118.95,214.25 118.95,214.23C118.95,214.21 118.94,214.2 118.94,214.18V214.18L119.17,214.05C118.9,210.06 113.85,204.72 111.31,205.9L111.27,205.92L111.24,205.93C111.19,205.95 111.15,205.97 111.11,205.99L124.06,198.74L121.13,200.39C121.21,198.6 121.9,197.34 122.95,196.74L122.94,196.75C123.32,196.53 123.68,196.31 124.04,196.09L124.04,196.09C126.03,194.87 127.66,193.88 130.03,195.08L145.61,186.14L145.59,186.15L151.28,182.89ZM117.64,217.26C117.62,217.27 117.6,217.28 117.58,217.29L117.58,217.29L117.64,217.26Z"
		fill-rule="evenodd" />
	<path
		fill="rgb(152,212,183)"
		fill-opacity="1.0"
		d="M151.28,182.89C154.72,185.27 157.46,189.94 157.89,194.11L136.65,206.3C137.02,205.55 136.74,204.31 136.74,204.31C138.28,203.45 144.42,199.92 148.15,197.78C151.81,195.68 152.7,190.73 149.91,187.57C149.7,187.32 149.48,187.12 149.28,186.97C149.08,186.81 148.87,186.68 148.66,186.55C147.48,185.88 146.4,185.78 145.59,186.15L151.28,182.89ZM127.27,197.16C123.99,195.28 121.3,196.73 121.13,200.39C121.34,200.27 121.65,200.1 122,199.9L122,199.9L122,199.9C122.7,199.5 123.56,199.01 124.06,198.76C126.86,197.32 131.64,203.43 131.89,206.49C131.9,206.64 131.91,206.78 131.91,206.93L118.94,214.18V214.18C118.94,214.2 118.95,214.21 118.95,214.23C118.95,214.25 118.95,214.27 118.95,214.29C118.95,215.77 118.43,216.81 117.58,217.29L127.69,211.64C130.89,213.23 133.43,211.6 133.43,207.82C133.43,203.89 130.67,199.11 127.27,197.16Z"
		fill-rule="evenodd" />
	<path
		fill="rgb(152,212,183)"
		fill-opacity="1.0"
		d="M128.53,212.49L128.54,221.15C128.58,232.98 109.96,236.11 101.97,235.91C94.05,235.71 77.81,232.21 77.78,221.3L77.77,212.6L128.53,212.49Z" />
	<path
		fill="rgb(255,255,255)"
		fill-opacity="1.0"
		d="M116.87,224.88C118.35,224.33 119.75,223.68 121.04,222.93C128.27,218.76 130.27,212.71 127.04,207.51C125.82,205.54 123.86,203.71 121.16,202.13C118.12,200.37 114.5,199.15 110.65,198.47C101.98,196.93 92.15,198.15 85.26,202.13C84.89,202.35 84.53,202.57 84.18,202.8C75.33,208.57 75.64,217.4 85.14,222.93C93.74,227.92 107.01,228.57 116.87,224.88V224.88Z" />
	<g>
		<clipPath
			d="M87.29,202.98h31.73v17.64h-31.73z" />
		<path
			fill="rgb(234,67,53)"
			fill-opacity="1.0"
			d="M100.2,216.67C96.46,215.96 93.78,213.96 93.78,211.6C93.78,210.33 94.57,209.18 95.87,208.28L91.25,205.64C88.8,207.25 87.29,209.3 87.29,211.6C87.29,215.16 90.85,218.23 96.08,219.7L100.2,216.68V216.67Z" />
		<path
			fill="rgb(52,168,83)"
			fill-opacity="1.0"
			d="M111.1,208.56C112.03,209.38 112.53,210.42 112.53,211.6C112.53,213.96 109.86,215.95 106.15,216.66L110.21,219.69C115.44,218.23 119.02,215.16 119.02,211.59C119.02,209.38 117.64,207.28 115.05,205.7L111.1,208.55V208.56Z" />
		<path
			fill="rgb(74,144,226)"
			fill-opacity="1.0"
			d="M115.05,205.71C112.35,204.06 108.31,202.98 103.15,202.98C102.22,202.98 101.2,203.06 100.27,203.18V211.59H106.4V206.76C108.46,207 110.06,207.64 111.1,208.56L115.05,205.71Z" />
		<path
			fill="rgb(251,188,5)"
			fill-opacity="1.0"
			d="M106.16,216.66C105.21,216.84 104.21,216.94 103.16,216.94C102.12,216.94 101.13,216.85 100.21,216.67L96.09,219.69C98.22,220.29 100.62,220.63 103.16,220.63C105.7,220.63 108.1,220.29 110.22,219.69L106.16,216.66Z" />
	</g>
	<path
		fill="rgb(64,191,183)"
		fill-opacity="1.0"
		d="M270.37,189.21C272.6,197.85 279.36,204.61 288,206.84C279.36,209.07 272.6,215.82 270.37,224.46C268.14,215.82 261.39,209.07 252.75,206.84C261.39,204.61 268.14,197.85 270.37,189.21Z" />
	<path
		fill="rgb(64,191,183)"
		fill-opacity="1.0"
		d="M69.44,68.18C70.92,73.94 75.43,78.44 81.19,79.93C75.43,81.42 70.92,85.92 69.44,91.68C67.95,85.92 63.45,81.42 57.69,79.93C63.45,78.44 67.95,73.94 69.44,68.18Z" />
</svg>