<!-- Created by Apktool M – https://maximoff.su/apktool -->
<svg
	xmlns="http://www.w3.org/2000/svg"
	xmlns:xlink="http://www.w3.org/1999/xlink"
	version="1.1"
	width="312"
	height="312"
	viewBox="0 0 312 312">
	<path
		fill="rgb(230,248,241)"
		fill-opacity="1.0"
		d="M125.15,145.92C95.83,143.43 77.33,124.83 76.07,102.07C76.02,101.24 76,100.4 76,99.56L52.41,131.73C54.41,138.61 58.05,146.29 63.3,153.68C73.78,168.41 90.68,182.01 113.92,185.95C137.1,189.88 148.92,183.91 163.54,176.51C172.81,171.82 183.21,166.56 198.35,162.89C214.82,158.89 226.91,163.17 237.42,169.79C242.44,172.95 247.1,176.64 251.71,180.22C251.71,157.16 249.35,120.14 249.35,123.45C244.14,121.08 239.28,119.19 234.71,117.71C200.3,106.58 182.77,118.95 166.15,130.67C154.05,139.2 142.43,147.39 125.15,145.92Z" />
	<path
		fill="rgb(207,242,229)"
		fill-opacity="1.0"
		d="M203.66,76.58C164.14,47.84 108.81,56.57 80.06,96.09C78.64,98.04 77.31,100.04 76.07,102.07C77.33,124.83 95.83,143.43 125.15,145.92C142.43,147.39 154.05,139.2 166.15,130.67C182.77,118.95 200.3,106.58 234.71,117.71C228.88,101.77 218.42,87.32 203.66,76.58Z" />
	<path
		fill="rgb(230,248,241)"
		fill-opacity="1.0"
		d="M90.16,232.61C136.82,266.55 202.15,256.24 236.09,209.58C270.02,162.93 259.71,97.6 213.06,63.66C166.41,29.72 101.08,40.03 67.14,86.69C33.2,133.34 43.51,198.67 90.16,232.61ZM80.06,96.09C78.64,98.04 77.31,100.04 76.07,102.07C77.33,124.83 95.83,143.43 125.15,145.92C142.43,147.39 154.05,139.2 166.15,130.67C182.77,118.95 200.3,106.58 234.71,117.71C228.88,101.77 218.42,87.32 203.66,76.58C164.14,47.84 108.81,56.57 80.06,96.09ZM223.16,200.18C194.42,239.7 139.08,248.43 99.56,219.69C77.39,203.56 64.91,179.06 63.3,153.68C73.78,168.41 90.68,182.01 113.92,185.95C137.1,189.88 148.92,183.91 163.54,176.51C172.81,171.82 183.21,166.56 198.35,162.89C214.82,158.89 226.91,163.17 237.42,169.79C234.74,180.44 230.02,190.76 223.16,200.18Z"
		fill-rule="evenodd" />
	<path
		fill="rgb(207,242,229)"
		fill-opacity="1.0"
		d="M99.56,219.69C139.08,248.43 194.42,239.7 223.16,200.18C230.02,190.76 234.74,180.44 237.42,169.79C226.91,163.17 214.82,158.89 198.35,162.89C183.21,166.56 172.81,171.82 163.54,176.51C148.92,183.91 137.1,189.88 113.92,185.95C90.68,182.01 73.78,168.41 63.3,153.68C64.91,179.06 77.39,203.56 99.56,219.69Z" />
	<path
		fill="none"
		stroke="rgb(255,146,109)"
		stroke-opacity="1.0"
		d="M148.16,158.09C146.42,151.46 147.21,144.38 150.94,138.35C154.67,132.31 160.65,128.44 167.35,127.04"
		stroke-linejoin="round"
		stroke-width="5.34247"
		stroke-linecap="square" />
	<path
		fill="none"
		stroke="rgb(255,146,109)"
		stroke-opacity="1.0"
		d="M157.94,153.43C157.22,150.4 157.63,147.15 159.36,144.36C161.09,141.56 163.81,139.74 166.84,139.04"
		stroke-linejoin="round"
		stroke-width="5.34247"
		stroke-linecap="square" />
	<path
		fill="rgb(255,255,255)"
		fill-opacity="1.0"
		d="M263.2,131.03L200.01,145C197.88,145.47 196.55,147.62 197.03,149.79L225.35,277.86C225.83,280.03 227.95,281.41 230.07,280.94L293.27,266.96C295.39,266.49 296.73,264.35 296.24,262.18L267.92,134.11C267.44,131.94 265.33,130.56 263.2,131.03Z" />
	<path
		fill="rgb(72,67,89)"
		fill-opacity="1.0"
		d="M200.88,137.85L259.39,124.91C264.61,123.76 269.77,127.05 270.92,132.26L299.75,262.59C300.9,267.8 297.61,272.96 292.39,274.12L233.88,287.06C228.66,288.21 223.5,284.92 222.35,279.7L193.53,149.38C192.38,144.17 195.67,139.01 200.88,137.85ZM200.01,145L263.2,131.03C265.33,130.56 267.44,131.94 267.92,134.11L296.24,262.18C296.73,264.35 295.39,266.49 293.27,266.96L230.07,280.94C227.95,281.41 225.83,280.03 225.35,277.86L197.03,149.79C196.55,147.62 197.88,145.47 200.01,145Z"
		fill-rule="evenodd" />
	<path
		fill="rgb(255,146,109)"
		fill-opacity="1.0"
		d="M224.65,228.35m-4.78,0a4.78,4.78 0,1 1,9.56 0a4.78,4.78 0,1 1,-9.56 0" />
	<path
		fill="rgb(255,255,255)"
		fill-opacity="1.0"
		d="M222.82,225.62L222.13,226.35C222.06,226.43 221.93,226.65 221.99,226.96C222.07,227.35 222.24,228.25 223.46,229.41C224.68,230.58 225.49,230.82 225.87,230.96C226.25,231.1 226.78,231.09 226.98,230.86C227.14,230.68 227.51,230.29 227.68,230.11C227.79,229.97 227.94,229.61 227.63,229.36C227.41,229.21 226.74,228.9 226.43,228.76C226.37,228.74 226.23,228.74 226.15,228.87C226.11,228.93 226.04,229.02 225.92,229.1C225.69,229.26 225.31,229.38 224.81,229.12C224.39,228.79 224.05,228.4 223.94,228.24C223.81,228.07 223.64,227.63 224,227.19C224.1,227.11 224.18,227.05 224.2,227.03C224.24,227 224.32,226.9 224.26,226.75C224.2,226.6 223.8,225.97 223.6,225.67C223.49,225.52 223.16,225.3 222.82,225.62Z" />
	<path
		fill="rgb(255,146,109)"
		fill-opacity="1.0"
		d="M233.38,224.57L232.85,223.23C233.57,222.83 234.33,222.54 235.1,222.37C235.41,222.3 235.67,222.25 235.88,222.22C236.09,222.19 236.32,222.19 236.56,222.22C236.8,222.24 237,222.31 237.15,222.41C237.51,222.64 237.76,223.06 237.89,223.68C238.02,224.29 237.95,224.78 237.66,225.15C237.38,225.52 236.71,226.02 235.68,226.64L235.74,226.9L238.36,226.32L238.67,227.81L233.91,228.87L233.66,227.7C233.59,227.36 233.58,227.01 233.64,226.66C233.68,226.47 233.83,226.21 234.09,225.88C234.23,225.7 234.42,225.52 234.67,225.33C234.93,225.13 235.17,224.95 235.39,224.79C235.62,224.61 235.81,224.47 235.95,224.36L235.84,223.86C235.55,223.89 235.29,223.93 235.06,223.98C234.49,224.11 233.93,224.3 233.38,224.57ZM242.72,226.26C242.49,226.02 242.3,225.73 242.16,225.4C242.01,225.06 241.88,224.62 241.77,224.09C241.66,223.55 241.6,223.09 241.59,222.72C241.58,222.35 241.64,222.02 241.75,221.71C241.88,221.4 242.09,221.15 242.39,220.95C242.7,220.75 243.1,220.6 243.61,220.48C244.12,220.37 244.55,220.34 244.91,220.39C245.26,220.44 245.56,220.59 245.79,220.82C246.03,221.05 246.22,221.33 246.35,221.67C246.5,222.01 246.63,222.45 246.74,222.99C246.86,223.53 246.92,223.98 246.93,224.35C246.94,224.71 246.88,225.05 246.76,225.36C246.64,225.67 246.43,225.92 246.12,226.12C245.82,226.31 245.42,226.47 244.91,226.58C244.4,226.69 243.97,226.72 243.6,226.67C243.25,226.62 242.96,226.48 242.72,226.26ZM243.46,222.6L244.01,225.21L244.4,225.12C244.68,225.06 244.87,224.99 244.97,224.91C245.07,224.82 245.1,224.67 245.05,224.46L244.5,221.86L244.06,221.95C243.79,222.01 243.61,222.08 243.52,222.16C243.43,222.24 243.41,222.38 243.46,222.6ZM251.02,219C251.32,218.83 251.68,218.7 252.1,218.6C252.52,218.51 252.91,218.48 253.25,218.51C253.59,218.53 253.9,218.65 254.18,218.86C254.46,219.07 254.64,219.38 254.73,219.79C254.85,220.38 254.74,220.87 254.39,221.27L254.41,221.33C254.66,221.39 254.9,221.52 255.1,221.72C255.31,221.93 255.44,222.16 255.49,222.43C255.74,223.58 255.04,224.34 253.4,224.7C251.76,225.07 250.82,224.67 250.57,223.51C250.51,223.25 250.54,222.98 250.64,222.71C250.75,222.44 250.9,222.22 251.12,222.06L251.1,221.99C250.63,221.79 250.32,221.39 250.2,220.79C250.11,220.38 250.15,220.02 250.32,219.71C250.48,219.4 250.72,219.16 251.02,219ZM253.44,222.59L252.73,222.42C252.64,222.4 252.57,222.4 252.53,222.41C252.46,222.42 252.44,222.48 252.46,222.59L252.64,223.4L253.02,223.32C253.22,223.27 253.36,223.22 253.43,223.15C253.5,223.09 253.52,222.97 253.48,222.8L253.44,222.59ZM252.07,220.73L252.74,220.91C252.79,220.92 252.84,220.93 252.89,220.92C253.01,220.89 253.06,220.82 253.04,220.71L252.88,219.95L252.5,220.04C252.29,220.08 252.15,220.14 252.09,220.21C252.01,220.27 252,220.38 252.03,220.55L252.07,220.73ZM259.52,217.12C259.82,216.95 260.18,216.82 260.61,216.73C261.03,216.63 261.41,216.6 261.75,216.63C262.09,216.65 262.4,216.76 262.68,216.98C262.96,217.19 263.14,217.5 263.23,217.91C263.36,218.5 263.24,218.99 262.89,219.39L262.91,219.45C263.17,219.51 263.4,219.64 263.6,219.84C263.81,220.04 263.94,220.28 264,220.55C264.24,221.7 263.54,222.46 261.9,222.82C260.26,223.18 259.32,222.79 259.07,221.63C259.01,221.37 259.04,221.1 259.14,220.83C259.25,220.56 259.41,220.34 259.62,220.18L259.6,220.11C259.13,219.91 258.82,219.51 258.7,218.91C258.61,218.5 258.65,218.14 258.82,217.83C258.98,217.52 259.22,217.29 259.52,217.12ZM261.94,220.71L261.23,220.54C261.14,220.52 261.07,220.52 261.03,220.53C260.97,220.54 260.94,220.6 260.97,220.71L261.14,221.52L261.52,221.43C261.72,221.39 261.86,221.34 261.93,221.27C262,221.21 262.02,221.09 261.98,220.92L261.94,220.71ZM260.57,218.85L261.24,219.03C261.3,219.04 261.35,219.05 261.39,219.04C261.51,219.01 261.56,218.94 261.54,218.83L261.38,218.07L261,218.16C260.79,218.2 260.66,218.26 260.59,218.33C260.52,218.39 260.5,218.5 260.53,218.67L260.57,218.85ZM269.01,216.75L269.15,217.41L269.54,217.32C269.74,217.28 269.88,217.22 269.95,217.16C270.02,217.1 270.04,216.98 270,216.81L269.86,216.15L269.48,216.23C269.27,216.28 269.14,216.34 269.07,216.4C269,216.46 268.98,216.58 269.01,216.75ZM270.4,218.68L269.93,218.77C268.94,218.98 268.24,218.95 267.83,218.69C267.45,218.46 267.19,218.03 267.06,217.39C266.89,216.57 267.01,215.97 267.44,215.58C267.66,215.39 267.89,215.24 268.15,215.13C268.41,215.02 268.73,214.93 269.1,214.85C270.03,214.64 270.73,214.74 271.18,215.15C271.64,215.55 271.98,216.29 272.21,217.35C272.43,218.42 272.42,219.23 272.17,219.79C271.92,220.35 271.35,220.73 270.47,220.93C269.58,221.12 268.78,221.22 268.06,221.21L267.99,219.61C268.61,219.63 269.11,219.59 269.5,219.5C269.89,219.42 270.23,219.32 270.51,219.22L270.4,218.68ZM276.72,218.74C276.49,218.5 276.3,218.21 276.16,217.88C276.02,217.54 275.89,217.1 275.77,216.57C275.66,216.03 275.6,215.57 275.59,215.2C275.58,214.84 275.64,214.5 275.76,214.19C275.88,213.88 276.09,213.63 276.39,213.43C276.7,213.23 277.11,213.07 277.62,212.96C278.12,212.85 278.56,212.82 278.91,212.87C279.27,212.92 279.56,213.07 279.8,213.3C280.04,213.53 280.22,213.81 280.36,214.15C280.5,214.49 280.63,214.93 280.75,215.47C280.86,216.01 280.92,216.46 280.93,216.83C280.94,217.19 280.89,217.53 280.77,217.84C280.64,218.15 280.43,218.4 280.13,218.6C279.83,218.79 279.42,218.95 278.91,219.06C278.4,219.17 277.97,219.2 277.61,219.15C277.26,219.1 276.96,218.96 276.72,218.74ZM277.46,215.08L278.02,217.69L278.41,217.6C278.69,217.54 278.88,217.47 278.98,217.39C279.07,217.3 279.1,217.15 279.06,216.94L278.5,214.34L278.07,214.43C277.79,214.49 277.61,214.56 277.52,214.64C277.44,214.72 277.42,214.87 277.46,215.08Z" />
	<path
		fill="rgb(255,146,109)"
		fill-opacity="1.0"
		d="M213.88,187.05a28.17,27.86 77.53,1 0,54.4 -12.03a28.17,27.86 77.53,1 0,-54.4 12.03z" />
	<g>
		<clipPath
			d="M213.88,187.05a28.17,27.86 77.53,1 0,54.4 -12.03a28.17,27.86 77.53,1 0,-54.4 12.03z" />
		<path
			fill="rgb(217,217,217)"
			fill-opacity="1.0"
			d="M229.73,181.32C228.48,175.65 231.79,170.09 237.13,168.91C242.47,167.73 247.82,171.37 249.07,177.04C249.94,180.95 248.64,184.8 246,187.21L249.7,189.9L264.4,196.48L269.3,195.39L267.64,203.68L243.66,212.79L225.66,205.57L235.86,193.28L236.69,189.21C233.34,188.11 230.59,185.18 229.73,181.32Z" />
	</g>
	<path
		fill="rgb(72,67,89)"
		fill-opacity="1.0"
		d="M246.32,176.07C243.94,172.47 242.39,170.46 236.35,171.79C234.82,172.13 232.46,174.77 232.16,178.33C231.71,183.5 234.99,189.35 237.91,189.66C238.18,190.86 238.48,192.7 238.68,194.56C237.13,196.29 235.65,196.38 234.33,197.29C231.13,199.5 229.18,201.04 227.77,203.1C226.06,199.68 230.29,195.85 230.89,193.74C231.97,190.02 229.63,184.2 228.86,180.25C227.97,176.22 229.64,167.51 238.68,165.34C251.46,163.46 253.62,178.33 252.18,185.68C251.31,190.12 261.43,188.38 261.31,195.14C256.8,192.24 246.33,193.93 246,192.94C245.5,191.4 245.03,190.3 244.56,188.18C246.65,186.14 247.3,183.35 247.02,180.67C247.69,180.84 249.01,180.01 248.97,178.02C248.91,174.86 247.03,174.96 246.32,176.07Z" />
	<path
		fill="rgb(217,217,217)"
		fill-opacity="1.0"
		d="M226.39,240.77L270.94,230.92A3,3 100.12,0 1,274.52 233.2L274.52,233.2A3,3 100.12,0 1,272.24 236.78L227.68,246.63A3,3 130.41,0 1,224.1 244.35L224.1,244.35A3,3 130.41,0 1,226.39 240.77z" />
	<path
		fill="rgb(217,217,217)"
		fill-opacity="1.0"
		d="M228.98,252.49L281.54,240.86A3,3 94.11,0 1,285.12 243.15L285.12,243.15A3,3 94.11,0 1,282.84 246.72L230.27,258.35A3,3 0,0 1,226.7 256.07L226.7,256.07A3,3 0,0 1,228.98 252.49z" />
	<path
		fill="rgb(217,217,217)"
		fill-opacity="1.0"
		d="M231.57,264.21L268.54,256.03A3,3 122.89,0 1,272.12 258.31L272.12,258.31A3,3 122.89,0 1,269.83 261.89L232.86,270.06A3,3 108.5,0 1,229.29 267.78L229.29,267.78A3,3 108.5,0 1,231.57 264.21z" />
	<path
		fill="rgb(255,146,109)"
		fill-opacity="1.0"
		d="M210.97,176.79L202.8,176.55C202.31,176.54 201.92,176.13 201.93,175.63L202.15,168.49C202.17,167.72 203.09,167.34 203.65,167.86L211.6,175.25C212.21,175.81 211.79,176.82 210.97,176.79Z" />
	<path
		fill="rgb(255,146,109)"
		fill-opacity="1.0"
		d="M194.99,145.94L174.99,145.94A8.95,8.95 134.99,0 0,166.04 154.89L166.05,175.77A8.95,8.95 134.99,0 0,175 184.71L195,184.71A8.95,8.95 134.99,0 0,203.94 175.76L203.94,154.88A8.95,8.95 134.99,0 0,194.99 145.94z" />
	<path
		fill="rgb(255,255,255)"
		fill-opacity="1.0"
		d="M185.14,163.35C181.03,163.37 181.02,162.15 181.02,161.41C181.01,160.47 182.45,159.45 185.12,159.43C187.55,159.41 187.97,160.66 188,161.41L190.06,161.36L192.11,161.34C192.1,159.34 190.71,156.52 187.15,155.74L187.13,153.57L183.02,153.59L183.04,155.69C178.99,156.37 176.89,158.92 176.91,161.44C176.92,163.63 178.01,167.31 185.16,167.26C189.27,167.24 189.28,168.56 189.29,169.2C189.29,170.01 188.02,171.16 185.19,171.18C181.41,171.21 181.09,169.53 181.07,169.25L176.96,169.27C176.97,171.07 178.35,174.27 183.16,174.96L183.17,177.07L187.28,177.04L187.27,174.92C191.31,174.24 193.41,171.69 193.4,169.17C193.38,166.98 192.29,163.3 185.14,163.35Z" />
	<path
		fill="rgb(255,255,255)"
		fill-opacity="1.0"
		d="M134.49,39.27L74.84,14.17C72.83,13.32 70.5,14.3 69.64,16.35L18.76,137.24C17.9,139.29 18.82,141.64 20.83,142.48L80.48,167.59C82.49,168.43 84.82,167.46 85.68,165.41L136.56,44.52C137.42,42.47 136.5,40.12 134.49,39.27Z" />
	<path
		fill="rgb(72,67,89)"
		fill-opacity="1.0"
		d="M79.68,8.83L134.91,32.08C139.84,34.15 142.15,39.82 140.08,44.75L88.3,167.76C86.23,172.69 80.56,175 75.63,172.93L20.4,149.68C15.48,147.61 13.17,141.94 15.24,137.01L67.02,14C69.09,9.07 74.76,6.76 79.68,8.83ZM74.84,14.17L134.49,39.27C136.5,40.12 137.42,42.47 136.56,44.52L85.68,165.41C84.82,167.46 82.49,168.43 80.48,167.59L20.83,142.48C18.82,141.64 17.9,139.29 18.76,137.24L69.64,16.35C70.5,14.3 72.83,13.32 74.84,14.17Z"
		fill-rule="evenodd" />
	<path
		fill="rgb(64,191,183)"
		fill-opacity="1.0"
		d="M46.84,96.46m-4.38,-1.91a4.78,4.78 68.51,1 1,8.76 3.81a4.78,4.78 68.51,1 1,-8.76 -3.81" />
	<path
		fill="rgb(255,255,255)"
		fill-opacity="1.0"
		d="M46.72,93.18L45.76,93.45C45.66,93.47 45.43,93.59 45.32,93.89C45.18,94.27 44.86,95.12 45.3,96.75C45.73,98.38 46.29,99.01 46.54,99.33C46.79,99.64 47.25,99.91 47.54,99.82C47.78,99.75 48.29,99.61 48.52,99.54C48.7,99.48 49.01,99.25 48.87,98.88C48.77,98.64 48.35,98.02 48.16,97.74C48.12,97.69 48,97.62 47.87,97.69C47.81,97.72 47.7,97.75 47.56,97.76C47.28,97.78 46.89,97.69 46.6,97.2C46.41,96.71 46.33,96.19 46.31,96C46.29,95.79 46.38,95.32 46.91,95.13C47.04,95.12 47.13,95.11 47.16,95.1C47.22,95.1 47.34,95.05 47.37,94.9C47.39,94.74 47.38,93.99 47.37,93.63C47.34,93.44 47.19,93.08 46.72,93.18Z" />
	<path
		fill="rgb(64,191,183)"
		fill-opacity="1.0"
		d="M55.29,98.05L55.62,96.64C56.45,96.73 57.23,96.93 57.96,97.24C58.25,97.36 58.49,97.47 58.67,97.57C58.87,97.67 59.05,97.8 59.23,97.96C59.41,98.12 59.54,98.29 59.61,98.46C59.77,98.86 59.73,99.35 59.49,99.93C59.25,100.51 58.9,100.86 58.46,101C58.02,101.14 57.19,101.16 55.99,101.08L55.89,101.32L58.36,102.36L57.77,103.77L53.27,101.87L53.73,100.78C53.87,100.45 54.06,100.16 54.31,99.92C54.46,99.78 54.73,99.65 55.12,99.53C55.34,99.47 55.6,99.43 55.92,99.41C56.24,99.41 56.54,99.4 56.81,99.39C57.1,99.38 57.33,99.37 57.51,99.36L57.71,98.89C57.46,98.75 57.22,98.63 57,98.54C56.46,98.31 55.89,98.15 55.29,98.05ZM61.97,104.83C61.91,104.51 61.92,104.16 62,103.8C62.07,103.44 62.22,103.01 62.43,102.51C62.64,102 62.85,101.59 63.06,101.29C63.26,100.98 63.5,100.73 63.77,100.55C64.05,100.37 64.36,100.28 64.72,100.29C65.09,100.31 65.51,100.42 65.99,100.62C66.47,100.82 66.84,101.05 67.1,101.29C67.36,101.54 67.52,101.83 67.58,102.16C67.65,102.48 67.64,102.82 67.56,103.18C67.48,103.54 67.34,103.97 67.12,104.48C66.91,104.99 66.7,105.4 66.49,105.71C66.3,106.01 66.06,106.25 65.78,106.44C65.51,106.62 65.19,106.7 64.83,106.69C64.47,106.67 64.05,106.57 63.57,106.36C63.09,106.16 62.72,105.94 62.45,105.69C62.19,105.44 62.03,105.15 61.97,104.83ZM64.66,102.27L63.62,104.72L63.99,104.88C64.25,104.99 64.45,105.04 64.58,105.03C64.71,105.02 64.81,104.91 64.9,104.71L65.93,102.26L65.52,102.08C65.26,101.97 65.08,101.93 64.96,101.94C64.84,101.95 64.74,102.06 64.66,102.27ZM69.42,108.56L70.28,107.21C70.77,107.58 71.23,107.85 71.65,108.03C72.07,108.21 72.42,108.33 72.7,108.41L72.89,107.97L72.26,107.63C71.57,107.25 71.12,106.91 70.93,106.63C70.75,106.35 70.75,105.99 70.94,105.54C70.97,105.48 71.31,104.73 71.99,103.3L75.98,104.98L75.21,106.43L73.18,105.43L73,105.88L73.49,106.16C74.21,106.58 74.66,106.99 74.83,107.4C75.01,107.8 74.99,108.26 74.77,108.77C74.62,109.14 74.44,109.43 74.23,109.64C74.03,109.85 73.82,110 73.63,110.07C73.44,110.14 73.2,110.16 72.92,110.13C72.64,110.09 72.4,110.04 72.2,109.97C72.01,109.91 71.75,109.81 71.44,109.68C70.68,109.36 70.01,108.98 69.42,108.56ZM80.92,107.07C81.26,107.1 81.63,107.2 82.03,107.37C82.43,107.54 82.76,107.73 83.02,107.95C83.29,108.17 83.48,108.44 83.59,108.78C83.69,109.11 83.67,109.47 83.5,109.86C83.27,110.42 82.9,110.75 82.38,110.88L82.36,110.94C82.54,111.14 82.65,111.38 82.7,111.66C82.76,111.94 82.73,112.21 82.62,112.46C82.17,113.55 81.16,113.77 79.61,113.12C78.06,112.46 77.52,111.59 77.97,110.51C78.08,110.25 78.25,110.05 78.49,109.89C78.73,109.73 78.99,109.64 79.25,109.63L79.28,109.57C79,109.13 78.98,108.63 79.22,108.06C79.38,107.67 79.62,107.4 79.94,107.24C80.25,107.09 80.58,107.03 80.92,107.07ZM80.85,111.41L80.37,110.86C80.3,110.79 80.25,110.75 80.21,110.74C80.15,110.71 80.09,110.75 80.05,110.84L79.73,111.61L80.09,111.76C80.28,111.84 80.43,111.88 80.52,111.87C80.62,111.85 80.7,111.77 80.76,111.61L80.85,111.41ZM80.79,109.09L81.24,109.63C81.27,109.67 81.31,109.7 81.35,109.72C81.47,109.77 81.55,109.74 81.59,109.63L81.89,108.92L81.53,108.77C81.34,108.69 81.2,108.66 81.1,108.67C81.01,108.68 80.93,108.76 80.86,108.92L80.79,109.09ZM91.77,112.91L88.23,116.59L86.25,115.75L89.48,112.46L87.36,111.6L87.89,109.99L92.23,111.82L91.77,112.91ZM96.81,118.36L97.1,117.67L96.75,117.52C96.55,117.44 96.41,117.4 96.31,117.42C96.22,117.43 96.14,117.51 96.07,117.67L95.78,118.36L96.14,118.51C96.33,118.6 96.48,118.63 96.57,118.62C96.67,118.61 96.75,118.52 96.81,118.36ZM99.01,117.93C99.02,118.23 98.94,118.58 98.78,118.96C98.62,119.35 98.42,119.65 98.19,119.86C97.97,120.07 97.72,120.19 97.43,120.22C97.15,120.26 96.87,120.24 96.59,120.18C96.32,120.12 96.01,120.02 95.66,119.87C94.78,119.5 94.27,119.02 94.13,118.42C93.98,117.82 94.12,117.03 94.54,116.03C94.76,115.52 94.97,115.11 95.19,114.81C95.41,114.51 95.67,114.27 95.97,114.11C96.56,113.78 97.4,113.84 98.51,114.31C98.73,114.4 99.01,114.55 99.35,114.75C99.7,114.96 99.95,115.12 100.11,115.25L99.28,116.48C98.84,116.2 98.4,115.97 97.97,115.78C97.54,115.6 97.22,115.5 97,115.47L96.81,115.92L97.25,116.1C97.6,116.25 97.89,116.4 98.12,116.55C98.36,116.71 98.57,116.89 98.74,117.12C98.91,117.34 99,117.61 99.01,117.93Z" />
	<path
		fill="rgb(64,191,183)"
		fill-opacity="1.0"
		d="M62.49,56.45a28.17,27.86 112.83,1 0,51.35 21.61a28.17,27.86 112.83,1 0,-51.35 -21.61z" />
	<g>
		<clipPath
			d="M62.49,56.45a28.17,27.86 112.83,1 0,51.35 21.61a28.17,27.86 112.83,1 0,-51.35 -21.61z" />
		<path
			fill="rgb(217,217,217)"
			fill-opacity="1.0"
			d="M78.74,60.94C80.99,55.58 86.91,52.96 91.95,55.08C101.06,58.91 98.3,62.58 96.48,68.4C95.58,70.53 94.31,72.53 92.46,73.59C91.12,74.37 89.51,75.46 88.54,75.04L87.56,77.38C87.56,77.38 93.3,81.52 95.48,84.39C98.22,88.01 98.29,93.38 98.29,93.38L96.76,101.1L71.92,94.67L59.96,76.36C59.96,76.36 63.94,73.82 67.3,72.98C70.96,72.06 78.7,74.14 78.7,74.14L79.86,71.39C77.76,68.56 77.2,64.58 78.74,60.94Z" />
	</g>
	<path
		fill="rgb(72,67,89)"
		fill-opacity="1.0"
		d="M79.4,61.55C77.9,65.1 80.35,65.16 81.21,65.58C81.21,65.58 80.54,67.38 80.33,68.58C80.14,69.73 79.84,71.42 79.84,71.42C77.49,70.63 73.31,64.79 75.34,58.97C77.64,52.42 83.04,46.78 91.54,50.9C92.36,49.17 97.18,49.71 99.23,51.73C103.22,55.65 100.25,58.95 100.13,59.22C101.25,62.92 97.37,66.21 97.51,65.44C97.65,64.67 95.92,60.36 95.38,60.87C94.85,61.38 91.83,61.54 90.9,61.15C91.3,60.63 91.03,59.64 90.57,58.11C88.96,59.9 85.91,58.86 84.58,58.12C84.99,58.55 83.85,60.07 83.23,60.77C82.78,60.47 80.58,58.73 79.4,61.55Z" />
	<path
		fill="rgb(217,217,217)"
		fill-opacity="1.0"
		d="M41.03,107.57L87.77,127.25A3,3 65.21,0 1,89.37 131.17L89.37,131.17A3,3 65.21,0 1,85.44 132.78L38.7,113.1A3,3 61.6,0 1,37.1 109.17L37.1,109.17A3,3 61.6,0 1,41.03 107.57z" />
	<path
		fill="rgb(217,217,217)"
		fill-opacity="1.0"
		d="M36.37,118.63L68.06,131.97A3,3 119.54,0 1,69.66 135.9L69.66,135.9A3,3 119.54,0 1,65.73 137.5L34.05,124.16A3,3 104.74,0 1,32.44 120.23L32.44,120.23A3,3 104.74,0 1,36.37 118.63z" />
	<path
		fill="rgb(217,217,217)"
		fill-opacity="1.0"
		d="M31.72,129.69L71.79,146.56A3,3 68.25,0 1,73.39 150.49L73.39,150.49A3,3 68.25,0 1,69.46 152.09L29.39,135.22A3,3 94.1,0 1,27.79 131.29L27.79,131.29A3,3 94.1,0 1,31.72 129.69z" />
	<path
		fill="none"
		stroke="rgb(64,191,183)"
		stroke-opacity="1.0"
		d="M177.88,55.74C184.16,60.17 188.61,66.83 189.76,74.71C190.92,82.6 188.58,90.25 183.84,96.3"
		stroke-linejoin="round"
		stroke-width="6"
		stroke-linecap="square" />
	<path
		fill="none"
		stroke="rgb(64,191,183)"
		stroke-opacity="1.0"
		d="M172.85,66.82C175.65,68.89 177.65,71.99 178.18,75.64C178.72,79.29 177.7,82.83 175.61,85.62"
		stroke-linejoin="round"
		stroke-width="6"
		stroke-linecap="square" />
	<path
		fill="rgb(64,191,183)"
		fill-opacity="1.0"
		d="M117,85.71L124.61,88.68C125.07,88.86 125.59,88.64 125.77,88.18L128.37,81.52C128.65,80.81 127.96,80.1 127.24,80.36L117.03,84.03C116.25,84.31 116.23,85.4 117,85.71Z" />
	<path
		fill="rgb(64,191,183)"
		fill-opacity="1.0"
		d="M143.8,63.58L162.2,71.43A8.95,8.95 68.09,0 1,166.92 83.17L158.72,102.37A8.95,8.95 68.09,0 1,146.99 107.09L128.59,99.25A8.95,8.95 68.09,0 1,123.87 87.51L132.06,68.3A8.95,8.95 68.09,0 1,143.8 63.58z" />
	<path
		fill="rgb(255,255,255)"
		fill-opacity="1.0"
		d="M146.19,83.32C142.18,81.77 142.64,80.57 142.92,79.86C143.28,78.93 145.07,78.49 147.67,79.5C150.05,80.42 149.98,81.8 149.72,82.54L151.74,83.28L153.74,84.06C154.51,82.1 154.24,78.82 151.07,76.69L151.89,74.57L147.88,73.01L147.09,75.06C142.89,74.16 139.87,75.84 138.91,78.3C138.08,80.44 137.73,84.44 144.7,87.14C148.71,88.7 148.21,89.99 147.97,90.61C147.66,91.41 145.99,92.04 143.22,90.97C139.53,89.53 139.87,87.78 139.95,87.5L135.94,85.94C135.26,87.7 135.37,91.34 139.79,93.86L138.99,95.92L143,97.48L143.8,95.4C148,96.31 151.02,94.63 151.98,92.17C152.81,90.03 153.16,86.03 146.19,83.32Z" />
	<path
		fill="rgb(230,248,241)"
		fill-opacity="1.0"
		d="M234.55,44.06m-11.09,0a11.09,11.09 0,1 1,22.18 0a11.09,11.09 0,1 1,-22.18 0" />
	<path
		fill="rgb(230,248,241)"
		fill-opacity="1.0"
		d="M244.48,72.72m-5.46,0a5.46,5.46 0,1 1,10.92 0a5.46,5.46 0,1 1,-10.92 0" />
	<path
		fill="rgb(230,248,241)"
		fill-opacity="1.0"
		d="M31.28,194.69m-9.98,0a9.98,9.98 0,1 1,19.96 0a9.98,9.98 0,1 1,-19.96 0" />
	<path
		fill="rgb(10,143,92)"
		fill-opacity="1.0"
		d="M155.88,268.35L162.52,230.67L87.54,196.93L89.05,233.4L152.05,270.12C153.6,271.02 155.57,270.11 155.88,268.35Z" />
	<path
		fill="rgb(23,122,84)"
		fill-opacity="1.0"
		d="M154.36,269.06L147.18,245.2L124.95,254.32L152.61,270.45C153.55,270.99 154.67,270.11 154.36,269.06Z" />
	<path
		fill="rgb(59,183,136)"
		fill-opacity="1.0"
		d="M161.96,233.86L189.4,221.63C191.63,220.63 191.36,217.4 189,216.79L67.51,185.4C65.47,184.87 63.7,186.89 64.49,188.85L100.15,277.15C101.01,279.28 103.68,279.98 105.47,278.54L147.43,244.85L90.02,203.75L161.96,233.86Z" />
</svg>