<!-- Created by Apktool M – https://maximoff.su/apktool -->
<svg
	xmlns="http://www.w3.org/2000/svg"
	xmlns:xlink="http://www.w3.org/1999/xlink"
	version="1.1"
	width="216"
	height="213"
	viewBox="0 0 216 213">
	<g>
		<clipPath
			d="M0,0h216v213h-216z" />
		<path
			fill="rgb(245,245,245)"
			fill-opacity="1.0"
			d="M0,32C0,14.33 14.33,0 32,0H184C201.67,0 216,14.33 216,32V213H0V32Z" />
		<path
			fill="rgb(72,67,89)"
			fill-opacity="1.0"
			d="M74,6H142V11C142,15.42 138.42,19 134,19H82C77.58,19 74,15.42 74,11V6Z" />
		<path
			fill="rgb(217,217,217)"
			fill-opacity="1.0"
			d="M35.5,32L63.5,32A5.5,5.5 0,0 1,69 37.5L69,37.5A5.5,5.5 0,0 1,63.5 43L35.5,43A5.5,5.5 0,0 1,30 37.5L30,37.5A5.5,5.5 0,0 1,35.5 32z" />
		<path
			fill="rgb(217,217,217)"
			fill-opacity="1.0"
			d="M155.5,32L187.5,32A5.5,5.5 0,0 1,193 37.5L193,37.5A5.5,5.5 0,0 1,187.5 43L155.5,43A5.5,5.5 0,0 1,150 37.5L150,37.5A5.5,5.5 0,0 1,155.5 32z" />
		<g>
			<clipPath
				d="M0,32C0,14.33 14.33,0 32,0H184C201.67,0 216,14.33 216,32V213H0V32Z" />
			<path
				fill="rgb(72,67,89)"
				fill-opacity="1.0"
				d="M-8,28C-8,5.91 9.91,-12 32,-12H184C206.09,-12 224,5.91 224,28L208,32C208,20.95 197.26,12 184,12H32C18.75,12 8,20.95 8,32L-8,28ZM216,213H0H216ZM-8,213V28C-8,5.91 9.91,-12 32,-12V12C18.75,12 8,20.95 8,32V213H-8ZM184,-12C206.09,-12 224,5.91 224,28V213H208V32C208,20.95 197.26,12 184,12V-12Z" />
		</g>
		<path
			fill="rgb(217,217,217)"
			fill-opacity="1.0"
			d="M37,164.98L64,164.98A8,8 0,0 1,72 172.98L72,188.98A8,8 0,0 1,64 196.98L37,196.98A8,8 0,0 1,29 188.98L29,172.98A8,8 0,0 1,37 164.98z" />
		<path
			fill="rgb(217,217,217)"
			fill-opacity="1.0"
			d="M92,164.98L119,164.98A8,8 0,0 1,127 172.98L127,188.98A8,8 0,0 1,119 196.98L92,196.98A8,8 0,0 1,84 188.98L84,172.98A8,8 0,0 1,92 164.98z" />
		<path
			fill="rgb(217,217,217)"
			fill-opacity="1.0"
			d="M147,164.98L174,164.98A8,8 0,0 1,182 172.98L182,188.98A8,8 0,0 1,174 196.98L147,196.98A8,8 0,0 1,139 188.98L139,172.98A8,8 0,0 1,147 164.98z" />
		<path
			fill="rgb(217,217,217)"
			fill-opacity="1.0"
			d="M37,208.98L64,208.98A8,8 0,0 1,72 216.98L72,232.98A8,8 0,0 1,64 240.98L37,240.98A8,8 0,0 1,29 232.98L29,216.98A8,8 0,0 1,37 208.98z" />
		<path
			fill="rgb(217,217,217)"
			fill-opacity="1.0"
			d="M92,208.98L119,208.98A8,8 0,0 1,127 216.98L127,232.98A8,8 0,0 1,119 240.98L92,240.98A8,8 0,0 1,84 232.98L84,216.98A8,8 0,0 1,92 208.98z" />
		<path
			fill="rgb(217,217,217)"
			fill-opacity="1.0"
			d="M147,208.98L174,208.98A8,8 0,0 1,182 216.98L182,232.98A8,8 0,0 1,174 240.98L147,240.98A8,8 0,0 1,139 232.98L139,216.98A8,8 0,0 1,147 208.98z" />
		<path
			fill="rgb(184,184,184)"
			d="M8,48h200v108h-200z"
			stroke-opacity="0.45"
			fill-opacity="0.45" />
	</g>
</svg>