<!-- Created by Apktool M – https://maximoff.su/apktool -->
<svg
	xmlns="http://www.w3.org/2000/svg"
	xmlns:xlink="http://www.w3.org/1999/xlink"
	version="1.1"
	width="312"
	height="320"
	viewBox="0 0 312 320">
	<path
		fill="rgb(207,242,229)"
		d="M26.13,226.4C29.79,294.67 166.38,311.19 242.3,243.48C370.96,135.51 277.23,39.69 168.33,60.46C48.04,83.4 22.48,158.15 26.13,226.4Z"
		stroke-opacity="0.5"
		fill-opacity="0.5" />
	<path
		fill="rgb(255,146,109)"
		fill-opacity="1.0"
		d="M55.95,71.72m-35.16,4.89a35.5,35.5 0,1 1,70.32 -9.77a35.5,35.5 0,1 1,-70.32 9.77" />
	<path
		fill="rgb(248,124,82)"
		fill-opacity="1.0"
		d="M55.95,71.72m-27.76,3.86a28.03,28.03 127.09,1 1,55.52 -7.72a28.03,28.03 127.09,1 1,-55.52 7.72" />
	<path
		fill="rgb(255,170,141)"
		fill-opacity="1.0"
		d="M55.95,71.72m-23.87,3.32a24.1,24.1 127.09,1 1,47.74 -6.63a24.1,24.1 127.09,1 1,-47.74 6.63" />
	<path
		fill="rgb(235,102,57)"
		fill-opacity="1.0"
		d="M55.39,69.6C50.51,70.28 50.3,68.77 50.18,67.88C50.02,66.72 51.56,65.24 54.72,64.8C57.61,64.4 58.32,65.86 58.48,66.77L60.91,66.39L63.35,66.05C63,63.59 60.9,60.35 56.54,59.96L56.17,57.3L51.29,57.98L51.65,60.55C46.95,62.01 44.87,65.47 45.3,68.56C45.68,71.24 47.57,75.57 56.06,74.39C60.93,73.72 61.16,75.34 61.27,76.11C61.4,77.11 60.09,78.72 56.72,79.19C52.23,79.81 51.59,77.81 51.51,77.47L46.64,78.15C46.94,80.35 49.1,84.04 54.92,84.13L55.28,86.72L60.16,86.04L59.8,83.44C64.49,81.98 66.57,78.52 66.14,75.44C65.77,72.75 63.88,68.42 55.39,69.6Z" />
	<path
		fill="rgb(255,146,109)"
		fill-opacity="1.0"
		d="M255.85,228.63m-23.28,-0.58a23.29,23.29 46.42,1 1,46.56 1.16a23.29,23.29 46.42,1 1,-46.56 -1.16" />
	<path
		fill="rgb(248,124,82)"
		fill-opacity="1.0"
		d="M255.85,228.63m-18.38,-0.46a18.39,18.39 46.42,1 1,36.76 0.91a18.39,18.39 46.42,1 1,-36.76 -0.91" />
	<path
		fill="rgb(255,170,141)"
		fill-opacity="1.0"
		d="M255.85,228.63m-15.8,-0.39a15.81,15.81 46.42,1 1,31.61 0.78a15.81,15.81 46.42,1 1,-31.61 -0.78" />
	<path
		fill="rgb(235,102,57)"
		fill-opacity="1.0"
		d="M255.72,227.2C252.49,227.12 252.52,226.12 252.53,225.53C252.55,224.76 253.7,223.97 255.8,224.02C257.71,224.07 258.01,225.09 258.02,225.69L259.63,225.71L261.25,225.74C261.29,224.12 260.27,221.8 257.49,221.08L257.53,219.32L254.3,219.24L254.26,220.94C251.07,221.39 249.35,223.4 249.3,225.45C249.26,227.23 250.02,230.23 255.64,230.37C258.87,230.45 258.84,231.52 258.83,232.04C258.81,232.7 257.79,233.6 255.56,233.55C252.59,233.47 252.38,232.11 252.37,231.88L249.14,231.8C249.11,233.26 250.11,235.88 253.87,236.55L253.83,238.27L257.06,238.35L257.1,236.63C260.3,236.18 262.01,234.16 262.06,232.12C262.1,230.34 261.34,227.34 255.72,227.2Z" />
	<path
		fill="rgb(255,146,109)"
		fill-opacity="1.0"
		d="M86.99,216.76m-15.08,-4.54a15.75,15.75 61.74,1 1,30.17 9.07a15.75,15.75 61.74,1 1,-30.17 -9.07" />
	<path
		fill="rgb(248,124,82)"
		fill-opacity="1.0"
		d="M86.99,216.76m-11.91,-3.58a12.43,12.43 61.74,1 1,23.82 7.16a12.43,12.43 61.74,1 1,-23.82 -7.16" />
	<path
		fill="rgb(255,170,141)"
		fill-opacity="1.0"
		d="M86.99,216.76m-10.24,-3.08a10.69,10.69 61.74,1 1,20.48 6.16a10.69,10.69 61.74,1 1,-20.48 -6.16" />
	<path
		fill="rgb(235,102,57)"
		fill-opacity="1.0"
		d="M87.15,215.8C85.06,215.17 85.26,214.53 85.37,214.14C85.52,213.65 86.41,213.34 87.77,213.74C89.01,214.12 89.03,214.84 88.92,215.23L89.97,215.53L91.02,215.84C91.34,214.79 91.09,213.09 89.4,212.13L89.74,210.99L87.65,210.36L87.32,211.46C85.16,211.18 83.68,212.19 83.28,213.51C82.93,214.67 82.9,216.76 86.54,217.86C88.63,218.49 88.42,219.18 88.32,219.52C88.19,219.94 87.36,220.35 85.92,219.92C83.99,219.34 84.1,218.41 84.13,218.26L82.04,217.63C81.76,218.57 81.94,220.46 84.28,221.58L83.94,222.69L86.04,223.32L86.37,222.2C88.53,222.48 90.01,221.47 90.41,220.15C90.76,218.99 90.79,216.9 87.15,215.8Z" />
	<path
		fill="rgb(255,255,255)"
		fill-opacity="1.0"
		d="M181.61,38.85L80.62,65.91C77.22,66.82 75.22,70.37 76.15,73.84L130.99,278.51C131.92,281.98 135.43,284.05 138.83,283.14L239.82,256.08C243.22,255.17 245.22,251.62 244.29,248.15L189.45,43.49C188.52,40.01 185.01,37.94 181.61,38.85Z" />
	<path
		fill="rgb(235,235,235)"
		fill-opacity="1.0"
		d="M100.15,107.29L107.22,105.39A7.85,7.85 120,0 1,116.83 110.94L118.73,118.02A7.85,7.85 120,0 1,113.18 127.63L106.11,129.52A7.85,7.85 120,0 1,96.49 123.98L94.6,116.9A7.85,7.85 120,0 1,100.15 107.29z" />
	<path
		fill="rgb(235,235,235)"
		fill-opacity="1.0"
		d="M126.25,100.3L133.32,98.4A7.85,7.85 120,0 1,142.93 103.95L144.83,111.02A7.85,7.85 120,0 1,139.28 120.64L132.2,122.53A7.85,7.85 120,0 1,122.59 116.98L120.7,109.91A7.85,7.85 120,0 1,126.25 100.3z" />
	<path
		fill="rgb(235,235,235)"
		fill-opacity="1.0"
		d="M152.35,93.3L159.42,91.41A7.85,7.85 120,0 1,169.03 96.96L170.93,104.03A7.85,7.85 120,0 1,165.38 113.64L158.3,115.54A7.85,7.85 120,0 1,148.69 109.99L146.8,102.92A7.85,7.85 120,0 1,152.35 93.3z" />
	<path
		fill="rgb(235,235,235)"
		fill-opacity="1.0"
		d="M178.44,86.31L185.52,84.42A7.85,7.85 120,0 1,195.13 89.96L197.02,97.04A7.85,7.85 120,0 1,191.47 106.65L184.4,108.55A7.85,7.85 120,0 1,174.79 103L172.89,95.92A7.85,7.85 120,0 1,178.44 86.31z" />
	<path
		fill="rgb(235,235,235)"
		fill-opacity="1.0"
		d="M107.14,133.39L114.21,131.49A7.85,7.85 120,0 1,123.83 137.04L125.72,144.12A7.85,7.85 120,0 1,120.17 153.73L113.1,155.62A7.85,7.85 120,0 1,103.49 150.07L101.59,143A7.85,7.85 120,0 1,107.14 133.39z" />
	<path
		fill="rgb(235,235,235)"
		fill-opacity="1.0"
		d="M133.24,126.39L140.31,124.5A7.85,7.85 120,0 1,149.93 130.05L151.82,137.12A7.85,7.85 120,0 1,146.27 146.73L139.2,148.63A7.85,7.85 120,0 1,129.59 143.08L127.69,136.01A7.85,7.85 120,0 1,133.24 126.39z" />
	<path
		fill="rgb(235,235,235)"
		fill-opacity="1.0"
		d="M159.34,119.4L166.41,117.51A7.85,7.85 120,0 1,176.02 123.06L177.92,130.13A7.85,7.85 120,0 1,172.37 139.74L165.3,141.64A7.85,7.85 120,0 1,155.68 136.09L153.79,129.01A7.85,7.85 120,0 1,159.34 119.4z" />
	<path
		fill="rgb(235,235,235)"
		fill-opacity="1.0"
		d="M90.61,79.27L179.85,55.36A5.89,5.89 120,0 1,187.06 59.52L189.36,68.11A5.89,5.89 120,0 1,185.2 75.32L95.96,99.23A5.89,5.89 120,0 1,88.75 95.07L86.45,86.48A5.89,5.89 120,0 1,90.61 79.27z" />
	<path
		fill="rgb(235,235,235)"
		fill-opacity="1.0"
		d="M117.59,180.78L206.83,156.86A5.89,5.89 120,0 1,214.04 161.03L233.1,232.18A5.89,5.89 120,0 1,228.94 239.39L139.7,263.3A5.89,5.89 120,0 1,132.49 259.14L113.42,187.98A5.89,5.89 120,0 1,117.59 180.78z" />
	<path
		fill="rgb(217,217,217)"
		fill-opacity="1.0"
		d="M126.11,260.26l113.29,-30.36l6.57,24.53l-113.29,30.36z" />
	<path
		fill="rgb(72,67,89)"
		fill-opacity="1.0"
		d="M81.52,54.31L175.03,29.25C183.37,27.02 191.93,31.96 194.16,40.3L249.97,248.56C252.2,256.9 247.26,265.46 238.92,267.7L145.41,292.75C137.08,294.98 128.51,290.04 126.28,281.7L70.48,73.44C68.24,65.1 73.19,56.54 81.52,54.31ZM80.62,65.91L181.62,38.85C185.01,37.94 188.52,40.01 189.45,43.49L244.29,248.15C245.22,251.62 243.22,255.17 239.82,256.08L138.83,283.14C135.43,284.05 131.93,281.98 130.99,278.51L76.16,73.84C75.23,70.37 77.22,66.82 80.62,65.91Z"
		fill-rule="evenodd" />
	<path
		fill="rgb(235,235,235)"
		fill-opacity="1.0"
		d="M142.12,262.04L142.12,262.04A8.34,8.34 120,0 1,152.34 267.94L152.34,267.94A8.34,8.34 120,0 1,146.44 278.15L146.44,278.15A8.34,8.34 120,0 1,136.23 272.25L136.23,272.25A8.34,8.34 120,0 1,142.12 262.04z" />
	<path
		fill="rgb(235,235,235)"
		fill-opacity="1.0"
		d="M162.96,256.46L162.96,256.46A8.34,8.34 120,0 1,173.17 262.35L173.17,262.35A8.34,8.34 120,0 1,167.27 272.57L167.27,272.57A8.34,8.34 120,0 1,157.06 266.67L157.06,266.67A8.34,8.34 120,0 1,162.96 256.46z" />
	<path
		fill="rgb(235,235,235)"
		fill-opacity="1.0"
		d="M183.8,250.87L183.8,250.87A8.34,8.34 120,0 1,194.01 256.77L194.01,256.77A8.34,8.34 120,0 1,188.11 266.98L188.11,266.98A8.34,8.34 120,0 1,177.9 261.09L177.9,261.09A8.34,8.34 120,0 1,183.8 250.87z" />
	<path
		fill="rgb(235,235,235)"
		fill-opacity="1.0"
		d="M204.63,245.29L204.63,245.29A8.34,8.34 120,0 1,214.85 251.19L214.85,251.19A8.34,8.34 120,0 1,208.95 261.4L208.95,261.4A8.34,8.34 120,0 1,198.74 255.5L198.74,255.5A8.34,8.34 120,0 1,204.63 245.29z" />
	<path
		fill="rgb(255,27,45)"
		fill-opacity="1.0"
		d="M226.78,252.2C225.75,251.48 224.88,250.26 224.44,248.74L224.35,248.41C223.98,246.87 224.12,245.37 224.65,244.24C225.31,242.66 226.59,241.42 228.27,240.97C229.3,240.7 230.35,240.75 231.33,241.08C229.79,240.3 227.97,240.06 226.17,240.54L226.15,240.54C222.25,241.59 219.94,245.59 220.98,249.49C222,253.27 225.8,255.56 229.59,254.73C229.7,254.71 229.81,254.68 229.93,254.65C231.73,254.17 233.2,253.05 234.15,251.6C233.47,252.37 232.59,252.94 231.55,253.22C229.87,253.67 228.14,253.24 226.78,252.2L226.78,252.2Z"
		fill-rule="evenodd" />
	<path
		fill="rgb(167,0,20)"
		fill-opacity="1.0"
		d="M224.65,244.24C225.09,243.31 225.8,242.62 226.72,242.38C228.77,241.83 231.06,243.71 231.83,246.58C232.6,249.45 231.56,252.23 229.51,252.78C228.59,253.02 227.63,252.79 226.78,252.2C228.14,253.24 229.87,253.67 231.55,253.22C232.59,252.94 233.47,252.37 234.15,251.6C235.25,249.92 235.65,247.8 235.09,245.71C234.53,243.62 233.12,241.98 231.33,241.08C230.36,240.75 229.3,240.7 228.27,240.97C226.59,241.42 225.31,242.66 224.65,244.24V244.24Z"
		fill-rule="evenodd" />
	<path
		fill="rgb(72,67,89)"
		d="M182.74,201.89L228.02,187.28L205.85,111.86C189.37,113.45 154.49,117.29 146.89,120.01C139.29,122.73 139.39,129.5 140.39,132.54L157.63,187.35C158.76,190.39 162.5,197.19 168.45,200.07C174.39,202.94 180.45,202.48 182.74,201.89Z"
		stroke-opacity="0.3"
		fill-opacity="0.3" />
	<g>
		<clipPath
			d="M141.14,99.56l100.07,-30.47l29.11,95.6l-100.07,30.47z" />
		<path
			fill="rgb(64,191,183)"
			fill-opacity="1.0"
			d="M214.42,81.52L156.36,99.2C150.8,100.89 147.6,106.57 149.21,111.88L153.09,124.61C154.71,129.91 160.53,132.85 166.1,131.15L224.15,113.47C229.71,111.78 232.91,106.1 231.3,100.79L227.42,88.06C225.8,82.75 219.98,79.82 214.42,81.52Z" />
		<path
			fill="rgb(255,255,255)"
			fill-opacity="1.0"
			d="M228.54,100.38L166.97,119.13C157.91,121.89 151.86,120.71 149.1,111.65L167.98,173.64C170.74,182.7 180.32,187.81 189.38,185.05L248.82,166.95C257.88,164.19 262.98,154.61 260.23,145.54L249.95,111.8C247.19,102.73 237.6,97.62 228.54,100.38Z"
			fill-rule="evenodd" />
		<path
			fill="rgb(234,60,88)"
			fill-opacity="1.0"
			d="M228.54,100.38L166.97,119.13C157.91,121.89 151.86,120.71 149.1,111.65L167.98,173.64C170.74,182.7 180.32,187.81 189.38,185.05L248.82,166.95C257.88,164.19 262.98,154.61 260.23,145.54L249.95,111.8C247.19,102.73 237.6,97.62 228.54,100.38Z"
			fill-rule="evenodd" />
		<path
			fill="rgb(255,255,255)"
			fill-opacity="1.0"
			d="M217.06,123.76L250.49,113.58L259.68,143.76L226.25,153.94C222.47,155.1 218.45,152.96 217.29,149.17L212.29,132.72C211.13,128.93 213.27,124.92 217.06,123.76Z" />
		<path
			fill="rgb(234,60,88)"
			fill-opacity="1.0"
			d="M234.95,134.84C235.84,137.76 234.19,140.85 231.27,141.74C228.36,142.62 225.27,140.98 224.38,138.06C223.49,135.14 225.14,132.05 228.05,131.16C230.97,130.28 234.06,131.92 234.95,134.84Z" />
	</g>
	<path
		fill="rgb(255,146,109)"
		fill-opacity="1.0"
		d="M271.01,161.22C272.45,166.81 276.82,171.18 282.42,172.63C276.82,174.07 272.45,178.44 271.01,184.03C269.57,178.44 265.2,174.07 259.6,172.63C265.2,171.18 269.57,166.81 271.01,161.22Z" />
	<path
		fill="rgb(255,146,109)"
		fill-opacity="1.0"
		d="M73.33,134.21C74.33,138.08 77.36,141.1 81.23,142.1C77.36,143.1 74.33,146.13 73.33,150C72.33,146.13 69.31,143.1 65.43,142.1C69.31,141.1 72.33,138.08 73.33,134.21Z" />
	<path
		fill="rgb(234,60,88)"
		fill-opacity="1.0"
		d="M214.49,70.6L212.07,42.5L230.09,42.73L223.73,70.01L214.49,70.6Z" />
	<path
		fill="rgb(234,60,88)"
		fill-opacity="1.0"
		d="M244.14,59.22L232.71,73.79L238.8,80.06L254.47,72.18L244.14,59.22Z" />
</svg>