<!-- Created by Apktool M – https://maximoff.su/apktool -->
<svg
	xmlns="http://www.w3.org/2000/svg"
	xmlns:xlink="http://www.w3.org/1999/xlink"
	version="1.1"
	width="312"
	height="320"
	viewBox="0 0 312 320">
	<path
		fill="rgb(207,242,229)"
		d="M46.28,205.54C79.28,252.54 187.91,295.85 242.28,266.04C352.41,205.66 263.23,27.75 196.78,99.54C140.78,160.04 92.28,26.54 55.78,50.54C-2.72,76.04 23.06,172.47 46.28,205.54Z"
		stroke-opacity="0.5"
		fill-opacity="0.5" />
	<path
		fill="rgb(32,161,112)"
		fill-opacity="1.0"
		stroke="rgb(10,143,92)"
		stroke-opacity="1.0"
		d="M45.26,133.15L208.45,46.78C208.73,46.63 209.09,46.74 209.24,47.02L255.63,134.66C255.78,134.95 255.67,135.31 255.38,135.46L92.2,221.83C91.91,221.98 91.56,221.87 91.41,221.59L45.02,133.94C44.87,133.66 44.98,133.3 45.26,133.15Z"
		stroke-width="5.86534" />
	<path
		fill="rgb(59,183,136)"
		fill-opacity="1.0"
		d="M48,134.19l159.95,-84.66l5.61,10.6l-159.95,84.66z" />
	<path
		fill="rgb(59,183,136)"
		fill-opacity="1.0"
		d="M63.52,137.86l35.31,66.72l-10.6,5.61l-35.31,-66.72z" />
	<path
		fill="rgb(59,183,136)"
		fill-opacity="1.0"
		d="M212.87,58.81l35.31,66.72l-10.6,5.61l-35.31,-66.72z" />
	<path
		fill="rgb(59,183,136)"
		fill-opacity="1.0"
		d="M87.29,208.42l159.95,-84.66l5.61,10.6l-159.95,84.66z" />
	<path
		fill="rgb(14,147,97)"
		fill-opacity="1.0"
		d="M125.02,148.28a32.03,27.35 62.11,1 0,48.34 -25.59a32.03,27.35 62.11,1 0,-48.34 25.59z" />
	<path
		fill="rgb(110,199,146)"
		fill-opacity="1.0"
		d="M218.21,135.17L218.21,135.17A2,2 107.11,0 1,220.92 136L223.49,140.86A2,2 107.11,0 1,222.66 143.56L222.66,143.56A2,2 107.11,0 1,219.96 142.73L217.38,137.87A2,2 107.11,0 1,218.21 135.17z" />
	<path
		fill="rgb(110,199,146)"
		fill-opacity="1.0"
		d="M225.29,131.43L225.29,131.43A2,2 107.11,0 1,227.99 132.26L230.56,137.12A2,2 107.11,0 1,229.73 139.82L229.73,139.82A2,2 107.11,0 1,227.03 138.99L224.45,134.13A2,2 107.11,0 1,225.29 131.43z" />
	<path
		fill="rgb(110,199,146)"
		fill-opacity="1.0"
		d="M232.35,127.69L232.35,127.69A2,2 107.11,0 1,235.06 128.52L237.63,133.38A2,2 107.11,0 1,236.8 136.08L236.8,136.08A2,2 107.11,0 1,234.09 135.25L231.52,130.39A2,2 107.11,0 1,232.35 127.69z" />
	<path
		fill="rgb(110,199,146)"
		fill-opacity="1.0"
		d="M239.42,123.94L239.42,123.94A2,2 107.11,0 1,242.13 124.78L244.7,129.64A2,2 107.11,0 1,243.87 132.34L243.87,132.34A2,2 107.11,0 1,241.16 131.51L238.59,126.65A2,2 107.11,0 1,239.42 123.94z" />
	<path
		fill="rgb(110,199,146)"
		fill-opacity="1.0"
		d="M183.84,70.22L183.84,70.22A2,2 107.11,0 1,186.54 71.05L189.11,75.91A2,2 107.11,0 1,188.28 78.61L188.28,78.61A2,2 107.11,0 1,185.58 77.78L183,72.92A2,2 107.11,0 1,183.84 70.22z" />
	<path
		fill="rgb(110,199,146)"
		fill-opacity="1.0"
		d="M190.91,66.47L190.91,66.47A2,2 107.11,0 1,193.61 67.31L196.18,72.17A2,2 107.11,0 1,195.35 74.87L195.35,74.87A2,2 107.11,0 1,192.65 74.04L190.07,69.18A2,2 107.11,0 1,190.91 66.47z" />
	<path
		fill="rgb(110,199,146)"
		fill-opacity="1.0"
		d="M197.97,62.73L197.97,62.73A2,2 107.11,0 1,200.68 63.56L203.25,68.42A2,2 107.11,0 1,202.42 71.13L202.42,71.13A2,2 107.11,0 1,199.72 70.3L197.14,65.44A2,2 107.11,0 1,197.97 62.73z" />
	<path
		fill="rgb(110,199,146)"
		fill-opacity="1.0"
		d="M205.04,58.99L205.04,58.99A2,2 107.11,0 1,207.75 59.82L210.32,64.68A2,2 107.11,0 1,209.49 67.39L209.49,67.39A2,2 107.11,0 1,206.79 66.55L204.21,61.69A2,2 107.11,0 1,205.04 58.99z" />
	<path
		fill="rgb(110,199,146)"
		fill-opacity="1.0"
		d="M58.79,136.4L58.79,136.4A2,2 107.11,0 1,61.49 137.23L64.07,142.09A2,2 107.11,0 1,63.23 144.8L63.23,144.8A2,2 107.11,0 1,60.53 143.96L57.96,139.1A2,2 107.11,0 1,58.79 136.4z" />
	<path
		fill="rgb(110,199,146)"
		fill-opacity="1.0"
		d="M65.86,132.66L65.86,132.66A2,2 107.11,0 1,68.56 133.49L71.14,138.35A2,2 107.11,0 1,70.3 141.05L70.3,141.05A2,2 107.11,0 1,67.6 140.22L65.03,135.36A2,2 107.11,0 1,65.86 132.66z" />
	<path
		fill="rgb(110,199,146)"
		fill-opacity="1.0"
		d="M72.93,128.92L72.93,128.92A2,2 107.11,0 1,75.63 129.75L78.21,134.61A2,2 107.11,0 1,77.37 137.31L77.37,137.31A2,2 107.11,0 1,74.67 136.48L72.1,131.62A2,2 107.11,0 1,72.93 128.92z" />
	<path
		fill="rgb(110,199,146)"
		fill-opacity="1.0"
		d="M80,125.18L80,125.18A2,2 107.11,0 1,82.7 126.01L85.28,130.87A2,2 107.11,0 1,84.44 133.57L84.44,133.57A2,2 107.11,0 1,81.74 132.74L79.17,127.88A2,2 107.11,0 1,80 125.18z" />
	<path
		fill="rgb(110,199,146)"
		fill-opacity="1.0"
		d="M94.11,203.12L94.11,203.12A2,2 107.11,0 1,96.81 203.95L99.38,208.81A2,2 107.11,0 1,98.55 211.52L98.55,211.52A2,2 107.11,0 1,95.85 210.68L93.27,205.82A2,2 107.11,0 1,94.11 203.12z" />
	<path
		fill="rgb(110,199,146)"
		fill-opacity="1.0"
		d="M101.18,199.38L101.18,199.38A2,2 107.11,0 1,103.88 200.21L106.45,205.07A2,2 107.11,0 1,105.62 207.77L105.62,207.77A2,2 107.11,0 1,102.92 206.94L100.34,202.08A2,2 107.11,0 1,101.18 199.38z" />
	<path
		fill="rgb(110,199,146)"
		fill-opacity="1.0"
		d="M108.24,195.64L108.24,195.64A2,2 107.11,0 1,110.95 196.47L113.52,201.33A2,2 107.11,0 1,112.69 204.03L112.69,204.03A2,2 107.11,0 1,109.99 203.2L107.41,198.34A2,2 107.11,0 1,108.24 195.64z" />
	<path
		fill="rgb(110,199,146)"
		fill-opacity="1.0"
		d="M115.31,191.9L115.31,191.9A2,2 107.11,0 1,118.02 192.73L120.59,197.59A2,2 107.11,0 1,119.76 200.29L119.76,200.29A2,2 107.11,0 1,117.06 199.46L114.48,194.6A2,2 107.11,0 1,115.31 191.9z" />
	<path
		fill="rgb(32,161,112)"
		fill-opacity="1.0"
		d="M151.18,115.31C145.95,111.71 137.51,116.36 135.13,118.51C127.36,124.51 135.43,136.9 140.81,143.52C144.07,147.51 155.87,144.35 160.4,141.55C160.82,141.29 160.93,140.76 160.7,140.32L159.58,138.2C162.58,132.45 157.71,119.81 151.18,115.31Z" />
	<g>
		<clipPath
			d="M125.02,148.28a32.03,27.35 62.11,1 0,48.34 -25.59a32.03,27.35 62.11,1 0,-48.34 25.59z" />
		<path
			fill="rgb(9,139,90)"
			fill-opacity="1.0"
			d="M134.69,164.39L138.02,153.58C138.13,152.01 138.45,149.22 147.48,145.35C152.18,143.33 156.36,141.51 159.81,140.17C164.64,138.28 168.03,137.34 169.42,138.09C171.32,139.12 177.84,142.96 180.87,144.76L164.03,171.2L134.69,164.39Z" />
	</g>
	<path
		fill="rgb(9,139,90)"
		fill-opacity="1.0"
		d="M131.77,127.2C131.28,119.48 135.2,115.66 140.01,114.06C144.04,111.92 150.44,113.25 152.91,115.6C155.09,117.68 157.49,120.36 160.36,123.65C161.84,125.35 162.41,129.71 162.19,133.9C162.1,136.8 162.77,138.07 163.62,138.89L160.73,140.37L158.88,136.88C161.28,134.48 155.68,111.59 141.77,117.37C129.56,122.44 138.67,140.24 145.34,142.82C146.31,143.86 146.12,145.21 147.01,145.99L139.68,155.99C138.94,156.19 137.38,155.58 136.81,154.5C136.33,153.59 135.62,151.17 137.66,147.55C139.7,143.92 136.21,143.22 134.38,141.36C132.56,139.51 132.28,135.12 131.78,127.33L131.77,127.2Z" />
	<path
		fill="rgb(14,147,97)"
		fill-opacity="1.0"
		d="M99.41,161.85m-10.6,5.61a12,12 107.11,1 1,21.21 -11.23a12,12 107.11,1 1,-21.21 11.23" />
	<path
		fill="none"
		stroke="rgb(59,183,136)"
		stroke-opacity="1.0"
		d="M96.5,190.54m-1.33,0.7a1.5,1.5 107.11,1 0,2.65 -1.4a1.5,1.5 107.11,1 0,-2.65 1.4"
		stroke-width="1" />
	<path
		fill="none"
		stroke="rgb(59,183,136)"
		stroke-opacity="1.0"
		d="M101.8,187.74m-1.33,0.7a1.5,1.5 107.11,1 0,2.65 -1.4a1.5,1.5 107.11,1 0,-2.65 1.4"
		stroke-width="1" />
	<path
		fill="none"
		stroke="rgb(59,183,136)"
		stroke-opacity="1.0"
		d="M107.1,184.93m-1.33,0.7a1.5,1.5 107.11,1 0,2.65 -1.4a1.5,1.5 107.11,1 0,-2.65 1.4"
		stroke-width="1" />
	<path
		fill="none"
		stroke="rgb(59,183,136)"
		stroke-opacity="1.0"
		d="M112.4,182.12m-1.33,0.7a1.5,1.5 107.11,1 0,2.65 -1.4a1.5,1.5 107.11,1 0,-2.65 1.4"
		stroke-width="1" />
	<path
		fill="none"
		stroke="rgb(59,183,136)"
		stroke-opacity="1.0"
		d="M117.71,179.32m-1.33,0.7a1.5,1.5 107.11,1 0,2.65 -1.4a1.5,1.5 107.11,1 0,-2.65 1.4"
		stroke-width="1" />
	<path
		fill="none"
		stroke="rgb(59,183,136)"
		stroke-opacity="1.0"
		d="M123.01,176.51m-1.33,0.7a1.5,1.5 107.11,1 0,2.65 -1.4a1.5,1.5 107.11,1 0,-2.65 1.4"
		stroke-width="1" />
	<path
		fill="none"
		stroke="rgb(59,183,136)"
		stroke-opacity="1.0"
		d="M174.45,99.51m-1.33,0.7a1.5,1.5 107.11,1 0,2.65 -1.4a1.5,1.5 107.11,1 0,-2.65 1.4"
		stroke-width="1" />
	<path
		fill="none"
		stroke="rgb(59,183,136)"
		stroke-opacity="1.0"
		d="M179.75,96.7m-1.33,0.7a1.5,1.5 107.11,1 0,2.65 -1.4a1.5,1.5 107.11,1 0,-2.65 1.4"
		stroke-width="1" />
	<path
		fill="none"
		stroke="rgb(59,183,136)"
		stroke-opacity="1.0"
		d="M185.06,93.89m-1.33,0.7a1.5,1.5 107.11,1 0,2.65 -1.4a1.5,1.5 107.11,1 0,-2.65 1.4"
		stroke-width="1" />
	<path
		fill="none"
		stroke="rgb(59,183,136)"
		stroke-opacity="1.0"
		d="M190.36,91.09m-1.33,0.7a1.5,1.5 107.11,1 0,2.65 -1.4a1.5,1.5 107.11,1 0,-2.65 1.4"
		stroke-width="1" />
	<path
		fill="none"
		stroke="rgb(59,183,136)"
		stroke-opacity="1.0"
		d="M195.66,88.28m-1.33,0.7a1.5,1.5 107.11,1 0,2.65 -1.4a1.5,1.5 107.11,1 0,-2.65 1.4"
		stroke-width="1" />
	<path
		fill="none"
		stroke="rgb(59,183,136)"
		stroke-opacity="1.0"
		d="M200.96,85.47m-1.33,0.7a1.5,1.5 107.11,1 0,2.65 -1.4a1.5,1.5 107.11,1 0,-2.65 1.4"
		stroke-width="1" />
	<path
		fill="rgb(14,147,97)"
		fill-opacity="1.0"
		d="M195.03,138.39m-1.77,0.94a2,2 107.11,1 0,3.53 -1.87a2,2 107.11,1 0,-3.53 1.87" />
	<path
		fill="rgb(14,147,97)"
		fill-opacity="1.0"
		d="M200.33,135.58m-1.77,0.94a2,2 107.11,1 0,3.53 -1.87a2,2 107.11,1 0,-3.53 1.87" />
	<path
		fill="rgb(14,147,97)"
		fill-opacity="1.0"
		d="M205.63,132.78m-1.77,0.94a2,2 107.11,1 0,3.53 -1.87a2,2 107.11,1 0,-3.53 1.87" />
	<path
		fill="rgb(59,183,136)"
		fill-opacity="1.0"
		d="M197.94,109.7m-10.6,5.61a12,12 107.11,1 1,21.21 -11.23a12,12 107.11,1 1,-21.21 11.23" />
	<path
		fill="rgb(59,183,136)"
		fill-opacity="1.0"
		d="M98.98,160.4C96.44,161.75 96.05,161.01 95.82,160.57C95.51,160 96.08,158.92 97.73,158.04C99.24,157.25 99.89,157.87 100.15,158.3L101.4,157.61L102.68,156.94C102.04,155.73 100.29,154.47 97.83,155.16L97.14,153.85L94.6,155.19L95.27,156.46C92.97,158.18 92.47,160.4 93.27,161.91C93.97,163.24 95.81,165.1 100.23,162.76C102.77,161.42 103.19,162.22 103.39,162.6C103.65,163.09 103.23,164.19 101.48,165.12C99.14,166.36 98.42,165.45 98.31,165.29L95.77,166.63C96.35,167.71 98.21,169.2 101.41,168.06L102.08,169.33L104.62,167.99L103.94,166.71C106.24,164.99 106.74,162.77 105.93,161.25C105.24,159.93 103.4,158.06 98.98,160.4Z" />
	<path
		fill="rgb(14,147,97)"
		fill-opacity="1.0"
		d="M197.07,108.49C194.53,109.83 194.14,109.09 193.91,108.65C193.6,108.08 194.17,107 195.82,106.13C197.33,105.33 197.98,105.95 198.24,106.39L199.5,105.69L200.77,105.02C200.13,103.81 198.38,102.56 195.92,103.24L195.23,101.93L192.69,103.27L193.36,104.54C191.06,106.25 190.56,108.48 191.37,110C192.07,111.32 193.9,113.18 198.32,110.84C200.86,109.5 201.28,110.3 201.49,110.68C201.74,111.17 201.32,112.28 199.57,113.2C197.23,114.44 196.51,113.53 196.4,113.37L193.86,114.71C194.44,115.79 196.3,117.28 199.5,116.14L200.17,117.41L202.71,116.07L202.04,114.79C204.33,113.07 204.83,110.85 204.03,109.33C203.33,108.01 201.49,106.14 197.07,108.49Z" />
	<path
		fill="rgb(2,31,20)"
		d="M68.62,138.38L77.1,177.39C77.5,179.23 79.12,180.54 81.01,180.54L86.43,180.54C86.99,180.54 87.55,180.42 88.06,180.19L241.91,111.76C244.01,110.83 244.89,108.32 243.84,106.27L239.21,97.31C238.37,95.68 236.53,94.83 234.74,95.25L71.61,133.64C69.48,134.14 68.15,136.25 68.62,138.38Z"
		stroke-opacity="0.3"
		fill-opacity="0.3" />
	<path
		fill="rgb(32,161,112)"
		fill-opacity="1.0"
		stroke="rgb(10,143,92)"
		stroke-opacity="1.0"
		d="M79.89,141.48L260.47,103.04C260.79,102.97 261.1,103.17 261.17,103.49L281.82,200.48C281.88,200.8 281.68,201.11 281.36,201.18L100.78,239.62C100.46,239.68 100.15,239.48 100.08,239.17L79.44,142.18C79.37,141.86 79.57,141.55 79.89,141.48Z"
		stroke-width="5.86534" />
	<path
		fill="rgb(59,183,136)"
		fill-opacity="1.0"
		d="M82.24,143.23l177.01,-37.68l2.5,11.74l-177.01,37.68z" />
	<path
		fill="rgb(59,183,136)"
		fill-opacity="1.0"
		d="M96.16,151l15.72,73.84l-11.74,2.5l-15.72,-73.84z" />
	<path
		fill="rgb(59,183,136)"
		fill-opacity="1.0"
		d="M261.44,115.82l15.72,73.84l-11.74,2.5l-15.72,-73.84z" />
	<path
		fill="rgb(59,183,136)"
		fill-opacity="1.0"
		d="M99.73,225.38l177.01,-37.68l2.5,11.74l-177.01,37.68z" />
	<path
		fill="rgb(14,147,97)"
		fill-opacity="1.0"
		d="M152.46,177.85a32.03,27.35 77.98,1 0,53.5 -11.39a32.03,27.35 77.98,1 0,-53.5 11.39z" />
	<path
		fill="rgb(110,199,146)"
		fill-opacity="1.0"
		d="M245.69,190.73L245.69,190.73A2,2 122.98,0 1,248.06 192.27L249.21,197.65A2,2 122.98,0 1,247.67 200.02L247.67,200.02A2,2 122.98,0 1,245.3 198.48L244.15,193.1A2,2 122.98,0 1,245.69 190.73z" />
	<path
		fill="rgb(110,199,146)"
		fill-opacity="1.0"
		d="M253.52,189.06L253.52,189.06A2,2 122.98,0 1,255.89 190.6L257.03,195.98A2,2 122.98,0 1,255.49 198.36L255.49,198.36A2,2 122.98,0 1,253.12 196.82L251.98,191.44A2,2 122.98,0 1,253.52 189.06z" />
	<path
		fill="rgb(110,199,146)"
		fill-opacity="1.0"
		d="M261.34,187.4L261.34,187.4A2,2 122.98,0 1,263.71 188.94L264.86,194.32A2,2 122.98,0 1,263.32 196.69L263.32,196.69A2,2 122.98,0 1,260.94 195.15L259.8,189.77A2,2 122.98,0 1,261.34 187.4z" />
	<path
		fill="rgb(110,199,146)"
		fill-opacity="1.0"
		d="M269.16,185.73L269.16,185.73A2,2 122.98,0 1,271.54 187.27L272.68,192.65A2,2 122.98,0 1,271.14 195.02L271.14,195.02A2,2 122.98,0 1,268.77 193.48L267.62,188.11A2,2 122.98,0 1,269.16 185.73z" />
	<path
		fill="rgb(110,199,146)"
		fill-opacity="1.0"
		d="M230.39,118.85L230.39,118.85A2,2 122.98,0 1,232.76 120.39L233.91,125.77A2,2 122.98,0 1,232.37 128.14L232.37,128.14A2,2 122.98,0 1,230 126.6L228.85,121.22A2,2 122.98,0 1,230.39 118.85z" />
	<path
		fill="rgb(110,199,146)"
		fill-opacity="1.0"
		d="M238.22,117.19L238.22,117.19A2,2 122.98,0 1,240.59 118.73L241.73,124.1A2,2 122.98,0 1,240.19 126.48L240.19,126.48A2,2 122.98,0 1,237.82 124.94L236.68,119.56A2,2 122.98,0 1,238.22 117.19z" />
	<path
		fill="rgb(110,199,146)"
		fill-opacity="1.0"
		d="M246.04,115.52L246.04,115.52A2,2 122.98,0 1,248.41 117.06L249.56,122.44A2,2 122.98,0 1,248.02 124.81L248.02,124.81A2,2 122.98,0 1,245.64 123.27L244.5,117.89A2,2 122.98,0 1,246.04 115.52z" />
	<path
		fill="rgb(110,199,146)"
		fill-opacity="1.0"
		d="M253.86,113.85L253.86,113.85A2,2 122.98,0 1,256.23 115.39L257.38,120.77A2,2 122.98,0 1,255.84 123.15L255.84,123.15A2,2 122.98,0 1,253.47 121.61L252.32,116.23A2,2 122.98,0 1,253.86 113.85z" />
	<path
		fill="rgb(110,199,146)"
		fill-opacity="1.0"
		d="M92.01,148.31L92.01,148.31A2,2 122.98,0 1,94.38 149.85L95.53,155.23A2,2 122.98,0 1,93.99 157.6L93.99,157.6A2,2 122.98,0 1,91.62 156.06L90.47,150.68A2,2 122.98,0 1,92.01 148.31z" />
	<path
		fill="rgb(110,199,146)"
		fill-opacity="1.0"
		d="M99.83,146.64L99.83,146.64A2,2 122.98,0 1,102.21 148.18L103.35,153.56A2,2 122.98,0 1,101.81 155.93L101.81,155.93A2,2 122.98,0 1,99.44 154.39L98.3,149.02A2,2 122.98,0 1,99.83 146.64z" />
	<path
		fill="rgb(110,199,146)"
		fill-opacity="1.0"
		d="M107.66,144.98L107.66,144.98A2,2 122.98,0 1,110.03 146.52L111.17,151.9A2,2 122.98,0 1,109.63 154.27L109.63,154.27A2,2 122.98,0 1,107.26 152.73L106.12,147.35A2,2 122.98,0 1,107.66 144.98z" />
	<path
		fill="rgb(110,199,146)"
		fill-opacity="1.0"
		d="M115.48,143.31L115.48,143.31A2,2 122.98,0 1,117.85 144.85L119,150.23A2,2 122.98,0 1,117.46 152.6L117.46,152.6A2,2 122.98,0 1,115.09 151.06L113.94,145.68A2,2 122.98,0 1,115.48 143.31z" />
	<path
		fill="rgb(110,199,146)"
		fill-opacity="1.0"
		d="M107.73,222.14L107.73,222.14A2,2 122.98,0 1,110.1 223.68L111.24,229.06A2,2 122.98,0 1,109.7 231.44L109.7,231.44A2,2 122.98,0 1,107.33 229.9L106.19,224.52A2,2 122.98,0 1,107.73 222.14z" />
	<path
		fill="rgb(110,199,146)"
		fill-opacity="1.0"
		d="M115.55,220.48L115.55,220.48A2,2 122.98,0 1,117.92 222.02L119.07,227.4A2,2 122.98,0 1,117.53 229.77L117.53,229.77A2,2 122.98,0 1,115.16 228.23L114.01,222.85A2,2 122.98,0 1,115.55 220.48z" />
	<path
		fill="rgb(110,199,146)"
		fill-opacity="1.0"
		d="M123.37,218.81L123.37,218.81A2,2 122.98,0 1,125.75 220.35L126.89,225.73A2,2 122.98,0 1,125.35 228.1L125.35,228.1A2,2 122.98,0 1,122.98 226.56L121.83,221.19A2,2 122.98,0 1,123.37 218.81z" />
	<path
		fill="rgb(110,199,146)"
		fill-opacity="1.0"
		d="M131.2,217.15L131.2,217.15A2,2 122.98,0 1,133.57 218.69L134.72,224.07A2,2 122.98,0 1,133.18 226.44L133.18,226.44A2,2 122.98,0 1,130.8 224.9L129.66,219.52A2,2 122.98,0 1,131.2 217.15z" />
	<path
		fill="rgb(32,161,112)"
		fill-opacity="1.0"
		d="M186.64,153.29C182.6,148.41 173.21,150.56 170.33,151.98C161.21,155.63 165.59,169.76 168.96,177.59C170.99,182.32 183.21,182.51 188.33,181.06C188.81,180.92 189.07,180.44 188.96,179.96L188.46,177.61C192.92,172.9 191.7,159.4 186.64,153.29Z" />
	<g>
		<clipPath
			d="M152.46,177.85a32.03,27.35 77.98,1 0,53.5 -11.39a32.03,27.35 77.98,1 0,-53.5 11.39z" />
		<path
			fill="rgb(9,139,90)"
			fill-opacity="1.0"
			d="M157.36,195.99L163.52,186.5C164.06,185.02 165.12,182.43 174.87,181.17C179.95,180.52 184.46,179.91 188.14,179.56C193.3,179.07 196.83,179.09 197.96,180.19C199.5,181.7 204.73,187.18 207.14,189.74L183.72,210.57L157.36,195.99Z" />
	</g>
	<path
		fill="rgb(9,139,90)"
		fill-opacity="1.0"
		d="M164.73,159.42C166.36,151.86 171.18,149.26 176.24,149.03C180.71,148.08 186.5,151.1 188.23,154.05C189.76,156.64 191.33,159.88 193.2,163.83C194.16,165.86 193.51,170.21 192.15,174.18C191.27,176.95 191.57,178.35 192.16,179.38L188.98,180.01L188.15,176.15C191.12,174.49 191.99,150.95 177.03,152.7C163.9,154.24 167.8,173.85 173.5,178.15C174.15,179.42 173.6,180.67 174.25,181.66L164.46,189.28C163.69,189.27 162.36,188.25 162.1,187.06C161.89,186.05 161.87,183.53 164.82,180.6C167.77,177.67 164.62,176.04 163.36,173.76C162.12,171.48 163.04,167.18 164.7,159.55L164.73,159.42Z" />
	<path
		fill="rgb(14,147,97)"
		fill-opacity="1.0"
		d="M124.12,183.9m-11.74,2.5a12,12 122.98,1 1,23.47 -5a12,12 122.98,1 1,-23.47 5" />
	<path
		fill="none"
		stroke="rgb(59,183,136)"
		stroke-opacity="1.0"
		d="M113.47,210.7m-1.47,0.31a1.5,1.5 122.98,1 0,2.93 -0.62a1.5,1.5 122.98,1 0,-2.93 0.62"
		stroke-width="1" />
	<path
		fill="none"
		stroke="rgb(59,183,136)"
		stroke-opacity="1.0"
		d="M119.34,209.45m-1.47,0.31a1.5,1.5 122.98,1 0,2.93 -0.62a1.5,1.5 122.98,1 0,-2.93 0.62"
		stroke-width="1" />
	<path
		fill="none"
		stroke="rgb(59,183,136)"
		stroke-opacity="1.0"
		d="M125.21,208.2m-1.47,0.31a1.5,1.5 122.98,1 0,2.93 -0.62a1.5,1.5 122.98,1 0,-2.93 0.62"
		stroke-width="1" />
	<path
		fill="none"
		stroke="rgb(59,183,136)"
		stroke-opacity="1.0"
		d="M131.07,206.95m-1.47,0.31a1.5,1.5 122.98,1 0,2.93 -0.62a1.5,1.5 122.98,1 0,-2.93 0.62"
		stroke-width="1" />
	<path
		fill="none"
		stroke="rgb(59,183,136)"
		stroke-opacity="1.0"
		d="M136.94,205.7m-1.47,0.31a1.5,1.5 122.98,1 0,2.93 -0.62a1.5,1.5 122.98,1 0,-2.93 0.62"
		stroke-width="1" />
	<path
		fill="none"
		stroke="rgb(59,183,136)"
		stroke-opacity="1.0"
		d="M142.81,204.45m-1.47,0.31a1.5,1.5 122.98,1 0,2.93 -0.62a1.5,1.5 122.98,1 0,-2.93 0.62"
		stroke-width="1" />
	<path
		fill="none"
		stroke="rgb(59,183,136)"
		stroke-opacity="1.0"
		d="M213.35,144.46m-1.47,0.31a1.5,1.5 122.98,1 0,2.93 -0.62a1.5,1.5 122.98,1 0,-2.93 0.62"
		stroke-width="1" />
	<path
		fill="none"
		stroke="rgb(59,183,136)"
		stroke-opacity="1.0"
		d="M219.22,143.21m-1.47,0.31a1.5,1.5 122.98,1 0,2.93 -0.62a1.5,1.5 122.98,1 0,-2.93 0.62"
		stroke-width="1" />
	<path
		fill="none"
		stroke="rgb(59,183,136)"
		stroke-opacity="1.0"
		d="M225.09,141.96m-1.47,0.31a1.5,1.5 122.98,1 0,2.93 -0.62a1.5,1.5 122.98,1 0,-2.93 0.62"
		stroke-width="1" />
	<path
		fill="none"
		stroke="rgb(59,183,136)"
		stroke-opacity="1.0"
		d="M230.95,140.71m-1.47,0.31a1.5,1.5 122.98,1 0,2.93 -0.62a1.5,1.5 122.98,1 0,-2.93 0.62"
		stroke-width="1" />
	<path
		fill="none"
		stroke="rgb(59,183,136)"
		stroke-opacity="1.0"
		d="M236.82,139.46m-1.47,0.31a1.5,1.5 122.98,1 0,2.93 -0.62a1.5,1.5 122.98,1 0,-2.93 0.62"
		stroke-width="1" />
	<path
		fill="none"
		stroke="rgb(59,183,136)"
		stroke-opacity="1.0"
		d="M242.69,138.21m-1.47,0.31a1.5,1.5 122.98,1 0,2.93 -0.62a1.5,1.5 122.98,1 0,-2.93 0.62"
		stroke-width="1" />
	<path
		fill="rgb(14,147,97)"
		fill-opacity="1.0"
		d="M222.51,187.49m-1.96,0.42a2,2 122.98,1 0,3.91 -0.83a2,2 122.98,1 0,-3.91 0.83" />
	<path
		fill="rgb(14,147,97)"
		fill-opacity="1.0"
		d="M228.38,186.24m-1.96,0.42a2,2 122.98,1 0,3.91 -0.83a2,2 122.98,1 0,-3.91 0.83" />
	<path
		fill="rgb(14,147,97)"
		fill-opacity="1.0"
		d="M234.25,184.99m-1.96,0.42a2,2 122.98,1 0,3.91 -0.83a2,2 122.98,1 0,-3.91 0.83" />
	<path
		fill="rgb(59,183,136)"
		fill-opacity="1.0"
		d="M233.16,160.68m-11.74,2.5a12,12 122.98,1 1,23.47 -5a12,12 122.98,1 1,-23.47 5" />
	<path
		fill="rgb(59,183,136)"
		fill-opacity="1.0"
		d="M124.1,182.39C121.29,182.99 121.11,182.17 121.01,181.68C120.88,181.05 121.72,180.17 123.54,179.78C125.21,179.42 125.67,180.2 125.8,180.69L127.2,180.37L128.6,180.07C128.32,178.73 126.98,177.04 124.43,177.03L124.12,175.58L121.31,176.18L121.61,177.58C118.93,178.6 117.84,180.6 118.2,182.28C118.51,183.74 119.76,186.04 124.66,185C127.47,184.4 127.66,185.28 127.75,185.71C127.86,186.25 127.15,187.2 125.21,187.61C122.62,188.16 122.18,187.09 122.12,186.9L119.31,187.5C119.57,188.7 120.95,190.64 124.34,190.42L124.64,191.83L127.45,191.23L127.15,189.81C129.83,188.79 130.92,186.79 130.56,185.11C130.25,183.65 128.99,181.35 124.1,182.39Z" />
	<path
		fill="rgb(14,147,97)"
		fill-opacity="1.0"
		d="M232.65,159.28C229.84,159.88 229.67,159.06 229.56,158.57C229.43,157.94 230.27,157.06 232.1,156.67C233.76,156.32 234.22,157.09 234.35,157.58L235.75,157.26L237.16,156.96C236.87,155.62 235.53,153.93 232.98,153.92L232.67,152.47L229.86,153.07L230.16,154.47C227.48,155.49 226.4,157.49 226.75,159.17C227.06,160.63 228.32,162.93 233.21,161.89C236.02,161.29 236.21,162.18 236.3,162.6C236.41,163.14 235.71,164.09 233.76,164.5C231.18,165.05 230.73,163.98 230.68,163.79L227.86,164.39C228.12,165.59 229.5,167.53 232.89,167.31L233.19,168.72L236.01,168.12L235.7,166.7C238.38,165.68 239.47,163.68 239.11,162C238.8,160.54 237.55,158.24 232.65,159.28Z" />
	<path
		fill="rgb(255,146,109)"
		fill-opacity="1.0"
		d="M138.23,238.99m-34.8,2.02a34.86,34.86 131.68,1 1,69.6 -4.04a34.86,34.86 131.68,1 1,-69.6 4.04" />
	<path
		fill="rgb(248,124,82)"
		fill-opacity="1.0"
		d="M138.24,238.99m-27.47,1.59a27.52,27.52 131.68,1 1,54.95 -3.19a27.52,27.52 131.68,1 1,-54.95 3.19" />
	<path
		fill="rgb(255,170,141)"
		fill-opacity="1.0"
		d="M138.23,238.99m-23.62,1.37a23.66,23.66 131.68,1 1,47.25 -2.74a23.66,23.66 131.68,1 1,-47.25 2.74" />
	<path
		fill="rgb(235,102,57)"
		fill-opacity="1.0"
		d="M137.86,236.87C133.03,237.15 132.94,235.67 132.89,234.78C132.83,233.63 134.45,232.31 137.58,232.13C140.44,231.96 141.01,233.45 141.1,234.35L143.51,234.16L145.92,234.02C145.78,231.59 143.98,228.26 139.74,227.53L139.58,224.9L134.76,225.18L134.9,227.72C130.19,228.78 127.89,232 128.07,235.06C128.22,237.72 129.74,242.11 138.13,241.62C142.96,241.34 143.05,242.94 143.1,243.71C143.15,244.7 141.74,246.17 138.41,246.37C133.96,246.62 133.49,244.61 133.44,244.27L128.62,244.55C128.74,246.73 130.56,250.52 136.26,251.06L136.41,253.62L141.23,253.34L141.09,250.77C145.79,249.71 148.1,246.49 147.92,243.43C147.77,240.77 146.26,236.38 137.86,236.87Z" />
	<g>
		<clipPath
			d="M138.23,238.99m-34.8,2.02a34.86,34.86 131.68,1 1,69.6 -4.04a34.86,34.86 131.68,1 1,-69.6 4.04" />
		<path
			fill="rgb(55,19,7)"
			d="M86.22,217.98m-51.45,2.99a51.54,51.54 131.68,1 1,102.91 -5.97a51.54,51.54 131.68,1 1,-102.91 5.97"
			stroke-opacity="0.2"
			fill-opacity="0.2" />
	</g>
	<path
		fill="rgb(255,146,109)"
		fill-opacity="1.0"
		d="M87.48,217.24m-44.15,-4a44.33,44.33 50.18,1 1,88.3 8.01a44.33,44.33 50.18,1 1,-88.3 -8.01" />
	<path
		fill="rgb(248,124,82)"
		fill-opacity="1.0"
		d="M87.48,217.24m-34.86,-3.16a35,35 121.73,1 1,69.71 6.32a35,35 121.73,1 1,-69.71 -6.32" />
	<path
		fill="rgb(255,170,141)"
		fill-opacity="1.0"
		d="M87.48,217.24m-29.97,-2.72a30.09,30.09 50.18,1 1,59.94 5.44a30.09,30.09 50.18,1 1,-59.94 -5.44" />
	<path
		fill="rgb(235,102,57)"
		fill-opacity="1.0"
		d="M87.4,214.5C81.28,213.95 81.45,212.06 81.55,210.93C81.68,209.48 83.97,208.12 87.95,208.48C91.58,208.81 92.02,210.78 91.96,211.93L95.02,212.16L98.08,212.43C98.36,209.34 96.72,204.81 91.52,203.1L91.83,199.76L85.7,199.2L85.41,202.43C79.28,202.88 75.78,206.5 75.43,210.38C75.12,213.75 76.2,219.56 86.86,220.52C92.98,221.08 92.79,223.11 92.71,224.09C92.59,225.34 90.53,226.93 86.31,226.54C80.67,226.03 80.45,223.41 80.46,222.98L74.34,222.42C74.09,225.19 75.66,230.29 82.72,232.05L82.43,235.3L88.55,235.85L88.85,232.59C94.97,232.14 98.48,228.52 98.83,224.64C99.14,221.27 98.06,215.47 87.4,214.5Z" />
	<path
		fill="rgb(255,255,255)"
		fill-opacity="1.0"
		d="M53.28,190.54C54.23,194.22 57.1,197.09 60.78,198.04C57.1,198.99 54.23,201.86 53.28,205.54C52.33,201.86 49.46,198.99 45.78,198.04C49.46,197.09 52.33,194.22 53.28,190.54Z" />
	<path
		fill="rgb(255,255,255)"
		fill-opacity="1.0"
		d="M63.28,186.54C63.72,188.26 65.06,189.6 66.78,190.04C65.06,190.48 63.72,191.82 63.28,193.54C62.84,191.82 61.5,190.48 59.78,190.04C61.5,189.6 62.84,188.26 63.28,186.54Z" />
	<path
		fill="rgb(255,255,255)"
		fill-opacity="1.0"
		d="M154.28,249.54C155.23,253.22 158.1,256.09 161.78,257.04C158.1,257.99 155.23,260.86 154.28,264.54C153.33,260.86 150.46,257.99 146.78,257.04C150.46,256.09 153.33,253.22 154.28,249.54Z" />
	<path
		fill="rgb(110,168,222)"
		fill-opacity="1.0"
		d="M237.32,48.78m-13.19,0.77a13.21,13.21 131.68,1 1,26.38 -1.53a13.21,13.21 131.68,1 1,-26.38 1.53" />
	<path
		fill="rgb(163,201,255)"
		fill-opacity="1.0"
		d="M237.32,48.78m-10.41,0.6a10.43,10.43 131.68,1 1,20.83 -1.21a10.43,10.43 131.68,1 1,-20.83 1.21" />
	<path
		fill="rgb(98,156,210)"
		fill-opacity="1.0"
		d="M232.19,49.27V51.66H230.43V46.16H232.19V48.4H232.23C232.24,48.23 232.27,48.09 232.32,47.98L233.18,46.16H235.08L233.76,48.86L235.12,51.66H233.22L232.32,49.69C232.27,49.58 232.24,49.44 232.23,49.27H232.19ZM236.06,47.44C236.44,47.23 236.96,47.13 237.62,47.13C238.27,47.13 238.88,47.22 239.43,47.4L239.23,48.6C238.77,48.47 238.31,48.4 237.85,48.4C237.71,48.4 237.51,48.42 237.26,48.44V48.72C238.21,48.72 238.85,48.86 239.19,49.14C239.36,49.28 239.48,49.44 239.55,49.61C239.62,49.77 239.66,49.98 239.66,50.22C239.66,50.45 239.63,50.66 239.57,50.85C239.52,51.04 239.43,51.19 239.32,51.3C239.2,51.41 239.09,51.5 238.96,51.57C238.84,51.64 238.68,51.69 238.48,51.72C238.17,51.77 237.81,51.79 237.4,51.79C236.67,51.79 236.01,51.7 235.43,51.53L235.65,50.29C236.14,50.44 236.67,50.51 237.25,50.51C237.51,50.51 237.75,50.5 237.97,50.48V50.2C237.03,50.2 236.38,50.07 236.03,49.83C235.67,49.58 235.5,49.17 235.5,48.61C235.5,48.03 235.69,47.64 236.06,47.44ZM242.04,48.95V51.66H240.28V45.94L242.04,45.81V47.42C242.41,47.23 242.83,47.13 243.29,47.13C243.74,47.13 244.09,47.22 244.32,47.4C244.56,47.58 244.68,47.82 244.68,48.14V51.66H242.92V48.58H242.64C242.43,48.58 242.28,48.6 242.18,48.65C242.08,48.69 242.04,48.79 242.04,48.95Z" />
	<path
		fill="rgb(110,168,222)"
		fill-opacity="1.0"
		d="M92.5,75.81m-15.59,0.9a15.62,15.62 131.68,1 1,31.19 -1.81a15.62,15.62 131.68,1 1,-31.19 1.81" />
	<path
		fill="rgb(163,201,255)"
		fill-opacity="1.0"
		d="M92.5,75.81m-12.31,0.71a12.33,12.33 131.68,1 1,24.62 -1.43a12.33,12.33 131.68,1 1,-24.62 1.43" />
	<path
		fill="rgb(98,156,210)"
		fill-opacity="1.0"
		d="M88.07,78.7L86.73,76.75C86.68,76.69 86.65,76.55 86.64,76.33H86.61V78.7H84.85V73.21H86.5L87.85,75.16C87.89,75.22 87.92,75.36 87.93,75.58H87.97V73.21H89.73V78.7H88.07ZM90.61,78.7V74.53L92.37,74.31V78.7H90.61ZM90.71,74.02C90.58,73.92 90.51,73.74 90.51,73.48C90.51,73.22 90.58,73.03 90.71,72.93C90.84,72.82 91.1,72.77 91.49,72.77C91.88,72.77 92.14,72.82 92.27,72.93C92.41,73.03 92.47,73.22 92.47,73.48C92.47,73.74 92.41,73.92 92.27,74.02C92.14,74.12 91.88,74.17 91.49,74.17C91.1,74.17 90.84,74.12 90.71,74.02ZM93.25,74.31H94.13L94.61,74.8C94.96,74.48 95.39,74.27 95.91,74.17L96.02,75.84C95.88,75.84 95.69,75.88 95.46,75.94C95.24,76.01 95.09,76.09 95.01,76.19V78.7H93.25V74.31ZM98.63,74.17C100.04,74.17 100.74,74.66 100.74,75.63V78.7H99.86L99.36,78.2C99.19,78.4 98.96,78.56 98.66,78.67C98.37,78.78 98.09,78.84 97.83,78.84C97.57,78.84 97.36,78.82 97.2,78.77C97.05,78.73 96.89,78.66 96.74,78.56C96.4,78.35 96.24,77.96 96.24,77.38C96.24,76.33 97.03,75.8 98.63,75.8H98.98V75.48C98.79,75.47 98.64,75.47 98.51,75.47C97.85,75.47 97.28,75.55 96.81,75.7L96.6,74.45C97.18,74.26 97.86,74.17 98.63,74.17ZM98.01,77.19V77.55H98.37C98.63,77.55 98.8,77.52 98.87,77.46C98.94,77.4 98.98,77.33 98.98,77.23V76.82H98.62C98.41,76.82 98.25,76.84 98.15,76.89C98.06,76.93 98.01,77.03 98.01,77.19Z" />
	<path
		fill="rgb(110,168,222)"
		fill-opacity="1.0"
		d="M213.44,244.86m-13.19,0.77a13.21,13.21 131.68,1 1,26.38 -1.53a13.21,13.21 131.68,1 1,-26.38 1.53" />
	<path
		fill="rgb(163,201,255)"
		fill-opacity="1.0"
		d="M213.43,244.86m-10.41,0.6a10.43,10.43 131.68,1 1,20.83 -1.21a10.43,10.43 131.68,1 1,-20.83 1.21" />
	<path
		fill="rgb(98,156,210)"
		fill-opacity="1.0"
		d="M208.66,246.12V245.89H208.21V244.54H210.33V247.48C209.63,247.74 208.91,247.87 208.17,247.87C207.16,247.87 206.47,247.63 206.1,247.14C205.91,246.89 205.77,246.6 205.7,246.26C205.62,245.91 205.58,245.5 205.58,245C205.58,244.49 205.62,244.07 205.7,243.74C205.78,243.4 205.92,243.1 206.13,242.85C206.51,242.36 207.26,242.11 208.37,242.11C208.6,242.11 208.89,242.14 209.26,242.18C209.63,242.23 209.9,242.28 210.07,242.34L209.8,243.69C209.33,243.6 208.9,243.56 208.51,243.56C208.13,243.56 207.86,243.59 207.7,243.65C207.55,243.71 207.47,243.83 207.47,244V246.49H208.05C208.26,246.49 208.41,246.47 208.51,246.43C208.61,246.38 208.66,246.28 208.66,246.12ZM214.2,247.74V245.8H212.88V247.74H211.12V242.24H212.88V244.19H214.2V242.24H215.96V247.74H214.2ZM216.62,247.65L216.87,246.19C217.4,246.33 217.89,246.4 218.32,246.4C218.75,246.4 219.1,246.38 219.36,246.34V245.9L218.57,245.83C217.85,245.77 217.36,245.6 217.09,245.32C216.83,245.04 216.7,244.63 216.7,244.08C216.7,243.33 216.86,242.82 217.18,242.54C217.51,242.25 218.06,242.11 218.84,242.11C219.62,242.11 220.33,242.19 220.95,242.33L220.73,243.74C220.19,243.65 219.75,243.61 219.42,243.61C219.1,243.61 218.82,243.62 218.59,243.65V244.08L219.22,244.14C219.99,244.22 220.52,244.4 220.81,244.7C221.11,244.99 221.25,245.39 221.25,245.9C221.25,246.27 221.2,246.59 221.1,246.84C221,247.1 220.88,247.29 220.74,247.43C220.61,247.55 220.41,247.65 220.16,247.72C219.91,247.79 219.69,247.84 219.49,247.85C219.31,247.87 219.05,247.87 218.74,247.87C217.98,247.87 217.27,247.8 216.62,247.65Z" />
	<path
		fill="rgb(110,168,222)"
		fill-opacity="1.0"
		d="M245.53,226.85m-7.5,0.44a7.51,7.51 131.68,1 1,15 -0.87a7.51,7.51 131.68,1 1,-15 0.87" />
	<path
		fill="rgb(163,201,255)"
		fill-opacity="1.0"
		d="M245.53,226.85m-4.4,0.26a4.4,4.4 131.68,1 1,8.79 -0.51a4.4,4.4 131.68,1 1,-8.79 0.51" />
	<path
		fill="rgb(110,168,222)"
		fill-opacity="1.0"
		d="M258.42,72.44m-5.78,0.34a5.79,5.79 131.68,1 1,11.57 -0.67a5.79,5.79 131.68,1 1,-11.57 0.67" />
	<path
		fill="rgb(163,201,255)"
		fill-opacity="1.0"
		d="M258.42,72.44m-3.39,0.2a3.39,3.39 131.68,1 1,6.78 -0.39a3.39,3.39 131.68,1 1,-6.78 0.39" />
</svg>