<!-- Created by Apktool M – https://maximoff.su/apktool -->
<svg
	xmlns="http://www.w3.org/2000/svg"
	xmlns:xlink="http://www.w3.org/1999/xlink"
	version="1.1"
	width="312"
	height="312"
	viewBox="0 0 312 312">
	<path
		fill="rgb(89,202,159)"
		d="M274.08 207.01C294.56 161.4 164.71 59.75 110.76 99.56C24.03 163.54 47.83 222.52 79.17 244.37C119.21 272.29 142.44 252.74 180.91 238.44C223.36 222.66 254.5 250.61 274.08 207.01Z"
		fill-opacity="0.2" />
	<path
		fill="rgb(7,149,95)"
		fill-opacity="1.0"
		d="M17.88 181.16L10.67 177.85L17.74 162.98L1.49001 161.11L2.37001 153.12L18.6 155.43L15.25 139.27L23.01 137.76L26.06 153.98L40.25 145.76L44.06 152.84L29.79 160.65L41.81 171.81L36.36 177.58L24.52 166.28L17.88 181.17V181.16Z" />
	<path
		fill="rgb(7,149,95)"
		fill-opacity="1.0"
		d="M258.83 114.97L255.26 111.9L261.73 104.57L252.76 100.84L254.57 96.42L263.46 100.39L264.19 90.62L268.87 91.03L267.95 100.79L277.39 98.42L278.41 103.08L268.99 105.2L274.03 113.54L269.98 115.94L265.07 107.55L258.84 114.96L258.83 114.97Z" />
	<path
		fill="rgb(7,149,95)"
		fill-opacity="1.0"
		d="M136.82 129L117.18 140.37L119.14 143.74L183.92 255.35L203.63 243.94C228.34 229.58 215.01 188.15 205.1 169.95C194.83 151.08 163.59 113.44 136.83 129H136.82Z" />
	<path
		fill="rgb(57,197,143)"
		fill-opacity="1.0"
		d="M160.56 150.61C157.37 147.98 154.06 145.66 150.66 143.7C131.74 132.78 115.4 136.16 107.83 150.29C104.98 155.62 103.37 162.47 103.35 170.66C103.32 179.85 105.29 189.67 108.79 199.28C116.67 220.96 132.31 241.65 150.35 252.07C151.34 252.64 152.31 253.17 153.28 253.66C177.97 266.17 197.58 253.91 197.66 225.12C197.73 199.1 181.83 168.13 160.55 150.61H160.56Z" />
	<path
		fill="rgb(7,149,95)"
		fill-opacity="1.0"
		d="M111.67 175.47C111.74 150.86 129.22 140.91 150.63 153.27C172.05 165.64 189.41 195.71 189.34 220.31C189.27 244.91 171.8 254.88 150.38 242.51C128.97 230.15 111.6 200.07 111.67 175.47ZM150.61 158.85C131.88 148.03 116.58 156.74 116.52 178.28C116.46 199.81 131.66 226.13 150.39 236.94C169.13 247.76 184.42 239.04 184.48 217.51C184.54 195.98 169.35 169.66 150.61 158.85Z" />
	<path
		fill="rgb(255,255,255)"
		fill-opacity="1.0"
		stroke="rgb(7,149,95)"
		stroke-opacity="1.0"
		d="M206.16 129.18C206.16 99.53 184.71 73.08 163.24 63.89C152.49 59.29 141.61 58.97 133.4 64.9C125.2 70.83 119.86 82.87 119.86 102.55V106.57C119.86 108.75 120.55 110.59 121.76 112.01C122.97 113.42 124.67 114.38 126.64 114.87C130.27 115.95 134.22 115.8 137.29 114.49C140.38 113.18 142.63 110.66 142.63 107.07V92C142.63 89 143.27 86.89 144.31 85.53C145.34 84.18 146.8 83.49 148.62 83.39C152.32 83.18 157.42 85.45 162.62 89.7C172.99 98.16 183.35 114.08 183.35 131.7C183.35 138.44 183.35 145.46 183.36 152.4V152.66C183.36 159.51 183.37 166.27 183.37 172.6C183.37 176.52 186.2 180.79 189.85 183.42C193.49 186.04 198.21 187.18 201.97 184.35C204.45 182.49 206.14 179.18 206.14 175.58V129.18H206.16Z"
		stroke-width="1.18" />
	<path
		fill="rgb(152,212,183)"
		fill-opacity="1.0"
		d="M142.05 92C142.05 67.38 183.95 96.02 183.95 131.69C183.95 74.7 123.88 60.13 123.88 100.66C123.88 141.19 123.88 108.58 123.88 113.1C131.33 117.12 142.05 114.61 142.05 107.07V92Z" />
	<path
		fill="rgb(0,80,49)"
		fill-opacity="1.0"
		d="M150.54 182.41C154.65 184.78 157.97 190.53 157.95 195.25C157.95 198.81 156.04 200.76 153.35 200.5L153.3 212.35C153.3 214.16 152.01 214.9 150.43 213.99C148.85 213.08 147.58 210.87 147.58 209.06L147.63 197.21C144.94 194.37 143.06 190.23 143.07 186.67C143.08 181.95 146.42 180.05 150.53 182.42L150.54 182.41Z" />
	<path
		fill="rgb(255,255,255)"
		fill-opacity="1.0"
		d="M151.28 182.89C154.72 185.27 157.46 189.94 157.89 194.11L136.65 206.3H136.63C136.56 208.1 135.88 209.38 134.81 209.99L131.6 211.83C130.58 212.41 129.21 212.39 127.69 211.63L117.58 217.28C117.58 217.28 117.62 217.26 117.64 217.25C117.64 217.25 117.67 217.24 117.68 217.23C118.47 216.72 118.95 215.71 118.95 214.28C118.95 214.26 118.95 214.24 118.95 214.23C118.95 214.21 118.95 214.19 118.95 214.18L119.18 214.05C118.9 210.06 113.85 204.72 111.31 205.9L111.28 205.92H111.25C111.25 205.92 111.16 205.97 111.12 206L124.08 198.75L121.15 200.39C121.23 198.61 121.92 197.35 122.97 196.74C123.35 196.53 123.71 196.31 124.06 196.09C126.05 194.87 127.68 193.88 130.05 195.08L145.63 186.14H145.61L151.31 182.88L151.28 182.89ZM117.63 217.27C117.63 217.27 117.59 217.29 117.57 217.3L117.63 217.27Z"
		fill-rule="evenodd" />
	<path
		fill="rgb(152,212,183)"
		fill-opacity="1.0"
		d="M151.28 182.89C154.72 185.27 157.46 189.94 157.89 194.11L136.65 206.3C137.02 205.55 136.74 204.31 136.74 204.31C138.28 203.45 144.42 199.92 148.15 197.78C151.8 195.68 152.7 190.73 149.91 187.57C149.69 187.32 149.48 187.12 149.28 186.97C149.08 186.82 148.87 186.68 148.66 186.56C147.48 185.88 146.41 185.78 145.59 186.16L151.29 182.9L151.28 182.89ZM127.27 197.17C123.98 195.29 121.3 196.73 121.13 200.39C121.34 200.28 121.65 200.1 122 199.9C122.7 199.5 123.57 199.01 124.06 198.76C126.86 197.33 131.64 203.43 131.89 206.5C131.9 206.65 131.91 206.79 131.91 206.93L118.94 214.18C118.94 214.18 118.94 214.22 118.94 214.23C118.94 214.25 118.94 214.27 118.94 214.28C118.94 215.76 118.42 216.8 117.58 217.29L127.69 211.64C130.89 213.23 133.43 211.59 133.43 207.82C133.43 204.05 130.67 199.11 127.28 197.16L127.27 197.17Z"
		fill-rule="evenodd" />
	<path
		fill="rgb(152,212,183)"
		fill-opacity="1.0"
		d="M128.53 212.49V221.16C128.57 232.99 109.96 236.12 101.96 235.92C94.05 235.72 77.8 232.22 77.77 221.31V212.62L128.52 212.5L128.53 212.49Z" />
	<path
		fill="rgb(255,255,255)"
		fill-opacity="1.0"
		d="M116.87 224.88C118.35 224.33 119.75 223.67 121.04 222.93C128.26 218.76 130.27 212.71 127.04 207.51C125.82 205.55 123.86 203.71 121.16 202.14C118.13 200.38 114.5 199.15 110.66 198.47C101.99 196.94 92.16 198.16 85.27 202.14C84.89 202.36 84.53 202.58 84.18 202.81C75.33 208.58 75.64 217.41 85.15 222.93C93.74 227.92 107.02 228.58 116.87 224.88Z" />
	<path
		fill="rgb(64,191,183)"
		fill-opacity="1.0"
		d="M270.37 189.21C272.6 197.85 279.35 204.61 288 206.84C279.36 209.07 272.6 215.82 270.37 224.47C268.14 215.82 261.39 209.07 252.74 206.84C261.39 204.61 268.14 197.86 270.37 189.21Z" />
	<path
		fill="rgb(64,191,183)"
		fill-opacity="1.0"
		d="M69.44 68.18C70.93 73.94 75.43 78.44 81.19 79.93C75.43 81.42 70.93 85.92 69.44 91.68C67.95 85.92 63.45 81.42 57.69 79.93C63.45 78.44 67.95 73.94 69.44 68.18Z" />
	<path
		fill="rgb(0,0,0)"
		fill-opacity="1.0"
		d="M115.93 209.1C114.18 209.12 112.19 208.74 111.09 207.91C112.28 207.13 114.3 206.79 115.88 206.78C117.66 206.75 119.71 207.22 120.83 207.88C119.55 208.67 117.69 209.05 115.93 209.09V209.1Z" />
	<path
		fill="rgb(0,0,0)"
		fill-opacity="1.0"
		d="M115.09 210.78C113.45 209.6 110.74 209.26 109.91 208.73C109.08 208.2 108.85 206.85 107.44 205.97C105.61 204.83 102.81 204.34 100.08 204.66C94.58 205.28 90.62 208.89 89.5 211.54C88.94 212.85 88.41 214.34 89.87 215.22C91.26 216.05 92.7 215.92 94.31 216.95C95.92 217.98 95.43 218.78 96.87 219.66C98.36 220.58 100.7 220.44 103.05 220.28C105.72 220.1 107.75 219.55 107.86 219.52C107.86 219.49 106.26 217.1 109.83 215.27C112.8 213.74 116.46 214.44 116.64 214.46C117.46 212.6 115.72 211.24 115.1 210.77L115.09 210.78Z" />
</svg>