<!-- Created by Apktool M – https://maximoff.su/apktool -->
<svg
	xmlns="http://www.w3.org/2000/svg"
	xmlns:xlink="http://www.w3.org/1999/xlink"
	version="1.1"
	width="312"
	height="156"
	viewBox="0 0 312 156">
	<g>
		<clipPath
			d="M8,0L304,0A8,8 0,0 1,312 8L312,148A8,8 0,0 1,304 156L8,156A8,8 0,0 1,0 148L0,8A8,8 0,0 1,8 0z" />
		<path
			fill="rgb(47,55,50)"
			fill-opacity="1.0"
			d="M8,0L304,0A8,8 0,0 1,312 8L312,148A8,8 0,0 1,304 156L8,156A8,8 0,0 1,0 148L0,8A8,8 0,0 1,8 0z" />
		<path
			fill="rgb(227,232,229)"
			d="M-4.5,182C54.04,182 101.5,134.54 101.5,76H48.5C48.5,105.27 24.77,129 -4.5,129V182Z"
			stroke-opacity="0.1"
			fill-opacity="0.1" />
		<path
			fill="rgb(227,232,229)"
			d="M207.5,76C148.96,76 101.5,123.46 101.5,182H207.5V76Z"
			stroke-opacity="0.1"
			fill-opacity="0.1" />
		<path
			fill="rgb(227,232,229)"
			d="M313.5,182C254.96,182 207.5,134.54 207.5,76H260.5C260.5,105.27 284.23,129 313.5,129V182Z"
			stroke-opacity="0.1"
			fill-opacity="0.1" />
		<path
			fill="rgb(227,232,229)"
			d="M101.5,-30C42.96,-30 -4.5,17.46 -4.5,76H48.5C48.5,46.73 72.23,23 101.5,23V-30Z"
			stroke-opacity="0.1"
			fill-opacity="0.1" />
		<path
			fill="rgb(227,232,229)"
			d="M154.5,-30C159.96,-3.31 180.81,17.55 207.5,23C180.81,28.45 159.96,49.31 154.5,76C149.04,49.31 128.19,28.45 101.5,23C128.19,17.55 149.04,-3.31 154.5,-30Z"
			stroke-opacity="0.1"
			fill-opacity="0.1" />
		<path
			fill="rgb(227,232,229)"
			d="M313.5,76C254.96,76 207.5,28.54 207.5,-30L313.5,-30L313.5,76Z"
			stroke-opacity="0.1"
			fill-opacity="0.1" />
	</g>
</svg>