<!-- Created by Apktool M – https://maximoff.su/apktool -->
<svg
	xmlns="http://www.w3.org/2000/svg"
	xmlns:xlink="http://www.w3.org/1999/xlink"
	version="1.1"
	width="12"
	height="12"
	viewBox="0 0 12 12">
	<path
		fill="rgb(0,0,0)"
		fill-opacity="1.0"
		d="M1.313,10.685H2.232L7.896,5.014L6.976,4.093L1.313,9.764V10.685ZM10.703,4.06L7.912,1.299L8.831,0.378C9.083,0.126 9.392,0 9.759,0C10.125,0 10.434,0.126 10.686,0.378L11.605,1.299C11.857,1.551 11.988,1.855 11.999,2.211C12.01,2.567 11.89,2.871 11.638,3.123L10.703,4.06ZM0.657,12C0.471,12 0.315,11.937 0.189,11.811C0.063,11.685 0,11.529 0,11.342V9.485C0,9.397 0.016,9.312 0.049,9.23C0.082,9.148 0.131,9.074 0.197,9.008L6.96,2.236L9.75,5.03L2.988,11.803C2.922,11.868 2.848,11.918 2.766,11.951C2.684,11.984 2.599,12 2.511,12H0.657Z" />
</svg>