<!-- Created by Apktool M – https://maximoff.su/apktool -->
<svg
	xmlns="http://www.w3.org/2000/svg"
	xmlns:xlink="http://www.w3.org/1999/xlink"
	version="1.1"
	width="166"
	height="144"
	viewBox="0 0 166 144">
	<path
		fill="rgb(183,202,189)"
		stroke="rgb(128,150,135)"
		stroke-opacity="1.0"
		d="M82.75,71.95m-71.05,0a71.05,71.05 0,1 1,142.11 0a71.05,71.05 0,1 1,-142.11 0"
		stroke-width="1.79881"
		fill-opacity="0.5" />
	<g>
		<clipPath
			d="M135.15,118.59C122.3,133.02 103.58,142.11 82.75,142.11C44,142.11 12.59,110.7 12.59,71.95C-27.01,28.34 -7.34,-2.01 82.75,1.8C216.88,2.86 198.71,89.21 135.15,118.59Z" />
		<path
			fill="rgb(255,255,255)"
			fill-opacity="1.0"
			stroke="rgb(23,28,25)"
			stroke-opacity="1.0"
			d="M29.95,34.97L23.68,37.87L18.61,26.9C17.8,25.16 18.56,23.11 20.29,22.31C22.02,21.51 24.08,22.26 24.88,24L29.95,34.97Z"
			stroke-width="3" />
		<path
			fill="rgb(255,255,255)"
			fill-opacity="1.0"
			stroke="rgb(23,28,25)"
			stroke-opacity="1.0"
			d="M47.2,27L40.93,29.9L35.86,18.92C35.06,17.19 35.81,15.14 37.54,14.34C39.28,13.54 41.33,14.29 42.13,16.02L47.2,27Z"
			stroke-width="3" />
		<path
			fill="rgb(255,255,255)"
			fill-opacity="1.0"
			stroke="rgb(23,28,25)"
			stroke-opacity="1.0"
			d="M48.92,75.62L47.56,76.24L48.19,77.61L54.32,90.86C55.96,94.43 60.19,95.98 63.76,94.33C67.33,92.68 68.88,88.46 67.23,84.89L61.11,71.64L60.48,70.27L59.12,70.9L48.92,75.62Z"
			stroke-width="3" />
		<path
			fill="rgb(255,255,255)"
			fill-opacity="1.0"
			stroke="rgb(23,28,25)"
			stroke-opacity="1.0"
			d="M30.51,64.33L29.15,64.96L29.78,66.32L35.21,78.06C37.24,82.46 42.46,84.38 46.86,82.35L66.19,73.42C70.26,71.54 72.03,66.71 70.15,62.65L64.45,50.3L63.82,48.94L62.45,49.57L30.51,64.33Z"
			stroke-width="3" />
		<path
			fill="rgb(255,255,255)"
			fill-opacity="1.0"
			stroke="rgb(23,28,25)"
			stroke-opacity="1.0"
			d="M63.41,49.72L64.77,49.09L64.14,47.72L53.83,25.4C53.17,23.98 51.49,23.37 50.08,24.02L19.55,38.13C18.13,38.79 17.51,40.46 18.17,41.88L28.48,64.2L29.11,65.56L30.47,64.94L63.41,49.72Z"
			stroke-width="3" />
		<path
			fill="rgb(255,255,255)"
			fill-opacity="1.0"
			stroke="rgb(23,28,25)"
			stroke-opacity="1.0"
			d="M43.29,43.79l-5.86,2.71l-6.33,-13.7l5.86,-2.71z"
			stroke-width="3" />
		<path
			fill="rgb(23,28,25)"
			fill-opacity="1.0"
			d="M70.5,48.59L25.02,69.61A1.73,1.73 64.79,0 1,22.73 68.77L22.73,68.77A1.73,1.73 64.79,0 1,23.57 66.47L69.05,45.45A1.73,1.73 64.79,0 1,71.35 46.3L71.35,46.3A1.73,1.73 64.79,0 1,70.5 48.59z" />
		<path
			fill="none"
			stroke="rgb(23,28,25)"
			stroke-opacity="1.0"
			d="M63.97,95.35C70.55,104.87 79.28,133.47 49.6,153.5"
			stroke-width="3.59762"
			stroke-linecap="round" />
		<path
			fill="rgb(23,28,25)"
			fill-opacity="1.0"
			d="M114.78,39.89L158.95,63.15A1.72,1.72 72.77,0 1,159.67 65.47L159.67,65.47A1.72,1.72 72.77,0 1,157.34 66.19L113.17,42.93A1.72,1.72 72.77,0 1,112.45 40.61L112.45,40.61A1.72,1.72 72.77,0 1,114.78 39.89z" />
		<path
			fill="rgb(255,255,255)"
			fill-opacity="1.0"
			stroke="rgb(23,28,25)"
			stroke-opacity="1.0"
			d="m100.81,78.15c-1.73,3.12 -0.78,7.37 2.1,9.46 1.79,1.19 3.79,2.05 5.67,3.1 5.74,3 11.44,6.06 17.2,9.03 3.26,1.48 7.45,0.18 9.29,-2.89 4.32,-8.08 8.55,-16.21 12.83,-24.31 1.77,-3.37 3.55,-6.74 5.32,-10.1 -11.52,-6.07 -23.04,-12.13 -34.55,-18.2 -5.95,11.3 -11.9,22.6 -17.86,33.91z"
			stroke-width="3" />
		<path
			fill="rgb(255,255,255)"
			fill-opacity="1.0"
			stroke="rgb(23,28,25)"
			stroke-opacity="1.0"
			d="M111.72,92.33L110.4,91.63L109.7,92.96L104.02,103.75C102.76,106.14 103.68,109.09 106.06,110.34C108.44,111.6 111.4,110.68 112.65,108.3L118.33,97.51L119.03,96.18L117.71,95.48L111.72,92.33Z"
			stroke-width="3" />
		<path
			fill="rgb(23,28,25)"
			fill-opacity="1.0"
			d="M106.64,158.84C107.08,159.73 108.15,160.09 109.05,159.65C109.94,159.21 110.3,158.13 109.86,157.24L106.64,158.84ZM104.65,109.74C94.31,124.96 97.97,141.31 106.64,158.84L109.86,157.24C101.34,140.01 98.43,125.29 107.62,111.76L104.65,109.74Z" />
	</g>
</svg>