<!-- Created by Apktool M – https://maximoff.su/apktool -->
<svg
	xmlns="http://www.w3.org/2000/svg"
	xmlns:xlink="http://www.w3.org/1999/xlink"
	version="1.1"
	width="48"
	height="48"
	viewBox="0 0 48 48">
	<g>
		<clipPath
			d="M24,0L24,0A24,24 0,0 1,48 24L48,24A24,24 0,0 1,24 48L24,48A24,24 0,0 1,0 24L0,24A24,24 0,0 1,24 0z" />
		<path
			fill="rgb(7,149,95)"
			fill-opacity="1.0"
			d="M24,0L24,0A24,24 0,0 1,48 24L48,24A24,24 0,0 1,24 48L24,48A24,24 0,0 1,0 24L0,24A24,24 0,0 1,24 0z" />
		<path
			fill="rgb(21,183,121)"
			fill-opacity="1.0"
			d="M28.125,20.625m-16.125,0a16.125,16.125 0,1 1,32.25 0a16.125,16.125 0,1 1,-32.25 0" />
		<path
			fill="rgb(64,191,183)"
			fill-opacity="1.0"
			d="M78.75,52.875C78.75,71.722 63.472,87 44.625,87C25.778,87 10.5,71.722 10.5,52.875C10.5,34.028 25.778,18.75 44.625,18.75C63.472,18.75 78.75,34.028 78.75,52.875ZM30.975,52.875C30.975,60.414 37.086,66.525 44.625,66.525C52.164,66.525 58.275,60.414 58.275,52.875C58.275,45.336 52.164,39.225 44.625,39.225C37.086,39.225 30.975,45.336 30.975,52.875Z" />
		<path
			fill="rgb(234,60,88)"
			fill-opacity="1.0"
			d="M45.375,-4.875m-23.625,0a23.625,23.625 0,1 1,47.25 0a23.625,23.625 0,1 1,-47.25 0" />
	</g>
</svg>