<!-- Created by Apktool M – https://maximoff.su/apktool -->
<svg
	xmlns="http://www.w3.org/2000/svg"
	xmlns:xlink="http://www.w3.org/1999/xlink"
	version="1.1"
	width="115"
	height="90"
	viewBox="0 0 115 90">
	<path
		fill="rgb(0,0,0)"
		d="M23.82,48.61L2.88,38.53C0.07,37.17 0.54,33.03 3.58,32.34L105.5,9.17C108.14,8.57 110.34,11.23 109.25,13.71L77.44,86.26C76.26,88.96 72.81,89.76 70.56,87.84L50.11,70.42L32.87,79.81C32.84,79.82 32.81,79.84 32.78,79.85L32.14,80.2C31.58,80.5 30.99,80.42 30.54,80.12C29.29,79.83 28.23,78.81 28.03,77.38L23.82,48.61Z"
		stroke-opacity="0.1"
		fill-opacity="0.1" />
	<path
		fill="rgb(219,225,221)"
		fill-opacity="1.0"
		d="M31.03,69.38L26.41,37.81L92.75,10.26L90.5,42.07L35.87,71.81C33.85,72.9 31.36,71.66 31.03,69.38Z" />
	<path
		fill="rgb(166,192,188)"
		fill-opacity="1.0"
		d="M32.95,70.36L39.43,50.88L58.61,59.43L35.14,72.2C33.92,72.87 32.5,71.69 32.95,70.36Z" />
	<path
		fill="rgb(255,255,255)"
		fill-opacity="1.0"
		d="M26.82,40.61L5.88,30.53C3.07,29.17 3.54,25.03 6.58,24.34L108.5,1.17C111.14,0.57 113.34,3.23 112.25,5.71L80.44,78.26C79.26,80.96 75.81,81.76 73.56,79.84L39.22,50.58L90.42,16.16L26.82,40.61Z" />
</svg>