<!-- Created by Apktool M – https://maximoff.su/apktool -->
<svg
	xmlns="http://www.w3.org/2000/svg"
	xmlns:xlink="http://www.w3.org/1999/xlink"
	version="1.1"
	width="208"
	height="208"
	viewBox="0 0 208 208">
	<path
		fill="rgb(255,255,255)"
		fill-opacity="1.0"
		d="M32,0L176,0A32,32 0,0 1,208 32L208,176A32,32 0,0 1,176 208L32,208A32,32 0,0 1,0 176L0,32A32,32 0,0 1,32 0z" />
	<path
		fill="rgb(210,208,195)"
		fill-opacity="1.0"
		d="M163.29,0H176C179.18,0 182.26,0.47 185.16,1.33L174.5,12H151.29L163.29,0ZM84.09,0H157.4L145.4,12H72.09L84.09,0ZM78.43,0H32C14.33,0 0,14.33 0,32V78.43L12,66.43V32C12,20.95 20.95,12 32,12H66.43L78.43,0ZM12,72.09L0,84.09V157.4L12,145.4V72.09ZM12,151.29L0,163.29V176C0,179.18 0.47,182.26 1.33,185.16L12,174.5V151.29ZM12.04,177.29L2.04,187.28C6.61,199.39 18.3,208 32,208H152.72L164.72,196H32C21.39,196 12.7,187.73 12.04,177.29ZM170.38,196H176C187.05,196 196,187.05 196,176V170.38L208,158.38V176C208,193.67 193.67,208 176,208H158.38L170.38,196ZM208,152.72L196,164.72V32C196,21.39 187.73,12.7 177.29,12.04L187.28,2.05C199.39,6.61 208,18.3 208,32V152.72Z"
		fill-rule="evenodd" />
	<path
		fill="rgb(210,208,195)"
		fill-opacity="1.0"
		d="M185.16,1.33C182.26,0.47 179.18,0 176,0H163.29L151.29,12H174.5L185.16,1.33ZM12,174.5V151.29L0,163.29V176C0,179.18 0.47,182.26 1.33,185.16L12,174.5Z"
		fill-rule="evenodd" />
	<path
		fill="rgb(141,138,118)"
		fill-opacity="1.0"
		d="M0,157.4V84.09L12,72.09V145.4L0,157.4ZM208,158.38V176C208,193.67 193.67,208 176,208H158.38L170.38,196H176C187.05,196 196,187.05 196,176V170.38L208,158.38ZM157.4,0H84.09L72.09,12H145.4L157.4,0Z"
		fill-rule="evenodd" />
</svg>