<!-- Created by Apktool M – https://maximoff.su/apktool -->
<svg
	xmlns="http://www.w3.org/2000/svg"
	xmlns:xlink="http://www.w3.org/1999/xlink"
	version="1.1"
	width="56"
	height="72"
	viewBox="0 0 56 72">
	<path
		fill="none"
		stroke="rgb(255,255,255)"
		stroke-opacity="1.0"
		d="M14,1.5L42,1.5A8.5,8.5 0,0 1,50.5 10L50.5,62A8.5,8.5 0,0 1,42 70.5L14,70.5A8.5,8.5 0,0 1,5.5 62L5.5,10A8.5,8.5 0,0 1,14 1.5z"
		stroke-width="3" />
	<path
		fill="rgb(255,255,255)"
		d="M13,14L43,14A6,6 0,0 1,49 20L49,65A6,6 0,0 1,43 71L13,71A6,6 0,0 1,7 65L7,20A6,6 0,0 1,13 14z"
		stroke-opacity="0.3"
		fill-opacity="0.3" />
	<path
		fill="none"
		stroke="rgb(255,255,255)"
		stroke-width="1"
		d="M13,14L43,14A6,6 0,0 1,49 20L49,65A6,6 0,0 1,43 71L13,71A6,6 0,0 1,7 65L7,20A6,6 0,0 1,13 14z"
		stroke-opacity="0.3"
		fill-opacity="0.3" />
	<path
		fill="rgb(255,255,255)"
		fill-opacity="1.0"
		d="M31.167,25.167C30.708,25.167 30.316,25.003 29.99,24.677C29.663,24.351 29.5,23.958 29.5,23.5V20.167C29.5,19.708 29.663,19.316 29.99,18.99C30.316,18.663 30.708,18.5 31.167,18.5H34.5C34.958,18.5 35.351,18.663 35.677,18.99C36.004,19.316 36.167,19.708 36.167,20.167V23.5C36.167,23.958 36.004,24.351 35.677,24.677C35.351,25.003 34.958,25.167 34.5,25.167H31.167ZM31.167,23.5H34.5V20.167H31.167V23.5ZM31.167,33.5C30.708,33.5 30.316,33.337 29.99,33.01C29.663,32.684 29.5,32.292 29.5,31.833V28.5C29.5,28.042 29.663,27.649 29.99,27.323C30.316,26.997 30.708,26.833 31.167,26.833H34.5C34.958,26.833 35.351,26.997 35.677,27.323C36.004,27.649 36.167,28.042 36.167,28.5V31.833C36.167,32.292 36.004,32.684 35.677,33.01C35.351,33.337 34.958,33.5 34.5,33.5H31.167ZM31.167,31.833H34.5V28.5H31.167V31.833ZM39.5,25.167C39.042,25.167 38.649,25.003 38.323,24.677C37.996,24.351 37.833,23.958 37.833,23.5V20.167C37.833,19.708 37.996,19.316 38.323,18.99C38.649,18.663 39.042,18.5 39.5,18.5H42.833C43.292,18.5 43.684,18.663 44.01,18.99C44.337,19.316 44.5,19.708 44.5,20.167V23.5C44.5,23.958 44.337,24.351 44.01,24.677C43.684,25.003 43.292,25.167 42.833,25.167H39.5ZM39.5,23.5H42.833V20.167H39.5V23.5ZM43.25,33.5C43.139,33.5 43.042,33.458 42.958,33.375C42.875,33.292 42.833,33.194 42.833,33.083V32.25C42.833,32.139 42.875,32.042 42.958,31.958C43.042,31.875 43.139,31.833 43.25,31.833H44.083C44.194,31.833 44.292,31.875 44.375,31.958C44.458,32.042 44.5,32.139 44.5,32.25V33.083C44.5,33.194 44.458,33.292 44.375,33.375C44.292,33.458 44.194,33.5 44.083,33.5H43.25ZM38.25,28.5C38.139,28.5 38.042,28.458 37.958,28.375C37.875,28.292 37.833,28.194 37.833,28.083V27.25C37.833,27.139 37.875,27.042 37.958,26.958C38.042,26.875 38.139,26.833 38.25,26.833H39.083C39.194,26.833 39.292,26.875 39.375,26.958C39.458,27.042 39.5,27.139 39.5,27.25V28.083C39.5,28.194 39.458,28.292 39.375,28.375C39.292,28.458 39.194,28.5 39.083,28.5H38.25ZM39.917,30.167C39.806,30.167 39.708,30.125 39.625,30.042C39.542,29.958 39.5,29.861 39.5,29.75V28.917C39.5,28.806 39.542,28.708 39.625,28.625C39.708,28.542 39.806,28.5 39.917,28.5H40.75C40.861,28.5 40.958,28.542 41.042,28.625C41.125,28.708 41.167,28.806 41.167,28.917V29.75C41.167,29.861 41.125,29.958 41.042,30.042C40.958,30.125 40.861,30.167 40.75,30.167H39.917ZM38.25,31.833C38.139,31.833 38.042,31.792 37.958,31.708C37.875,31.625 37.833,31.528 37.833,31.417V30.583C37.833,30.472 37.875,30.375 37.958,30.292C38.042,30.208 38.139,30.167 38.25,30.167H39.083C39.194,30.167 39.292,30.208 39.375,30.292C39.458,30.375 39.5,30.472 39.5,30.583V31.417C39.5,31.528 39.458,31.625 39.375,31.708C39.292,31.792 39.194,31.833 39.083,31.833H38.25ZM39.917,33.5C39.806,33.5 39.708,33.458 39.625,33.375C39.542,33.292 39.5,33.194 39.5,33.083V32.25C39.5,32.139 39.542,32.042 39.625,31.958C39.708,31.875 39.806,31.833 39.917,31.833H40.75C40.861,31.833 40.958,31.875 41.042,31.958C41.125,32.042 41.167,32.139 41.167,32.25V33.083C41.167,33.194 41.125,33.292 41.042,33.375C40.958,33.458 40.861,33.5 40.75,33.5H39.917ZM41.583,31.833C41.472,31.833 41.375,31.792 41.292,31.708C41.208,31.625 41.167,31.528 41.167,31.417V30.583C41.167,30.472 41.208,30.375 41.292,30.292C41.375,30.208 41.472,30.167 41.583,30.167H42.417C42.528,30.167 42.625,30.208 42.708,30.292C42.792,30.375 42.833,30.472 42.833,30.583V31.417C42.833,31.528 42.792,31.625 42.708,31.708C42.625,31.792 42.528,31.833 42.417,31.833H41.583ZM41.583,28.5C41.472,28.5 41.375,28.458 41.292,28.375C41.208,28.292 41.167,28.194 41.167,28.083V27.25C41.167,27.139 41.208,27.042 41.292,26.958C41.375,26.875 41.472,26.833 41.583,26.833H42.417C42.528,26.833 42.625,26.875 42.708,26.958C42.792,27.042 42.833,27.139 42.833,27.25V28.083C42.833,28.194 42.792,28.292 42.708,28.375C42.625,28.458 42.528,28.5 42.417,28.5H41.583ZM43.25,30.167C43.139,30.167 43.042,30.125 42.958,30.042C42.875,29.958 42.833,29.861 42.833,29.75V28.917C42.833,28.806 42.875,28.708 42.958,28.625C43.042,28.542 43.139,28.5 43.25,28.5H44.083C44.194,28.5 44.292,28.542 44.375,28.625C44.458,28.708 44.5,28.806 44.5,28.917V29.75C44.5,29.861 44.458,29.958 44.375,30.042C44.292,30.125 44.194,30.167 44.083,30.167H43.25Z" />
	<path
		fill="none"
		stroke="rgb(255,255,255)"
		stroke-opacity="1.0"
		stroke-width="1"
		d="M37,26m-18.5,0a18.5,18.5 0,1 1,37 0a18.5,18.5 0,1 1,-37 0" />
</svg>