<!-- Created by Apktool M – https://maximoff.su/apktool -->
<svg
	xmlns="http://www.w3.org/2000/svg"
	xmlns:xlink="http://www.w3.org/1999/xlink"
	version="1.1"
	width="313"
	height="320"
	viewBox="0 0 313 320">
	<path
		fill="rgb(7,149,95)"
		d="M161.88,263.67C55.71,300.04 -27.69,220.43 9.42,116.22C46.54,12.02 110.68,146.7 240.86,101.67C393.46,48.89 268.06,227.31 161.88,263.67Z"
		stroke-opacity="0.1"
		fill-opacity="0.1" />
	<path
		fill="rgb(64,191,183)"
		d="M157.63,50.14C157.82,49.62 158.09,49.13 158.41,48.67C159.02,47.82 159.82,47.13 160.76,46.66C160.84,45.81 161.15,45 161.64,44.31C163.25,42.03 166.29,41.88 168.28,42.54C168.33,42.46 168.38,42.38 168.43,42.3C170.37,39.58 174.01,39.42 176.38,40.23C176.84,40.39 180.21,41.61 180.96,44.97C181.14,45.8 181.14,46.65 180.97,47.48C181.33,47.48 181.69,47.54 182.03,47.65C182.21,47.71 183.54,48.2 183.85,49.52C183.92,49.84 183.93,50.17 183.86,50.49C183.8,50.81 183.68,51.11 183.5,51.39C184.4,51.89 185.63,52.87 186,54.54C186.15,55.25 186.13,55.98 185.96,56.68C185.79,57.38 185.46,58.04 185,58.6L157.63,50.14Z"
		stroke-opacity="0.2"
		fill-opacity="0.2" />
	<path
		fill="rgb(64,191,183)"
		d="M137.8,80.44C137.92,79.63 138.15,78.84 138.48,78.09C139.09,76.69 140.04,75.46 141.25,74.51C141.11,73.27 141.3,72.02 141.8,70.87C143.43,67.12 147.74,66.01 150.8,66.35C150.85,66.22 150.89,66.09 150.95,65.96C152.9,61.48 158.09,60.17 161.73,60.62C162.44,60.72 167.64,61.46 169.72,66.06C170.23,67.19 170.49,68.41 170.49,69.65C171,69.54 171.54,69.52 172.06,69.58C172.35,69.62 174.4,69.92 175.24,71.72C175.43,72.15 175.54,72.63 175.55,73.1C175.56,73.58 175.47,74.06 175.29,74.5C176.74,74.96 178.79,75.99 179.83,78.28C180.25,79.25 180.45,80.31 180.41,81.36C180.38,82.42 180.1,83.46 179.61,84.4L137.8,80.44Z"
		stroke-opacity="0.2"
		fill-opacity="0.2" />
	<path
		fill="rgb(234,60,88)"
		fill-opacity="1.0"
		d="M198.77,55.1C205.27,59.21 219.3,58.91 225.61,56.54C222.69,64.1 224.66,88.01 255.95,123.14C295.05,167.04 322.64,213.75 284.11,265.16C273.83,257.64 258.32,260.93 253.27,264.84C253.14,264.95 253.01,265.06 252.88,265.16C253.01,265.05 253.14,264.95 253.27,264.84C277.31,244.89 314.55,191.9 259.15,144.68C203.44,97.2 199.66,69.33 198.77,55.1Z" />
	<path
		fill="rgb(255,255,255)"
		fill-opacity="1.0"
		d="M201.35,96.93L254.51,109.52A7.99,8.01 58.41,0 1,260.43 119.14L237.14,216.1A7.99,8.01 58.41,0 1,227.49 222.03L174.33,209.44A7.99,8.01 58.41,0 1,168.41 199.82L191.7,102.87A7.99,8.01 58.41,0 1,201.35 96.93z" />
	<path
		fill="rgb(254,177,87)"
		fill-opacity="1.0"
		d="M241.38,62.05L243.8,56.49L240.55,51.35C240.19,50.77 240.65,50.01 241.34,50.08L247.42,50.64L251.33,45.99C251.77,45.46 252.64,45.67 252.79,46.34L254.13,52.26L259.79,54.52C260.43,54.78 260.5,55.66 259.9,56.01L254.65,59.1L254.24,65.15C254.19,65.84 253.37,66.18 252.85,65.72L248.27,61.71L242.35,63.19C241.68,63.36 241.1,62.69 241.38,62.05Z" />
	<path
		fill="rgb(7,149,95)"
		fill-opacity="1.0"
		d="M275.77,83.34L275.82,85.76L271.92,86.28L271.56,89.83L268.7,90.7L269.14,92.14L272.97,90.98L273.3,87.62L277.37,87.07L277.28,83.43L275.77,83.34Z" />
	<path
		fill="rgb(7,149,95)"
		fill-opacity="1.0"
		d="M288.27,104.31C289.25,108.09 292.25,111.05 296.03,112.02C292.25,112.99 289.25,115.95 288.27,119.73C287.29,115.95 284.29,112.99 280.5,112.02C284.29,111.05 287.29,108.09 288.27,104.31Z" />
	<path
		fill="rgb(7,149,95)"
		fill-opacity="1.0"
		d="M23.6,200.53C25.01,205.98 29.33,210.24 34.78,211.63C29.33,213.03 25.01,217.29 23.6,222.74C22.18,217.29 17.86,213.03 12.41,211.63C17.86,210.24 22.18,205.98 23.6,200.53Z" />
	<path
		fill="rgb(64,191,183)"
		fill-opacity="1.0"
		d="M70.28,66.17C70.49,64.58 72.02,63.43 73.62,63.65C75.28,63.88 76.24,65.21 76.08,66.89C75.89,68.57 74.61,69.7 72.86,69.51C71.08,69.31 70.05,67.88 70.28,66.17ZM71.85,61.82L72.64,49.06C72.7,48 73.64,47.21 74.7,47.33L75.98,47.47C77.03,47.59 77.78,48.56 77.61,49.61L75.55,62.23L71.85,61.82Z" />
	<path
		fill="rgb(248,164,146)"
		fill-opacity="1.0"
		d="M252.71,222.85C256.23,221.45 259.38,219.55 259.75,219.36C260.03,219.21 261.23,218.34 261.4,218.21C264.5,220.05 265.63,221.6 268.07,224.06C266.27,224.15 265.5,222.68 264.81,222.83C263.97,223.02 261.34,224.77 257.23,227.94C256.51,225.65 254.44,224.49 252.71,222.85Z" />
	<path
		fill="rgb(248,164,146)"
		fill-opacity="1.0"
		d="M202.93,258.67C203.73,262.36 205.19,265.63 205.37,266.01C205.45,266.19 206,266.33 206.09,266.51C203.76,269.25 202.75,273.8 199.91,275.79C200.11,274 201.32,270.64 201.29,269.93C201.24,269.08 199.94,266.21 197.48,261.65C199.87,261.34 201.01,260.1 202.93,258.67Z" />
	<path
		fill="rgb(7,149,95)"
		fill-opacity="1.0"
		d="M204.41,266.76C204.73,265.96 205.78,265.41 206.52,265.88C207.28,266.36 208.28,266.88 209.03,267.39C209.87,267.97 209.93,268.62 209.91,268.77C209.85,269.2 199.91,280.75 198.63,280.92C197.36,281.08 199.71,271.31 201.11,270.31C202.35,269.42 202.98,270.34 204.41,266.76Z" />
	<path
		fill="rgb(7,149,95)"
		fill-opacity="1.0"
		d="M261.1,219.37C260.37,218.91 260.02,217.79 260.61,217.14C261.22,216.49 261.91,215.6 262.55,214.96C263.28,214.24 263.93,214.3 264.08,214.35C264.49,214.49 274.14,226.27 274.08,227.55C274.02,228.82 264.77,224.77 264.02,223.23C263.36,221.85 264.39,221.41 261.1,219.37Z" />
	<path
		fill="rgb(188,40,64)"
		fill-opacity="1.0"
		d="M206.74,215.6C206.74,215.6 226.34,241.87 229.75,242.11C232.94,242.34 257.66,228.63 257.66,228.63L254.45,221.55L234.65,228.63L220.86,202.69L206.74,215.6Z" />
	<path
		fill="rgb(234,60,88)"
		fill-opacity="1.0"
		d="M218.02,193.41C218.02,193.41 221.61,194.26 223.66,199.7C225.71,205.14 222.28,209.65 213.69,217.53C205.32,225.2 197.05,232.41 197.05,232.41L203.84,260.18L198.2,264.93C198.2,264.93 185.13,236.71 184.75,229.99C184.6,227.42 204.69,197.66 204.69,197.66L218.02,193.41Z" />
	<path
		fill="rgb(255,194,150)"
		fill-opacity="1.0"
		d="M202.85,159.41L191.93,165.49L183.27,169.62C183.27,169.62 181.15,162.48 181.86,158.98C181.96,158.48 182.46,157.88 182.64,157.62C184.07,155.49 181.01,152.18 181.01,152.18C181.01,152.18 179.18,151.66 177.93,154.68C176.68,157.69 178.99,158.97 178.99,158.97C178.99,158.97 176.35,168.1 177.46,174.76C178.03,178.24 186.8,175.68 193.79,172.68C199.66,170.15 203.98,167.34 203.98,167.34L202.85,159.41Z" />
	<path
		fill="rgb(35,163,154)"
		fill-opacity="1.0"
		d="M205.31,158.37C205.08,158.15 204.7,158.03 204.08,158.26C202.73,158.76 189.61,165.92 189.61,165.92C189.61,165.92 190.79,172.19 193.86,174.11L200.47,172.11L205.53,159.4C205.67,159.05 205.59,158.63 205.31,158.37Z" />
	<path
		fill="rgb(170,66,34)"
		fill-opacity="1.0"
		d="M235.52,131.58C230.54,128.55 224.33,129.13 220.63,133.21C217.59,132.07 214.1,132.16 211.28,133.47C205.71,136.05 200.78,142.8 204.98,147.7C204.09,154.21 208,157.99 212.88,158.42C215.53,163.71 224.93,164.26 230.34,159.9C234.81,161.62 240.12,160.88 243.42,157.67C244.21,156.9 245.38,155.67 245.64,155.56C245.32,155.72 258.09,154.04 257.51,142.85C256.91,131.43 243.17,127.04 235.52,131.58Z" />
	<path
		fill="rgb(64,191,183)"
		fill-opacity="1.0"
		d="M212.89,157.5L220.99,157.95L219.65,169.21C219.65,169.21 215.74,180.04 217.33,185.25C218.93,190.46 220.46,194.26 220.46,194.26C220.46,194.26 215.85,199.52 202.92,198.45C202.92,198.45 203.09,189.1 202.92,186.27C202.75,183.44 199.44,171.66 199.9,169C200.36,166.34 203.2,158.98 203.95,158.35C204.68,157.73 207.62,157.42 207.62,157.42L212.89,157.5Z" />
	<path
		fill="rgb(255,194,150)"
		fill-opacity="1.0"
		d="M213.27,151.32C213.27,151.32 213.13,152.23 213,153.4C212.83,154.86 212.68,156.72 212.82,157.72C213.07,159.51 211.37,164.24 207.53,164.41C203.7,164.58 207.45,159.19 207.74,157.41C208.03,155.63 208.03,149.14 208.03,149.14L213.27,151.32Z" />
	<path
		fill="rgb(228,147,89)"
		fill-opacity="1.0"
		d="M208.06,151.89C208.06,150.39 208.03,149.14 208.03,149.14L213.27,151.32C213.27,151.32 213.13,152.26 212.99,153.46C210.76,154 209.09,153.24 208.06,151.89Z" />
	<path
		fill="rgb(255,194,150)"
		fill-opacity="1.0"
		d="M213.66,137.95C213.66,137.95 215.88,138.73 217.03,141.03C218.18,143.33 218.39,149.73 213.41,152.11C208.42,154.49 205.32,149.92 205.74,145.86C206.17,141.81 207.69,136.51 213.66,137.95Z" />
	<path
		fill="rgb(255,194,150)"
		fill-opacity="1.0"
		d="M204.83,144.47C205.11,145.49 205.82,146.19 206.42,146.03C207.02,145.87 207.28,144.91 207.01,143.89C206.73,142.87 206.02,142.17 205.42,142.33C204.82,142.49 204.56,143.45 204.83,144.47Z" />
	<path
		fill="rgb(255,194,150)"
		fill-opacity="1.0"
		d="M216.43,146.66C215.97,147.67 216.15,148.75 216.84,149.06C217.53,149.37 218.46,148.8 218.92,147.79C219.39,146.77 219.2,145.7 218.51,145.39C217.83,145.08 216.89,145.65 216.43,146.66Z" />
	<path
		fill="rgb(72,67,89)"
		fill-opacity="1.0"
		d="M254.27,106.04L202.27,94.35C195.39,92.8 188.62,96.85 187.13,103.38L163.4,207.74C161.91,214.27 166.28,220.82 173.15,222.37L225.16,234.05C232.04,235.6 238.81,231.56 240.3,225.02L264.03,120.67C265.52,114.13 261.15,107.58 254.27,106.04ZM237.14,215.81C236.28,219.58 232.37,221.91 228.41,221.02L175.87,209.21C171.9,208.32 169.38,204.54 170.24,200.77L192.19,104.25C193.04,100.48 196.95,98.15 200.92,99.04L253.46,110.85C257.43,111.74 259.95,115.52 259.09,119.29L237.14,215.81Z" />
	<path
		fill="rgb(255,194,150)"
		fill-opacity="1.0"
		d="M220.67,160.87C220.67,160.87 237.76,156.74 241.57,156.05C245.38,155.35 258.6,150.61 259.11,150.41C259.62,150.21 261.5,143.45 262.25,143.92C262.99,144.39 261.1,147.33 262.04,147.71C262.97,148.09 270.93,144.55 270.99,145.19C271.09,146.39 266.2,147.54 266.35,148.09C266.51,148.64 271.35,146.42 271.94,147.25C272.53,148.07 267.16,148.93 267.06,149.39C266.96,149.86 272.22,149.25 271.94,150.24C271.78,150.78 267.25,150.67 267.44,151.3C267.63,151.92 271.08,152.54 270.84,153.14C270.6,153.74 268.02,152.24 266.24,152.69C264.45,153.14 262.93,152.56 260.3,154.1C257.68,155.63 249.06,162.09 242.93,163.43C236.8,164.77 223.26,167.75 223.26,167.75L220.67,160.87Z" />
	<path
		fill="rgb(80,191,165)"
		fill-opacity="1.0"
		d="M216.53,158.25C217.1,157.98 218.88,157.93 220.99,157.95C221.77,157.95 222.86,157.96 223.69,157.94C226.78,157.85 229.71,157.99 229.71,157.99C229.71,157.99 231.26,165.45 229.97,167.35C229.97,167.35 217.9,169.07 218.19,169.9L216.53,158.25Z" />
	<path
		fill="rgb(255,194,150)"
		fill-opacity="1.0"
		d="M174.65,158.3L175.68,156.99C175.68,156.99 176.33,155.99 177.3,155.89C178.28,155.8 178.25,154.58 177.22,154.76C176.19,154.93 175.54,155.17 175.54,155.17C175.54,155.17 177.59,154.13 177.62,153.99C177.83,153.23 176.7,152.93 175.18,154.05C173.67,155.17 174.65,158.3 174.65,158.3Z" />
	<path
		fill="rgb(255,194,150)"
		fill-opacity="1.0"
		d="M178.42,153.56C178.42,153.56 180.85,151.62 181.23,152.44C181.62,153.27 181.45,155.05 181.09,154.93C180.73,154.8 180.78,153.53 179.73,153.86C179.44,153.95 178,154.41 178.42,153.56Z" />
	<path
		fill="rgb(234,60,88)"
		fill-opacity="1.0"
		d="M113.67,49.27C113.67,49.27 114.85,46.78 117.92,46.26C120.67,45.8 122.95,47.77 123.4,50.43C123.93,53.51 121.97,57.59 115.82,61.9C108.59,59.86 105.39,56.65 104.86,53.56C104.41,50.9 105.91,48.29 108.65,47.83C111.73,47.31 113.67,49.27 113.67,49.27Z" />
	<path
		fill="rgb(234,60,88)"
		fill-opacity="1.0"
		d="M51.53,81.89L34.82,89.81C32.85,90.74 30.49,89.91 29.55,87.95L23.2,76.13C22.26,74.17 23.1,71.82 25.07,70.89L41.78,62.98C43.75,62.04 46.11,62.87 47.05,64.83L53.4,76.65C54.34,78.61 53.5,80.96 51.53,81.89Z" />
	<path
		fill="rgb(234,60,88)"
		fill-opacity="1.0"
		d="M26.75,81.61L23.18,92.21L31.13,86.37L26.75,81.61Z" />
	<path
		fill="rgb(255,255,255)"
		fill-opacity="1.0"
		d="M32.65,77.51L34.77,76.45C34.77,76.45 36.48,73.15 36.22,72.41C35.96,71.67 34.79,70.39 35.11,70C35.44,69.61 36.25,69.03 37.26,69.7C38,70.18 38.87,72.82 39.2,72.86C39.41,72.89 40.64,72.31 41.53,71.87C42.12,71.58 42.82,71.64 43.35,72.03L43.35,72.03C43.71,72.29 43.83,72.76 43.65,73.16L43.37,73.79L43.99,74.1C44.44,74.34 44.63,74.89 44.4,75.35L44.16,75.82L44.56,75.98C45.07,76.2 45.29,76.81 45.01,77.3L44.79,77.69L44.89,77.76C45.28,78.04 45.4,78.57 45.15,78.99L44.92,79.37L39.29,82.21C38.76,82.48 38.19,82.64 37.6,82.67L35.45,83.35C35.22,83.42 34.97,83.31 34.86,83.1L32.44,78.16C32.32,77.92 32.42,77.64 32.65,77.51Z" />
	<path
		fill="rgb(234,60,88)"
		fill-opacity="1.0"
		d="M162.92,107.2C175.55,104.35 187.22,108.29 188.99,116C189.87,119.86 188.1,123.93 184.54,127.39L192.27,137.6L179.46,131.2C176.54,132.9 173.09,134.27 169.3,135.13C156.67,137.98 145.01,134.04 143.24,126.33C141.48,118.61 150.29,110.05 162.92,107.2Z" />
	<path
		fill="rgb(254,177,87)"
		fill-opacity="1.0"
		d="M175.09,120.59C174.91,125.07 171.1,128.56 166.59,128.38C162.08,128.2 158.57,124.42 158.76,119.93C158.94,115.45 162.74,111.96 167.25,112.14C171.76,112.32 175.27,116.11 175.09,120.59Z" />
	<path
		fill="rgb(239,239,239)"
		fill-opacity="1.0"
		d="M161.76,120.13C161.65,122.93 163.84,125.3 166.66,125.41C169.49,125.53 171.87,123.34 171.98,120.54L161.76,120.13Z" />
	<path
		fill="rgb(244,140,127)"
		fill-opacity="1.0"
		d="M14.78,143.12L10.62,143.95L11.13,147.85L7.06,148.85L7.1,152.64L4.17,153.88L4.8,155.35L8.71,153.69L8.68,150.1L12.92,149.06L12.41,145.23L16.18,144.48L14.78,143.12Z" />
	<path
		fill="rgb(7,149,95)"
		fill-opacity="1.0"
		d="M14.4,100.85L12.07,101.56L10.5,97.96L6.97,98.59L5.36,96.08L4.08,96.89L6.24,100.24L9.59,99.65L11.22,103.4L14.72,102.33L14.4,100.85Z" />
	<path
		fill="rgb(64,191,183)"
		fill-opacity="1.0"
		d="M33.5,111.37L82.2,95.01A7.98,8.02 116.31,0 1,92.37 100.03L123.09,190.17A7.98,8.02 116.31,0 1,118.09 200.29L69.38,216.66A7.98,8.02 116.31,0 1,59.22 211.64L28.49,121.5A7.98,8.02 116.31,0 1,33.5 111.37z" />
	<path
		fill="rgb(72,67,89)"
		fill-opacity="1.0"
		d="M72.89,142.17C72.98,145.34 73.8,152.13 81.02,153.25C85.5,153.95 91.24,149.95 90.87,147.01C90.5,144.07 89.68,136.58 85,134.87C81.09,133.44 72.7,135.11 72.89,142.17Z" />
	<path
		fill="rgb(255,194,150)"
		fill-opacity="1.0"
		d="M133.12,244.46C134.14,248.72 134.95,254.87 135.25,255.21C135.39,255.38 135.69,256.45 135.83,256.63C140.49,258.31 144.59,256.57 147.84,254.66C145.29,254.21 141.86,253.75 141.39,253.41C139.61,252.17 140.04,247.74 139.72,243.77C138.46,243.99 135.4,243.2 133.12,244.46Z" />
	<path
		fill="rgb(234,60,88)"
		fill-opacity="1.0"
		d="M135.15,254.97C135.18,256.66 136.27,260.25 136.61,260.24C137.01,260.24 151.02,259.03 152.34,256.9C153.13,255.61 150.98,255.28 147.84,254.66C144.59,256.57 135.54,256.03 135.15,254.97Z" />
	<path
		fill="rgb(255,194,150)"
		fill-opacity="1.0"
		d="M66.59,253.97C63.35,256.5 60.07,258.51 59.66,258.71C59.46,258.8 58.34,258.8 58.13,258.89C55.25,262.9 55.84,267.29 56.82,270.91C57.94,268.6 59.26,265.36 59.76,265.07C60.57,264.61 63.49,262.89 68.73,260.77C66.96,258.85 67.2,256.49 66.59,253.97Z" />
	<path
		fill="rgb(255,194,150)"
		fill-opacity="1.0"
		d="M73.97,164.93L63.96,183.04C63.96,183.04 57.26,191.42 53.82,195.72C54.56,196.93 55.28,198.16 55.92,199.43C59.35,196.54 66.64,190.38 69.25,186.98C73.1,181.96 80.06,170.04 80.06,170.04L73.97,164.93Z" />
	<path
		fill="rgb(7,149,95)"
		fill-opacity="1.0"
		d="M100.6,196.45L89.89,212.16C89.89,212.16 89.27,211.1 93.11,212.5C96.94,213.89 121.68,218.49 123.14,220.22C124.18,221.45 131.85,245.57 133.33,248.67C135.55,249.57 138.79,248.57 141.07,248.24C141.22,236.62 135.03,215.47 133.38,212.99C129.69,207.45 112.11,201.46 104.2,198.1C102.92,197.56 101.92,197.07 101.31,196.77C100.85,196.55 100.6,196.45 100.6,196.45Z" />
	<path
		fill="rgb(234,60,88)"
		fill-opacity="1.0"
		d="M59.49,258.75C57.85,258.33 54.51,258.34 54.42,258.66C54.32,259.05 51.73,272.79 53.45,274.63C54.48,275.73 55.39,273.76 56.82,270.91C55.84,267.29 58.36,258.84 59.49,258.75Z" />
	<path
		fill="rgb(7,149,95)"
		fill-opacity="1.0"
		d="M97.79,207.51C97.88,206.33 100.42,199.44 101.32,196.76C101.34,196.68 100.68,195.13 99.96,192.9L98.93,193.06L83.71,193.75C83.71,193.75 77.57,204.04 78.29,208.77C79.29,215.38 88.89,238.85 87.43,239.96C84.79,241.95 71.88,249.39 65.24,253.81C65.67,256.37 66.86,259.93 68.48,261.97C73.88,260.11 97.22,250.76 99.62,243.58C101.74,237.24 97.63,209.51 97.79,207.51Z" />
	<path
		fill="rgb(228,143,44)"
		fill-opacity="1.0"
		d="M97.54,149.64C97.54,149.64 93.35,156.19 90.87,156.42L99.62,164.47C99.62,164.47 105.58,155.59 106.2,154.07C106.2,154.07 100.78,149.26 97.54,149.64Z" />
	<path
		fill="rgb(254,177,87)"
		fill-opacity="1.0"
		d="M100.6,189.22C100.21,192.82 101.33,196.77 101.33,196.77C97.81,197.52 85.35,199.1 82.3,195.41C82.19,195.27 86.61,187.51 86,184.35C85.11,179.67 81.2,171.74 80.88,171.32C80.33,170.61 78.34,174.3 78.34,174.3C76,174.31 70.64,168.9 70.64,168.9C70.64,168.9 76.18,159.31 77.71,158.41C79.23,157.51 91.82,156.14 91.83,156.14C92.76,156.08 95.29,158.26 95.99,158.95C103.95,166.85 101.81,178.16 100.6,189.22Z" />
	<path
		fill="rgb(255,194,150)"
		fill-opacity="1.0"
		d="M84.73,152.12C84.73,152.12 86.11,156.63 86.12,158.46C86.13,160.29 86.86,162.79 90.73,162.41C94.59,162.03 91.42,158.16 90.87,156.42C90.33,154.68 89.67,149.19 89.67,149.19L84.73,152.12Z" />
	<path
		fill="rgb(228,147,89)"
		fill-opacity="1.0"
		d="M90.03,151.94C89.82,150.44 89.67,149.19 89.67,149.19L84.73,152.12C84.73,152.12 85.02,153.04 85.32,154.22C87.64,154.44 89.2,153.44 90.03,151.94Z" />
	<path
		fill="rgb(255,194,150)"
		fill-opacity="1.0"
		d="M80.71,138.51C80.71,138.51 78.68,139.92 78.16,142.58C77.64,145.24 79.23,151.8 84.97,152.84C90.71,153.87 92.58,148.35 91,144.35C89.42,140.35 86.38,135.39 80.71,138.51Z" />
	<path
		fill="rgb(255,194,150)"
		fill-opacity="1.0"
		d="M91.53,142.68C91.54,143.8 91.01,144.71 90.36,144.71C89.7,144.72 89.16,143.81 89.16,142.69C89.15,141.58 89.68,140.67 90.33,140.66C90.99,140.66 91.53,141.56 91.53,142.68Z" />
	<path
		fill="rgb(255,194,150)"
		fill-opacity="1.0"
		d="M80.65,148.25C81.41,149.15 81.52,150.29 80.91,150.8C80.3,151.31 79.19,150.99 78.44,150.09C77.68,149.19 77.56,148.05 78.18,147.54C78.79,147.03 79.9,147.35 80.65,148.25Z" />
	<path
		fill="rgb(72,67,89)"
		fill-opacity="1.0"
		d="M74.83,136C75.06,132.94 77.24,121.53 70.22,120.45C63.2,119.37 61.71,126.99 57.82,116.74C54.21,107.23 43.5,110.91 43.05,118.13C42.03,118.04 40.99,118.19 40,118.61C36.57,120.04 35.02,124.13 36.55,127.74C36.79,128.32 36.66,128.88 37.01,129.36C36.19,132.5 36.76,136.09 39.2,139.74C45.86,149.71 52.55,139.22 57.06,139.78C61.57,140.34 58.63,143.84 62.53,146.57C66.44,149.31 69.58,148.59 75.94,141.13L77.51,139.08C77.51,139.08 74.6,139.07 74.83,136Z" />
	<path
		fill="rgb(72,67,89)"
		fill-opacity="1.0"
		d="M127.72,195.9C126.96,193.69 95.93,103.83 94.57,99.91C92.5,93.9 85.86,90.67 79.74,92.69L33.46,108.02C27.34,110.04 24.06,116.56 26.14,122.57L59.28,218.55C61.36,224.56 68,227.79 74.12,225.77L120.4,210.44C126.52,208.42 129.79,201.91 127.72,195.9ZM116.48,198.32L69.72,213.8C66.19,214.97 62.36,213.1 61.17,209.64L30.51,120.86C29.31,117.39 31.2,113.64 34.73,112.47L81.49,96.99C85.01,95.82 88.84,97.68 90.04,101.15C97.49,122.71 120.03,187.99 120.7,189.93C121.9,193.39 120.01,197.15 116.48,198.32Z" />
	<path
		fill="rgb(255,194,150)"
		fill-opacity="1.0"
		d="M54.44,197.56C53.77,197.91 53.31,198.24 53.11,198.39C53.12,198.37 53.13,198.35 53.14,198.33C53.36,198.1 54.1,197.31 54.11,197.3C55.09,196.56 54.58,195.76 53.66,196.25C52.74,196.75 52.2,197.19 52.2,197.19C52.2,197.19 53.8,195.64 53.79,195.4C53.77,194.61 52.57,194.7 51.5,196.24C50.57,197.59 51.95,199.95 52.35,200.51C52.74,201.32 53.47,201.7 53.47,201.7L53.71,200.16C53.71,200.16 54,199.01 54.89,198.6C55.78,198.2 55.36,197.06 54.44,197.56Z" />
	<path
		fill="rgb(255,194,150)"
		fill-opacity="1.0"
		d="M110.42,114.34C109.61,113.67 107.71,113.13 106.77,113.04C105.82,112.96 101.7,112.96 101.16,113.94C100.63,114.93 104.96,117.73 105.19,118.89C105.42,120.05 102.68,138.08 101.89,141.66C101.5,143.43 100,146.76 98.58,149.67C100.62,150 103.12,151.66 104.68,152.84C106.69,148.48 108.74,143.57 109,141.27C109.51,136.62 111.24,115 110.42,114.34Z" />
	<path
		fill="rgb(7,149,95)"
		fill-opacity="1.0"
		d="M128.35,80.53C128.12,80.23 127.64,79.71 126.9,79.64C126.58,79.62 126.27,79.68 126.03,79.74C125.78,79.81 125.53,79.9 125.27,80.02C124.76,80.24 124.19,80.55 123.58,80.9C122.38,81.61 120.96,82.56 119.63,83.5C118.3,84.44 117.02,85.39 116.08,86.1C115.61,86.46 115.22,86.75 114.96,86.96C114.82,87.06 114.71,87.15 114.64,87.2L114.56,87.27L114.53,87.29L114.39,87.4L114,87.94L112.26,89.24L112.7,89.73L114.65,90.07C114.78,89.36 114.65,90.07 114.65,90.07L114.8,90.09C114.9,90.11 115.04,90.13 115.22,90.16C115.58,90.22 116.09,90.31 116.71,90.41C117.94,90.62 119.59,90.89 121.27,91.15C122.94,91.4 124.64,91.65 125.97,91.8C126.64,91.88 127.22,91.94 127.68,91.96C127.9,91.97 128.12,91.98 128.32,91.97C128.41,91.96 128.53,91.95 128.65,91.93C128.73,91.92 128.97,91.87 129.21,91.7C129.76,91.33 130.02,90.76 130.16,90.3C130.3,89.82 130.37,89.28 130.39,88.74C130.43,87.65 130.29,86.38 130.06,85.17C129.82,83.97 129.48,82.76 129.07,81.82C128.88,81.35 128.64,80.9 128.35,80.53ZM114.56,87.33C114.53,87.29 114.53,87.29 114.53,87.29L114.56,87.33ZM114.56,87.33C114.66,87.45 114.66,87.45 114.56,87.33V87.33ZM119.03,87.61C121.36,86.31 124.03,85.06 125.65,84.33C125.8,84.82 125.94,85.42 126.06,86.05C126.18,86.68 126.25,87.29 126.29,87.79C125.89,87.79 125.43,87.78 124.93,87.78C124.13,87.77 123.23,87.76 122.31,87.74C121.23,87.71 120.11,87.67 119.03,87.61Z"
		fill-rule="evenodd" />
	<path
		fill="rgb(7,149,95)"
		fill-opacity="1.0"
		d="M111.62,83.73C111.11,81.78 110.31,79.28 109.21,77.58C108.18,75.99 107.21,75.06 106.18,74.68C105.11,74.29 104.24,74.6 103.8,74.75L103.76,74.76C103.47,74.87 103.2,75.06 103,75.21C102.79,75.38 102.56,75.58 102.32,75.81C101.86,76.27 101.35,76.86 100.9,77.52C100.45,78.16 100.02,78.91 99.77,79.69C99.52,80.44 99.39,81.37 99.75,82.26C99.95,82.76 100.34,83.19 100.7,83.54C101.08,83.91 101.56,84.28 102.07,84.65C103.08,85.39 104.34,86.16 105.54,86.85C107.86,88.18 109.58,89.59 112.18,88.34L112.48,87.77L112.41,87.36C111.69,87.48 112.41,87.36 112.41,87.36L112.41,87.35L112.41,87.33L112.4,87.28C112.39,87.23 112.38,87.15 112.36,87.06C112.33,86.88 112.28,86.61 112.21,86.29C112.08,85.64 111.88,84.73 111.62,83.73ZM108.11,83.69C108.27,84.09 108.43,84.48 108.57,84.86C107.64,84.27 106.72,83.65 105.9,83.05C105.08,82.46 104.38,81.91 103.86,81.47C103.6,81.25 103.41,81.06 103.27,80.92L103.26,80.91C103.27,80.87 103.29,80.82 103.31,80.76C103.43,80.46 103.63,80.09 103.9,79.69C104.17,79.29 104.47,78.91 104.75,78.61C104.87,78.48 104.98,78.37 105.07,78.28C105.28,78.47 105.63,78.85 106.1,79.57C106.66,80.45 107.42,82.03 108.11,83.69Z"
		fill-rule="evenodd" />
	<path
		fill="rgb(7,149,95)"
		fill-opacity="1.0"
		stroke="rgb(7,149,95)"
		stroke-opacity="1.0"
		d="M113,89.72L113,89.72C113.95,89.99 114.95,89.45 115.23,88.49L115.23,88.49L115.59,87.23C115.59,87.23 115.59,87.23 115.59,87.23C115.87,86.26 115.31,85.27 114.35,85L114.35,85L113.92,84.87L113.92,84.87C112.97,84.6 111.96,85.15 111.69,86.11L111.69,86.11L111.33,87.37L111.33,87.37C111.05,88.33 111.61,89.33 112.57,89.6C112.57,89.6 112.57,89.6 112.57,89.6L113,89.72Z"
		stroke-width="2" />
	<path
		fill="rgb(254,177,87)"
		fill-opacity="1.0"
		d="M120.2,117.9L92.85,110.13C91.37,109.71 90.48,108.22 90.8,106.73L95.64,84.49L131.26,94.6L123.23,116.92C122.89,117.85 121.56,118.28 120.2,117.9Z" />
	<path
		fill="rgb(234,60,88)"
		fill-opacity="1.0"
		d="M131.36,99.78L92.67,88.88L92.97,86.29C93.15,84.74 94.69,83.72 96.2,84.15L131.16,94.18C132.4,94.53 133.16,95.57 132.79,96.42L131.36,99.78Z" />
	<path
		fill="rgb(234,60,88)"
		fill-opacity="1.0"
		d="M110.79,88.32L109.29,93.56L114.05,94.91L115.55,89.68L110.79,88.32Z" />
	<path
		fill="rgb(7,149,95)"
		fill-opacity="1.0"
		d="M111.49,88L104.2,113.39L108.93,114.73L116.22,89.35L111.49,88Z" />
	<path
		fill="rgb(255,194,150)"
		fill-opacity="1.0"
		d="M103.38,114.31L103.47,113.15C102.54,112.89 101.45,112.5 100.9,112.27L100.75,111.38C100.25,110.17 99.71,111.04 99.55,111.31C99.55,111.31 99.51,112.86 99.68,113.05C99.68,113.05 101.53,114.98 102.32,115.71C102.7,116.08 103.95,117.08 103.95,117.08L104.94,115.72L103.38,114.31Z" />
	<path
		fill="rgb(234,60,88)"
		fill-opacity="1.0"
		d="M184.53,93.67C184.2,94.11 183.72,94.42 183.18,94.55C182.22,94.76 181,94.33 180.57,93.32C180.05,92.14 180.87,90.72 182.04,90.31C182.95,90 184.17,90.25 184.74,91.17C185.26,92.02 184.99,93.05 184.53,93.67Z" />
	<path
		fill="rgb(234,60,88)"
		fill-opacity="1.0"
		d="M173.75,102.74C172.64,102.96 171.49,102.79 170.49,102.25C168.74,101.25 167.48,98.96 168.2,96.84C169.05,94.35 172.24,93.3 174.59,94.26C176.4,95.01 177.91,97.04 177.5,99.22C177.12,101.22 175.32,102.42 173.75,102.74Z" />
</svg>