<!-- Created by Apktool M – https://maximoff.su/apktool -->
<svg
	xmlns="http://www.w3.org/2000/svg"
	xmlns:xlink="http://www.w3.org/1999/xlink"
	version="1.1"
	width="24"
	height="24"
	viewBox="0 0 24 24">
	<path
		fill="rgb(0,0,0)"
		fill-opacity="1"
		d="M9.8,16.275C9.6,16.075 9.504,15.833 9.512,15.55C9.521,15.267 9.625,15.025 9.825,14.825L11.65,13H4C3.717,13 3.479,12.904 3.287,12.712C3.096,12.521 3,12.283 3,12C3,11.717 3.096,11.479 3.287,11.288C3.479,11.096 3.717,11 4,11H11.65L9.8,9.15C9.6,8.95 9.5,8.712 9.5,8.438C9.5,8.163 9.6,7.925 9.8,7.725C10,7.525 10.238,7.425 10.512,7.425C10.788,7.425 11.025,7.525 11.225,7.725L14.8,11.3C14.9,11.4 14.971,11.508 15.012,11.625C15.054,11.742 15.075,11.867 15.075,12C15.075,12.133 15.054,12.258 15.012,12.375C14.971,12.492 14.9,12.6 14.8,12.7L11.2,16.3C11.017,16.483 10.788,16.575 10.512,16.575C10.238,16.575 10,16.475 9.8,16.275ZM5,21C4.45,21 3.979,20.804 3.588,20.413C3.196,20.021 3,19.55 3,19V16C3,15.717 3.096,15.479 3.287,15.288C3.479,15.096 3.717,15 4,15C4.283,15 4.521,15.096 4.713,15.288C4.904,15.479 5,15.717 5,16V19H19V5H5V8C5,8.283 4.904,8.521 4.713,8.712C4.521,8.904 4.283,9 4,9C3.717,9 3.479,8.904 3.287,8.712C3.096,8.521 3,8.283 3,8V5C3,4.45 3.196,3.979 3.588,3.588C3.979,3.196 4.45,3 5,3H19C19.55,3 20.021,3.196 20.413,3.588C20.804,3.979 21,4.45 21,5V19C21,19.55 20.804,20.021 20.413,20.413C20.021,20.804 19.55,21 19,21H5Z" />
</svg>