<!-- Created by Apktool M – https://maximoff.su/apktool -->
<svg
	xmlns="http://www.w3.org/2000/svg"
	xmlns:xlink="http://www.w3.org/1999/xlink"
	version="1.1"
	width="40.0"
	height="40.0"
	viewBox="0 0 40.0 40.0">
	<path
		fill="rgb(69,205,133)"
		fill-opacity="1.0"
		d="M20,0L20,0A20,20 0,0 1,40 20L40,20A20,20 0,0 1,20 40L20,40A20,20 0,0 1,0 20L0,20A20,20 0,0 1,20 0z" />
	<path
		fill="rgb(255,255,255)"
		fill-opacity="1.0"
		d="M19.16,30.48C23.08,30.48 26.4,27.96 27.64,24.48H25.2C24.12,26.72 21.8,28.24 19.16,28.24C15.44,28.24 12.4,25.2 12.4,21.48C12.4,18.84 13.92,16.52 16.16,15.44V13C12.68,14.24 10.16,17.56 10.16,21.48C10.16,26.44 14.2,30.48 19.16,30.48ZM24.32,19.48V16.2C25.44,16.48 26.32,16.84 26.32,17.8C26.32,18.68 25.56,19.32 24.32,19.48ZM22.8,22.52H24.4V21.28C26.76,21 28.28,19.64 28.28,17.8C28.28,15.24 26.24,14.68 24.32,14.32V10.92C25.24,11 26.24,11.28 27.16,11.72V9.72C26.28,9.4 25.32,9.2 24.4,9.16V7.96H22.8V9.16C20.36,9.44 18.96,10.8 18.96,12.52C18.96,15.12 20.96,15.72 22.88,16.08V19.48C21.72,19.32 20.48,18.84 19.04,18.08V20.2C20.28,20.8 21.56,21.2 22.8,21.28V22.52ZM22.88,14.16C21.76,13.92 20.92,13.52 20.92,12.52C20.92,11.6 21.64,11.04 22.88,10.92V14.16Z" />
</svg>