<!-- Created by Apktool M – https://maximoff.su/apktool -->
<svg
	xmlns="http://www.w3.org/2000/svg"
	xmlns:xlink="http://www.w3.org/1999/xlink"
	version="1.1"
	width="40.0"
	height="40.0"
	viewBox="0 0 40.0 40.0">
	<path
		fill="rgb(0,147,147)"
		fill-opacity="1.0"
		d="M20,0L20,0A20,20 0,0 1,40 20L40,20A20,20 0,0 1,20 40L20,40A20,20 0,0 1,0 20L0,20A20,20 0,0 1,20 0z" />
	<path
		fill="rgb(255,255,255)"
		fill-opacity="1.0"
		d="M30.287,10V13.722H22.939V16.303C28.1,16.579 31.971,17.712 32,19.069L32,21.9C31.971,23.258 28.1,24.39 22.939,24.666V31H18.061V24.666C12.9,24.39 9.029,23.258 9,21.9L9,19.069C9.029,17.712 12.9,16.579 18.061,16.303V13.722H10.713V10H30.287ZM20.5,22.722C26.007,22.722 30.61,21.764 31.736,20.485C30.781,19.4 27.326,18.546 22.939,18.312V21.014C22.153,21.056 21.337,21.078 20.5,21.078C19.663,21.078 18.847,21.056 18.061,21.014V18.312C13.674,18.546 10.219,19.4 9.264,20.485C10.39,21.764 14.993,22.722 20.5,22.722Z"
		fill-rule="evenodd" />
</svg>