<!-- Created by Apktool M – https://maximoff.su/apktool -->
<svg
	xmlns="http://www.w3.org/2000/svg"
	xmlns:xlink="http://www.w3.org/1999/xlink"
	version="1.1"
	width="40.0"
	height="40.0"
	viewBox="0 0 40.0 40.0">
	<path
		fill="rgb(39,117,202)"
		fill-opacity="1.0"
		d="M20,0L20,0A20,20 0,0 1,40 20L40,20A20,20 0,0 1,20 40L20,40A20,20 0,0 1,0 20L0,20A20,20 0,0 1,20 0z" />
	<path
		fill="rgb(255,255,255)"
		fill-opacity="1.0"
		d="M24.062,7.534C23.661,7.408 23.333,7.642 23.333,8.055V9.071C23.333,9.348 23.546,9.663 23.811,9.758C28.066,11.287 31.111,15.301 31.111,20C31.111,24.699 28.066,28.712 23.811,30.242C23.52,30.347 23.333,30.626 23.333,30.93V31.945C23.333,32.358 23.661,32.592 24.062,32.466C29.439,30.78 33.333,25.836 33.333,20C33.333,14.164 29.439,9.22 24.062,7.534ZM16.667,8.055C16.667,7.642 16.339,7.408 15.938,7.534C10.561,9.22 6.667,14.164 6.667,20C6.667,25.836 10.561,30.78 15.938,32.466C16.339,32.592 16.667,32.358 16.667,31.945V30.929C16.667,30.653 16.454,30.337 16.189,30.242C11.934,28.712 8.889,24.699 8.889,20C8.889,15.301 11.934,11.287 16.189,9.758C16.454,9.663 16.667,9.348 16.667,9.071V8.055ZM20.556,11.277H19.444C19.138,11.277 18.889,11.521 18.889,11.822V13.511C16.686,13.819 15.262,15.257 15.262,17.103C15.262,19.491 16.734,20.418 19.84,20.828C21.947,21.167 22.547,21.612 22.547,22.789C22.547,23.965 21.529,24.75 20.094,24.75C18.154,24.75 17.516,23.917 17.281,22.839C17.225,22.583 17.002,22.397 16.736,22.397H15.469C15.149,22.397 14.9,22.679 14.955,22.987C15.277,24.802 16.465,26.134 18.889,26.456V28.178C18.889,28.479 19.138,28.723 19.444,28.723H20.556C20.862,28.723 21.111,28.479 21.111,28.178V26.455C23.406,26.098 24.872,24.53 24.872,22.593C24.872,20.044 23.291,19.188 20.239,18.778C17.987,18.457 17.551,17.94 17.551,16.906C17.551,15.926 18.314,15.231 19.785,15.231C21.116,15.231 21.882,15.686 22.198,16.738C22.269,16.972 22.483,17.138 22.732,17.138H23.9C24.226,17.138 24.48,16.844 24.41,16.532C24.041,14.87 22.9,13.874 21.111,13.559V11.822C21.111,11.521 20.862,11.277 20.556,11.277Z"
		fill-rule="evenodd" />
</svg>