<!-- Created by Apktool M – https://maximoff.su/apktool -->
<svg
	xmlns="http://www.w3.org/2000/svg"
	xmlns:xlink="http://www.w3.org/1999/xlink"
	version="1.1"
	width="32"
	height="20"
	viewBox="0 0 32 20">
	<path
		fill="rgb(255,255,255)"
		fill-opacity="1.0"
		d="M3,0L29,0A3,3 0,0 1,32 3L32,17A3,3 0,0 1,29 20L3,20A3,3 0,0 1,0 17L0,3A3,3 0,0 1,3 0z" />
	<path
		fill="rgb(230,0,0)"
		fill-opacity="1.0"
		d="M11.968,9.418L11.433,11.002L10.885,9.418H10.21L11.045,11.734H11.786L12.626,9.418H11.968ZM16.054,10.578C16.054,10.325 16.204,10.097 16.433,10C16.663,9.903 16.927,9.957 17.103,10.136C17.278,10.315 17.331,10.584 17.236,10.818C17.14,11.052 16.917,11.205 16.668,11.205C16.329,11.204 16.054,10.924 16.054,10.578ZM17.256,8.473V9.61C17.255,9.61 17.254,9.609 17.253,9.608C17.067,9.467 16.838,9.38 16.591,9.38C15.964,9.38 15.454,9.915 15.454,10.575C15.454,11.234 15.963,11.769 16.591,11.769C16.84,11.769 17.07,11.685 17.256,11.543V11.737H17.84V8.473H17.256ZM18.831,10.578C18.838,10.237 19.111,9.964 19.445,9.964C19.78,9.964 20.053,10.237 20.059,10.578C20.059,10.924 19.784,11.205 19.445,11.205C19.106,11.204 18.832,10.924 18.831,10.578ZM20.034,9.42V9.61L20.03,9.608C19.844,9.467 19.616,9.38 19.369,9.38C18.741,9.38 18.232,9.915 18.232,10.575C18.232,11.234 18.741,11.769 19.369,11.769C19.617,11.769 19.847,11.685 20.034,11.543V11.737H20.618V9.42H20.034V9.42ZM22.209,9.42H21.859C21.859,9.42 21.858,9.346 21.858,9.279C21.858,9.133 21.858,8.946 22.087,8.946C22.146,8.946 22.203,8.956 22.203,8.956V8.417C22.203,8.417 22.107,8.415 22.042,8.417C21.505,8.439 21.268,8.626 21.268,9.173V9.42H21.007V9.954H21.268V11.733H21.859V9.954H22.209V9.42ZM25.744,9.622C25.91,9.468 26.152,9.372 26.412,9.372C26.947,9.372 27.253,9.719 27.255,10.178L27.255,10.438V11.734H26.653V10.382C26.653,10.042 26.42,9.938 26.236,9.938C26.066,9.938 25.743,10.033 25.761,10.449V11.734H25.157V9.42H25.744V9.622ZM28.274,10.758C28.302,11.049 28.541,11.261 28.833,11.261C29.064,11.261 29.217,11.168 29.308,11H29.939C29.838,11.36 29.44,11.768 28.854,11.768C28.148,11.768 27.651,11.232 27.651,10.572C27.651,9.911 28.184,9.376 28.854,9.376C29.524,9.376 30,9.958 30,10.572C30,10.7 29.986,10.757 29.986,10.757L28.274,10.758ZM29.363,10.311C29.312,10.048 29.096,9.897 28.833,9.897C28.562,9.897 28.35,10.057 28.289,10.309L29.363,10.311ZM14.35,9.453C14.129,9.502 13.972,9.701 13.971,9.931C13.971,9.936 13.972,9.942 13.973,9.947C14.314,10.021 14.486,10.256 14.486,10.565C14.486,10.912 14.207,11.194 13.866,11.194C13.526,11.194 13.207,10.904 13.207,10.474C13.207,9.95 13.648,9.457 14.277,9.442C14.288,9.442 14.307,9.442 14.325,9.443C14.182,9.388 14.031,9.36 13.879,9.36C13.204,9.36 12.657,9.9 12.657,10.565C12.657,11.231 13.204,11.77 13.879,11.77C14.554,11.77 15.1,11.231 15.1,10.565C15.1,10.064 14.79,9.635 14.35,9.453ZM23.562,9.37C22.887,9.37 22.34,9.909 22.34,10.575C22.34,11.076 22.65,11.505 23.091,11.687C23.312,11.638 23.469,11.439 23.469,11.209C23.469,11.204 23.468,11.198 23.468,11.193C23.127,11.119 22.955,10.884 22.955,10.575C22.955,10.227 23.233,9.946 23.574,9.946C23.915,9.946 24.233,10.236 24.233,10.665C24.233,11.19 23.792,11.682 23.163,11.698C23.148,11.698 23.132,11.698 23.116,11.697C23.254,11.75 23.404,11.78 23.562,11.78C24.237,11.78 24.784,11.24 24.784,10.575C24.784,9.909 24.237,9.37 23.562,9.37Z" />
	<path
		fill="rgb(230,0,0)"
		fill-opacity="1.0"
		d="M5.672,8.636C5.672,7.965 6.127,7.404 6.73,7.266C7.962,7.787 8.827,9.017 8.827,10.452C8.827,12.359 7.299,13.904 5.414,13.904C3.529,13.904 2,12.359 2,10.452C2,8.546 3.529,7 5.414,7C5.84,6.999 6.262,7.08 6.66,7.237C6.609,7.235 6.559,7.234 6.527,7.235C4.77,7.279 3.537,8.689 3.537,10.193C3.537,11.424 4.427,12.255 5.379,12.255C6.332,12.255 7.111,11.447 7.111,10.452C7.111,9.566 6.63,8.894 5.676,8.682C5.676,8.668 5.672,8.651 5.672,8.636Z" />
</svg>