<!-- Created by Apktool M – https://maximoff.su/apktool -->
<svg
	xmlns="http://www.w3.org/2000/svg"
	xmlns:xlink="http://www.w3.org/1999/xlink"
	version="1.1"
	width="312"
	height="240"
	viewBox="0 0 312 240">
	<path
		fill="rgb(241,243,242)"
		fill-opacity="1.0"
		d="M12,104L300,104A12,12 0,0 1,312 116L312,228A12,12 0,0 1,300 240L12,240A12,12 0,0 1,0 228L0,116A12,12 0,0 1,12 104z" />
	<path
		fill="rgb(70,83,74)"
		d="M36.55,170.16C35.87,170.16 35.28,170.07 34.79,169.9C34.31,169.72 33.91,169.49 33.59,169.22C33.27,168.93 33.02,168.63 32.82,168.32C32.63,168.01 32.49,167.72 32.39,167.44C32.3,167.15 32.23,166.92 32.2,166.75C32.18,166.57 32.17,166.48 32.17,166.48H33.77C33.77,166.48 33.78,166.55 33.82,166.7C33.85,166.85 33.91,167.04 34.01,167.26C34.12,167.49 34.27,167.72 34.47,167.95C34.68,168.18 34.95,168.36 35.29,168.51C35.63,168.66 36.06,168.74 36.58,168.74C37.37,168.74 38,168.55 38.46,168.18C38.92,167.79 39.14,167.3 39.14,166.69C39.14,166.16 38.97,165.76 38.62,165.47C38.28,165.18 37.78,164.96 37.14,164.8L35.58,164.42C35.02,164.28 34.5,164.09 34.02,163.84C33.56,163.58 33.18,163.25 32.89,162.85C32.61,162.43 32.47,161.91 32.47,161.3C32.47,160.6 32.64,160.01 32.98,159.52C33.33,159.03 33.79,158.66 34.38,158.4C34.96,158.13 35.63,158 36.38,158C37.1,158 37.7,158.11 38.18,158.34C38.66,158.56 39.05,158.84 39.34,159.17C39.62,159.49 39.84,159.81 39.98,160.14C40.12,160.46 40.21,160.74 40.25,160.96C40.29,161.18 40.31,161.3 40.31,161.3H38.78C38.78,161.3 38.76,161.2 38.71,161.01C38.67,160.82 38.57,160.6 38.41,160.35C38.25,160.1 38,159.87 37.67,159.68C37.34,159.49 36.89,159.39 36.33,159.39C35.56,159.39 34.98,159.57 34.58,159.94C34.2,160.3 34.01,160.71 34.01,161.18C34.01,161.61 34.16,161.96 34.47,162.22C34.78,162.48 35.21,162.68 35.75,162.82L37.45,163.23C38.06,163.38 38.61,163.6 39.1,163.89C39.59,164.16 39.98,164.53 40.26,164.98C40.55,165.41 40.7,165.95 40.7,166.59C40.7,167.23 40.54,167.82 40.22,168.37C39.91,168.91 39.44,169.35 38.82,169.68C38.22,170 37.46,170.16 36.55,170.16ZM46.1,170.16C45.19,170.16 44.43,169.95 43.81,169.54C43.19,169.11 42.72,168.56 42.4,167.89C42.08,167.22 41.92,166.51 41.92,165.76C41.92,165 42.08,164.29 42.4,163.63C42.72,162.96 43.19,162.42 43.81,162C44.43,161.57 45.19,161.36 46.1,161.36C47,161.36 47.77,161.57 48.38,162C49,162.42 49.47,162.96 49.79,163.63C50.11,164.29 50.27,165 50.27,165.76C50.27,166.51 50.11,167.22 49.79,167.89C49.47,168.56 49,169.11 48.38,169.54C47.77,169.95 47,170.16 46.1,170.16ZM46.1,168.83C46.67,168.83 47.15,168.69 47.54,168.4C47.93,168.1 48.22,167.72 48.42,167.25C48.62,166.78 48.72,166.28 48.72,165.76C48.72,165.23 48.62,164.73 48.42,164.27C48.22,163.8 47.93,163.42 47.54,163.14C47.15,162.84 46.67,162.69 46.1,162.69C45.53,162.69 45.05,162.84 44.66,163.14C44.26,163.42 43.96,163.8 43.76,164.27C43.57,164.73 43.47,165.23 43.47,165.76C43.47,166.28 43.57,166.78 43.76,167.25C43.96,167.72 44.26,168.1 44.66,168.4C45.05,168.69 45.53,168.83 46.1,168.83ZM51.85,170V161.52H53.37V162.58H53.43C53.61,162.26 53.88,161.97 54.23,161.73C54.58,161.48 55.08,161.36 55.72,161.36C55.9,161.36 56.07,161.37 56.21,161.39C56.36,161.4 56.44,161.41 56.44,161.41V162.86C56.44,162.86 56.35,162.86 56.18,162.85C56.02,162.83 55.85,162.82 55.67,162.82C54.93,162.82 54.36,163.03 53.96,163.46C53.56,163.87 53.37,164.55 53.37,165.5V170H51.85ZM57.61,170V161.52H59.13V162.58H59.2C59.38,162.26 59.64,161.97 60,161.73C60.35,161.48 60.84,161.36 61.48,161.36C61.67,161.36 61.83,161.37 61.98,161.39C62.13,161.4 62.2,161.41 62.2,161.41V162.86C62.2,162.86 62.12,162.86 61.95,162.85C61.79,162.83 61.62,162.82 61.44,162.82C60.7,162.82 60.13,163.03 59.72,163.46C59.33,163.87 59.13,164.55 59.13,165.5V170H57.61ZM63.7,173.12C63.45,173.12 63.24,173.11 63.07,173.09C62.9,173.07 62.82,173.06 62.82,173.06V171.76C62.82,171.76 62.9,171.76 63.07,171.78C63.26,171.8 63.45,171.81 63.65,171.81C64.28,171.81 64.79,171.68 65.19,171.41C65.59,171.15 65.93,170.73 66.21,170.13L62.93,161.52H64.51L66.96,168.14L69.43,161.52H71.03L67.75,170.02C67.33,171.08 66.79,171.87 66.13,172.37C65.48,172.87 64.67,173.12 63.7,173.12ZM72.33,171.97L73.49,170.11C73.23,170.09 73.01,169.98 72.83,169.79C72.66,169.6 72.57,169.37 72.57,169.09C72.57,168.78 72.68,168.53 72.89,168.35C73.11,168.17 73.35,168.08 73.61,168.08C73.91,168.08 74.16,168.17 74.37,168.35C74.58,168.53 74.69,168.79 74.69,169.12C74.69,169.42 74.57,169.76 74.33,170.14C74.11,170.53 73.75,171.08 73.25,171.81L73.13,171.97H72.33ZM81.91,170L79.18,161.52H80.73L82.75,167.95L84.86,161.52H86.3L88.39,167.95L90.43,161.52H91.98L89.23,170H87.59L85.58,163.74L83.56,170H81.91ZM96.7,170.16C96.01,170.16 95.41,170.04 94.89,169.79C94.39,169.54 93.98,169.2 93.65,168.77C93.33,168.34 93.09,167.87 92.93,167.36C92.77,166.84 92.69,166.3 92.69,165.76C92.69,165.23 92.76,164.7 92.91,164.18C93.07,163.65 93.31,163.18 93.63,162.75C93.96,162.32 94.37,161.99 94.86,161.74C95.36,161.49 95.96,161.36 96.64,161.36C97.36,161.36 98,161.52 98.56,161.86C99.11,162.19 99.55,162.68 99.87,163.33C100.19,163.98 100.35,164.79 100.35,165.78V166.22H94.22C94.25,166.7 94.37,167.15 94.56,167.55C94.76,167.95 95.04,168.27 95.41,168.51C95.77,168.75 96.2,168.86 96.7,168.86C97.14,168.86 97.49,168.79 97.76,168.66C98.04,168.51 98.25,168.34 98.41,168.14C98.57,167.95 98.68,167.79 98.73,167.65C98.8,167.5 98.83,167.42 98.83,167.42H100.25C100.25,167.42 100.23,167.52 100.18,167.71C100.12,167.89 100.03,168.12 99.89,168.38C99.75,168.65 99.55,168.92 99.28,169.2C99.01,169.47 98.67,169.7 98.25,169.89C97.84,170.07 97.32,170.16 96.7,170.16ZM94.24,165.04H98.86C98.84,164.49 98.72,164.04 98.51,163.7C98.3,163.34 98.03,163.08 97.69,162.91C97.36,162.74 97.01,162.66 96.64,162.66C95.97,162.66 95.42,162.88 94.99,163.31C94.56,163.74 94.31,164.32 94.24,165.04ZM108.79,170.16C108.15,170.16 107.59,170.04 107.11,169.79C106.63,169.54 106.23,169.2 105.91,168.78C105.59,168.36 105.35,167.88 105.19,167.36C105.03,166.84 104.95,166.3 104.95,165.76C104.95,165.22 105.03,164.68 105.19,164.16C105.35,163.64 105.59,163.17 105.91,162.75C106.23,162.32 106.63,161.99 107.11,161.74C107.59,161.49 108.15,161.36 108.79,161.36C109.33,161.36 109.77,161.45 110.14,161.62C110.5,161.79 110.79,161.99 111.02,162.22C111.24,162.45 111.41,162.66 111.53,162.86H111.62V157.84H113.14V170H111.62V168.66H111.53C111.41,168.86 111.24,169.08 111.02,169.31C110.79,169.55 110.5,169.75 110.14,169.92C109.77,170.08 109.33,170.16 108.79,170.16ZM109.05,168.86C109.61,168.86 110.08,168.71 110.46,168.42C110.84,168.11 111.12,167.72 111.3,167.25C111.5,166.77 111.59,166.27 111.59,165.76C111.59,165.24 111.5,164.74 111.3,164.27C111.12,163.8 110.84,163.42 110.46,163.12C110.08,162.81 109.61,162.66 109.05,162.66C108.48,162.66 108.01,162.81 107.62,163.12C107.24,163.42 106.95,163.8 106.76,164.27C106.58,164.74 106.49,165.24 106.49,165.76C106.49,166.27 106.58,166.77 106.76,167.25C106.95,167.72 107.24,168.11 107.62,168.42C108.01,168.71 108.48,168.86 109.05,168.86ZM119.07,170.16C118.16,170.16 117.4,169.95 116.78,169.54C116.16,169.11 115.69,168.56 115.37,167.89C115.05,167.22 114.89,166.51 114.89,165.76C114.89,165 115.05,164.29 115.37,163.63C115.69,162.96 116.16,162.42 116.78,162C117.4,161.57 118.16,161.36 119.07,161.36C119.97,161.36 120.74,161.57 121.35,162C121.97,162.42 122.44,162.96 122.76,163.63C123.08,164.29 123.24,165 123.24,165.76C123.24,166.51 123.08,167.22 122.76,167.89C122.44,168.56 121.97,169.11 121.35,169.54C120.74,169.95 119.97,170.16 119.07,170.16ZM119.07,168.83C119.64,168.83 120.12,168.69 120.51,168.4C120.9,168.1 121.19,167.72 121.39,167.25C121.59,166.78 121.69,166.28 121.69,165.76C121.69,165.23 121.59,164.73 121.39,164.27C121.19,163.8 120.9,163.42 120.51,163.14C120.12,162.84 119.64,162.69 119.07,162.69C118.5,162.69 118.02,162.84 117.63,163.14C117.23,163.42 116.93,163.8 116.73,164.27C116.54,164.73 116.44,165.23 116.44,165.76C116.44,166.28 116.54,166.78 116.73,167.25C116.93,167.72 117.23,168.1 117.63,168.4C118.02,168.69 118.5,168.83 119.07,168.83ZM128,170V161.52H129.52V162.75H129.62C129.69,162.62 129.82,162.45 129.99,162.22C130.17,162 130.42,161.8 130.76,161.63C131.09,161.45 131.5,161.36 132,161.36C132.62,161.36 133.15,161.5 133.59,161.79C134.02,162.07 134.35,162.45 134.58,162.93C134.81,163.41 134.93,163.95 134.93,164.54V170H133.41V164.64C133.41,164.07 133.25,163.6 132.93,163.23C132.62,162.86 132.17,162.67 131.57,162.67C131.09,162.67 130.7,162.79 130.4,163.04C130.1,163.27 129.88,163.59 129.73,163.98C129.59,164.37 129.52,164.78 129.52,165.22V170H128ZM140.69,170.16C139.78,170.16 139.02,169.95 138.4,169.54C137.78,169.11 137.32,168.56 136.99,167.89C136.68,167.22 136.51,166.51 136.51,165.76C136.51,165 136.68,164.29 136.99,163.63C137.32,162.96 137.78,162.42 138.4,162C139.02,161.57 139.78,161.36 140.69,161.36C141.6,161.36 142.36,161.57 142.98,162C143.6,162.42 144.07,162.96 144.39,163.63C144.71,164.29 144.87,165 144.87,165.76C144.87,166.51 144.71,167.22 144.39,167.89C144.07,168.56 143.6,169.11 142.98,169.54C142.36,169.95 141.6,170.16 140.69,170.16ZM140.69,168.83C141.27,168.83 141.75,168.69 142.13,168.4C142.52,168.1 142.82,167.72 143.01,167.25C143.21,166.78 143.32,166.28 143.32,165.76C143.32,165.23 143.21,164.73 143.01,164.27C142.82,163.8 142.52,163.42 142.13,163.14C141.75,162.84 141.27,162.69 140.69,162.69C140.13,162.69 139.65,162.84 139.25,163.14C138.86,163.42 138.56,163.8 138.35,164.27C138.16,164.73 138.07,165.23 138.07,165.76C138.07,166.28 138.16,166.78 138.35,167.25C138.56,167.72 138.86,168.1 139.25,168.4C139.65,168.69 140.13,168.83 140.69,168.83ZM149.88,170.16C149.01,170.16 148.35,169.94 147.9,169.49C147.46,169.04 147.24,168.41 147.24,167.6V162.77H145.72V161.52H147.24V159.39H148.76V161.52H150.83V162.77H148.76V167.6C148.76,168.03 148.88,168.34 149.12,168.54C149.35,168.74 149.69,168.83 150.14,168.83C150.38,168.83 150.6,168.82 150.81,168.78C151.02,168.75 151.13,168.74 151.13,168.74V170.03C151.13,170.03 151.01,170.05 150.76,170.1C150.52,170.14 150.23,170.16 149.88,170.16ZM159.83,170.16C159.14,170.16 158.53,170.04 158.01,169.79C157.49,169.54 157.05,169.2 156.7,168.78C156.35,168.36 156.09,167.88 155.91,167.36C155.74,166.84 155.65,166.3 155.65,165.76C155.65,165.22 155.74,164.69 155.91,164.18C156.08,163.65 156.34,163.18 156.68,162.75C157.03,162.32 157.47,161.99 157.99,161.74C158.51,161.49 159.13,161.36 159.83,161.36C160.51,161.36 161.08,161.46 161.53,161.66C161.98,161.87 162.33,162.12 162.6,162.43C162.88,162.73 163.08,163.04 163.21,163.34C163.35,163.64 163.44,163.89 163.48,164.1C163.52,164.3 163.54,164.4 163.54,164.4H162.07C162.07,164.4 162.04,164.32 161.99,164.14C161.94,163.96 161.84,163.76 161.69,163.54C161.54,163.31 161.31,163.12 161.01,162.94C160.72,162.76 160.32,162.67 159.83,162.67C159.24,162.67 158.75,162.82 158.34,163.12C157.95,163.41 157.65,163.79 157.45,164.26C157.26,164.73 157.16,165.23 157.16,165.76C157.16,166.29 157.26,166.79 157.45,167.26C157.65,167.73 157.95,168.12 158.34,168.42C158.75,168.7 159.24,168.85 159.83,168.85C160.32,168.85 160.72,168.76 161.01,168.59C161.31,168.41 161.54,168.21 161.69,167.98C161.84,167.76 161.94,167.56 161.99,167.39C162.04,167.21 162.07,167.12 162.07,167.12H163.54C163.54,167.12 163.52,167.22 163.48,167.42C163.44,167.63 163.35,167.88 163.21,168.19C163.08,168.49 162.88,168.79 162.6,169.1C162.33,169.4 161.98,169.65 161.53,169.86C161.08,170.06 160.51,170.16 159.83,170.16ZM167.9,170.16C167.05,170.16 166.38,169.9 165.88,169.38C165.38,168.85 165.13,168.13 165.13,167.2V161.52H166.65V167.12C166.65,167.68 166.8,168.1 167.1,168.4C167.4,168.7 167.81,168.85 168.31,168.85C168.82,168.85 169.23,168.71 169.54,168.45C169.85,168.18 170.08,167.84 170.22,167.42C170.35,167.01 170.42,166.58 170.42,166.14V161.52H171.94V170H170.42V168.78H170.33C170.26,168.91 170.14,169.09 169.96,169.31C169.78,169.52 169.52,169.72 169.19,169.9C168.86,170.07 168.43,170.16 167.9,170.16ZM173.69,170V161.52H175.21V162.58H175.27C175.46,162.26 175.72,161.97 176.07,161.73C176.43,161.48 176.92,161.36 177.56,161.36C177.74,161.36 177.91,161.37 178.06,161.39C178.21,161.4 178.28,161.41 178.28,161.41V162.86C178.28,162.86 178.2,162.86 178.03,162.85C177.87,162.83 177.7,162.82 177.51,162.82C176.78,162.82 176.21,163.03 175.8,163.46C175.41,163.87 175.21,164.55 175.21,165.5V170H173.69ZM179.46,170V161.52H180.98V162.58H181.04C181.22,162.26 181.49,161.97 181.84,161.73C182.19,161.48 182.69,161.36 183.33,161.36C183.51,161.36 183.68,161.37 183.82,161.39C183.97,161.4 184.05,161.41 184.05,161.41V162.86C184.05,162.86 183.96,162.86 183.79,162.85C183.63,162.83 183.46,162.82 183.28,162.82C182.54,162.82 181.97,163.03 181.57,163.46C181.17,163.87 180.98,164.55 180.98,165.5V170H179.46ZM188.44,170.16C187.74,170.16 187.14,170.04 186.63,169.79C186.13,169.54 185.71,169.2 185.38,168.77C185.06,168.34 184.82,167.87 184.66,167.36C184.5,166.84 184.42,166.3 184.42,165.76C184.42,165.23 184.5,164.7 184.65,164.18C184.8,163.65 185.04,163.18 185.37,162.75C185.7,162.32 186.11,161.99 186.6,161.74C187.1,161.49 187.69,161.36 188.37,161.36C189.1,161.36 189.74,161.52 190.29,161.86C190.85,162.19 191.29,162.68 191.6,163.33C191.93,163.98 192.09,164.79 192.09,165.78V166.22H185.96C185.99,166.7 186.1,167.15 186.29,167.55C186.5,167.95 186.78,168.27 187.14,168.51C187.5,168.75 187.94,168.86 188.44,168.86C188.87,168.86 189.23,168.79 189.49,168.66C189.77,168.51 189.99,168.34 190.15,168.14C190.31,167.95 190.42,167.79 190.47,167.65C190.53,167.5 190.57,167.42 190.57,167.42H191.99C191.99,167.42 191.96,167.52 191.91,167.71C191.86,167.89 191.76,168.12 191.62,168.38C191.48,168.65 191.28,168.92 191.01,169.2C190.75,169.47 190.4,169.7 189.99,169.89C189.57,170.07 189.06,170.16 188.44,170.16ZM185.97,165.04H190.6C190.58,164.49 190.46,164.04 190.24,163.7C190.03,163.34 189.76,163.08 189.43,162.91C189.1,162.74 188.75,162.66 188.37,162.66C187.7,162.66 187.15,162.88 186.73,163.31C186.3,163.74 186.05,164.32 185.97,165.04ZM193.66,170V161.52H195.18V162.75H195.27C195.35,162.62 195.47,162.45 195.64,162.22C195.82,162 196.08,161.8 196.41,161.63C196.74,161.45 197.16,161.36 197.66,161.36C198.28,161.36 198.81,161.5 199.24,161.79C199.68,162.07 200.01,162.45 200.24,162.93C200.47,163.41 200.59,163.95 200.59,164.54V170H199.07V164.64C199.07,164.07 198.91,163.6 198.59,163.23C198.28,162.86 197.82,162.67 197.23,162.67C196.75,162.67 196.36,162.79 196.06,163.04C195.76,163.27 195.54,163.59 195.39,163.98C195.25,164.37 195.18,164.78 195.18,165.22V170H193.66ZM205.62,170.16C204.74,170.16 204.08,169.94 203.63,169.49C203.2,169.04 202.98,168.41 202.98,167.6V162.77H201.46V161.52H202.98V159.39H204.5V161.52H206.56V162.77H204.5V167.6C204.5,168.03 204.62,168.34 204.85,168.54C205.09,168.74 205.43,168.83 205.87,168.83C206.11,168.83 206.33,168.82 206.55,168.78C206.76,168.75 206.87,168.74 206.87,168.74V170.03C206.87,170.03 206.74,170.05 206.5,170.1C206.25,170.14 205.96,170.16 205.62,170.16ZM208.52,170L208.54,157.84H210.04V170H208.52ZM212.26,173.12C212.01,173.12 211.81,173.11 211.64,173.09C211.47,173.07 211.38,173.06 211.38,173.06V171.76C211.38,171.76 211.47,171.76 211.64,171.78C211.82,171.8 212.01,171.81 212.21,171.81C212.84,171.81 213.35,171.68 213.75,171.41C214.15,171.15 214.49,170.73 214.77,170.13L211.49,161.52H213.08L215.52,168.14L217.99,161.52H219.59L216.31,170.02C215.89,171.08 215.35,171.87 214.69,172.37C214.04,172.87 213.23,173.12 212.26,173.12ZM227.06,170.16C226.41,170.16 225.87,170.07 225.44,169.89C225.03,169.71 224.7,169.48 224.45,169.22C224.21,168.94 224.02,168.67 223.91,168.4C223.79,168.12 223.72,167.89 223.68,167.71C223.65,167.53 223.64,167.44 223.64,167.44H225.17C225.17,167.44 225.19,167.51 225.22,167.66C225.26,167.8 225.34,167.97 225.46,168.16C225.59,168.34 225.78,168.51 226.04,168.66C226.3,168.79 226.65,168.86 227.09,168.86C227.59,168.86 227.98,168.75 228.26,168.51C228.54,168.27 228.68,167.97 228.68,167.62C228.68,167.31 228.56,167.06 228.34,166.88C228.13,166.7 227.82,166.56 227.41,166.46L226.26,166.19C225.83,166.09 225.43,165.94 225.06,165.76C224.69,165.58 224.38,165.33 224.15,165.02C223.92,164.7 223.81,164.31 223.81,163.84C223.81,163.12 224.08,162.52 224.63,162.06C225.17,161.6 225.88,161.36 226.76,161.36C227.34,161.36 227.83,161.45 228.21,161.62C228.6,161.78 228.9,161.98 229.12,162.22C229.36,162.47 229.53,162.71 229.64,162.96C229.75,163.21 229.83,163.41 229.86,163.58C229.89,163.74 229.91,163.82 229.91,163.82H228.44C228.44,163.82 228.42,163.76 228.39,163.65C228.36,163.52 228.28,163.38 228.16,163.23C228.06,163.07 227.89,162.93 227.67,162.82C227.44,162.69 227.15,162.62 226.77,162.62C226.26,162.62 225.89,162.74 225.65,162.98C225.42,163.21 225.3,163.47 225.3,163.74C225.3,164.01 225.41,164.23 225.62,164.4C225.84,164.56 226.13,164.68 226.48,164.77L227.65,165.04C228.38,165.21 228.98,165.49 229.44,165.89C229.92,166.27 230.16,166.83 230.16,167.55C230.16,168.02 230.04,168.46 229.8,168.86C229.55,169.26 229.2,169.57 228.74,169.81C228.28,170.04 227.72,170.16 227.06,170.16ZM234.35,170.16C233.51,170.16 232.83,169.9 232.33,169.38C231.83,168.85 231.58,168.13 231.58,167.2V161.52H233.1V167.12C233.1,167.68 233.25,168.1 233.55,168.4C233.86,168.7 234.26,168.85 234.76,168.85C235.28,168.85 235.69,168.71 236,168.45C236.31,168.18 236.53,167.84 236.67,167.42C236.81,167.01 236.88,166.58 236.88,166.14V161.52H238.4V170H236.88V168.78H236.78C236.72,168.91 236.59,169.09 236.41,169.31C236.23,169.52 235.98,169.72 235.65,169.9C235.31,170.07 234.88,170.16 234.35,170.16ZM240.3,173.14V161.52H241.82V162.86H241.92C242.05,162.66 242.22,162.44 242.43,162.21C242.65,161.97 242.95,161.78 243.31,161.62C243.67,161.45 244.12,161.36 244.65,161.36C245.29,161.36 245.85,161.49 246.34,161.74C246.82,161.99 247.21,162.32 247.54,162.75C247.85,163.17 248.1,163.64 248.26,164.16C248.41,164.68 248.49,165.22 248.49,165.76C248.49,166.3 248.41,166.84 248.26,167.36C248.1,167.88 247.85,168.36 247.54,168.78C247.21,169.2 246.82,169.54 246.34,169.79C245.85,170.04 245.29,170.16 244.65,170.16C244.12,170.16 243.67,170.07 243.31,169.9C242.95,169.73 242.65,169.53 242.43,169.3C242.22,169.06 242.05,168.85 241.92,168.66H241.82V173.14H240.3ZM241.85,165.76C241.85,166.27 241.95,166.77 242.13,167.25C242.32,167.72 242.6,168.11 242.98,168.42C243.36,168.71 243.83,168.86 244.4,168.86C244.98,168.86 245.45,168.71 245.82,168.42C246.21,168.11 246.49,167.72 246.67,167.25C246.86,166.77 246.96,166.27 246.96,165.76C246.96,165.24 246.86,164.74 246.67,164.27C246.49,163.8 246.21,163.42 245.82,163.12C245.45,162.81 244.98,162.66 244.4,162.66C243.83,162.66 243.36,162.81 242.98,163.12C242.6,163.42 242.32,163.8 242.13,164.27C241.95,164.74 241.85,165.24 241.85,165.76ZM250.24,173.14V161.52H251.76V162.86H251.86C251.99,162.66 252.16,162.44 252.37,162.21C252.59,161.97 252.89,161.78 253.25,161.62C253.61,161.45 254.06,161.36 254.59,161.36C255.23,161.36 255.79,161.49 256.27,161.74C256.75,161.99 257.15,162.32 257.47,162.75C257.79,163.17 258.03,163.64 258.19,164.16C258.35,164.68 258.43,165.22 258.43,165.76C258.43,166.3 258.35,166.84 258.19,167.36C258.03,167.88 257.79,168.36 257.47,168.78C257.15,169.2 256.75,169.54 256.27,169.79C255.79,170.04 255.23,170.16 254.59,170.16C254.06,170.16 253.61,170.07 253.25,169.9C252.89,169.73 252.59,169.53 252.37,169.3C252.16,169.06 251.99,168.85 251.86,168.66H251.76V173.14H250.24ZM251.79,165.76C251.79,166.27 251.88,166.77 252.07,167.25C252.26,167.72 252.54,168.11 252.91,168.42C253.3,168.71 253.77,168.86 254.34,168.86C254.91,168.86 255.39,168.71 255.76,168.42C256.14,168.11 256.43,167.72 256.61,167.25C256.8,166.77 256.9,166.27 256.9,165.76C256.9,165.24 256.8,164.74 256.61,164.27C256.43,163.8 256.14,163.42 255.76,163.12C255.39,162.81 254.91,162.66 254.34,162.66C253.77,162.66 253.3,162.81 252.91,163.12C252.54,163.42 252.26,163.8 252.07,164.27C251.88,164.74 251.79,165.24 251.79,165.76ZM263.96,170.16C263.05,170.16 262.29,169.95 261.67,169.54C261.05,169.11 260.58,168.56 260.26,167.89C259.94,167.22 259.78,166.51 259.78,165.76C259.78,165 259.94,164.29 260.26,163.63C260.58,162.96 261.05,162.42 261.67,162C262.29,161.57 263.05,161.36 263.96,161.36C264.86,161.36 265.63,161.57 266.24,162C266.86,162.42 267.33,162.96 267.65,163.63C267.97,164.29 268.13,165 268.13,165.76C268.13,166.51 267.97,167.22 267.65,167.89C267.33,168.56 266.86,169.11 266.24,169.54C265.63,169.95 264.86,170.16 263.96,170.16ZM263.96,168.83C264.53,168.83 265.01,168.69 265.4,168.4C265.79,168.1 266.08,167.72 266.28,167.25C266.48,166.78 266.58,166.28 266.58,165.76C266.58,165.23 266.48,164.73 266.28,164.27C266.08,163.8 265.79,163.42 265.4,163.14C265.01,162.84 264.53,162.69 263.96,162.69C263.39,162.69 262.91,162.84 262.52,163.14C262.12,163.42 261.82,163.8 261.62,164.27C261.43,164.73 261.33,165.23 261.33,165.76C261.33,166.28 261.43,166.78 261.62,167.25C261.82,167.72 262.12,168.1 262.52,168.4C262.91,168.69 263.39,168.83 263.96,168.83ZM269.71,170V161.52H271.23V162.58H271.29C271.47,162.26 271.74,161.97 272.09,161.73C272.44,161.48 272.94,161.36 273.58,161.36C273.76,161.36 273.92,161.37 274.07,161.39C274.22,161.4 274.3,161.41 274.3,161.41V162.86C274.3,162.86 274.21,162.86 274.04,162.85C273.88,162.83 273.71,162.82 273.53,162.82C272.79,162.82 272.22,163.03 271.82,163.46C271.42,163.87 271.23,164.55 271.23,165.5V170H269.71ZM279.07,170.16C278.2,170.16 277.54,169.94 277.09,169.49C276.65,169.04 276.43,168.41 276.43,167.6V162.77H274.91V161.52H276.43V159.39H277.95V161.52H280.02V162.77H277.95V167.6C277.95,168.03 278.07,168.34 278.3,168.54C278.54,168.74 278.88,168.83 279.33,168.83C279.56,168.83 279.79,168.82 280,168.78C280.21,168.75 280.32,168.74 280.32,168.74V170.03C280.32,170.03 280.2,170.05 279.95,170.1C279.71,170.14 279.41,170.16 279.07,170.16ZM30.55,194L27.81,185.52H29.36L31.38,191.95L33.49,185.52H34.93L37.03,191.95L39.06,185.52H40.61L37.86,194H36.23L34.21,187.74L32.19,194H30.55ZM42.78,183.9C42.5,183.9 42.26,183.81 42.06,183.62C41.88,183.42 41.79,183.2 41.79,182.93C41.79,182.65 41.88,182.42 42.06,182.22C42.26,182.03 42.5,181.94 42.78,181.94C43.06,181.94 43.3,182.03 43.49,182.22C43.68,182.42 43.78,182.65 43.78,182.93C43.78,183.2 43.68,183.42 43.49,183.62C43.3,183.81 43.06,183.9 42.78,183.9ZM42.03,194V185.52H43.55V194H42.03ZM49.11,194.16C48.24,194.16 47.57,193.94 47.13,193.49C46.69,193.04 46.47,192.41 46.47,191.6V186.77H44.95V185.52H46.47V183.39H47.99V185.52H50.05V186.77H47.99V191.6C47.99,192.03 48.11,192.34 48.34,192.54C48.58,192.74 48.92,192.83 49.37,192.83C49.6,192.83 49.83,192.82 50.04,192.78C50.25,192.75 50.36,192.74 50.36,192.74V194.03C50.36,194.03 50.24,194.05 49.99,194.1C49.75,194.14 49.45,194.16 49.11,194.16ZM52.01,194V181.84H53.53V186.75H53.63C53.71,186.62 53.83,186.45 54,186.22C54.18,186 54.44,185.8 54.77,185.63C55.1,185.45 55.51,185.36 56.01,185.36C56.63,185.36 57.16,185.5 57.6,185.79C58.04,186.07 58.37,186.45 58.59,186.93C58.83,187.41 58.94,187.95 58.94,188.54V194H57.42V188.64C57.42,188.07 57.26,187.6 56.94,187.23C56.63,186.86 56.18,186.67 55.58,186.67C55.1,186.67 54.71,186.79 54.41,187.04C54.12,187.27 53.89,187.59 53.74,187.98C53.6,188.37 53.53,188.78 53.53,189.22V194H52.01ZM64.36,194.16C63.72,194.16 63.16,194.04 62.68,193.79C62.2,193.54 61.8,193.2 61.48,192.78C61.16,192.36 60.92,191.88 60.76,191.36C60.6,190.84 60.52,190.3 60.52,189.76C60.52,189.22 60.6,188.68 60.76,188.16C60.92,187.64 61.16,187.17 61.48,186.75C61.8,186.32 62.2,185.99 62.68,185.74C63.16,185.49 63.72,185.36 64.36,185.36C64.9,185.36 65.34,185.45 65.71,185.62C66.07,185.79 66.36,185.99 66.59,186.22C66.81,186.45 66.98,186.66 67.1,186.86H67.19V181.84H68.71V194H67.19V192.66H67.1C66.98,192.86 66.81,193.08 66.59,193.31C66.36,193.55 66.07,193.75 65.71,193.92C65.34,194.08 64.9,194.16 64.36,194.16ZM64.62,192.86C65.18,192.86 65.65,192.71 66.03,192.42C66.41,192.11 66.69,191.72 66.87,191.25C67.07,190.77 67.16,190.27 67.16,189.76C67.16,189.24 67.07,188.74 66.87,188.27C66.69,187.8 66.41,187.42 66.03,187.12C65.65,186.81 65.18,186.66 64.62,186.66C64.05,186.66 63.58,186.81 63.19,187.12C62.81,187.42 62.52,187.8 62.33,188.27C62.15,188.74 62.06,189.24 62.06,189.76C62.06,190.27 62.15,190.77 62.33,191.25C62.52,191.72 62.81,192.11 63.19,192.42C63.58,192.71 64.05,192.86 64.62,192.86ZM70.62,194V185.52H72.14V186.58H72.2C72.39,186.26 72.65,185.97 73,185.73C73.36,185.48 73.85,185.36 74.49,185.36C74.67,185.36 74.84,185.37 74.99,185.39C75.14,185.4 75.21,185.41 75.21,185.41V186.86C75.21,186.86 75.13,186.86 74.96,186.85C74.8,186.83 74.63,186.82 74.44,186.82C73.71,186.82 73.14,187.03 72.73,187.46C72.34,187.87 72.14,188.55 72.14,189.5V194H70.62ZM79.43,185.36C79.96,185.36 80.41,185.45 80.77,185.62C81.13,185.79 81.43,185.99 81.65,186.22C81.87,186.45 82.04,186.66 82.16,186.86H82.26V185.52H83.78V194H82.26V192.66H82.16C82.04,192.86 81.87,193.08 81.65,193.31C81.43,193.55 81.13,193.75 80.77,193.92C80.41,194.08 79.96,194.16 79.43,194.16C78.79,194.16 78.22,194.04 77.75,193.79C77.26,193.54 76.86,193.2 76.54,192.78C76.22,192.36 75.99,191.88 75.82,191.36C75.67,190.84 75.58,190.3 75.58,189.76C75.58,189.22 75.67,188.68 75.82,188.16C75.99,187.64 76.22,187.17 76.54,186.75C76.86,186.32 77.26,185.99 77.75,185.74C78.22,185.49 78.79,185.36 79.43,185.36ZM79.68,186.66C79.12,186.66 78.64,186.81 78.26,187.12C77.87,187.42 77.58,187.8 77.39,188.27C77.21,188.74 77.12,189.24 77.12,189.76C77.12,190.27 77.21,190.77 77.39,191.25C77.58,191.72 77.87,192.11 78.26,192.42C78.64,192.71 79.12,192.86 79.68,192.86C80.25,192.86 80.72,192.71 81.09,192.42C81.47,192.11 81.76,191.72 81.94,191.25C82.13,190.77 82.22,190.27 82.22,189.76C82.22,189.24 82.13,188.74 81.94,188.27C81.76,187.8 81.47,187.42 81.09,187.12C80.72,186.81 80.25,186.66 79.68,186.66ZM87.37,194L84.64,185.52H86.19L88.21,191.95L90.32,185.52H91.76L93.85,191.95L95.89,185.52H97.44L94.69,194H93.05L91.04,187.74L89.02,194H87.37ZM99.61,183.9C99.32,183.9 99.08,183.81 98.89,183.62C98.71,183.42 98.62,183.2 98.62,182.93C98.62,182.65 98.71,182.42 98.89,182.22C99.08,182.03 99.32,181.94 99.61,181.94C99.89,181.94 100.12,182.03 100.32,182.22C100.51,182.42 100.6,182.65 100.6,182.93C100.6,183.2 100.51,183.42 100.32,183.62C100.12,183.81 99.89,183.9 99.61,183.9ZM98.86,194V185.52H100.38V194H98.86ZM102.34,194V185.52H103.86V186.75H103.96C104.03,186.62 104.15,186.45 104.32,186.22C104.5,186 104.76,185.8 105.09,185.63C105.42,185.45 105.84,185.36 106.34,185.36C106.96,185.36 107.49,185.5 107.92,185.79C108.36,186.07 108.69,186.45 108.92,186.93C109.15,187.41 109.27,187.95 109.27,188.54V194H107.75V188.64C107.75,188.07 107.59,187.6 107.27,187.23C106.96,186.86 106.5,186.67 105.91,186.67C105.43,186.67 105.04,186.79 104.74,187.04C104.44,187.27 104.22,187.59 104.07,187.98C103.93,188.37 103.86,188.78 103.86,189.22V194H102.34ZM115.09,197.36C114.39,197.36 113.8,197.26 113.33,197.07C112.86,196.89 112.48,196.66 112.19,196.37C111.92,196.09 111.71,195.81 111.57,195.54C111.43,195.26 111.34,195.02 111.3,194.83C111.26,194.65 111.24,194.56 111.24,194.56H112.75C112.75,194.56 112.78,194.63 112.83,194.78C112.89,194.93 112.99,195.1 113.14,195.3C113.3,195.49 113.53,195.66 113.84,195.81C114.15,195.96 114.57,196.03 115.09,196.03C115.71,196.03 116.19,195.91 116.55,195.66C116.9,195.43 117.15,195.12 117.3,194.74C117.46,194.35 117.54,193.95 117.54,193.52V192.54H117.46C117.35,192.73 117.18,192.93 116.95,193.17C116.72,193.39 116.42,193.59 116.05,193.76C115.68,193.92 115.22,194 114.68,194C114.04,194 113.47,193.88 113,193.63C112.51,193.39 112.11,193.06 111.79,192.64C111.49,192.22 111.25,191.76 111.09,191.25C110.93,190.74 110.85,190.21 110.85,189.68C110.85,189.15 110.93,188.62 111.09,188.11C111.25,187.6 111.49,187.14 111.79,186.72C112.11,186.3 112.51,185.97 113,185.73C113.47,185.48 114.04,185.36 114.68,185.36C115.22,185.36 115.68,185.45 116.05,185.62C116.42,185.78 116.72,185.97 116.95,186.19C117.18,186.42 117.35,186.62 117.46,186.82H117.54V185.52H119.06V193.5C119.06,194.69 118.71,195.63 118.02,196.32C117.34,197.01 116.36,197.36 115.09,197.36ZM114.96,192.7C115.53,192.7 116,192.56 116.37,192.27C116.75,191.97 117.04,191.6 117.22,191.14C117.41,190.68 117.51,190.19 117.51,189.68C117.51,189.17 117.41,188.68 117.22,188.22C117.04,187.76 116.75,187.38 116.37,187.09C116,186.8 115.53,186.66 114.96,186.66C114.4,186.66 113.92,186.8 113.54,187.09C113.15,187.38 112.87,187.76 112.68,188.22C112.49,188.68 112.4,189.17 112.4,189.68C112.4,190.19 112.49,190.68 112.68,191.14C112.87,191.6 113.15,191.97 113.54,192.27C113.92,192.56 114.4,192.7 114.96,192.7ZM127.58,194.16C126.71,194.16 126.04,193.94 125.6,193.49C125.16,193.04 124.94,192.41 124.94,191.6V186.77H123.42V185.52H124.94V183.39H126.46V185.52H128.52V186.77H126.46V191.6C126.46,192.03 126.58,192.34 126.81,192.54C127.05,192.74 127.39,192.83 127.83,192.83C128.07,192.83 128.29,192.82 128.51,192.78C128.72,192.75 128.83,192.74 128.83,192.74V194.03C128.83,194.03 128.71,194.05 128.46,194.1C128.21,194.14 127.92,194.16 127.58,194.16ZM134.03,194.16C133.12,194.16 132.36,193.95 131.74,193.54C131.12,193.11 130.65,192.56 130.33,191.89C130.01,191.22 129.85,190.51 129.85,189.76C129.85,189 130.01,188.29 130.33,187.63C130.65,186.96 131.12,186.42 131.74,186C132.36,185.57 133.12,185.36 134.03,185.36C134.93,185.36 135.7,185.57 136.32,186C136.93,186.42 137.4,186.96 137.72,187.63C138.04,188.29 138.2,189 138.2,189.76C138.2,190.51 138.04,191.22 137.72,191.89C137.4,192.56 136.93,193.11 136.32,193.54C135.7,193.95 134.93,194.16 134.03,194.16ZM134.03,192.83C134.6,192.83 135.08,192.69 135.47,192.4C135.86,192.1 136.15,191.72 136.35,191.25C136.55,190.78 136.65,190.28 136.65,189.76C136.65,189.23 136.55,188.73 136.35,188.27C136.15,187.8 135.86,187.42 135.47,187.14C135.08,186.84 134.6,186.69 134.03,186.69C133.46,186.69 132.98,186.84 132.59,187.14C132.19,187.42 131.89,187.8 131.69,188.27C131.5,188.73 131.4,189.23 131.4,189.76C131.4,190.28 131.5,190.78 131.69,191.25C131.89,191.72 132.19,192.1 132.59,192.4C132.98,192.69 133.46,192.83 134.03,192.83ZM143.28,197.12C143.04,197.12 142.83,197.11 142.66,197.09C142.49,197.07 142.4,197.06 142.4,197.06V195.76C142.4,195.76 142.49,195.76 142.66,195.78C142.84,195.8 143.03,195.81 143.24,195.81C143.87,195.81 144.38,195.68 144.77,195.41C145.18,195.15 145.52,194.73 145.8,194.13L142.52,185.52H144.1L146.55,192.14L149.01,185.52H150.61L147.33,194.02C146.92,195.08 146.38,195.87 145.72,196.37C145.07,196.87 144.25,197.12 143.28,197.12ZM155.24,194.16C154.34,194.16 153.58,193.95 152.96,193.54C152.34,193.11 151.87,192.56 151.55,191.89C151.23,191.22 151.07,190.51 151.07,189.76C151.07,189 151.23,188.29 151.55,187.63C151.87,186.96 152.34,186.42 152.96,186C153.58,185.57 154.34,185.36 155.24,185.36C156.15,185.36 156.91,185.57 157.53,186C158.15,186.42 158.62,186.96 158.94,187.63C159.26,188.29 159.42,189 159.42,189.76C159.42,190.51 159.26,191.22 158.94,191.89C158.62,192.56 158.15,193.11 157.53,193.54C156.91,193.95 156.15,194.16 155.24,194.16ZM155.24,192.83C155.82,192.83 156.3,192.69 156.68,192.4C157.08,192.1 157.37,191.72 157.57,191.25C157.77,190.78 157.87,190.28 157.87,189.76C157.87,189.23 157.77,188.73 157.57,188.27C157.37,187.8 157.08,187.42 156.68,187.14C156.3,186.84 155.82,186.69 155.24,186.69C154.68,186.69 154.2,186.84 153.8,187.14C153.41,187.42 153.11,187.8 152.91,188.27C152.72,188.73 152.62,189.23 152.62,189.76C152.62,190.28 152.72,190.78 152.91,191.25C153.11,191.72 153.41,192.1 153.8,192.4C154.2,192.69 154.68,192.83 155.24,192.83ZM163.76,194.16C162.92,194.16 162.25,193.9 161.75,193.38C161.25,192.85 160.99,192.13 160.99,191.2V185.52H162.51V191.12C162.51,191.68 162.66,192.1 162.96,192.4C163.27,192.7 163.68,192.85 164.18,192.85C164.69,192.85 165.1,192.71 165.41,192.45C165.72,192.18 165.94,191.84 166.08,191.42C166.22,191.01 166.29,190.58 166.29,190.14V185.52H167.81V194H166.29V192.78H166.2C166.13,192.91 166.01,193.09 165.83,193.31C165.65,193.52 165.39,193.72 165.06,193.9C164.73,194.07 164.3,194.16 163.76,194.16ZM169.56,194V185.52H171.08V186.58H171.14C171.32,186.26 171.59,185.97 171.94,185.73C172.29,185.48 172.79,185.36 173.43,185.36C173.61,185.36 173.78,185.37 173.93,185.39C174.07,185.4 174.15,185.41 174.15,185.41V186.86C174.15,186.86 174.06,186.86 173.89,186.85C173.73,186.83 173.56,186.82 173.38,186.82C172.65,186.82 172.07,187.03 171.67,187.46C171.27,187.87 171.08,188.55 171.08,189.5V194H169.56ZM178.67,194L178.69,181.84H180.19V194H178.67ZM186.1,194.16C185.2,194.16 184.43,193.95 183.82,193.54C183.2,193.11 182.73,192.56 182.41,191.89C182.09,191.22 181.93,190.51 181.93,189.76C181.93,189 182.09,188.29 182.41,187.63C182.73,186.96 183.2,186.42 183.82,186C184.43,185.57 185.2,185.36 186.1,185.36C187.01,185.36 187.77,185.57 188.39,186C189.01,186.42 189.48,186.96 189.8,187.63C190.12,188.29 190.28,189 190.28,189.76C190.28,190.51 190.12,191.22 189.8,191.89C189.48,192.56 189.01,193.11 188.39,193.54C187.77,193.95 187.01,194.16 186.1,194.16ZM186.1,192.83C186.68,192.83 187.16,192.69 187.54,192.4C187.94,192.1 188.23,191.72 188.43,191.25C188.63,190.78 188.73,190.28 188.73,189.76C188.73,189.23 188.63,188.73 188.43,188.27C188.23,187.8 187.94,187.42 187.54,187.14C187.16,186.84 186.68,186.69 186.1,186.69C185.54,186.69 185.06,186.84 184.66,187.14C184.27,187.42 183.97,187.8 183.77,188.27C183.58,188.73 183.48,189.23 183.48,189.76C183.48,190.28 183.58,190.78 183.77,191.25C183.97,191.72 184.27,192.1 184.66,192.4C185.06,192.69 185.54,192.83 186.1,192.83ZM195.79,194.16C195.1,194.16 194.49,194.04 193.97,193.79C193.45,193.54 193.01,193.2 192.66,192.78C192.32,192.36 192.05,191.88 191.87,191.36C191.7,190.84 191.62,190.3 191.62,189.76C191.62,189.22 191.7,188.69 191.87,188.18C192.04,187.65 192.3,187.18 192.64,186.75C192.99,186.32 193.43,185.99 193.95,185.74C194.48,185.49 195.09,185.36 195.79,185.36C196.48,185.36 197.04,185.46 197.49,185.66C197.94,185.87 198.29,186.12 198.56,186.43C198.84,186.73 199.04,187.04 199.17,187.34C199.31,187.64 199.4,187.89 199.44,188.1C199.48,188.3 199.5,188.4 199.5,188.4H198.03C198.03,188.4 198.01,188.32 197.95,188.14C197.9,187.96 197.8,187.76 197.65,187.54C197.5,187.31 197.27,187.12 196.98,186.94C196.68,186.76 196.28,186.67 195.79,186.67C195.21,186.67 194.71,186.82 194.3,187.12C193.91,187.41 193.61,187.79 193.41,188.26C193.22,188.73 193.12,189.23 193.12,189.76C193.12,190.29 193.22,190.79 193.41,191.26C193.61,191.73 193.91,192.12 194.3,192.42C194.71,192.7 195.21,192.85 195.79,192.85C196.28,192.85 196.68,192.76 196.98,192.59C197.27,192.41 197.5,192.21 197.65,191.98C197.8,191.76 197.9,191.56 197.95,191.39C198.01,191.21 198.03,191.12 198.03,191.12H199.5C199.5,191.12 199.48,191.22 199.44,191.42C199.4,191.63 199.31,191.88 199.17,192.19C199.04,192.49 198.84,192.79 198.56,193.1C198.29,193.4 197.94,193.65 197.49,193.86C197.04,194.06 196.48,194.16 195.79,194.16ZM204.77,185.36C205.3,185.36 205.75,185.45 206.11,185.62C206.48,185.79 206.77,185.99 206.99,186.22C207.22,186.45 207.39,186.66 207.51,186.86H207.6V185.52H209.12V194H207.6V192.66H207.51C207.39,192.86 207.22,193.08 206.99,193.31C206.77,193.55 206.48,193.75 206.11,193.92C205.75,194.08 205.3,194.16 204.77,194.16C204.13,194.16 203.57,194.04 203.09,193.79C202.61,193.54 202.21,193.2 201.89,192.78C201.57,192.36 201.33,191.88 201.17,191.36C201.01,190.84 200.93,190.3 200.93,189.76C200.93,189.22 201.01,188.68 201.17,188.16C201.33,187.64 201.57,187.17 201.89,186.75C202.21,186.32 202.61,185.99 203.09,185.74C203.57,185.49 204.13,185.36 204.77,185.36ZM205.02,186.66C204.46,186.66 203.99,186.81 203.6,187.12C203.22,187.42 202.93,187.8 202.74,188.27C202.55,188.74 202.46,189.24 202.46,189.76C202.46,190.27 202.55,190.77 202.74,191.25C202.93,191.72 203.22,192.11 203.6,192.42C203.99,192.71 204.46,192.86 205.02,192.86C205.59,192.86 206.06,192.71 206.43,192.42C206.82,192.11 207.1,191.72 207.28,191.25C207.47,190.77 207.57,190.27 207.57,189.76C207.57,189.24 207.47,188.74 207.28,188.27C207.1,187.8 206.82,187.42 206.43,187.12C206.06,186.81 205.59,186.66 205.02,186.66ZM211.01,194L211.03,181.84H212.53V194H211.01ZM221.64,194.16C220.94,194.16 220.34,194.04 219.81,193.79C219.29,193.54 218.85,193.2 218.5,192.78C218.16,192.36 217.9,191.88 217.72,191.36C217.54,190.84 217.46,190.3 217.46,189.76C217.46,189.22 217.54,188.69 217.72,188.18C217.89,187.65 218.14,187.18 218.48,186.75C218.84,186.32 219.27,185.99 219.8,185.74C220.32,185.49 220.93,185.36 221.64,185.36C222.32,185.36 222.88,185.46 223.33,185.66C223.78,185.87 224.14,186.12 224.4,186.43C224.68,186.73 224.88,187.04 225.01,187.34C225.15,187.64 225.24,187.89 225.28,188.1C225.33,188.3 225.35,188.4 225.35,188.4H223.88C223.88,188.4 223.85,188.32 223.8,188.14C223.74,187.96 223.64,187.76 223.49,187.54C223.34,187.31 223.12,187.12 222.82,186.94C222.52,186.76 222.13,186.67 221.64,186.67C221.05,186.67 220.55,186.82 220.15,187.12C219.75,187.41 219.46,187.79 219.25,188.26C219.06,188.73 218.96,189.23 218.96,189.76C218.96,190.29 219.06,190.79 219.25,191.26C219.46,191.73 219.75,192.12 220.15,192.42C220.55,192.7 221.05,192.85 221.64,192.85C222.13,192.85 222.52,192.76 222.82,192.59C223.12,192.41 223.34,192.21 223.49,191.98C223.64,191.76 223.74,191.56 223.8,191.39C223.85,191.21 223.88,191.12 223.88,191.12H225.35C225.35,191.12 225.33,191.22 225.28,191.42C225.24,191.63 225.15,191.88 225.01,192.19C224.88,192.49 224.68,192.79 224.4,193.1C224.14,193.4 223.78,193.65 223.33,193.86C222.88,194.06 222.32,194.16 221.64,194.16ZM229.7,194.16C228.86,194.16 228.19,193.9 227.68,193.38C227.18,192.85 226.93,192.13 226.93,191.2V185.52H228.45V191.12C228.45,191.68 228.6,192.1 228.9,192.4C229.21,192.7 229.62,192.85 230.12,192.85C230.63,192.85 231.04,192.71 231.35,192.45C231.66,192.18 231.88,191.84 232.02,191.42C232.16,191.01 232.23,190.58 232.23,190.14V185.52H233.75V194H232.23V192.78H232.13C232.07,192.91 231.95,193.09 231.76,193.31C231.58,193.52 231.33,193.72 231,193.9C230.67,194.07 230.23,194.16 229.7,194.16ZM235.49,194V185.52H237.01V186.58H237.08C237.26,186.26 237.53,185.97 237.88,185.73C238.23,185.48 238.73,185.36 239.37,185.36C239.55,185.36 239.71,185.37 239.86,185.39C240.01,185.4 240.09,185.41 240.09,185.41V186.86C240.09,186.86 240,186.86 239.83,186.85C239.67,186.83 239.5,186.82 239.32,186.82C238.58,186.82 238.01,187.03 237.61,187.46C237.21,187.87 237.01,188.55 237.01,189.5V194H235.49ZM241.26,194V185.52H242.78V186.58H242.85C243.03,186.26 243.29,185.97 243.65,185.73C244,185.48 244.49,185.36 245.13,185.36C245.31,185.36 245.48,185.37 245.63,185.39C245.78,185.4 245.85,185.41 245.85,185.41V186.86C245.85,186.86 245.77,186.86 245.6,186.85C245.44,186.83 245.27,186.82 245.09,186.82C244.35,186.82 243.78,187.03 243.37,187.46C242.98,187.87 242.78,188.55 242.78,189.5V194H241.26ZM250.24,194.16C249.55,194.16 248.95,194.04 248.43,193.79C247.93,193.54 247.52,193.2 247.19,192.77C246.87,192.34 246.63,191.87 246.47,191.36C246.31,190.84 246.23,190.3 246.23,189.76C246.23,189.23 246.3,188.7 246.45,188.18C246.61,187.65 246.85,187.18 247.17,186.75C247.5,186.32 247.91,185.99 248.4,185.74C248.9,185.49 249.49,185.36 250.18,185.36C250.9,185.36 251.54,185.52 252.1,185.86C252.65,186.19 253.09,186.68 253.41,187.33C253.73,187.98 253.89,188.79 253.89,189.78V190.22H247.76C247.79,190.7 247.91,191.15 248.1,191.55C248.3,191.95 248.58,192.27 248.95,192.51C249.31,192.75 249.74,192.86 250.24,192.86C250.68,192.86 251.03,192.79 251.3,192.66C251.57,192.51 251.79,192.34 251.95,192.14C252.11,191.95 252.22,191.79 252.27,191.65C252.34,191.5 252.37,191.42 252.37,191.42H253.79C253.79,191.42 253.77,191.52 253.71,191.71C253.66,191.89 253.56,192.12 253.43,192.38C253.29,192.65 253.08,192.92 252.82,193.2C252.55,193.47 252.21,193.7 251.79,193.89C251.38,194.07 250.86,194.16 250.24,194.16ZM247.78,189.04H252.4C252.38,188.49 252.26,188.04 252.05,187.7C251.84,187.34 251.56,187.08 251.23,186.91C250.9,186.74 250.55,186.66 250.18,186.66C249.51,186.66 248.96,186.88 248.53,187.31C248.1,187.74 247.85,188.32 247.78,189.04ZM255.46,194V185.52H256.98V186.75H257.08C257.15,186.62 257.28,186.45 257.45,186.22C257.63,186 257.89,185.8 258.22,185.63C258.55,185.45 258.96,185.36 259.46,185.36C260.08,185.36 260.61,185.5 261.05,185.79C261.48,186.07 261.82,186.45 262.04,186.93C262.27,187.41 262.39,187.95 262.39,188.54V194H260.87V188.64C260.87,188.07 260.71,187.6 260.39,187.23C260.08,186.86 259.63,186.67 259.03,186.67C258.55,186.67 258.16,186.79 257.86,187.04C257.57,187.27 257.34,187.59 257.19,187.98C257.05,188.37 256.98,188.78 256.98,189.22V194H255.46ZM268.15,194.16C267.46,194.16 266.85,194.04 266.33,193.79C265.8,193.54 265.37,193.2 265.02,192.78C264.67,192.36 264.41,191.88 264.23,191.36C264.06,190.84 263.98,190.3 263.98,189.76C263.98,189.22 264.06,188.69 264.23,188.18C264.4,187.65 264.66,187.18 265,186.75C265.35,186.32 265.79,185.99 266.31,185.74C266.83,185.49 267.45,185.36 268.15,185.36C268.83,185.36 269.4,185.46 269.85,185.66C270.3,185.87 270.65,186.12 270.92,186.43C271.2,186.73 271.4,187.04 271.53,187.34C271.67,187.64 271.76,187.89 271.8,188.1C271.84,188.3 271.86,188.4 271.86,188.4H270.39C270.39,188.4 270.36,188.32 270.31,188.14C270.26,187.96 270.16,187.76 270.01,187.54C269.86,187.31 269.63,187.12 269.34,186.94C269.04,186.76 268.64,186.67 268.15,186.67C267.57,186.67 267.07,186.82 266.66,187.12C266.27,187.41 265.97,187.79 265.77,188.26C265.58,188.73 265.48,189.23 265.48,189.76C265.48,190.29 265.58,190.79 265.77,191.26C265.97,191.73 266.27,192.12 266.66,192.42C267.07,192.7 267.57,192.85 268.15,192.85C268.64,192.85 269.04,192.76 269.34,192.59C269.63,192.41 269.86,192.21 270.01,191.98C270.16,191.76 270.26,191.56 270.31,191.39C270.36,191.21 270.39,191.12 270.39,191.12H271.86C271.86,191.12 271.84,191.22 271.8,191.42C271.76,191.63 271.67,191.88 271.53,192.19C271.4,192.49 271.2,192.79 270.92,193.1C270.65,193.4 270.3,193.65 269.85,193.86C269.4,194.06 268.83,194.16 268.15,194.16ZM273.28,197.12C273.04,197.12 272.83,197.11 272.66,197.09C272.49,197.07 272.4,197.06 272.4,197.06V195.76C272.4,195.76 272.49,195.76 272.66,195.78C272.84,195.8 273.03,195.81 273.24,195.81C273.86,195.81 274.38,195.68 274.77,195.41C275.18,195.15 275.52,194.73 275.8,194.13L272.52,185.52H274.1L276.55,192.14L279.01,185.52H280.61L277.33,194.02C276.92,195.08 276.38,195.87 275.72,196.37C275.07,196.87 274.25,197.12 273.28,197.12ZM282.96,194.16C282.66,194.16 282.41,194.06 282.21,193.86C282.02,193.64 281.92,193.4 281.92,193.12C281.92,192.83 282.02,192.59 282.21,192.38C282.41,192.18 282.66,192.08 282.96,192.08C283.26,192.08 283.5,192.18 283.7,192.38C283.9,192.59 284,192.83 284,193.12C284,193.41 283.9,193.65 283.7,193.86C283.5,194.06 283.26,194.16 282.96,194.16ZM67.84,218V206.16H72.07C72.97,206.16 73.73,206.35 74.32,206.72C74.93,207.09 75.38,207.58 75.68,208.18C75.99,208.76 76.15,209.38 76.15,210.02C76.15,210.67 75.99,211.29 75.68,211.89C75.38,212.48 74.93,212.96 74.32,213.34C73.73,213.72 72.97,213.9 72.07,213.9H69.41V218H67.84ZM72.07,207.54H69.41V212.53H72.07C72.63,212.53 73.1,212.4 73.47,212.16C73.85,211.91 74.13,211.6 74.31,211.23C74.5,210.85 74.59,210.45 74.59,210.03C74.59,209.62 74.5,209.22 74.31,208.83C74.13,208.45 73.85,208.14 73.47,207.9C73.1,207.66 72.63,207.54 72.07,207.54ZM77.64,218L77.66,205.84H79.16V218H77.64ZM84.91,218.16C84.22,218.16 83.62,218.04 83.11,217.79C82.6,217.54 82.19,217.2 81.86,216.77C81.54,216.34 81.3,215.87 81.14,215.36C80.98,214.84 80.9,214.3 80.9,213.76C80.9,213.23 80.97,212.7 81.12,212.18C81.28,211.65 81.52,211.18 81.84,210.75C82.17,210.32 82.58,209.99 83.07,209.74C83.57,209.49 84.17,209.36 84.85,209.36C85.57,209.36 86.21,209.52 86.77,209.86C87.32,210.19 87.76,210.68 88.08,211.33C88.4,211.98 88.56,212.79 88.56,213.78V214.22H82.43C82.47,214.7 82.58,215.15 82.77,215.55C82.97,215.95 83.25,216.27 83.62,216.51C83.98,216.75 84.41,216.86 84.91,216.86C85.35,216.86 85.7,216.79 85.97,216.66C86.25,216.51 86.47,216.34 86.63,216.14C86.79,215.95 86.89,215.79 86.95,215.65C87.01,215.5 87.04,215.42 87.04,215.42H88.47C88.47,215.42 88.44,215.52 88.39,215.71C88.33,215.89 88.24,216.12 88.1,216.38C87.96,216.65 87.76,216.92 87.49,217.2C87.22,217.47 86.88,217.7 86.47,217.89C86.05,218.07 85.53,218.16 84.91,218.16ZM82.45,213.04H87.07C87.05,212.49 86.93,212.04 86.72,211.7C86.51,211.34 86.24,211.08 85.91,210.91C85.57,210.74 85.22,210.66 84.85,210.66C84.18,210.66 83.63,210.88 83.2,211.31C82.77,211.74 82.52,212.32 82.45,213.04ZM93.74,209.36C94.27,209.36 94.72,209.45 95.08,209.62C95.44,209.79 95.74,209.99 95.96,210.22C96.19,210.45 96.36,210.66 96.47,210.86H96.57V209.52H98.09V218H96.57V216.66H96.47C96.36,216.86 96.19,217.08 95.96,217.31C95.74,217.55 95.44,217.75 95.08,217.92C94.72,218.08 94.27,218.16 93.74,218.16C93.1,218.16 92.54,218.04 92.06,217.79C91.58,217.54 91.18,217.2 90.86,216.78C90.54,216.36 90.3,215.88 90.14,215.36C89.98,214.84 89.9,214.3 89.9,213.76C89.9,213.22 89.98,212.68 90.14,212.16C90.3,211.64 90.54,211.17 90.86,210.75C91.18,210.32 91.58,209.99 92.06,209.74C92.54,209.49 93.1,209.36 93.74,209.36ZM93.99,210.66C93.43,210.66 92.95,210.81 92.57,211.12C92.19,211.42 91.9,211.8 91.71,212.27C91.52,212.74 91.43,213.24 91.43,213.76C91.43,214.27 91.52,214.77 91.71,215.25C91.9,215.72 92.19,216.11 92.57,216.42C92.95,216.71 93.43,216.86 93.99,216.86C94.56,216.86 95.03,216.71 95.4,216.42C95.79,216.11 96.07,215.72 96.25,215.25C96.44,214.77 96.54,214.27 96.54,213.76C96.54,213.24 96.44,212.74 96.25,212.27C96.07,211.8 95.79,211.42 95.4,211.12C95.03,210.81 94.56,210.66 93.99,210.66ZM102.93,218.16C102.28,218.16 101.74,218.07 101.31,217.89C100.89,217.71 100.56,217.48 100.32,217.22C100.07,216.94 99.89,216.67 99.78,216.4C99.66,216.12 99.58,215.89 99.55,215.71C99.52,215.53 99.5,215.44 99.5,215.44H101.04C101.04,215.44 101.06,215.51 101.09,215.66C101.13,215.8 101.21,215.97 101.33,216.16C101.46,216.34 101.65,216.51 101.9,216.66C102.17,216.79 102.52,216.86 102.96,216.86C103.46,216.86 103.85,216.75 104.13,216.51C104.4,216.27 104.54,215.97 104.54,215.62C104.54,215.31 104.43,215.06 104.21,214.88C103.99,214.7 103.68,214.56 103.28,214.46L102.13,214.19C101.7,214.09 101.3,213.94 100.93,213.76C100.55,213.58 100.25,213.33 100.01,213.02C99.79,212.7 99.68,212.31 99.68,211.84C99.68,211.12 99.95,210.52 100.5,210.06C101.04,209.6 101.75,209.36 102.62,209.36C103.21,209.36 103.69,209.45 104.08,209.62C104.46,209.78 104.77,209.98 104.99,210.22C105.23,210.47 105.4,210.71 105.5,210.96C105.62,211.21 105.69,211.41 105.73,211.58C105.76,211.74 105.78,211.82 105.78,211.82H104.3C104.3,211.82 104.29,211.76 104.25,211.65C104.22,211.52 104.15,211.38 104.03,211.23C103.92,211.07 103.76,210.93 103.54,210.82C103.31,210.69 103.01,210.62 102.64,210.62C102.13,210.62 101.75,210.74 101.52,210.98C101.28,211.21 101.17,211.47 101.17,211.74C101.17,212.01 101.27,212.23 101.49,212.4C101.71,212.56 102,212.68 102.35,212.77L103.52,213.04C104.24,213.21 104.84,213.49 105.31,213.89C105.79,214.27 106.03,214.83 106.03,215.55C106.03,216.02 105.91,216.46 105.66,216.86C105.42,217.26 105.07,217.57 104.61,217.81C104.15,218.04 103.59,218.16 102.93,218.16ZM111.15,218.16C110.46,218.16 109.85,218.04 109.34,217.79C108.84,217.54 108.42,217.2 108.09,216.77C107.77,216.34 107.53,215.87 107.37,215.36C107.21,214.84 107.13,214.3 107.13,213.76C107.13,213.23 107.21,212.7 107.36,212.18C107.52,211.65 107.76,211.18 108.08,210.75C108.41,210.32 108.82,209.99 109.31,209.74C109.81,209.49 110.4,209.36 111.08,209.36C111.81,209.36 112.45,209.52 113,209.86C113.56,210.19 114,210.68 114.32,211.33C114.64,211.98 114.8,212.79 114.8,213.78V214.22H108.67C108.7,214.7 108.81,215.15 109,215.55C109.21,215.95 109.49,216.27 109.85,216.51C110.21,216.75 110.65,216.86 111.15,216.86C111.58,216.86 111.94,216.79 112.2,216.66C112.48,216.51 112.7,216.34 112.86,216.14C113.02,215.95 113.13,215.79 113.18,215.65C113.24,215.5 113.28,215.42 113.28,215.42H114.7C114.7,215.42 114.67,215.52 114.62,215.71C114.57,215.89 114.47,216.12 114.33,216.38C114.19,216.65 113.99,216.92 113.72,217.2C113.46,217.47 113.12,217.7 112.7,217.89C112.28,218.07 111.77,218.16 111.15,218.16ZM108.68,213.04H113.31C113.29,212.49 113.17,212.04 112.96,211.7C112.74,211.34 112.47,211.08 112.14,210.91C111.81,210.74 111.46,210.66 111.08,210.66C110.41,210.66 109.86,210.88 109.44,211.31C109.01,211.74 108.76,212.32 108.68,213.04ZM123.57,218.16C122.88,218.16 122.27,218.04 121.75,217.79C121.23,217.54 120.79,217.2 120.44,216.78C120.1,216.36 119.83,215.88 119.65,215.36C119.48,214.84 119.4,214.3 119.4,213.76C119.4,213.22 119.48,212.69 119.65,212.18C119.82,211.65 120.08,211.18 120.42,210.75C120.77,210.32 121.21,209.99 121.73,209.74C122.26,209.49 122.87,209.36 123.57,209.36C124.26,209.36 124.82,209.46 125.27,209.66C125.72,209.87 126.07,210.12 126.34,210.43C126.62,210.73 126.82,211.04 126.95,211.34C127.09,211.64 127.18,211.89 127.22,212.1C127.26,212.3 127.29,212.4 127.29,212.4H125.81C125.81,212.4 125.79,212.32 125.73,212.14C125.68,211.96 125.58,211.76 125.43,211.54C125.28,211.31 125.06,211.12 124.76,210.94C124.46,210.76 124.06,210.67 123.57,210.67C122.99,210.67 122.49,210.82 122.09,211.12C121.69,211.41 121.39,211.79 121.19,212.26C121,212.73 120.9,213.23 120.9,213.76C120.9,214.29 121,214.79 121.19,215.26C121.39,215.73 121.69,216.12 122.09,216.42C122.49,216.7 122.99,216.85 123.57,216.85C124.06,216.85 124.46,216.76 124.76,216.59C125.06,216.41 125.28,216.21 125.43,215.98C125.58,215.76 125.68,215.56 125.73,215.39C125.79,215.21 125.81,215.12 125.81,215.12H127.29C127.29,215.12 127.26,215.22 127.22,215.42C127.18,215.63 127.09,215.88 126.95,216.19C126.82,216.49 126.62,216.79 126.34,217.1C126.07,217.4 125.72,217.65 125.27,217.86C124.82,218.06 124.26,218.16 123.57,218.16ZM129.03,218V205.84H130.55V210.75H130.65C130.72,210.62 130.84,210.45 131.01,210.22C131.2,210 131.45,209.8 131.78,209.63C132.11,209.45 132.53,209.36 133.03,209.36C133.65,209.36 134.18,209.5 134.61,209.79C135.05,210.07 135.38,210.45 135.61,210.93C135.84,211.41 135.96,211.95 135.96,212.54V218H134.44V212.64C134.44,212.07 134.28,211.6 133.96,211.23C133.65,210.86 133.2,210.67 132.6,210.67C132.12,210.67 131.73,210.79 131.43,211.04C131.13,211.27 130.91,211.59 130.76,211.98C130.62,212.37 130.55,212.78 130.55,213.22V218H129.03ZM141.55,218.16C140.86,218.16 140.26,218.04 139.75,217.79C139.24,217.54 138.83,217.2 138.5,216.77C138.18,216.34 137.94,215.87 137.78,215.36C137.62,214.84 137.54,214.3 137.54,213.76C137.54,213.23 137.61,212.7 137.76,212.18C137.92,211.65 138.16,211.18 138.48,210.75C138.81,210.32 139.22,209.99 139.71,209.74C140.21,209.49 140.81,209.36 141.49,209.36C142.21,209.36 142.85,209.52 143.41,209.86C143.96,210.19 144.4,210.68 144.72,211.33C145.04,211.98 145.2,212.79 145.2,213.78V214.22H139.07C139.11,214.7 139.22,215.15 139.41,215.55C139.61,215.95 139.9,216.27 140.26,216.51C140.62,216.75 141.05,216.86 141.55,216.86C141.99,216.86 142.34,216.79 142.61,216.66C142.89,216.51 143.11,216.34 143.27,216.14C143.43,215.95 143.53,215.79 143.59,215.65C143.65,215.5 143.68,215.42 143.68,215.42H145.11C145.11,215.42 145.08,215.52 145.03,215.71C144.97,215.89 144.88,216.12 144.74,216.38C144.6,216.65 144.4,216.92 144.13,217.2C143.86,217.47 143.52,217.7 143.11,217.89C142.69,218.07 142.17,218.16 141.55,218.16ZM139.09,213.04H143.71C143.69,212.49 143.57,212.04 143.36,211.7C143.15,211.34 142.88,211.08 142.55,210.91C142.21,210.74 141.86,210.66 141.49,210.66C140.82,210.66 140.27,210.88 139.84,211.31C139.41,211.74 139.16,212.32 139.09,213.04ZM150.71,218.16C150.02,218.16 149.41,218.04 148.89,217.79C148.37,217.54 147.93,217.2 147.58,216.78C147.24,216.36 146.98,215.88 146.79,215.36C146.62,214.84 146.54,214.3 146.54,213.76C146.54,213.22 146.62,212.69 146.79,212.18C146.96,211.65 147.22,211.18 147.56,210.75C147.91,210.32 148.35,209.99 148.87,209.74C149.4,209.49 150.01,209.36 150.71,209.36C151.4,209.36 151.96,209.46 152.41,209.66C152.86,209.87 153.21,210.12 153.48,210.43C153.76,210.73 153.96,211.04 154.09,211.34C154.23,211.64 154.32,211.89 154.36,212.1C154.4,212.3 154.43,212.4 154.43,212.4H152.95C152.95,212.4 152.93,212.32 152.87,212.14C152.82,211.96 152.72,211.76 152.57,211.54C152.42,211.31 152.2,211.12 151.9,210.94C151.6,210.76 151.21,210.67 150.71,210.67C150.13,210.67 149.63,210.82 149.23,211.12C148.83,211.41 148.53,211.79 148.33,212.26C148.14,212.73 148.04,213.23 148.04,213.76C148.04,214.29 148.14,214.79 148.33,215.26C148.53,215.73 148.83,216.12 149.23,216.42C149.63,216.7 150.13,216.85 150.71,216.85C151.21,216.85 151.6,216.76 151.9,216.59C152.2,216.41 152.42,216.21 152.57,215.98C152.72,215.76 152.82,215.56 152.87,215.39C152.93,215.21 152.95,215.12 152.95,215.12H154.43C154.43,215.12 154.4,215.22 154.36,215.42C154.32,215.63 154.23,215.88 154.09,216.19C153.96,216.49 153.76,216.79 153.48,217.1C153.21,217.4 152.86,217.65 152.41,217.86C151.96,218.06 151.4,218.16 150.71,218.16ZM156.17,218V205.84H157.69V212.91L161.07,209.52H163.05L159.15,213.38L163.13,218H161.2L157.69,213.92V218H156.17ZM172.09,218.16C171.55,218.16 171.1,218.07 170.74,217.9C170.38,217.73 170.09,217.53 169.86,217.3C169.65,217.06 169.48,216.85 169.35,216.66H169.25V218H167.73V205.84H169.25V210.86H169.35C169.48,210.66 169.65,210.44 169.86,210.21C170.09,209.97 170.38,209.78 170.74,209.62C171.1,209.45 171.55,209.36 172.09,209.36C172.73,209.36 173.29,209.49 173.76,209.74C174.24,209.99 174.65,210.32 174.96,210.75C175.29,211.17 175.52,211.64 175.68,212.16C175.85,212.68 175.93,213.22 175.93,213.76C175.93,214.3 175.85,214.84 175.68,215.36C175.52,215.88 175.29,216.36 174.96,216.78C174.65,217.2 174.24,217.54 173.76,217.79C173.29,218.04 172.73,218.16 172.09,218.16ZM171.83,216.86C172.4,216.86 172.88,216.71 173.25,216.42C173.64,216.11 173.92,215.72 174.1,215.25C174.29,214.77 174.39,214.27 174.39,213.76C174.39,213.24 174.29,212.74 174.1,212.27C173.92,211.8 173.64,211.42 173.25,211.12C172.88,210.81 172.4,210.66 171.83,210.66C171.26,210.66 170.79,210.81 170.4,211.12C170.03,211.42 169.75,211.8 169.56,212.27C169.38,212.74 169.29,213.24 169.29,213.76C169.29,214.27 169.38,214.77 169.56,215.25C169.75,215.72 170.03,216.11 170.4,216.42C170.79,216.71 171.26,216.86 171.83,216.86ZM181.11,209.36C181.65,209.36 182.09,209.45 182.46,209.62C182.82,209.79 183.11,209.99 183.34,210.22C183.56,210.45 183.73,210.66 183.85,210.86H183.95V209.52H185.46V218H183.95V216.66H183.85C183.73,216.86 183.56,217.08 183.34,217.31C183.11,217.55 182.82,217.75 182.46,217.92C182.09,218.08 181.65,218.16 181.11,218.16C180.47,218.16 179.91,218.04 179.43,217.79C178.95,217.54 178.55,217.2 178.23,216.78C177.91,216.36 177.67,215.88 177.51,215.36C177.35,214.84 177.27,214.3 177.27,213.76C177.27,213.22 177.35,212.68 177.51,212.16C177.67,211.64 177.91,211.17 178.23,210.75C178.55,210.32 178.95,209.99 179.43,209.74C179.91,209.49 180.47,209.36 181.11,209.36ZM181.37,210.66C180.8,210.66 180.33,210.81 179.95,211.12C179.56,211.42 179.27,211.8 179.08,212.27C178.9,212.74 178.81,213.24 178.81,213.76C178.81,214.27 178.9,214.77 179.08,215.25C179.27,215.72 179.56,216.11 179.95,216.42C180.33,216.71 180.8,216.86 181.37,216.86C181.93,216.86 182.4,216.71 182.78,216.42C183.16,216.11 183.44,215.72 183.63,215.25C183.82,214.77 183.91,214.27 183.91,213.76C183.91,213.24 183.82,212.74 183.63,212.27C183.44,211.8 183.16,211.42 182.78,211.12C182.4,210.81 181.93,210.66 181.37,210.66ZM191.21,218.16C190.52,218.16 189.91,218.04 189.39,217.79C188.87,217.54 188.43,217.2 188.08,216.78C187.74,216.36 187.48,215.88 187.29,215.36C187.12,214.84 187.04,214.3 187.04,213.76C187.04,213.22 187.12,212.69 187.29,212.18C187.46,211.65 187.72,211.18 188.06,210.75C188.41,210.32 188.85,209.99 189.37,209.74C189.9,209.49 190.51,209.36 191.21,209.36C191.9,209.36 192.46,209.46 192.91,209.66C193.36,209.87 193.71,210.12 193.98,210.43C194.26,210.73 194.46,211.04 194.59,211.34C194.73,211.64 194.82,211.89 194.86,212.1C194.9,212.3 194.93,212.4 194.93,212.4H193.45C193.45,212.4 193.43,212.32 193.37,212.14C193.32,211.96 193.22,211.76 193.07,211.54C192.92,211.31 192.7,211.12 192.4,210.94C192.1,210.76 191.71,210.67 191.21,210.67C190.63,210.67 190.13,210.82 189.73,211.12C189.33,211.41 189.03,211.79 188.83,212.26C188.64,212.73 188.54,213.23 188.54,213.76C188.54,214.29 188.64,214.79 188.83,215.26C189.03,215.73 189.33,216.12 189.73,216.42C190.13,216.7 190.63,216.85 191.21,216.85C191.71,216.85 192.1,216.76 192.4,216.59C192.7,216.41 192.92,216.21 193.07,215.98C193.22,215.76 193.32,215.56 193.37,215.39C193.43,215.21 193.45,215.12 193.45,215.12H194.93C194.93,215.12 194.9,215.22 194.86,215.42C194.82,215.63 194.73,215.88 194.59,216.19C194.46,216.49 194.26,216.79 193.98,217.1C193.71,217.4 193.36,217.65 192.91,217.86C192.46,218.06 191.9,218.16 191.21,218.16ZM196.67,218V205.84H198.19V212.91L201.57,209.52H203.55L199.65,213.38L203.63,218H201.7L198.19,213.92V218H196.67ZM208.23,218L208.25,205.84H209.75V218H208.23ZM215.33,209.36C215.87,209.36 216.31,209.45 216.68,209.62C217.04,209.79 217.33,209.99 217.55,210.22C217.78,210.45 217.95,210.66 218.07,210.86H218.16V209.52H219.68V218H218.16V216.66H218.07C217.95,216.86 217.78,217.08 217.55,217.31C217.33,217.55 217.04,217.75 216.68,217.92C216.31,218.08 215.87,218.16 215.33,218.16C214.69,218.16 214.13,218.04 213.65,217.79C213.17,217.54 212.77,217.2 212.45,216.78C212.13,216.36 211.89,215.88 211.73,215.36C211.57,214.84 211.49,214.3 211.49,213.76C211.49,213.22 211.57,212.68 211.73,212.16C211.89,211.64 212.13,211.17 212.45,210.75C212.77,210.32 213.17,209.99 213.65,209.74C214.13,209.49 214.69,209.36 215.33,209.36ZM215.59,210.66C215.02,210.66 214.55,210.81 214.16,211.12C213.78,211.42 213.49,211.8 213.3,212.27C213.12,212.74 213.03,213.24 213.03,213.76C213.03,214.27 213.12,214.77 213.3,215.25C213.49,215.72 213.78,216.11 214.16,216.42C214.55,216.71 215.02,216.86 215.59,216.86C216.15,216.86 216.62,216.71 216.99,216.42C217.38,216.11 217.66,215.72 217.84,215.25C218.04,214.77 218.13,214.27 218.13,213.76C218.13,213.24 218.04,212.74 217.84,212.27C217.66,211.8 217.38,211.42 216.99,211.12C216.62,210.81 216.15,210.66 215.59,210.66ZM224.7,218.16C223.83,218.16 223.17,217.94 222.72,217.49C222.28,217.04 222.06,216.41 222.06,215.6V210.77H220.54V209.52H222.06V207.39H223.58V209.52H225.65V210.77H223.58V215.6C223.58,216.03 223.7,216.34 223.94,216.54C224.17,216.74 224.51,216.83 224.96,216.83C225.2,216.83 225.42,216.82 225.63,216.78C225.85,216.75 225.95,216.74 225.95,216.74V218.03C225.95,218.03 225.83,218.05 225.58,218.1C225.34,218.14 225.05,218.16 224.7,218.16ZM230.99,218.16C230.3,218.16 229.7,218.04 229.18,217.79C228.68,217.54 228.27,217.2 227.94,216.77C227.62,216.34 227.38,215.87 227.22,215.36C227.06,214.84 226.98,214.3 226.98,213.76C226.98,213.23 227.05,212.7 227.2,212.18C227.36,211.65 227.6,211.18 227.92,210.75C228.25,210.32 228.66,209.99 229.15,209.74C229.65,209.49 230.24,209.36 230.93,209.36C231.65,209.36 232.29,209.52 232.85,209.86C233.4,210.19 233.84,210.68 234.16,211.33C234.48,211.98 234.64,212.79 234.64,213.78V214.22H228.51C228.54,214.7 228.66,215.15 228.85,215.55C229.05,215.95 229.33,216.27 229.7,216.51C230.06,216.75 230.49,216.86 230.99,216.86C231.43,216.86 231.78,216.79 232.05,216.66C232.32,216.51 232.54,216.34 232.7,216.14C232.86,215.95 232.97,215.79 233.02,215.65C233.09,215.5 233.12,215.42 233.12,215.42H234.54C234.54,215.42 234.52,215.52 234.46,215.71C234.41,215.89 234.31,216.12 234.18,216.38C234.04,216.65 233.83,216.92 233.57,217.2C233.3,217.47 232.96,217.7 232.54,217.89C232.13,218.07 231.61,218.16 230.99,218.16ZM228.53,213.04H233.15C233.13,212.49 233.01,212.04 232.8,211.7C232.59,211.34 232.31,211.08 231.98,210.91C231.65,210.74 231.3,210.66 230.93,210.66C230.26,210.66 229.71,210.88 229.28,211.31C228.85,211.74 228.6,212.32 228.53,213.04ZM236.21,218V209.52H237.73V210.58H237.8C237.98,210.26 238.25,209.97 238.6,209.73C238.95,209.48 239.45,209.36 240.09,209.36C240.27,209.36 240.43,209.37 240.58,209.39C240.73,209.4 240.81,209.41 240.81,209.41V210.86C240.81,210.86 240.72,210.86 240.55,210.85C240.39,210.83 240.22,210.82 240.04,210.82C239.3,210.82 238.73,211.03 238.33,211.46C237.93,211.87 237.73,212.55 237.73,213.5V218H236.21ZM243.15,218.16C242.85,218.16 242.6,218.06 242.4,217.86C242.2,217.64 242.11,217.4 242.11,217.12C242.11,216.83 242.2,216.59 242.4,216.38C242.6,216.18 242.85,216.08 243.15,216.08C243.45,216.08 243.69,216.18 243.88,216.38C244.09,216.59 244.19,216.83 244.19,217.12C244.19,217.41 244.09,217.65 243.88,217.86C243.69,218.06 243.45,218.16 243.15,218.16Z"
		fill-opacity="0.7" />
	<path
		fill="none"
		stroke="rgb(169,223,203)"
		stroke-opacity="1.0"
		d="M140,130.04C103.14,151.38 96.11,110.01 110,102C136,87 121.5,64.5 102,64.5"
		stroke-linejoin="round"
		stroke-width="3"
		stroke-linecap="round" />
	<path
		fill="rgb(7,149,95)"
		fill-opacity="1.0"
		d="M87.04,93.92L83.06,92.09L86.96,83.88L77.98,82.84L78.47,78.43L87.44,79.7L85.59,70.77L89.87,69.94L91.56,78.9L99.4,74.36L101.5,78.27L93.62,82.58L100.26,88.75L97.25,91.93L90.71,85.69L87.04,93.92Z" />
	<path
		fill="rgb(7,149,95)"
		fill-opacity="1.0"
		d="M219.93,57.76L217.91,56.02L221.57,51.87L216.49,49.76L217.51,47.26L222.55,49.51L222.96,43.97L225.61,44.21L225.09,49.73L230.44,48.39L231.01,51.03L225.68,52.23L228.53,56.95L226.24,58.31L223.46,53.56L219.93,57.76Z" />
	<path
		fill="rgb(64,191,183)"
		fill-opacity="1.0"
		d="M214,116C215.26,120.9 219.1,124.74 224,126C219.1,127.26 215.26,131.1 214,136C212.74,131.1 208.9,127.26 204,126C208.9,124.74 212.74,120.9 214,116Z" />
	<path
		fill="rgb(64,191,183)"
		fill-opacity="1.0"
		d="M115.47,31.59C116.29,34.77 118.78,37.26 121.97,38.09C118.78,38.91 116.29,41.4 115.47,44.59C114.64,41.4 112.15,38.91 108.97,38.09C112.15,37.26 114.64,34.77 115.47,31.59Z" />
	<path
		fill="rgb(10,143,92)"
		fill-opacity="1.0"
		d="M142.71,126.56L132.8,99.99L184.46,64.24L188.38,91.85L146.8,127.61C145.44,128.78 143.34,128.24 142.71,126.56Z" />
	<path
		fill="rgb(23,122,84)"
		fill-opacity="1.0"
		d="M144.34,126.99L146.34,108.78L164.31,112.55L146.31,128.03C145.48,128.74 144.22,128.07 144.34,126.99Z" />
	<path
		fill="rgb(59,183,136)"
		fill-opacity="1.0"
		d="M133.67,102.31L113.04,97.33C110.67,96.76 110.35,93.53 112.56,92.5L196.82,53.31C198.73,52.42 200.84,54.09 200.42,56.15L186.33,125.2C185.87,127.45 183.37,128.62 181.34,127.53L146.1,108.56L183.54,69.71L133.67,102.31Z" />
	<path
		fill="rgb(60,179,171)"
		fill-opacity="1.0"
		d="M134.52,20.46L133.92,20.02L133.52,20.55L134.01,21.01L134.52,20.46ZM140.15,24.96L140.07,24.21L140.15,24.96ZM158.87,34.31L158.29,33.83L158.29,33.83L158.87,34.31ZM156.88,41.16L157.59,40.92L157.59,40.92L156.88,41.16ZM149.8,45.21L149.1,45.48L149.34,46.09L149.97,45.94L149.8,45.21ZM148.81,42.75L149.51,42.47L148.81,42.75ZM147.59,36.5L148.3,36.74L148.3,36.74L147.59,36.5ZM150.61,31.9L150.04,31.41L150.61,31.9ZM153.85,26.72L153.13,26.51L153.13,26.51L153.85,26.72ZM145.01,21.57L144.62,20.93L144.62,20.93L145.01,21.57ZM150.88,53.69L150.15,53.87L150.15,53.87L150.88,53.69ZM161.11,51.23L161.84,51.05L161.84,51.05L161.11,51.23ZM134.01,21.01C135.79,22.69 136.99,23.87 137.85,24.6C138.28,24.96 138.67,25.25 139.04,25.44C139.41,25.64 139.81,25.75 140.24,25.7L140.07,24.21C140.02,24.22 139.93,24.22 139.73,24.11C139.51,24 139.23,23.8 138.82,23.45C138,22.76 136.86,21.64 135.04,19.92L134.01,21.01ZM159.45,34.79C163.46,29.92 164.86,25.32 164.35,21.42C163.82,17.52 161.4,14.47 158.04,12.68C151.33,9.11 140.93,10.55 133.92,20.02L135.13,20.91C141.73,11.99 151.35,10.82 157.34,14.01C160.33,15.6 162.41,18.27 162.86,21.62C163.31,24.98 162.13,29.18 158.29,33.83L159.45,34.79ZM157.59,40.92C157.39,40.31 157.18,39.67 157.32,38.76C157.46,37.85 157.98,36.57 159.45,34.79L158.29,33.83C156.72,35.74 156.04,37.26 155.84,38.53C155.64,39.82 155.96,40.75 156.17,41.4L157.59,40.92ZM149.97,45.94C151.93,45.47 153.4,45.07 154.5,44.72C155.58,44.37 156.36,44.05 156.88,43.7C157.43,43.33 157.78,42.87 157.84,42.27C157.89,41.77 157.71,41.27 157.59,40.92L156.17,41.4C156.32,41.84 156.36,42.01 156.35,42.12C156.35,42.14 156.36,42.24 156.04,42.45C155.71,42.68 155.1,42.95 154.04,43.29C153,43.63 151.57,44.01 149.62,44.48L149.97,45.94ZM148.12,43.04C148.41,43.75 148.74,44.56 149.1,45.48L150.49,44.94C150.13,44 149.8,43.19 149.51,42.47L148.12,43.04ZM146.88,36.26C146.17,38.33 146.85,39.9 148.12,43.04L149.51,42.47C148.17,39.17 147.81,38.18 148.3,36.74L146.88,36.26ZM150.04,31.41C148.86,32.77 147.58,34.23 146.88,36.26L148.3,36.74C148.89,35.03 149.97,33.78 151.17,32.39L150.04,31.41ZM153.13,26.51C152.54,28.52 151.34,29.91 150.04,31.41L151.17,32.39C152.46,30.92 153.87,29.3 154.57,26.93L153.13,26.51ZM145.39,22.21C148.12,20.59 150.35,20.77 151.71,21.69C153.06,22.61 153.75,24.41 153.13,26.51L154.57,26.93C155.35,24.29 154.51,21.79 152.55,20.45C150.58,19.12 147.7,19.09 144.62,20.93L145.39,22.21ZM140.24,25.7C140.65,25.66 141,25.47 141.3,25.26C141.6,25.05 141.92,24.78 142.26,24.49C142.96,23.89 143.9,23.1 145.39,22.21L144.62,20.93C143.02,21.88 142.01,22.73 141.29,23.35C140.92,23.66 140.67,23.88 140.45,24.03C140.24,24.17 140.13,24.21 140.07,24.21L140.24,25.7ZM150.15,53.87C150.6,55.73 151.68,57 153.03,57.7C154.37,58.38 155.94,58.49 157.37,58.14C158.79,57.79 160.13,56.98 161.01,55.76C161.9,54.52 162.28,52.9 161.84,51.05L160.38,51.4C160.73,52.84 160.42,54.01 159.79,54.88C159.15,55.77 158.14,56.41 157.01,56.68C155.88,56.96 154.69,56.86 153.72,56.36C152.76,55.87 151.96,54.97 151.61,53.52L150.15,53.87ZM161.84,51.05C161.39,49.21 160.32,47.95 158.96,47.25C157.63,46.57 156.06,46.46 154.63,46.8C153.21,47.14 151.86,47.94 150.98,49.16C150.09,50.4 149.71,52.01 150.15,53.87L151.61,53.52C151.26,52.07 151.57,50.91 152.2,50.04C152.84,49.15 153.85,48.53 154.98,48.26C156.11,47.99 157.3,48.09 158.28,48.59C159.24,49.08 160.04,49.97 160.38,51.4L161.84,51.05Z" />
	<path
		fill="rgb(60,179,171)"
		fill-opacity="1.0"
		d="M168.09,28.12L167.76,27.56L167.26,27.86L167.5,28.38L168.09,28.12ZM169.93,31.44L170.11,30.82L170.11,30.82L169.93,31.44ZM177.16,39.78L176.85,39.21L176.85,39.21L177.16,39.78ZM174.8,42.72L175.45,42.77L174.8,42.72ZM170.53,43.26L169.88,43.25L169.87,43.81L170.43,43.9L170.53,43.26ZM170.55,41.87L169.9,41.86L170.55,41.87ZM171.22,38.57L171.71,39L171.71,39L171.22,38.57ZM173.62,36.94L173.33,36.36L173.33,36.36L173.62,36.94ZM176.24,35.07L175.74,34.66L175.74,34.66L176.24,35.07ZM172.98,30.77L172.88,30.13L172.88,30.13L172.98,30.77ZM169.35,47.61L168.71,47.51L168.71,47.51L169.35,47.61ZM174.83,48.48L175.47,48.58L175.47,48.58L174.83,48.48ZM167.5,28.38C168.02,29.55 168.38,30.38 168.65,30.92C168.79,31.19 168.93,31.43 169.09,31.62C169.26,31.82 169.47,31.99 169.75,32.07L170.11,30.82C170.15,30.83 170.14,30.85 170.09,30.78C170.02,30.71 169.93,30.57 169.81,30.33C169.55,29.83 169.23,29.07 168.69,27.85L167.5,28.38ZM177.46,40.36C180.44,38.77 182.12,36.77 182.68,34.68C183.24,32.58 182.64,30.52 181.32,28.92C178.69,25.72 173.18,24.31 167.76,27.56L168.43,28.67C173.35,25.72 178.13,27.09 180.32,29.74C181.41,31.07 181.86,32.71 181.42,34.34C180.98,35.98 179.62,37.74 176.85,39.21L177.46,40.36ZM175.45,42.77C175.48,42.43 175.5,42.13 175.72,41.77C175.94,41.41 176.41,40.92 177.46,40.36L176.85,39.21C175.68,39.84 174.99,40.47 174.61,41.1C174.22,41.74 174.18,42.31 174.16,42.67L175.45,42.77ZM170.43,43.9C171.48,44.07 172.29,44.18 172.9,44.23C173.51,44.28 173.98,44.28 174.34,44.2C174.73,44.13 175.08,43.94 175.27,43.57C175.43,43.28 175.44,42.94 175.45,42.77L174.16,42.67C174.14,42.94 174.12,42.97 174.13,42.96C174.17,42.88 174.23,42.9 174.09,42.93C173.91,42.97 173.59,42.98 173.01,42.93C172.44,42.88 171.68,42.78 170.63,42.62L170.43,43.9ZM169.9,41.86C169.9,42.27 169.89,42.72 169.88,43.25L171.18,43.27C171.19,42.74 171.2,42.28 171.2,41.87L169.9,41.86ZM170.73,38.14C169.89,39.09 169.91,40.1 169.9,41.86L171.2,41.87C171.22,39.96 171.25,39.52 171.71,39L170.73,38.14ZM173.33,36.36C172.48,36.78 171.52,37.25 170.73,38.14L171.71,39C172.3,38.33 173.04,37.96 173.91,37.52L173.33,36.36ZM175.74,34.66C175.08,35.48 174.27,35.89 173.33,36.36L173.91,37.52C174.83,37.06 175.89,36.54 176.75,35.48L175.74,34.66ZM173.07,31.42C174.66,31.19 175.6,31.71 176.01,32.33C176.41,32.95 176.41,33.84 175.74,34.66L176.75,35.48C177.72,34.28 177.85,32.77 177.09,31.61C176.33,30.46 174.82,29.85 172.88,30.13L173.07,31.42ZM169.75,32.07C170.02,32.15 170.27,32.12 170.48,32.07C170.68,32.03 170.91,31.95 171.13,31.88C171.58,31.74 172.18,31.55 173.07,31.42L172.88,30.13C171.89,30.28 171.21,30.49 170.73,30.65C170.48,30.73 170.33,30.78 170.21,30.8C170.09,30.83 170.08,30.81 170.11,30.82L169.75,32.07ZM168.71,47.51C168.54,48.58 168.82,49.49 169.39,50.16C169.95,50.82 170.75,51.22 171.57,51.34C172.38,51.47 173.27,51.34 174,50.88C174.75,50.42 175.3,49.65 175.47,48.58L174.19,48.38C174.08,49.08 173.74,49.52 173.32,49.78C172.88,50.05 172.32,50.14 171.77,50.06C171.21,49.97 170.71,49.71 170.38,49.32C170.07,48.95 169.88,48.42 169.99,47.72L168.71,47.51ZM175.47,48.58C175.64,47.52 175.35,46.61 174.78,45.94C174.22,45.29 173.43,44.89 172.61,44.76C171.79,44.63 170.91,44.76 170.18,45.21C169.43,45.67 168.87,46.45 168.71,47.51L169.99,47.72C170.1,47.01 170.44,46.57 170.86,46.32C171.29,46.05 171.85,45.96 172.4,46.04C172.96,46.13 173.46,46.4 173.79,46.79C174.11,47.16 174.3,47.68 174.19,48.38L175.47,48.58Z" />
</svg>