<!-- Created by Apktool M – https://maximoff.su/apktool -->
<svg
	xmlns="http://www.w3.org/2000/svg"
	xmlns:xlink="http://www.w3.org/1999/xlink"
	version="1.1"
	width="312"
	height="200"
	viewBox="0 0 312 200">
	<path
		fill="rgb(89,202,159)"
		fill-opacity="0.2"
		d="M65.9,168.75C82.19,177.23 112.22,190.38 129.85,189.99C147.48,189.61 160.64,189.71 176.9,175.36C198.16,156.59 225.55,165.86 247.41,160.03C269.27,154.19 285.66,129.1 275.46,94.6C265.26,60.1 236.11,58.91 218.5,48.5C200.89,38.09 195.5,27.5 179.23,17.36C164.12,7.94 130.5,4.36 112.5,31.41C91.02,63.69 87.87,71.12 72.84,76.56C10.63,99.03 31.62,150.92 65.9,168.75Z"
		stroke-opacity="0.2" />
	<path
		fill="rgb(7,149,95)"
		fill-opacity="1.0"
		d="M243,11C244.39,16.4 248.6,20.61 254,22C248.6,23.39 244.39,27.6 243,33C241.61,27.6 237.4,23.39 232,22C237.4,20.61 241.61,16.4 243,11Z" />
	<path
		fill="rgb(234,60,88)"
		fill-opacity="1.0"
		d="M51,172C52.77,178.87 58.13,184.23 65,186C58.13,187.77 52.77,193.13 51,200C49.23,193.13 43.87,187.77 37,186C43.87,184.23 49.23,178.87 51,172Z" />
	<path
		fill="rgb(249,249,249)"
		fill-opacity="1.0"
		stroke="rgb(10,67,45)"
		stroke-opacity="1.0"
		d="M112.18,97.9C116.26,98.94 123.54,94.98 127.46,86.43C132.37,75.74 132,62.63 119.41,50.39C108.96,40.23 102.1,42.45 92.97,34.57C83.84,26.68 77.25,13.14 75.01,16.16C68.65,24.74 84.03,47.05 87.54,51.91C83.3,46.41 74.45,39.21 73.13,42.09C68.57,52.02 84.58,66.75 84.58,66.75C82.56,65.21 78.46,63.02 78.26,66.63C77.82,74.74 93.17,81.78 93.17,81.78C88.91,84.45 86.75,91.41 112.18,97.9Z"
		stroke-width="1" />
	<path
		fill="rgb(255,255,255)"
		fill-opacity="1.0"
		fill-rule="evenodd"
		d="M123.06,93.02C129.64,76.74 122.42,58.25 110.5,55.17C93.86,50.85 76.55,28.26 75.29,15.88C76.6,14.99 79.02,18.15 82.3,22.45C85.23,26.27 88.84,31 92.97,34.56C97.14,38.17 100.84,39.66 104.62,41.19C109.12,43.01 113.73,44.87 119.41,50.39C132,62.63 132.36,75.74 127.46,86.43C126.25,89.07 124.72,91.27 123.06,93.02Z" />
	<path
		fill="rgb(10,67,45)"
		fill-opacity="1.0"
		d="M110.5,55.17L110.63,54.68L110.5,55.17ZM123.06,93.02L123.43,93.36L122.6,92.83L123.06,93.02ZM75.29,15.88L74.79,15.93L74.76,15.63L75.01,15.47L75.29,15.88ZM82.3,22.45L82.7,22.14L82.3,22.45ZM92.97,34.56L92.65,34.94L92.97,34.56ZM104.62,41.19L104.81,40.73L104.81,40.73L104.62,41.19ZM119.41,50.39L119.75,50.03L119.41,50.39ZM127.46,86.43L127.01,86.22L127.46,86.43ZM110.63,54.68C116.8,56.28 121.68,61.84 124.19,68.98C126.7,76.13 126.86,84.95 123.53,93.21L122.6,92.83C125.84,84.81 125.68,76.24 123.25,69.31C120.81,62.37 116.12,57.14 110.38,55.65L110.63,54.68ZM75.79,15.83C76.4,21.87 80.97,30.52 87.51,38.23C94.05,45.92 102.45,52.56 110.63,54.68L110.38,55.65C101.92,53.46 93.35,46.64 86.75,38.87C80.16,31.11 75.44,22.27 74.79,15.93L75.79,15.83ZM81.91,22.75C80.26,20.59 78.85,18.76 77.7,17.57C77.12,16.97 76.64,16.57 76.25,16.37C75.87,16.17 75.68,16.22 75.57,16.29L75.01,15.47C75.55,15.1 76.16,15.2 76.71,15.48C77.24,15.76 77.82,16.25 78.42,16.87C79.62,18.11 81.07,20.01 82.7,22.14L81.91,22.75ZM92.65,34.94C88.47,31.34 84.83,26.57 81.91,22.75L82.7,22.14C85.63,25.98 89.21,30.66 93.3,34.19L92.65,34.94ZM104.43,41.65C100.65,40.12 96.88,38.6 92.65,34.94L93.3,34.19C97.4,37.73 101.03,39.2 104.81,40.73L104.43,41.65ZM119.06,50.75C113.46,45.3 108.91,43.46 104.43,41.65L104.81,40.73C109.32,42.55 114.01,44.44 119.75,50.03L119.06,50.75ZM127.01,86.22C129.42,80.95 130.54,75.1 129.5,69.08C128.47,63.05 125.29,56.81 119.06,50.75L119.75,50.03C126.12,56.22 129.42,62.65 130.49,68.91C131.56,75.17 130.4,81.22 127.92,86.63L127.01,86.22ZM122.7,92.68C124.32,90.96 125.82,88.81 127.01,86.22L127.92,86.63C126.68,89.32 125.12,91.57 123.43,93.36L122.7,92.68Z" />
	<path
		fill="rgb(7,149,95)"
		fill-opacity="1.0"
		d="M227.75,61.43L163.98,21.7C152.68,32.12 130.79,51.97 122.92,74.11C116.52,92.12 83.11,132.58 66.86,133.83L134.01,176.29C147.79,173.17 185.14,135.56 190.51,117.22C194.81,102.54 213.41,74.07 227.75,61.43Z" />
	<path
		fill="rgb(7,149,95)"
		fill-opacity="1.0"
		d="M228.69,64.31C226.21,67.18 220.94,75.66 220.94,75.66C223.15,72.59 227.88,66.3 229.14,65.67L228.69,64.31Z" />
	<path
		fill="rgb(7,149,95)"
		fill-opacity="1.0"
		d="M229.86,67.84C229.12,68.83 227.58,71.06 227.33,72.11C227.97,71.06 229.5,69.5 230.19,68.85L229.86,67.84Z" />
	<path
		fill="rgb(7,149,95)"
		fill-opacity="1.0"
		d="M157.24,178.22C157.24,178.22 144.39,188.08 137.69,188.78L138.48,191.44C142.05,190.8 153.2,183.62 157.24,178.22Z" />
	<path
		fill="rgb(18,125,84)"
		fill-opacity="1.0"
		fill-rule="evenodd"
		d="M227.75,61.43C213.41,74.07 194.81,102.54 190.51,117.22C185.14,135.56 147.79,173.17 134.01,176.29L136.39,184.39C140.25,184.39 144.73,180.81 144.73,180.81C142.82,184.39 139,185.77 136.93,186.2L137.69,188.78C144.39,188.08 157.24,178.22 157.24,178.22C153.2,183.62 142.05,190.8 138.48,191.44L139.88,196.21C153.67,193.09 191.83,156.23 197.2,137.89C201.5,123.22 218.71,92.62 233.01,77.43L230.19,68.85C229.5,69.5 227.97,71.06 227.33,72.11C227.58,71.06 229.12,68.83 229.86,67.84L229.14,65.67C227.88,66.3 223.15,72.59 220.94,75.66C220.94,75.66 226.21,67.18 228.69,64.31L227.75,61.43Z" />
	<path
		fill="rgb(7,149,95)"
		fill-opacity="1.0"
		d="M144.73,180.81C144.73,180.81 140.25,184.39 136.39,184.39L136.93,186.2C139,185.77 142.82,184.39 144.73,180.81Z" />
	<path
		fill="rgb(18,125,84)"
		fill-opacity="1.0"
		d="M81.41,147.43L69.33,139.97L70.21,142.16L81.41,147.43Z" />
	<path
		fill="rgb(49,113,89)"
		fill-opacity="1.0"
		fill-rule="evenodd"
		d="M134.01,176.29L66.86,133.83L69.33,139.97L81.41,147.43L70.21,142.16L74.03,151.63L139.88,196.21L138.48,191.44L137.69,188.78L136.93,186.2L127.29,179.07L136.39,184.39L134.01,176.29Z" />
	<path
		fill="rgb(18,125,84)"
		fill-opacity="1.0"
		d="M136.93,186.2L136.39,184.39L127.29,179.07L136.93,186.2Z" />
	<path
		fill="rgb(55,175,129)"
		fill-opacity="1.0"
		stroke="rgb(103,209,168)"
		stroke-opacity="1.0"
		d="M134.9,168L81.4,135C122.06,110.6 122.4,65.5 164.9,30L216.4,62.5C183.4,97.5 183.4,138 134.9,168Z"
		stroke-width="7" />
	<path
		fill="rgb(8,127,82)"
		fill-opacity="0.34"
		d="M125.31,77.22L108.17,99.55L177.1,139.74L193.15,114.54L125.31,77.22Z"
		stroke-opacity="0.34" />
	<path
		fill="rgb(8,127,82)"
		fill-opacity="0.34"
		d="M193.15,114.54L177.1,139.74L189.82,151.51L203.28,124.15L193.15,114.54Z"
		stroke-opacity="0.34" />
	<path
		fill="rgb(255,220,195)"
		fill-opacity="1.0"
		d="M123.73,69.54L108.74,96.97L178.97,138.41L195.21,110.48L123.73,69.54Z" />
	<path
		fill="rgb(228,174,111)"
		fill-opacity="1.0"
		d="M195.21,110.48L178.97,138.41L191.95,149.72L206.49,123.25L195.21,110.48Z" />
	<path
		fill="rgb(59,183,136)"
		fill-opacity="1.0"
		d="M170.65,71.98m-13.19,-8.49a15.69,15.69 77.75,1 1,26.39 16.97a15.69,15.69 77.75,1 1,-26.39 -16.97" />
	<path
		fill="rgb(14,147,97)"
		fill-opacity="1.0"
		d="M114.04,125.63a14.45,14.57 90,1 0,24.5 15.63a14.45,14.57 90,1 0,-24.5 -15.63z" />
	<path
		fill="none"
		stroke="rgb(46,195,138)"
		stroke-opacity="1.0"
		d="M150.3,65.99C149.78,66.8 148.7,67.03 147.89,66.51C147.08,65.99 146.85,64.91 147.37,64.1C147.9,63.29 148.98,63.06 149.79,63.58C150.59,64.1 150.83,65.18 150.3,65.99Z"
		stroke-width="0.510336" />
	<path
		fill="none"
		stroke="rgb(46,195,138)"
		stroke-opacity="1.0"
		d="M152.8,61.66C152.27,62.47 151.2,62.7 150.39,62.18C149.58,61.65 149.34,60.57 149.87,59.76C150.39,58.95 151.47,58.72 152.28,59.24C153.09,59.77 153.32,60.85 152.8,61.66Z"
		stroke-width="0.510336" />
	<path
		fill="none"
		stroke="rgb(46,195,138)"
		stroke-opacity="1.0"
		d="M156.28,57.2C155.76,58.01 154.68,58.24 153.87,57.72C153.06,57.2 152.83,56.12 153.35,55.31C153.88,54.5 154.96,54.27 155.76,54.79C156.57,55.31 156.81,56.39 156.28,57.2Z"
		stroke-width="0.510336" />
	<path
		fill="none"
		stroke="rgb(46,195,138)"
		stroke-opacity="1.0"
		d="M159.77,52.75C159.25,53.55 158.17,53.79 157.36,53.26C156.55,52.74 156.32,51.66 156.84,50.85C157.36,50.04 158.44,49.81 159.25,50.33C160.06,50.86 160.29,51.94 159.77,52.75Z"
		stroke-width="0.510336" />
	<path
		fill="none"
		stroke="rgb(46,195,138)"
		stroke-opacity="1.0"
		d="M163.38,49.28C162.85,50.09 161.77,50.32 160.96,49.8C160.15,49.28 159.92,48.2 160.45,47.39C160.97,46.58 162.05,46.35 162.86,46.87C163.67,47.39 163.9,48.47 163.38,49.28Z"
		stroke-width="0.510336" />
	<path
		fill="none"
		stroke="rgb(46,195,138)"
		stroke-opacity="1.0"
		d="M167.98,45.7C167.45,46.51 166.37,46.74 165.56,46.22C164.76,45.7 164.52,44.62 165.04,43.81C165.57,43 166.65,42.76 167.46,43.29C168.27,43.81 168.5,44.89 167.98,45.7Z"
		stroke-width="0.510336" />
	<path
		fill="rgb(14,147,97)"
		fill-opacity="1.0"
		d="M183.81,92.14C184.74,92.74 185.97,92.48 186.57,91.55C187.17,90.62 186.9,89.38 185.98,88.78C185.05,88.18 183.81,88.45 183.21,89.38C182.61,90.31 182.88,91.54 183.81,92.14Z" />
	<path
		fill="rgb(14,147,97)"
		fill-opacity="1.0"
		d="M187.06,86.81C187.99,87.41 189.23,87.14 189.83,86.21C190.43,85.29 190.16,84.05 189.23,83.45C188.3,82.85 187.07,83.12 186.47,84.04C185.87,84.97 186.13,86.21 187.06,86.81Z" />
	<path
		fill="rgb(14,147,97)"
		fill-opacity="1.0"
		d="M190.06,81.35C190.99,81.95 192.23,81.69 192.83,80.76C193.43,79.83 193.16,78.59 192.23,77.99C191.3,77.39 190.07,77.66 189.47,78.59C188.87,79.52 189.13,80.75 190.06,81.35Z" />
	<path
		fill="rgb(249,249,249)"
		fill-opacity="1.0"
		stroke="rgb(10,67,45)"
		stroke-opacity="1.0"
		d="M192.05,141.33C188.85,138.6 187.91,130.36 192.65,122.24C198.58,112.08 209.51,104.85 226.77,108.11C241.08,110.82 243.21,117.71 254.91,120.65C266.62,123.59 281.48,121.21 280.3,124.77C276.94,134.91 249.84,135.14 243.84,135.07C250.78,135.37 261.76,138.48 260.16,141.22C254.66,150.65 233.4,146.02 233.4,146.02C235.82,146.79 239.97,148.88 237.13,151.12C230.75,156.14 216.16,147.63 216.16,147.63C216.43,152.65 211.98,158.41 192.05,141.33Z"
		stroke-width="1" />
	<path
		fill="rgb(255,255,255)"
		fill-opacity="1.0"
		fill-rule="evenodd"
		d="M189.79,129.63C199.33,114.89 218.6,110.17 227.98,118.14C241.07,129.28 269.51,130.47 280.37,124.38C280.34,122.79 276.37,122.64 270.96,122.42C266.15,122.22 260.21,121.98 254.91,120.65C249.57,119.31 246.22,117.14 242.8,114.93C238.73,112.29 234.55,109.58 226.77,108.11C209.51,104.85 198.58,112.08 192.65,122.24C191.19,124.74 190.27,127.26 189.79,129.63Z" />
	<path
		fill="rgb(10,67,45)"
		fill-opacity="1.0"
		d="M227.98,118.14L228.3,117.76L227.98,118.14ZM189.79,129.63L189.3,129.53L190.21,129.9L189.79,129.63ZM280.37,124.38L280.61,124.81L280.87,124.67L280.87,124.37L280.37,124.38ZM270.96,122.42L270.98,121.92L270.96,122.42ZM254.91,120.65L254.79,121.14L254.91,120.65ZM242.8,114.93L242.53,115.35V115.35L242.8,114.93ZM226.77,108.11L226.68,108.61L226.77,108.11ZM192.65,122.24L193.09,122.49L192.65,122.24ZM228.3,117.76C223.45,113.63 216.09,112.83 208.81,114.89C201.51,116.94 194.21,121.88 189.37,129.35L190.21,129.9C194.91,122.64 202.01,117.84 209.08,115.85C216.17,113.85 223.14,114.68 227.66,118.53L228.3,117.76ZM280.12,123.94C274.83,126.91 265.13,128.15 255.06,127.22C245,126.3 234.74,123.24 228.3,117.76L227.66,118.53C234.32,124.19 244.82,127.29 254.97,128.22C265.11,129.15 275.05,127.93 280.61,124.81L280.12,123.94ZM270.94,122.92C273.66,123.03 275.97,123.12 277.61,123.38C278.43,123.51 279.03,123.68 279.42,123.88C279.8,124.08 279.87,124.25 279.87,124.39L280.87,124.37C280.86,123.71 280.42,123.28 279.88,122.99C279.35,122.71 278.61,122.53 277.76,122.39C276.05,122.12 273.67,122.03 270.98,121.92L270.94,122.92ZM254.79,121.14C260.15,122.48 266.14,122.72 270.94,122.92L270.98,121.92C266.16,121.72 260.27,121.48 255.04,120.17L254.79,121.14ZM242.53,115.35C245.96,117.56 249.36,119.77 254.79,121.14L255.04,120.17C249.78,118.84 246.49,116.72 243.07,114.5L242.53,115.35ZM226.68,108.61C234.36,110.06 238.47,112.72 242.53,115.35L243.07,114.5C238.98,111.86 234.74,109.11 226.87,107.62L226.68,108.61ZM193.09,122.49C196.01,117.48 200.15,113.21 205.68,110.59C211.2,107.97 218.14,106.99 226.68,108.61L226.87,107.62C218.15,105.97 210.99,106.97 205.25,109.69C199.51,112.41 195.23,116.84 192.22,121.99L193.09,122.49ZM190.28,129.73C190.75,127.42 191.65,124.95 193.09,122.49L192.22,121.99C190.73,124.54 189.79,127.11 189.3,129.53L190.28,129.73Z" />
	<path
		fill="none"
		stroke="rgb(7,149,95)"
		stroke-opacity="1.0"
		d="M193.08,158.89C197.1,161.6 208.04,164.93 216.49,159.76M188.33,166.59C192.34,169.3 195.91,171.13 201.86,170.02"
		stroke-width="1.5"
		stroke-linecap="round"
		stroke-linejoin="round" />
	<path
		fill="none"
		stroke="rgb(7,149,95)"
		stroke-opacity="1.0"
		d="M89.64,102.48C84.98,101.17 75.44,95.51 74.54,83.35M85.39,109.01C80.73,107.7 74.79,105.03 71.96,98.14"
		stroke-width="1.5"
		stroke-linecap="round"
		stroke-linejoin="round" />
	<path
		fill="rgb(14,147,97)"
		fill-opacity="1.0"
		d="M169.35,70.29C167.12,73.08 166.31,72.43 165.82,72.04C165.2,71.54 165.31,70.03 166.76,68.22C168.08,66.56 169.13,66.94 169.64,67.32L170.74,65.91L171.85,64.51C170.52,63.45 167.91,62.88 165.45,64.87L164.01,63.72L161.77,66.51L163.16,67.62C161.39,70.72 161.92,73.49 163.59,74.83C165.04,75.99 168.05,77.22 171.94,72.36C174.17,69.57 175.05,70.28 175.47,70.61C176.01,71.04 176.07,72.51 174.53,74.44C172.47,77.01 171.2,76.32 171,76.19L168.77,78.98C169.96,79.93 172.81,80.71 175.9,77.82L177.3,78.94L179.53,76.16L178.13,75.03C179.9,71.94 179.37,69.16 177.7,67.82C176.25,66.66 173.24,65.44 169.35,70.29Z" />
	<path
		fill="rgb(111,204,169)"
		fill-opacity="1.0"
		d="M125.08,131.89C123,134.46 122.25,133.86 121.8,133.51C121.22,133.04 121.33,131.65 122.67,129.98C123.9,128.46 124.88,128.81 125.35,129.16L126.37,127.86L127.4,126.57C126.17,125.59 123.74,125.07 121.45,126.9L120.12,125.84L118.04,128.41L119.33,129.44C117.69,132.29 118.18,134.84 119.73,136.07C121.07,137.14 123.87,138.27 127.48,133.8C129.56,131.23 130.37,131.88 130.76,132.19C131.26,132.59 131.32,133.94 129.89,135.71C127.98,138.08 126.79,137.45 126.61,137.33L124.54,139.9C125.64,140.77 128.29,141.48 131.16,138.83L132.46,139.86L134.53,137.29L133.23,136.26C134.87,133.41 134.38,130.85 132.84,129.62C131.49,128.55 128.69,127.42 125.08,131.89Z" />
	<path
		fill="none"
		stroke="rgb(46,195,138)"
		stroke-opacity="1.0"
		d="M152.21,134.86C152.83,134.12 153.93,134.02 154.67,134.64C155.41,135.25 155.51,136.35 154.9,137.09C154.28,137.83 153.18,137.93 152.44,137.32C151.7,136.7 151.6,135.6 152.21,134.86Z"
		stroke-width="0.510336" />
	<path
		fill="none"
		stroke="rgb(46,195,138)"
		stroke-opacity="1.0"
		d="M149.21,138.86C149.83,138.12 150.93,138.02 151.67,138.64C152.41,139.25 152.51,140.35 151.9,141.09C151.28,141.83 150.18,141.93 149.44,141.32C148.7,140.7 148.6,139.6 149.21,138.86Z"
		stroke-width="0.510336" />
	<path
		fill="none"
		stroke="rgb(46,195,138)"
		stroke-opacity="1.0"
		d="M145.21,142.86C145.83,142.12 146.93,142.02 147.67,142.64C148.41,143.25 148.51,144.35 147.9,145.09C147.28,145.83 146.18,145.93 145.44,145.32C144.7,144.7 144.6,143.6 145.21,142.86Z"
		stroke-width="0.510336" />
	<path
		fill="none"
		stroke="rgb(46,195,138)"
		stroke-opacity="1.0"
		d="M141.21,146.86C141.83,146.12 142.93,146.02 143.67,146.64C144.41,147.25 144.51,148.35 143.9,149.09C143.28,149.83 142.18,149.93 141.44,149.32C140.7,148.7 140.6,147.6 141.21,146.86Z"
		stroke-width="0.510336" />
	<path
		fill="none"
		stroke="rgb(46,195,138)"
		stroke-opacity="1.0"
		d="M137.21,149.86C137.83,149.12 138.93,149.02 139.67,149.64C140.41,150.25 140.51,151.35 139.9,152.09C139.28,152.83 138.18,152.93 137.44,152.32C136.7,151.7 136.6,150.6 137.21,149.86Z"
		stroke-width="0.510336" />
	<path
		fill="none"
		stroke="rgb(46,195,138)"
		stroke-opacity="1.0"
		d="M132.21,152.86C132.83,152.12 133.93,152.02 134.67,152.64C135.41,153.25 135.51,154.35 134.9,155.09C134.28,155.83 133.18,155.93 132.44,155.32C131.7,154.7 131.6,153.6 132.21,152.86Z"
		stroke-width="0.510336" />
	<path
		fill="rgb(110,199,146)"
		fill-opacity="1.0"
		d="M208.18,60.26C207.73,60.81 207.86,61.59 208.45,61.99L211.42,64C212.01,64.4 212.86,64.28 213.3,63.73C213.75,63.18 213.63,62.4 213.03,62L210.07,59.99C209.47,59.59 208.63,59.71 208.18,60.26Z" />
	<path
		fill="rgb(110,199,146)"
		fill-opacity="1.0"
		d="M205.23,65.99C204.63,65.59 204.51,64.82 204.95,64.26C205.4,63.71 206.24,63.59 206.84,63.99L209.8,66C210.4,66.41 210.52,67.18 210.07,67.73C209.63,68.29 208.79,68.41 208.19,68L205.23,65.99Z" />
	<path
		fill="rgb(110,199,146)"
		fill-opacity="1.0"
		d="M201.73,68.27C201.28,68.82 201.4,69.59 202,70L204.96,72.01C205.56,72.41 206.4,72.29 206.85,71.74C207.29,71.18 207.17,70.41 206.58,70.01L203.61,68C203.02,67.59 202.17,67.71 201.73,68.27Z" />
	<path
		fill="rgb(110,199,146)"
		fill-opacity="1.0"
		d="M198.5,72.27C198.05,72.82 198.18,73.6 198.77,74L201.74,76.01C202.33,76.41 203.18,76.29 203.62,75.74C204.07,75.19 203.95,74.41 203.35,74.01L200.38,72C199.79,71.6 198.95,71.72 198.5,72.27Z" />
	<path
		fill="rgb(110,199,146)"
		fill-opacity="1.0"
		d="M164.18,30.53C163.73,31.05 163.78,31.83 164.31,32.28L166.93,34.52C167.46,34.97 168.26,34.91 168.71,34.4C169.17,33.88 169.11,33.1 168.59,32.65L165.97,30.41C165.44,29.96 164.64,30.02 164.18,30.53Z" />
	<path
		fill="rgb(110,199,146)"
		fill-opacity="1.0"
		d="M161,36.02C160.47,35.57 160.41,34.79 160.87,34.27C161.33,33.76 162.13,33.7 162.65,34.15L165.27,36.39C165.8,36.84 165.86,37.62 165.4,38.13C164.94,38.65 164.14,38.7 163.62,38.26L161,36.02Z" />
	<path
		fill="rgb(110,199,146)"
		fill-opacity="1.0"
		d="M157.56,38.01C157.1,38.53 157.16,39.31 157.68,39.76L160.3,41.99C160.83,42.44 161.63,42.39 162.09,41.87C162.54,41.36 162.49,40.57 161.96,40.13L159.34,37.89C158.81,37.44 158.01,37.49 157.56,38.01Z" />
	<path
		fill="rgb(110,199,146)"
		fill-opacity="1.0"
		d="M154.24,41.75C153.79,42.27 153.84,43.05 154.37,43.5L156.99,45.73C157.52,46.18 158.31,46.13 158.77,45.61C159.23,45.1 159.17,44.31 158.65,43.86L156.02,41.63C155.5,41.18 154.7,41.23 154.24,41.75Z" />
	<path
		fill="rgb(110,199,146)"
		fill-opacity="1.0"
		d="M97.03,123.46C96.58,124.01 96.64,124.85 97.18,125.32L99.82,127.67C100.35,128.14 101.15,128.07 101.6,127.52C102.05,126.96 101.99,126.14 101.46,125.66L98.81,123.32C98.28,122.84 97.49,122.91 97.03,123.46Z" />
	<path
		fill="rgb(110,199,146)"
		fill-opacity="1.0"
		d="M93.9,129.32C93.37,128.85 93.3,128.02 93.76,127.47C94.21,126.92 95.01,126.85 95.54,127.32L98.18,129.67C98.71,130.14 98.77,130.97 98.32,131.52C97.87,132.08 97.07,132.14 96.54,131.67L93.9,129.32Z" />
	<path
		fill="rgb(110,199,146)"
		fill-opacity="1.0"
		d="M89.48,130.48C89.03,131.03 89.09,131.86 89.62,132.33L92.26,134.68C92.79,135.15 93.59,135.08 94.04,134.53C94.5,133.98 94.43,133.15 93.9,132.68L91.26,130.33C90.73,129.86 89.93,129.92 89.48,130.48Z" />
	<path
		fill="rgb(110,199,146)"
		fill-opacity="1.0"
		d="M85.2,133.48C84.75,134.04 84.81,134.87 85.34,135.34L87.99,137.68C88.52,138.16 89.31,138.09 89.77,137.54C90.22,136.99 90.16,136.15 89.63,135.68L86.98,133.33C86.45,132.86 85.65,132.93 85.2,133.48Z" />
	<path
		fill="rgb(110,199,146)"
		fill-opacity="1.0"
		d="M143.03,153.46C142.58,154.01 142.65,154.85 143.18,155.32L145.82,157.67C146.35,158.14 147.15,158.07 147.6,157.52C148.05,156.96 147.99,156.13 147.46,155.66L144.81,153.32C144.28,152.84 143.49,152.91 143.03,153.46Z" />
	<path
		fill="rgb(110,199,146)"
		fill-opacity="1.0"
		d="M139.9,159.32C139.37,158.85 139.3,158.02 139.76,157.47C140.21,156.91 141.01,156.85 141.54,157.32L144.18,159.67C144.71,160.14 144.77,160.97 144.32,161.52C143.87,162.08 143.07,162.14 142.54,161.67L139.9,159.32Z" />
	<path
		fill="rgb(110,199,146)"
		fill-opacity="1.0"
		d="M135.48,160.48C135.03,161.03 135.09,161.86 135.62,162.33L138.26,164.68C138.79,165.15 139.59,165.08 140.04,164.53C140.5,163.98 140.43,163.15 139.9,162.68L137.26,160.33C136.73,159.86 135.93,159.92 135.48,160.48Z" />
	<path
		fill="rgb(110,199,146)"
		fill-opacity="1.0"
		d="M131.2,163.48C130.75,164.04 130.81,164.87 131.34,165.34L133.99,167.68C134.52,168.16 135.32,168.09 135.77,167.54C136.22,166.99 136.16,166.15 135.63,165.68L132.98,163.33C132.45,162.86 131.65,162.93 131.2,163.48Z" />
</svg>